<svg width="48" height="46" viewBox="0 0 48 46" fill="none" xmlns="http://www.w3.org/2000/svg">
<path d="M27.4083 4.53505C28.5691 5.4709 29.329 6.65885 29.5486 8.15505C29.6398 9.85507 29.3646 11.3187 28.2094 12.6454C28.023 12.8515 27.836 13.0505 27.6306 13.2378C27.5673 13.2378 27.504 13.2378 27.4388 13.2378C27.4388 13.3011 27.4388 13.3644 27.4388 13.4296C27.5034 13.4394 27.5681 13.4492 27.6347 13.4592C27.9814 13.5403 28.2954 13.6754 28.6196 13.8192C28.6814 13.8463 28.7433 13.8733 28.807 13.9011C28.9585 13.9673 29.1097 14.0341 29.2609 14.101C29.3165 14.0558 29.3722 14.0107 29.4295 13.9642C29.5044 13.9045 29.5793 13.8448 29.6565 13.7833C29.7299 13.7243 29.8034 13.6653 29.879 13.6046C30.141 13.4175 30.4085 13.2789 30.6994 13.1419C30.6532 13.0666 30.6069 12.9914 30.5593 12.9138C30.4987 12.813 30.4382 12.7123 30.3758 12.6085C30.3157 12.5095 30.2556 12.4104 30.1937 12.3084C29.7525 11.463 29.6992 10.5068 29.9022 9.58047C30.2129 8.65244 30.8119 7.83106 31.6877 7.36649C32.6444 6.92889 33.7095 6.81855 34.7213 7.16007C35.7293 7.58629 36.4373 8.2909 36.86 9.29501C37.1884 10.2062 37.1331 11.2523 36.7626 12.1395C36.5876 12.4904 36.3904 12.8206 36.1658 13.1419C36.2344 13.1759 36.303 13.2099 36.3737 13.245C37.938 14.0807 38.9921 15.3612 39.5703 17.0379C39.7245 17.6028 39.8563 18.2221 39.7142 18.8001C39.4659 19.0451 39.3057 19.1719 38.9585 19.2299C38.8574 19.229 38.7562 19.2282 38.652 19.2273C38.4793 19.2272 38.4793 19.2272 38.303 19.2272C38.1796 19.2252 38.0563 19.2232 37.9291 19.2212C37.8008 19.2205 37.6725 19.2199 37.5442 19.2196C37.2075 19.2181 36.871 19.2143 36.5344 19.2101C36.1904 19.2061 35.8465 19.2044 35.5026 19.2025C34.8285 19.1984 34.1545 19.1918 33.4806 19.1837C33.5069 19.2604 33.5332 19.3371 33.5603 19.4161C33.612 19.5688 33.612 19.5688 33.6649 19.7247C33.6991 19.8251 33.7333 19.9255 33.7686 20.029C33.9831 20.7146 34.1303 21.4383 34.056 22.1567C33.9102 22.4144 33.9102 22.4144 33.6724 22.6362C33.3964 22.6844 33.1766 22.7011 32.9007 22.6971C32.7831 22.6982 32.7831 22.6982 32.6631 22.6993C32.4001 22.7013 32.1372 22.6997 31.8742 22.6982C31.6858 22.6989 31.4974 22.6997 31.309 22.7008C30.797 22.703 30.285 22.7021 29.773 22.7006C29.2377 22.6994 28.7024 22.7005 28.167 22.7013C27.2679 22.7021 26.3689 22.701 25.4698 22.6987C24.4297 22.6961 23.3897 22.6969 22.3496 22.6996C21.4573 22.7018 20.565 22.7021 19.6727 22.7008C19.1395 22.7001 18.6062 22.7 18.073 22.7015C17.5717 22.7029 17.0705 22.702 16.5692 22.6992C16.3851 22.6986 16.2009 22.6987 16.0167 22.6998C15.7657 22.7011 15.5148 22.6995 15.2638 22.6971C15.1905 22.6981 15.1173 22.6992 15.0418 22.7003C14.6803 22.6936 14.5229 22.6649 14.2542 22.415C13.9216 21.8255 14.1408 21.1321 14.2883 20.5084C14.305 20.4335 14.3216 20.3587 14.3388 20.2815C14.4266 19.8985 14.5357 19.5484 14.6839 19.1837C14.6128 19.1846 14.5418 19.1854 14.4686 19.1863C13.7984 19.194 13.1282 19.1998 12.458 19.2036C12.1134 19.2056 11.7689 19.2083 11.4244 19.2127C11.0917 19.2169 10.759 19.2191 10.4263 19.2201C10.238 19.2212 10.0497 19.2242 9.86139 19.2272C9.74623 19.2272 9.63106 19.2273 9.51241 19.2273C9.41125 19.2281 9.3101 19.229 9.20588 19.2299C8.8589 19.1719 8.69871 19.0446 8.45026 18.8001C8.17242 17.7591 8.73793 16.5298 9.21747 15.6234C9.90005 14.5262 10.8469 13.7126 11.9986 13.1419C11.9524 13.0666 11.9061 12.9914 11.8585 12.9138C11.7979 12.813 11.7374 12.7123 11.6749 12.6085C11.6149 12.5095 11.5548 12.4104 11.4929 12.3084C11.0517 11.463 10.9984 10.5068 11.2014 9.58047C11.5121 8.65244 12.1111 7.83106 12.9868 7.36649C13.9436 6.92889 15.0087 6.81855 16.0205 7.16007C17.0284 7.58629 17.7365 8.2909 18.1592 9.29501C18.4876 10.2062 18.4323 11.2523 18.0618 12.1395C17.8868 12.4904 17.6896 12.8206 17.465 13.1419C17.5829 13.2096 17.5829 13.2096 17.7033 13.2787C17.8066 13.3384 17.91 13.3981 18.0164 13.4596C18.1188 13.5186 18.2212 13.5775 18.3266 13.6383C18.5637 13.7817 18.7823 13.9296 18.9994 14.101C19.0999 14.0525 19.2004 14.004 19.304 13.9541C19.4362 13.8911 19.5685 13.8282 19.7007 13.7653C19.7669 13.7333 19.8331 13.7013 19.9013 13.6683C20.4054 13.4296 20.4054 13.4296 20.7257 13.4296C20.7257 13.3663 20.7257 13.3031 20.7257 13.2378C20.6418 13.2011 20.6418 13.2011 20.5563 13.1637C19.5921 12.6343 19.0975 11.3947 18.717 10.4151C18.3291 9.01372 18.6281 7.39937 19.295 6.14299C20.1099 4.8601 21.329 3.95413 22.8085 3.58212C24.4145 3.25505 26.0748 3.54208 27.4083 4.53505ZM20.9175 6.71653C20.2982 7.70338 20.0736 8.74944 20.3087 9.89964C20.6202 10.9465 21.3245 11.875 22.2953 12.4021C23.2648 12.8455 24.4029 12.9479 25.4248 12.6025C26.4808 12.1504 27.2942 11.3292 27.7265 10.2649C28.0863 9.34721 27.9961 8.36457 27.6557 7.45677C27.4734 7.06401 27.2477 6.74988 26.9593 6.42883C26.9089 6.36973 26.8586 6.31064 26.8068 6.24976C26.082 5.45504 25.1427 5.14079 24.0942 5.05623C22.8055 5.09723 21.7186 5.73493 20.9175 6.71653ZM13.0715 9.52502C12.7418 10.0012 12.6909 10.4653 12.7658 11.0321C12.9688 11.7005 13.4142 12.1303 14.0021 12.4837C14.4634 12.6725 15.0201 12.6603 15.4818 12.4792C15.9881 12.1799 16.3412 11.8019 16.6319 11.2898C16.7894 10.6739 16.7564 10.1378 16.4423 9.57972C16.1282 9.14348 15.6931 8.7607 15.1634 8.63456C14.2632 8.52356 13.6259 8.81245 13.0715 9.52502ZM31.7723 9.52502C31.4426 10.0012 31.3917 10.4653 31.4666 11.0321C31.6695 11.7003 32.1156 12.1338 32.7059 12.4841C33.1385 12.663 33.6327 12.6346 34.077 12.504C34.6552 12.2449 35.0251 11.8255 35.3387 11.2838C35.4854 10.6675 35.4568 10.1369 35.1431 9.57972C34.829 9.14348 34.3939 8.7607 33.8642 8.63456C32.964 8.52356 32.3267 8.81245 31.7723 9.52502ZM11.0396 15.9231C10.4925 16.6821 10.4925 16.6821 10.2724 17.5534C11.0059 17.5852 11.7392 17.6069 12.4733 17.6219C12.7226 17.6281 12.9719 17.6366 13.2211 17.6475C14.6525 17.7878 14.6525 17.7878 15.9184 17.2838C16.1725 16.9876 16.3388 16.6587 16.506 16.3067C16.6773 16.0841 16.6773 16.0841 16.8237 15.9231C16.8671 15.8735 16.9104 15.8239 16.9552 15.7729C17.1505 15.5601 17.3536 15.357 17.5609 15.1559C15.394 13.758 12.8136 13.8948 11.0396 15.9231ZM30.6994 15.06C30.6994 15.1549 30.6994 15.2499 30.6994 15.3477C30.8309 15.4793 30.8309 15.4793 31.0041 15.6006C31.2785 15.8226 31.446 16.022 31.6136 16.3323C31.9311 16.8987 32.2485 17.4402 32.8988 17.6397C33.7082 17.7584 34.5193 17.702 35.3327 17.6553C35.5811 17.6471 35.8295 17.6397 36.078 17.633C36.6832 17.6152 37.2875 17.588 37.892 17.5534C37.7023 16.5035 37.0208 15.6672 36.1658 15.06C35.4424 14.6264 34.7135 14.2754 33.8642 14.1969C33.7959 14.1902 33.7277 14.1835 33.6574 14.1766C32.5729 14.1255 31.6071 14.4979 30.6994 15.06ZM18.424 16.5944C18.3524 16.6563 18.2809 16.7183 18.2071 16.7821C17.1307 17.7866 16.3368 19.2113 15.9306 20.6223C15.9306 20.7488 15.9306 20.8754 15.9306 21.0059C21.3107 21.0059 26.6907 21.0059 32.2338 21.0059C32.0177 19.4931 31.2204 18.2036 30.2199 17.0739C30.1669 17.0128 30.1138 16.9518 30.0592 16.8888C28.7246 15.4515 26.6728 14.5414 24.7314 14.4482C22.3068 14.3816 20.2676 14.9932 18.424 16.5944Z" fill="white"/>
<path d="M4.72995 11.5041C5.71883 12.0987 6.19652 13.0391 6.49045 14.1306C6.70906 15.104 6.67435 16.0948 6.6772 17.0878C6.67882 17.301 6.68056 17.5142 6.68242 17.7274C6.68695 18.2848 6.68982 18.8421 6.69234 19.3994C6.69521 19.9697 6.69967 20.5399 6.70399 21.1102C6.71221 22.2262 6.71868 23.3423 6.72403 24.4583C6.7744 24.4189 6.82478 24.3794 6.87668 24.3388C6.944 24.287 7.01131 24.2352 7.08066 24.1818C7.17996 24.1049 7.17996 24.1049 7.28127 24.0263C7.82638 23.654 8.46693 23.5074 9.12157 23.5952C10.1503 23.7927 10.7973 24.3644 11.4771 25.1296C12.3837 26.1238 13.3566 27.0355 14.4063 27.8774C14.7533 28.1589 15.0939 28.4471 15.4331 28.7379C15.4928 28.7884 15.5525 28.8389 15.614 28.891C16.827 29.9359 17.4502 31.2021 17.5763 32.8053C17.5991 33.2835 17.5941 33.7614 17.589 34.2399C17.5885 34.3905 17.5881 34.5411 17.5878 34.6917C17.5867 35.0829 17.5839 35.474 17.5807 35.8651C17.5777 36.2663 17.5764 36.6676 17.575 37.0688C17.5719 37.8522 17.567 38.6356 17.5609 39.419C17.6976 39.4146 17.6976 39.4146 17.8371 39.4101C17.9572 39.4078 18.0774 39.4056 18.2011 39.4032C18.3794 39.3988 18.3794 39.3988 18.5612 39.3944C19.0755 39.4313 19.4079 39.6331 19.7666 39.9944C20.233 40.723 20.174 41.4804 20.1802 42.32C20.183 42.4445 20.1858 42.569 20.1886 42.6972C20.1937 43.4605 20.1773 44.0633 19.6312 44.6464C19.1234 45.1015 18.6787 45.1968 18.0112 45.2036C17.942 45.2046 17.8729 45.2056 17.8017 45.2065C17.5724 45.2095 17.3432 45.2111 17.114 45.2128C16.9518 45.2146 16.7897 45.2165 16.6275 45.2184C16.1948 45.2234 15.762 45.2273 15.3292 45.2308C14.973 45.2337 14.6168 45.2373 14.2607 45.2408C13.389 45.2493 12.5173 45.2566 11.6456 45.2633C11.0414 45.2679 10.4373 45.2743 9.83309 45.2812C9.43891 45.2855 9.04473 45.2886 8.65054 45.291C8.47861 45.2923 8.30668 45.294 8.13476 45.2962C7.903 45.299 7.67131 45.3 7.43954 45.3004C7.25381 45.3018 7.25381 45.3018 7.06432 45.3031C6.43043 45.2395 5.98658 44.9955 5.57321 44.5017C5.20033 43.8788 5.23869 43.2697 5.24273 42.5677C5.24354 42.3508 5.24078 42.1343 5.23774 41.9175C5.23759 41.778 5.23764 41.6386 5.23793 41.4992C5.23775 41.3738 5.23757 41.2484 5.23739 41.1192C5.30793 40.5949 5.53461 40.1457 5.96281 39.8146C6.3987 39.4992 6.75154 39.5026 7.26947 39.5089C7.33678 39.5093 7.40409 39.5097 7.47345 39.5102C7.63922 39.5113 7.80498 39.513 7.97075 39.5149C8.03395 39.0795 8.01698 38.6732 7.76635 38.2972C7.39179 37.8415 6.95796 37.4406 6.53222 37.0338C6.39444 36.8985 6.25689 36.763 6.11956 36.6273C5.75804 36.271 5.39386 35.9177 5.02891 35.5649C4.44698 35.0016 3.86919 34.434 3.2914 33.8665C3.09075 33.6701 2.88898 33.475 2.68698 33.2801C1.48711 32.115 0.251285 30.841 0.189646 29.0694C0.188739 28.9191 0.1884 28.7689 0.188509 28.6186C0.188261 28.5358 0.188013 28.453 0.187758 28.3676C0.187234 28.0913 0.187589 27.8151 0.188111 27.5388C0.188178 27.4424 0.188245 27.346 0.188315 27.2467C0.191183 24.8641 0.258401 22.4836 0.3305 20.1023C0.344135 19.6462 0.357078 19.1901 0.370013 18.734C0.382703 18.2881 0.395688 17.8423 0.408773 17.3964C0.41491 17.187 0.420989 16.9775 0.427004 16.768C0.480117 14.9337 0.480117 14.9337 0.530158 14.0438C0.536042 13.9363 0.541927 13.8289 0.547989 13.7182C0.65318 12.9265 1.11381 12.2806 1.73715 11.7993C2.61384 11.2697 3.76657 11.0522 4.72995 11.5041ZM2.31256 13.5255C1.82291 14.5048 2.07912 16.308 2.04845 17.3852C2.04215 17.6019 2.03583 17.8185 2.02951 18.0352C2.01634 18.4891 2.0034 18.943 1.9906 19.3969C1.97767 19.8539 1.96438 20.3109 1.9507 20.7679C1.90534 22.2856 1.8645 23.8033 1.83305 25.3214C1.831 25.4191 1.82895 25.5168 1.82685 25.6175C1.81583 26.1629 1.80737 26.7083 1.80284 27.2539C1.80128 27.4153 1.79909 27.5768 1.79619 27.7382C1.76961 29.2999 2.10771 30.2687 3.19896 31.4004C3.58725 31.7978 3.98199 32.1886 4.37669 32.5796C4.52176 32.7241 4.66678 32.8686 4.81175 33.0132C5.19126 33.3914 5.5713 33.7691 5.9515 34.1466C6.56213 34.7531 7.17209 35.3602 7.78176 35.9677C7.99473 36.1797 8.20802 36.3913 8.42135 36.603C8.55104 36.732 8.68073 36.8611 8.8104 36.9901C8.86998 37.049 8.92956 37.108 8.99095 37.1687C9.76657 37.9422 9.51415 37.9413 9.60107 39.419C11.6898 39.419 13.7785 39.419 15.9306 39.419C15.939 38.2539 15.939 38.2539 15.9446 37.0888C15.9463 36.6128 15.9483 36.1368 15.9523 35.6608C15.9554 35.2765 15.9571 34.8923 15.9579 34.508C15.9584 34.3622 15.9594 34.2165 15.961 34.0708C15.976 32.6153 15.8071 31.4387 14.7678 30.3623C14.3681 29.9758 13.9441 29.6257 13.5106 29.2781C13.1746 29.0039 12.8539 28.715 12.5339 28.4225C12.3989 28.3004 12.2633 28.1789 12.1245 28.061C11.4801 27.5113 10.8938 26.904 10.3047 26.2963C10.1673 26.1549 10.0291 26.0144 9.89065 25.874C9.80966 25.7909 9.72866 25.7078 9.64521 25.6221C9.31876 25.3388 9.07509 25.2195 8.64206 25.2375C8.31007 25.3343 8.12512 25.4691 7.87485 25.705C7.72301 26.0087 7.71721 26.3355 7.77894 26.6641C8.07452 27.1681 8.45234 27.5529 8.86795 27.9602C8.96897 28.0605 8.96897 28.0605 9.07203 28.1628C9.28589 28.3749 9.50037 28.5864 9.71496 28.7979C9.93048 29.0107 10.1459 29.2237 10.361 29.437C10.4945 29.5694 10.6284 29.7016 10.7625 29.8334C10.8528 29.9228 10.8528 29.9228 10.9449 30.014C11.0246 30.0925 11.0246 30.0925 11.1059 30.1726C11.3122 30.3957 11.3285 30.5127 11.3573 30.8238C11.3273 31.1714 11.3273 31.1714 11.1715 31.4052C10.9437 31.555 10.9437 31.555 10.686 31.621C9.81288 31.4398 9.11565 30.5242 8.50411 29.9077C8.35525 29.7578 8.20539 29.6089 8.05541 29.4602C6.43037 27.8374 5.08134 26.2038 5.07858 23.8098C5.07809 23.7171 5.0776 23.6244 5.0771 23.5289C5.07608 23.3281 5.07525 23.1273 5.07459 22.9265C5.07346 22.6079 5.07159 22.2893 5.0695 21.9707C5.06361 21.065 5.05842 20.1592 5.05521 19.2535C5.05319 18.6988 5.0498 18.1441 5.04555 17.5894C5.0442 17.3789 5.04335 17.1684 5.04305 16.9579C5.09634 14.8923 5.09634 14.8923 4.13469 13.1419C3.83383 12.9414 3.64974 12.8993 3.29105 12.9059C2.8948 12.9888 2.59918 13.2496 2.31256 13.5255ZM6.91583 41.1452C6.91318 41.5428 6.91135 41.9404 6.90984 42.338C6.90903 42.4515 6.90823 42.5651 6.9074 42.682C6.90709 42.7899 6.90678 42.8978 6.90647 43.0089C6.90596 43.1088 6.90546 43.2088 6.90494 43.3118C6.88964 43.5381 6.88964 43.5381 7.01173 43.6386C7.2137 43.6485 7.41602 43.6512 7.61823 43.6514C7.68509 43.6515 7.75195 43.6516 7.82084 43.6518C8.05263 43.652 8.2844 43.6513 8.51619 43.6506C8.59702 43.6505 8.67786 43.6504 8.76114 43.6503C10.7291 43.647 12.6971 43.6229 14.6649 43.5997C14.9244 43.5967 15.1839 43.5938 15.4434 43.591C15.8567 43.5865 16.2699 43.5814 16.6831 43.576C16.8382 43.5741 16.9933 43.5723 17.1483 43.5706C17.3618 43.5683 17.5753 43.5655 17.7889 43.5624C17.9097 43.5609 18.0305 43.5594 18.155 43.5579C18.4148 43.5732 18.4148 43.5732 18.5199 43.4468C18.5295 43.2772 18.5325 43.1072 18.5327 42.9373C18.5328 42.8342 18.5329 42.7311 18.533 42.6249C18.5327 42.5164 18.5323 42.4078 18.5319 42.296C18.5323 42.1875 18.5326 42.0789 18.533 41.9671C18.5329 41.864 18.5328 41.7609 18.5327 41.6547C18.5325 41.5117 18.5325 41.5117 18.5323 41.3658C18.5447 41.1487 18.5447 41.1487 18.424 41.0493C18.1398 41.0396 17.8578 41.0362 17.5735 41.0369C17.4842 41.0367 17.3948 41.0365 17.3027 41.0364C17.0047 41.0359 16.7066 41.0362 16.4086 41.0365C16.2007 41.0365 15.9928 41.0364 15.7849 41.0363C15.3469 41.0361 14.909 41.0363 14.471 41.0368C13.9153 41.0373 13.3596 41.037 12.8039 41.0364C12.3731 41.0361 11.9422 41.0362 11.5114 41.0364C11.3069 41.0365 11.1025 41.0364 10.8981 41.0362C9.56772 41.0351 8.24408 41.0696 6.91583 41.1452Z" fill="white"/>
<path d="M46.2355 11.7034C46.8619 12.1533 47.3321 12.6915 47.5781 13.4296C47.7049 14.6387 47.7114 15.8631 47.7463 17.0773C47.7526 17.2926 47.7589 17.5078 47.7652 17.7231C47.7784 18.1746 47.7914 18.6261 47.8042 19.0775C47.817 19.5306 47.8303 19.9837 47.8441 20.4367C47.9122 22.6921 47.9757 24.9481 47.9919 27.2045C47.9935 27.3922 47.9957 27.5798 47.9986 27.7675C48.0254 29.6138 47.684 30.9323 46.389 32.3231C46.3389 32.3771 46.2889 32.431 46.2373 32.4866C45.7164 33.0433 45.1726 33.5753 44.6249 34.1055C44.3207 34.4006 44.0187 34.6978 43.7164 34.9947C43.3352 35.369 42.9535 35.7425 42.5691 36.1133C42.2547 36.4168 41.9428 36.7225 41.6324 37.0299C41.5148 37.1455 41.3963 37.2603 41.2769 37.3742C40.4961 38.089 40.4961 38.089 40.1688 39.0658C40.1696 39.316 40.1696 39.316 40.1937 39.5149C40.2908 39.5115 40.388 39.5082 40.4881 39.5047C40.6177 39.502 40.7474 39.4994 40.877 39.4969C40.9727 39.4933 40.9727 39.4933 41.0703 39.4896C41.6109 39.4816 41.9871 39.5992 42.3863 39.9674C42.4322 40.0238 42.478 40.0801 42.5253 40.1382C42.5724 40.1946 42.6195 40.251 42.668 40.309C42.9187 40.6683 42.8958 41.0422 42.8984 41.4617C42.8989 41.5302 42.8995 41.5987 42.9001 41.6692C42.901 41.8141 42.9016 41.9589 42.902 42.1038C42.9029 42.3242 42.9059 42.5445 42.9089 42.7648C42.9095 42.9059 42.91 43.0469 42.9104 43.188C42.9116 43.2533 42.9128 43.3187 42.914 43.386C42.9113 43.9588 42.7387 44.3256 42.3754 44.7595C41.8543 45.1977 41.3957 45.3053 40.7249 45.3004C40.6533 45.3003 40.5816 45.3002 40.5078 45.3C40.2632 45.2992 40.0187 45.2961 39.7741 45.2929C39.5966 45.2915 39.4192 45.2902 39.2417 45.2889C38.824 45.2856 38.4063 45.2812 37.9886 45.2764C37.3327 45.2694 36.6769 45.2661 36.021 45.2634C35.3202 45.2605 34.6194 45.2561 33.9187 45.2507C33.4759 45.2473 33.0331 45.2445 32.5903 45.2431C32.1663 45.2416 31.7424 45.2383 31.3185 45.2337C31.1603 45.2322 31.0021 45.2314 30.8439 45.2314C29.1532 45.2296 29.1532 45.2296 28.5417 44.6541C27.9178 43.9618 27.982 43.2443 27.9842 42.3619C27.9827 42.2379 27.9811 42.1138 27.9795 41.986C27.9791 41.1854 27.9945 40.5502 28.5296 39.9164C29.0194 39.5083 29.3148 39.3828 29.9622 39.401C30.0825 39.4036 30.2027 39.4062 30.3267 39.4088C30.4637 39.4138 30.4637 39.4138 30.6035 39.419C30.6029 39.3368 30.6022 39.2547 30.6016 39.1701C30.5958 38.3901 30.5914 37.6101 30.5886 36.8301C30.5871 36.4293 30.5851 36.0284 30.5818 35.6276C30.5787 35.2396 30.577 34.8516 30.5762 34.4635C30.5757 34.3167 30.5747 34.1699 30.5731 34.023C30.5549 32.2545 30.8002 30.6424 32.0728 29.3077C32.744 28.6648 33.4629 28.078 34.1878 27.4972C35.1876 26.6824 36.1084 25.7892 36.969 24.8299C37.6711 24.0536 38.3345 23.6563 39.3905 23.5652C40.213 23.5777 40.8356 23.9424 41.4404 24.4583C41.4408 24.3416 41.4411 24.2248 41.4415 24.1046C41.445 22.9986 41.4506 21.8926 41.458 20.7866C41.4618 20.2182 41.4649 19.6497 41.4664 19.0813C41.4679 18.5316 41.4712 17.9819 41.4757 17.4322C41.4771 17.2236 41.4779 17.015 41.478 16.8064C41.4793 15.1599 41.5181 13.3797 42.6759 12.0754C43.6355 11.1703 45.1012 10.9611 46.2355 11.7034ZM43.6282 13.602C43.2112 14.3685 43.1382 15.1707 43.1406 16.0288C43.1399 16.168 43.1399 16.168 43.1391 16.3099C43.1381 16.5099 43.1376 16.7099 43.1374 16.9099C43.137 17.2273 43.1354 17.5447 43.1335 17.8621C43.1282 18.7642 43.1252 19.6662 43.1229 20.5683C43.1213 21.1215 43.1184 21.6746 43.1147 22.2278C43.1136 22.4375 43.1131 22.6472 43.113 22.8569C43.1129 24.971 42.7983 26.4749 41.3445 28.1026C41.2221 28.2407 41.2221 28.2407 41.0973 28.3817C40.5007 29.0452 39.8745 29.6805 39.2467 30.3143C39.1691 30.3931 39.0915 30.4719 39.0116 30.5531C38.0521 31.5141 38.0521 31.5141 37.4964 31.603C37.2207 31.555 37.2207 31.555 36.993 31.4052C36.7679 31.0676 36.7638 30.8999 36.8371 30.5001C37.4232 29.6358 38.3263 28.9115 39.0688 28.1817C39.25 28.0034 39.4306 27.8245 39.6112 27.6455C39.6668 27.5912 39.7224 27.5368 39.7798 27.4808C40.1837 27.0794 40.3675 26.8528 40.4214 26.2864C40.4131 25.9877 40.3818 25.8906 40.2236 25.6211C39.9058 25.329 39.6847 25.2291 39.2526 25.2195C38.3089 25.5341 37.5574 26.6115 36.8751 27.3095C36.3594 27.8314 35.8318 28.3153 35.2566 28.7711C34.9194 29.0427 34.6008 29.3332 34.2811 29.625C34.0734 29.813 33.8618 29.995 33.6484 30.1764C32.8338 30.8941 32.3865 31.614 32.2338 32.7058C32.2258 32.9329 32.2225 33.1602 32.223 33.3874C32.2229 33.453 32.2229 33.5185 32.2229 33.5861C32.223 33.8009 32.2237 34.0157 32.2245 34.2305C32.2247 34.3802 32.2248 34.5299 32.2249 34.6796C32.2253 35.0722 32.2262 35.4647 32.2273 35.8573C32.2284 36.3291 32.2289 36.8008 32.2294 37.2726C32.2303 37.9881 32.2322 38.7035 32.2338 39.419C34.3226 39.419 36.4113 39.419 38.5634 39.419C38.595 38.8809 38.6266 38.3429 38.6593 37.7886C38.882 37.4393 39.0275 37.2818 39.3306 37.0214C39.4869 36.8676 39.6405 36.7113 39.7944 36.555C40.0402 36.3061 40.2894 36.0608 40.5384 35.8152C40.7432 35.613 40.9475 35.4103 41.1518 35.2075C41.7319 34.6314 42.3124 34.0556 42.8944 33.4813C43.2516 33.1287 43.608 32.7751 43.9637 32.4209C44.0986 32.287 44.2338 32.1534 44.3694 32.0202C45.7859 30.6534 45.7859 30.6534 46.3553 28.8122C46.3552 28.6883 46.3551 28.5644 46.355 28.4367C46.3551 28.3669 46.3552 28.2971 46.3553 28.2251C46.3553 27.9916 46.3537 27.7581 46.352 27.5245C46.3514 27.3556 46.3507 27.1867 46.3501 27.0178C46.3383 24.821 46.2693 22.6251 46.2036 20.4295C46.19 19.9702 46.177 19.5109 46.1641 19.0515C46.1514 18.6032 46.1384 18.1549 46.1253 17.7065C46.1192 17.4955 46.1131 17.2844 46.1071 17.0733C46.0911 16.5145 46.0734 15.9558 46.0524 15.3971C46.0467 15.241 46.0417 15.0849 46.0374 14.9287C46.0317 14.7281 46.0238 14.5277 46.0152 14.3272C46.0114 14.2194 46.0076 14.1116 46.0037 14.0005C45.9184 13.5685 45.684 13.3343 45.3484 13.064C44.6116 12.7458 44.0584 12.951 43.6282 13.602ZM29.6445 41.1452C29.635 41.3148 29.632 41.4848 29.6318 41.6547C29.6316 41.7578 29.6315 41.8609 29.6314 41.9671C29.6318 42.0756 29.6321 42.1842 29.6325 42.296C29.6321 42.4045 29.6318 42.5131 29.6314 42.6249C29.6315 42.728 29.6316 42.8311 29.6318 42.9373C29.6319 43.0327 29.632 43.128 29.6321 43.2262C29.6197 43.4433 29.6197 43.4433 29.7404 43.5427C29.9519 43.5546 30.1638 43.5598 30.3756 43.5624C30.4757 43.5638 30.4757 43.5638 30.5778 43.5653C30.8011 43.5683 31.0245 43.5707 31.2479 43.5731C31.4049 43.5751 31.562 43.5771 31.719 43.5791C32.1395 43.5845 32.56 43.5892 32.9805 43.5938C33.2396 43.5966 33.4986 43.5997 33.7577 43.6027C35.7211 43.6259 37.6846 43.6478 39.6482 43.6506C39.7688 43.651 39.7688 43.651 39.8918 43.6514C40.11 43.6519 40.3281 43.6518 40.5462 43.6514C40.6628 43.6512 40.7794 43.6511 40.8996 43.651C41.1454 43.6674 41.1454 43.6674 41.2486 43.5427C41.257 43.3649 41.2589 43.1869 41.258 43.0089C41.2577 42.901 41.2573 42.7932 41.257 42.682C41.2562 42.5685 41.2554 42.4549 41.2546 42.338C41.2542 42.224 41.2537 42.1101 41.2533 41.9927C41.2521 41.7102 41.2505 41.4277 41.2486 41.1452C39.8195 41.0638 38.3957 41.035 36.9645 41.0365C36.7547 41.0365 36.545 41.0364 36.3352 41.0363C35.9007 41.0361 35.4662 41.0363 35.0316 41.0368C34.4736 41.0373 33.9156 41.037 33.3576 41.0364C32.9269 41.0361 32.4961 41.0362 32.0654 41.0364C31.8593 41.0365 31.6533 41.0364 31.4473 41.0362C31.1618 41.036 30.8763 41.0363 30.5909 41.0369C30.5056 41.0367 30.4203 41.0365 30.3325 41.0363C29.9585 41.0004 29.9585 41.0004 29.6445 41.1452Z" fill="white"/>
<path d="M33.3847 2.20915C33.5018 2.27201 33.6189 2.33482 33.736 2.39758C34.8866 3.02417 35.8863 3.80533 36.8371 4.70259C36.9078 4.76712 36.9785 4.83166 37.0514 4.89814C38.9768 6.72117 40.1201 9.24913 40.2296 11.8952C40.2214 12.2261 40.1953 12.3715 40.0438 12.6744C39.7371 12.9104 39.5231 12.9433 39.1387 12.9501C38.8129 12.8444 38.7602 12.7659 38.5633 12.4706C38.5305 12.21 38.5058 11.953 38.4854 11.6914C38.2373 9.14398 36.9879 6.97425 35.0288 5.33682C33.3217 3.96099 31.3599 3.01255 29.2609 2.40096C29.1967 2.38218 29.1326 2.3634 29.0665 2.34406C24.5196 1.05542 19.4059 1.65525 15.2611 3.88837C12.7968 5.26592 10.7374 7.35821 9.93791 10.1137C9.78265 10.7033 9.71294 11.2979 9.67847 11.906C9.65461 12.2385 9.62622 12.4377 9.42125 12.7059C9.15332 12.9009 8.97295 12.9434 8.64205 12.9501C8.30361 12.7963 8.17906 12.6872 7.97074 12.3747C7.68302 10.3644 8.67681 7.97432 9.82883 6.40485C10.2408 5.87901 10.6771 5.38011 11.1355 4.8944C11.2 4.82368 11.2646 4.75297 11.331 4.68012C14.1208 1.73361 18.6178 0.228587 22.5897 0.0120321C26.3453 -0.0826802 30.0478 0.35726 33.3847 2.20915Z" fill="white"/>
<path d="M31.5625 41.5288C31.84 41.7778 31.9328 41.9283 31.9941 42.296C31.9316 42.671 31.8568 42.8192 31.5625 43.0632C31.1503 43.1502 30.8189 43.1331 30.4537 42.9194C30.2596 42.5818 30.2361 42.2928 30.3158 41.9124C30.6909 41.4248 30.973 41.3865 31.5625 41.5288Z" fill="white"/>
<path d="M17.465 41.5288C17.6988 41.6786 17.6988 41.6786 17.8486 41.9124C17.9248 42.2949 17.906 42.5798 17.7107 42.9194C17.3455 43.1331 17.0141 43.1502 16.6019 43.0632C16.3076 42.8192 16.2328 42.671 16.1703 42.296C16.2293 41.9419 16.3541 41.7839 16.6019 41.5288C16.9074 41.376 17.1391 41.4557 17.465 41.5288Z" fill="white"/>
</svg>
