<svg width="54" height="54" viewBox="0 0 54 54" fill="none" xmlns="http://www.w3.org/2000/svg">
<path d="M2.83443 0.106286C2.93509 0.105505 3.03574 0.104724 3.13945 0.103919C3.25029 0.103585 3.36114 0.10325 3.47534 0.102906C3.65168 0.101787 3.65168 0.101787 3.83158 0.100644C4.2276 0.0982807 4.62363 0.0966746 5.01966 0.0950817C5.23067 0.0940054 5.44168 0.0928507 5.65269 0.0916867C8.30996 0.0770798 10.9673 0.0703036 13.6246 0.0648234C13.9706 0.0640973 14.3165 0.063359 14.6625 0.0626082C14.7485 0.0624223 14.8345 0.0622363 14.9231 0.0620447C16.3154 0.0589314 17.7076 0.0522232 19.0999 0.0440979C20.5297 0.0358229 21.9595 0.0310847 23.3893 0.0297032C24.1919 0.0288329 24.9945 0.0263783 25.7971 0.0198964C26.4809 0.0143776 27.1645 0.0120304 27.8482 0.0137959C28.197 0.0145972 28.5454 0.0133949 28.8941 0.00910507C31.2498 -0.0183678 31.2498 -0.0183678 31.8793 0.534124C32.0196 0.703491 32.1552 0.876841 32.2856 1.05396C32.4436 1.21231 32.604 1.36827 32.7667 1.52186C32.9331 1.68772 33.0993 1.85385 33.2653 2.02022C33.4029 2.15759 33.4029 2.15759 33.5433 2.29774C33.7915 2.54557 34.0395 2.79362 34.2874 3.0418C34.548 3.3027 34.8089 3.56334 35.0697 3.82402C35.5066 4.26076 35.9433 4.69771 36.3799 5.13479C36.8844 5.63982 37.3892 6.14447 37.8943 6.64893C38.3293 7.08354 38.7642 7.51835 39.1989 7.95332C39.458 8.21252 39.7171 8.47165 39.9764 8.7306C40.2645 9.01841 40.5523 9.30665 40.84 9.59493C40.9257 9.6805 41.0115 9.76606 41.0999 9.85422C41.178 9.93262 41.2561 10.011 41.3366 10.0918C41.4046 10.1598 41.4725 10.2278 41.5426 10.2979C41.8529 10.632 41.9454 10.8357 41.9422 11.2821C41.942 11.383 41.9418 11.4839 41.9416 11.5879C41.9397 11.7537 41.9397 11.7537 41.9378 11.923C41.9374 12.0396 41.9369 12.1562 41.9364 12.2763C41.9354 12.53 41.934 12.7837 41.9322 13.0373C41.9284 13.6468 41.9291 14.2562 41.9291 14.8657C41.929 15.8013 41.9271 16.7368 41.92 17.6723C41.9147 18.3713 41.9143 19.0701 41.9167 19.769C41.9167 20.0351 41.9151 20.3011 41.9118 20.5671C41.817 22.1844 41.817 22.1844 42.4794 23.5785C42.635 23.7054 42.7934 23.8291 42.9555 23.9476C44.1121 25.3591 44.8464 27.1838 45.3381 28.92C45.3912 29.1031 45.3912 29.1031 45.4453 29.2899C46.157 32.302 45.6925 35.8838 44.1628 38.5713C44.0742 38.8193 44.112 38.9284 44.1986 39.1756C44.339 39.3601 44.339 39.3601 44.5222 39.533C44.5913 39.6018 44.6604 39.6706 44.7317 39.7415C44.808 39.8159 44.8843 39.8903 44.9629 39.9669C45.0429 40.0461 45.1229 40.1254 45.2053 40.207C45.3794 40.3792 45.5538 40.551 45.7285 40.7225C46.0053 40.9944 46.2811 41.2674 46.5566 41.5406C47.2909 42.2687 48.0266 42.9952 48.7634 43.7207C49.2938 44.2429 49.8229 44.7663 50.3509 45.2908C50.5333 45.4714 50.7161 45.6516 50.8995 45.8312C51.1569 46.0833 51.4126 46.337 51.668 46.5911C51.7435 46.6642 51.8189 46.7373 51.8967 46.8126C52.5102 47.4284 53.0667 48.1843 53.0726 49.0884C53.0733 49.1883 53.074 49.2883 53.0747 49.3912C53.0727 49.492 53.0707 49.5927 53.0686 49.6965C53.0706 49.7977 53.0726 49.8988 53.0747 50.0031C53.0688 50.8731 52.8014 51.4588 52.2269 52.105C52.1415 52.1798 52.056 52.2546 51.9679 52.3316C51.8932 52.4022 51.8184 52.4727 51.7413 52.5453C50.8048 53.1905 49.8613 53.2672 48.7566 53.1604C47.4276 52.8899 46.4784 51.6226 45.5639 50.7029C45.4609 50.5997 45.3578 50.4965 45.2548 50.3934C44.9872 50.1254 44.7199 49.8571 44.4527 49.5887C44.1786 49.3135 43.9041 49.0386 43.6297 48.7636C43.0939 48.2267 42.5584 47.6895 42.0232 47.1521C42.0228 47.2596 42.0223 47.3672 42.0219 47.478C42.0196 47.8815 42.014 48.285 42.0074 48.6885C42.005 48.8623 42.0035 49.0361 42.0029 49.2099C41.999 50.2199 41.9917 51.0531 41.4016 51.9173C41.3439 52.0113 41.2863 52.1053 41.2268 52.2022C40.6044 52.8078 39.8894 53.1727 39.0228 53.1746C38.8929 53.1751 38.763 53.1756 38.6292 53.1762C38.4843 53.1762 38.3393 53.1763 38.1944 53.1763C38.041 53.1767 37.8877 53.1772 37.7343 53.1777C37.3118 53.1789 36.8893 53.1795 36.4668 53.18C36.0116 53.1806 35.5563 53.1818 35.101 53.1829C34.0009 53.1855 32.9008 53.187 31.8007 53.1883C31.4901 53.1887 31.1794 53.1891 30.8687 53.1895C28.9396 53.1921 27.0106 53.1944 25.0816 53.1957C24.6346 53.196 24.1877 53.1963 23.7408 53.1966C23.6297 53.1967 23.5186 53.1968 23.4042 53.1969C21.605 53.1982 19.8057 53.2016 18.0065 53.2059C16.1595 53.2103 14.3125 53.2128 12.4655 53.2133C11.4284 53.2137 10.3913 53.2149 9.35422 53.2183C8.4709 53.2212 7.5876 53.2224 6.70428 53.2212C6.25369 53.2207 5.80315 53.221 5.35256 53.2235C4.93967 53.2258 4.52684 53.2258 4.11395 53.2238C3.96496 53.2235 3.81598 53.2241 3.667 53.2256C2.75136 53.2346 2.0895 53.1399 1.3118 52.6424C1.21779 52.5847 1.12378 52.527 1.02692 52.4676C0.354827 51.7768 0.0529724 51.0378 0.0545081 50.0889C0.0542334 50.007 0.0539586 49.9251 0.0536755 49.8407C0.0528768 49.5639 0.0528208 49.2872 0.0527589 49.0105C0.0523432 48.8109 0.0518833 48.6114 0.0513831 48.4119C0.0501417 47.8619 0.0495581 47.3118 0.0490854 46.7618C0.0484692 46.1692 0.0472664 45.5767 0.0461549 44.9841C0.0436127 43.5522 0.0420988 42.1202 0.0407618 40.6883C0.0403774 40.2839 0.0399657 39.8796 0.0395443 39.4753C0.0369301 36.9656 0.0346434 34.4559 0.0333569 31.9462C0.0330543 31.3647 0.0327471 30.7832 0.0324346 30.2016C0.0323962 30.1294 0.0323576 30.0571 0.032318 29.9827C0.031059 27.6406 0.0278539 25.2985 0.0235338 22.9564C0.018975 20.4804 0.0163126 18.0044 0.0157547 15.5284C0.0154008 14.1786 0.0141807 12.8289 0.0107716 11.4791C0.00787314 10.3296 0.00673071 9.1802 0.00789139 8.03073C0.00842923 7.4442 0.00812606 6.85769 0.00556424 6.27117C0.00323786 5.73406 0.00330805 5.19701 0.00527458 4.6599C0.00556515 4.46575 0.00498167 4.27159 0.00342914 4.07744C-0.0104497 2.22859 -0.0104495 2.22859 0.586658 1.36473C0.644346 1.27072 0.702033 1.17671 0.761468 1.07986C1.32739 0.529232 2.03649 0.110555 2.83443 0.106286ZM2.4513 2.50424C2.17402 3.02461 2.09554 3.45807 2.10142 4.04783C2.10097 4.12751 2.10052 4.20718 2.10005 4.28927C2.09892 4.55596 2.09999 4.8226 2.10106 5.08929C2.10071 5.28254 2.10021 5.47578 2.0996 5.66903C2.0983 6.19985 2.09894 6.73066 2.0999 7.26149C2.1006 7.83404 2.09952 8.40658 2.09866 8.97913C2.09728 10.1007 2.09758 11.2222 2.09848 12.3438C2.09918 13.2551 2.09928 14.1665 2.09894 15.0779C2.09889 15.2076 2.09885 15.3372 2.0988 15.4708C2.0987 15.7341 2.0986 15.9975 2.09849 16.2609C2.09763 18.6607 2.09853 21.0606 2.10015 23.4605C2.10163 25.6512 2.1015 27.842 2.10001 30.0327C2.09835 32.4941 2.09769 34.9555 2.09865 37.4169C2.09875 37.6793 2.09884 37.9417 2.09894 38.2041C2.09899 38.3332 2.09904 38.4623 2.09909 38.5953C2.09935 39.5058 2.0989 40.4162 2.09817 41.3267C2.0973 42.436 2.09753 43.5453 2.09919 44.6546C2.10001 45.2207 2.10033 45.7868 2.0993 46.353C2.09837 46.8711 2.09888 47.3891 2.10054 47.9072C2.10088 48.0948 2.1007 48.2824 2.09995 48.47C2.09901 48.7247 2.09998 48.9794 2.10142 49.2342C2.10069 49.3072 2.09996 49.3802 2.09921 49.4554C2.10511 49.9751 2.212 50.3252 2.4513 50.7778C3.09865 51.2168 3.85487 51.1319 4.61162 51.128C4.75872 51.1284 4.90582 51.1289 5.05291 51.1295C5.45618 51.1308 5.85943 51.1301 6.2627 51.1292C6.69797 51.1285 7.13324 51.1296 7.56851 51.1304C8.42084 51.1318 9.27316 51.1315 10.1255 51.1306C10.8182 51.1299 11.5109 51.1298 12.2036 51.1301C12.3022 51.1302 12.4008 51.1302 12.5024 51.1303C12.7027 51.1304 12.903 51.1305 13.1033 51.1306C14.9813 51.1315 16.8594 51.1305 18.7375 51.1288C20.349 51.1274 21.9604 51.1276 23.5719 51.1291C25.4433 51.1307 27.3146 51.1314 29.186 51.1304C29.3856 51.1303 29.5851 51.1302 29.7847 51.1301C29.8829 51.1301 29.981 51.13 30.0822 51.13C30.7741 51.1297 31.4659 51.1302 32.1578 51.1309C33.001 51.1318 33.8441 51.1315 34.6873 51.1299C35.1175 51.1291 35.5477 51.1288 35.9779 51.1298C36.3717 51.1307 36.7656 51.1302 37.1595 51.1285C37.3693 51.128 37.5791 51.129 37.7889 51.1301C38.4449 51.1259 38.9675 51.1212 39.537 50.7778C39.7656 50.4349 39.7722 50.3203 39.7792 49.9202C39.7815 49.8085 39.7838 49.6968 39.7862 49.5817C39.7874 49.461 39.7887 49.3402 39.7899 49.2158C39.792 49.0294 39.792 49.0294 39.7942 48.8391C39.7966 48.5758 39.7984 48.3125 39.7996 48.0491C39.8024 47.6471 39.8102 47.2453 39.818 46.8433C39.8197 46.5875 39.8212 46.3316 39.8223 46.0757C39.8254 45.9558 39.8284 45.8359 39.8316 45.7123C39.8285 45.1286 39.8083 44.759 39.3928 44.3262C39.117 44.0846 39.117 44.0846 38.7617 44.0298C38.6757 44.0688 38.5897 44.1078 38.5011 44.1479C38.3852 44.1976 38.2693 44.2473 38.1498 44.2985C38.0165 44.3604 37.8832 44.4224 37.75 44.4846C37.1562 44.7524 36.5622 44.98 35.9372 45.1644C35.8366 45.1946 35.8366 45.1946 35.734 45.2254C34.5776 45.5533 33.4322 45.6407 32.2338 45.6371C32.1611 45.637 32.0884 45.6369 32.0135 45.6368C28.4022 45.622 25.1692 44.2274 22.5739 41.7265C22.1004 41.237 21.6764 40.7221 21.2616 40.1831C21.2177 40.1275 21.1738 40.0718 21.1285 40.0145C20.9941 39.7971 20.9941 39.7971 20.8933 39.4692C20.7212 39.027 20.5705 38.7127 20.1654 38.4504C19.2657 38.2044 18.2837 38.2943 17.3582 38.3207C16.9817 38.3299 16.6052 38.3313 16.2287 38.3334C15.516 38.3387 14.8035 38.3506 14.091 38.3651C13.0451 38.3861 11.9991 38.3969 10.9531 38.4078C10.7986 38.4095 10.644 38.4111 10.4895 38.4127C10.3763 38.4139 10.3763 38.4139 10.2609 38.4151C9.8131 38.4201 9.36538 38.4268 8.91765 38.4353C8.70631 38.4393 8.49497 38.4428 8.28362 38.4461C8.02619 38.4503 7.76878 38.4553 7.51139 38.4612C7.39769 38.4629 7.28399 38.4646 7.16685 38.4663C7.06833 38.4682 6.96981 38.4701 6.86831 38.4721C6.48901 38.442 6.19539 38.3331 5.89247 38.1032C5.73118 37.8851 5.71811 37.7491 5.71443 37.4792C5.71122 37.4015 5.70802 37.3238 5.70472 37.2437C5.7753 36.9642 5.88527 36.7923 6.09398 36.5935C6.52369 36.342 7.05821 36.4103 7.54116 36.4139C7.66854 36.4128 7.79593 36.4117 7.92717 36.4106C8.27562 36.4081 8.62393 36.4079 8.97238 36.4087C9.33683 36.4091 9.70126 36.4065 10.0657 36.4042C10.7554 36.4003 11.4451 36.3991 12.1348 36.3987C12.9202 36.3983 13.7056 36.3948 14.491 36.3912C16.1062 36.3837 17.7214 36.38 19.3367 36.3786C19.308 36.2599 19.2793 36.1412 19.2497 36.0189C19.2118 35.8604 19.1739 35.7019 19.136 35.5434C19.1171 35.4655 19.0982 35.3875 19.0787 35.3073C18.257 31.8562 18.9082 28.1582 20.7032 25.1252C21.1769 24.365 21.7466 23.6833 22.3408 23.0153C22.4195 22.9261 22.4981 22.8369 22.5792 22.745C24.7919 20.3947 28.1195 18.9572 31.3197 18.8324C34.2011 18.7567 36.736 19.2723 39.2234 20.765C39.5069 20.9606 39.5069 20.9606 39.7442 20.9435C39.7442 18.1061 39.7442 15.2688 39.7442 12.3454C37.2339 12.3319 37.2339 12.3319 34.7237 12.3239C34.2352 12.3197 34.2352 12.3197 34.0056 12.317C33.8472 12.3157 33.6889 12.3153 33.5305 12.3158C32.4052 12.3182 31.5464 12.2234 30.6476 11.4843C30.0761 10.7822 29.7856 10.2216 29.7781 9.30841C29.7771 9.23158 29.7761 9.15474 29.775 9.07558C29.7718 8.82167 29.7692 8.56776 29.7666 8.31385C29.7645 8.13778 29.7623 7.96171 29.7601 7.78564C29.7544 7.32225 29.7493 6.85886 29.7443 6.39547C29.7391 5.9226 29.7333 5.44973 29.7276 4.97687C29.7164 4.04907 29.7059 3.12127 29.6958 2.19346C26.3297 2.18637 22.9637 2.18087 19.5976 2.17759C19.2002 2.1772 18.8028 2.1768 18.4053 2.17639C18.3262 2.17631 18.2471 2.17623 18.1656 2.17614C16.8846 2.17479 15.6036 2.17234 14.3226 2.16949C13.0082 2.16658 11.6937 2.16485 10.3793 2.16422C9.56819 2.1638 8.75715 2.16245 7.94609 2.15993C7.32411 2.15809 6.70214 2.15789 6.08016 2.15831C5.82505 2.15823 5.56994 2.15761 5.31483 2.15642C4.96667 2.15487 4.61857 2.15524 4.27042 2.15609C4.11881 2.15473 4.11881 2.15473 3.96414 2.15335C3.38437 2.15717 2.94776 2.19022 2.4513 2.50424ZM31.7676 3.85092C31.7597 4.60479 31.7543 5.35865 31.7506 6.11256C31.749 6.36888 31.7469 6.62519 31.7442 6.8815C31.7404 7.25051 31.7387 7.61948 31.7373 7.98851C31.7357 8.10259 31.7341 8.21668 31.7324 8.33422C31.7323 8.95052 31.7355 9.43865 32.0784 9.96281C32.6926 10.3646 33.3382 10.314 34.0527 10.3039C34.1713 10.3035 34.2898 10.3031 34.4119 10.3026C34.7887 10.3009 35.1655 10.297 35.5422 10.293C35.7985 10.2914 36.0547 10.29 36.3109 10.2888C36.9374 10.2853 37.5638 10.2801 38.1903 10.2736C37.5958 9.54709 36.929 8.8936 36.2654 8.2313C36.1387 8.10461 36.0121 7.97791 35.8856 7.85119C35.6216 7.58712 35.3575 7.32324 35.0933 7.0595C34.7539 6.72067 34.4149 6.38138 34.0761 6.04195C33.8155 5.78094 33.5546 5.52018 33.2937 5.2595C33.1685 5.13438 33.0434 5.00919 32.9183 4.88392C32.7445 4.70984 32.5704 4.53609 32.3961 4.36243C32.3182 4.28423 32.3182 4.28423 32.2388 4.20444C32.038 3.95804 32.038 3.95804 31.7676 3.85092ZM28.8671 21.3579C28.749 21.3954 28.631 21.4329 28.5094 21.4716C25.4116 22.5752 23.1165 24.8131 21.7141 27.7647C20.6592 30.1543 20.5135 33.0657 21.3049 35.5499C21.3612 35.7269 21.3612 35.7269 21.4186 35.9076C22.5223 39.0054 24.7602 41.3004 27.7118 42.7028C30.1014 43.7577 33.0128 43.9034 35.4969 43.112C35.615 43.0745 35.733 43.037 35.8546 42.9983C38.9524 41.8946 41.2475 39.6568 42.6499 36.7051C43.7734 34.1601 43.8846 30.9818 42.8993 28.379C42.7306 27.962 42.5381 27.5596 42.334 27.159C42.3024 27.0961 42.2709 27.0332 42.2385 26.9685C41.7373 25.9848 41.1063 25.1744 40.3657 24.362C40.3054 24.2931 40.245 24.2242 40.1828 24.1532C38.4901 22.3237 35.7682 21.0907 33.2995 20.9205C31.7804 20.8687 30.3227 20.8941 28.8671 21.3579ZM42.5411 40.833C42.3531 41.0257 42.1743 41.2198 41.9973 41.4222C41.6173 41.8553 41.2311 42.2344 40.7801 42.5941C40.9187 42.9022 41.0711 43.1181 41.3097 43.3564C41.3759 43.4231 41.4421 43.4898 41.5104 43.5585C41.5829 43.6304 41.6555 43.7024 41.7302 43.7765C41.8067 43.8532 41.8832 43.9299 41.962 44.0089C42.215 44.2623 42.4687 44.5149 42.7224 44.7675C42.8982 44.9431 43.0739 45.1188 43.2496 45.2945C43.6178 45.6625 43.9864 46.0302 44.3552 46.3977C44.8288 46.8695 45.3017 47.3421 45.7744 47.8148C46.1371 48.1775 46.5001 48.5399 46.8632 48.9023C47.0377 49.0765 47.2122 49.2507 47.3866 49.425C47.6299 49.6681 47.8735 49.9108 48.1173 50.1535C48.1898 50.2261 48.2624 50.2987 48.3371 50.3735C48.4033 50.4392 48.4696 50.505 48.5378 50.5728C48.5954 50.6302 48.653 50.6877 48.7123 50.7468C49.047 51.0513 49.3984 51.031 49.8322 51.0291C50.277 50.9567 50.5436 50.6997 50.8284 50.3634C50.9496 50.121 50.9671 49.9475 50.9838 49.6771C50.9913 49.5925 50.9988 49.5078 51.0065 49.4206C50.8211 48.673 49.9776 48.0469 49.4432 47.5128C49.3707 47.44 49.2981 47.3671 49.2234 47.292C48.9865 47.0541 48.7492 46.8166 48.5118 46.5791C48.3461 46.4131 48.1804 46.247 48.0147 46.081C47.669 45.7346 47.323 45.3885 46.9769 45.0424C46.5325 44.598 46.0887 44.1528 45.6452 43.7075C45.304 43.3652 44.9624 43.0234 44.6207 42.6817C44.4567 42.5176 44.2929 42.3534 44.1294 42.189C43.9017 41.9603 43.6735 41.7324 43.445 41.5045C43.3771 41.4361 43.3093 41.3677 43.2394 41.2971C42.9451 40.9538 42.9451 40.9538 42.5411 40.833Z" fill="white"/>
<path d="M35.1861 23.5333C35.3526 23.5914 35.3526 23.5914 35.5224 23.6507C37.7831 24.5204 39.5188 26.2469 40.5729 28.4021C41.4771 30.551 41.6609 33.0198 40.8836 35.2391C40.8473 35.3465 40.811 35.4538 40.7736 35.5645C39.948 37.7544 38.2595 39.5559 36.1573 40.5676C33.9664 41.5023 31.4501 41.7349 29.1778 40.9366C29.0668 40.8979 28.9559 40.8592 28.8415 40.8193C26.5808 39.9496 24.8452 38.223 23.7911 36.0678C22.8875 33.9204 22.7012 31.4485 23.4803 29.2308C23.5384 29.0644 23.5384 29.0644 23.5976 28.8946C24.4674 26.6339 26.1939 24.8982 28.3491 23.8441C30.4965 22.9405 32.9684 22.7542 35.1861 23.5333ZM29.903 25.6051C29.808 25.6428 29.7131 25.6804 29.6152 25.7192C27.7824 26.4986 26.4381 27.8037 25.6557 29.6452C25.0927 31.1223 24.9407 33.0295 25.5521 34.514C25.5898 34.6089 25.6274 34.7039 25.6662 34.8017C26.4456 36.6345 27.7507 37.9788 29.5922 38.7612C31.0693 39.3243 32.9765 39.4762 34.461 38.8648C34.5559 38.8272 34.6509 38.7895 34.7487 38.7507C36.5815 37.9713 37.9258 36.6662 38.7082 34.8248C39.2713 33.3476 39.4232 31.4404 38.8118 29.956C38.7741 29.861 38.7365 29.7661 38.6977 29.6683C37.9183 27.8354 36.6132 26.4911 34.7717 25.7087C33.2946 25.1457 31.3874 24.9937 29.903 25.6051Z" fill="white"/>
<path d="M7.40287 7.56555C7.48478 7.56525 7.56669 7.56494 7.65108 7.56462C7.92583 7.56372 8.20057 7.56356 8.47532 7.56341C8.6722 7.56293 8.86908 7.56241 9.06596 7.56185C9.60105 7.56049 10.1361 7.55982 10.6712 7.55936C11.0055 7.55906 11.3398 7.55864 11.6741 7.55817C12.72 7.55676 13.7658 7.55575 14.8117 7.55536C16.0191 7.55489 17.2265 7.55307 18.4339 7.55007C19.3671 7.54783 20.3004 7.54679 21.2336 7.54665C21.791 7.54654 22.3484 7.54593 22.9059 7.54408C23.4302 7.54237 23.9546 7.54215 24.4789 7.54306C24.6712 7.54314 24.8635 7.54269 25.0558 7.54166C25.3187 7.54034 25.5815 7.54095 25.8443 7.54203C25.9201 7.5412 25.9959 7.54036 26.074 7.5395C26.6028 7.54457 26.9575 7.64533 27.4168 7.89088C27.6944 8.30717 27.6961 8.64465 27.624 9.13397C27.4382 9.43131 27.315 9.59923 27.0025 9.75552C26.7322 9.76633 26.4648 9.77083 26.1945 9.77076C26.1101 9.77115 26.0257 9.77153 25.9387 9.77192C25.6542 9.77306 25.3698 9.77346 25.0853 9.77386C24.882 9.7745 24.6787 9.77519 24.4754 9.77592C23.9219 9.77772 23.3684 9.77882 22.8149 9.77967C22.4693 9.7802 22.1238 9.78083 21.7782 9.78148C20.6977 9.78346 19.6172 9.78493 18.5367 9.78579C17.2881 9.78681 16.0396 9.78953 14.7911 9.79372C13.8268 9.79684 12.8626 9.79838 11.8984 9.79872C11.3221 9.79896 10.7459 9.7999 10.1696 9.8025C9.62752 9.8049 9.0855 9.80535 8.54345 9.80428C8.34438 9.80423 8.14531 9.80489 7.94624 9.80631C7.67467 9.80813 7.40321 9.80741 7.13164 9.80605C7.05268 9.80718 6.97371 9.80832 6.89236 9.80949C6.38425 9.80331 6.12218 9.7046 5.76624 9.34115C5.5861 8.98086 5.60156 8.59471 5.66265 8.20165C6.15415 7.54632 6.63506 7.56465 7.40287 7.56555Z" fill="white"/>
<path d="M11.2903 14.8039C11.357 14.8034 11.4237 14.8029 11.4925 14.8024C11.7165 14.8011 11.9405 14.8013 12.1645 14.8015C12.325 14.8008 12.4855 14.8001 12.6459 14.7994C13.0821 14.7975 13.5183 14.797 13.9545 14.7969C14.3185 14.7967 14.6825 14.7959 15.0466 14.7952C15.9053 14.7935 16.7641 14.793 17.6229 14.7932C18.509 14.7933 19.3952 14.7911 20.2813 14.7878C21.0418 14.7851 21.8024 14.784 22.563 14.7841C23.0173 14.7842 23.4716 14.7836 23.926 14.7814C24.3533 14.7794 24.7807 14.7794 25.208 14.7809C25.3648 14.7811 25.5216 14.7806 25.6784 14.7794C25.8926 14.7778 26.1067 14.7787 26.3209 14.7803C26.4407 14.7802 26.5605 14.7801 26.6839 14.78C27.0707 14.8426 27.2424 14.9753 27.5204 15.2459C27.7005 15.6062 27.6851 15.9924 27.624 16.3854C27.3471 16.7546 27.1408 16.9291 26.6917 17.007C26.4789 17.0169 26.2658 17.0209 26.0529 17.0215C25.9217 17.0221 25.7906 17.0227 25.6555 17.0233C25.5104 17.0234 25.3653 17.0236 25.2202 17.0237C25.0672 17.0241 24.9142 17.0247 24.7612 17.0252C24.3458 17.0266 23.9303 17.0273 23.5149 17.0277C23.2552 17.028 22.9955 17.0284 22.7359 17.0289C21.9231 17.0303 21.1103 17.0313 20.2975 17.0317C19.3599 17.0322 18.4222 17.034 17.4846 17.037C16.7594 17.0392 16.0342 17.0403 15.309 17.0404C14.8761 17.0405 14.4432 17.0411 14.0103 17.043C13.6029 17.0447 13.1955 17.0449 12.7882 17.044C12.639 17.0439 12.4898 17.0444 12.3406 17.0454C10.9227 17.0546 10.9227 17.0546 10.3242 16.6962C10.0855 16.4112 10.0206 16.2356 9.97461 15.8675C10.0189 15.5128 10.1107 15.3234 10.3242 15.0387C10.6934 14.7926 10.8521 14.8051 11.2903 14.8039Z" fill="white"/>
<path d="M6.80961 21.9642C6.94205 21.9631 6.94205 21.9631 7.07717 21.962C7.17425 21.9617 7.27133 21.9614 7.37135 21.9611C7.47344 21.9604 7.57553 21.9598 7.68072 21.9591C8.01965 21.957 8.35857 21.9558 8.6975 21.9548C8.81311 21.9544 8.92872 21.9539 9.04783 21.9535C9.65977 21.9513 10.2717 21.9499 10.8836 21.9489C11.516 21.9477 12.1483 21.9442 12.7807 21.9401C13.2666 21.9374 13.7526 21.9365 14.2385 21.9361C14.4716 21.9356 14.7047 21.9344 14.9378 21.9325C15.2642 21.93 15.5905 21.9301 15.9168 21.9308C16.0612 21.9288 16.0612 21.9288 16.2085 21.9268C16.7821 21.9314 17.1275 21.999 17.5756 22.3938C17.7831 22.8336 17.8058 23.0379 17.6727 23.5074C17.4477 23.8849 17.3509 23.9794 16.9541 24.1549C16.6174 24.1996 16.2839 24.1973 15.9447 24.1951C15.793 24.1959 15.793 24.1959 15.6382 24.1967C15.3043 24.1981 14.9705 24.1972 14.6366 24.1962C14.4043 24.1964 14.1719 24.1967 13.9396 24.1971C13.4527 24.1975 12.9658 24.1968 12.479 24.1954C11.8553 24.1936 11.2317 24.1946 10.6081 24.1965C10.1282 24.1976 9.64845 24.1973 9.16864 24.1965C8.93872 24.1963 8.70879 24.1965 8.47887 24.1972C8.15726 24.198 7.83572 24.1968 7.51412 24.1951C7.37194 24.196 7.37194 24.196 7.22689 24.197C6.69882 24.1917 6.32354 24.145 5.86978 23.8441C5.59336 23.4295 5.5762 23.0886 5.6626 22.601C6.00964 22.1626 6.25835 21.9674 6.80961 21.9642Z" fill="white"/>
<path d="M7.51648 29.1104C7.60951 29.1099 7.70254 29.1094 7.79839 29.1089C8.10592 29.1074 8.41345 29.1066 8.72099 29.1061C8.9349 29.1055 9.14882 29.1049 9.36273 29.1043C9.8112 29.1032 10.2597 29.1026 10.7081 29.1022C11.2824 29.1017 11.8567 29.0992 12.431 29.0962C12.8729 29.0943 13.3147 29.0938 13.7566 29.0936C13.9683 29.0933 14.18 29.0925 14.3917 29.0911C14.688 29.0893 14.9843 29.0895 15.2806 29.0902C15.4114 29.0888 15.4114 29.0888 15.5448 29.0873C16.0549 29.0909 16.4116 29.1489 16.8505 29.4379C17.103 29.8482 17.1745 30.0656 17.1095 30.545C16.9277 30.9464 16.8114 31.0741 16.4361 31.3025C16.1084 31.3625 15.786 31.3592 15.4536 31.3562C15.3062 31.3572 15.3062 31.3572 15.1558 31.3584C14.8315 31.3602 14.5073 31.359 14.183 31.3576C13.9574 31.3578 13.7317 31.3583 13.5061 31.3588C13.0334 31.3594 12.5608 31.3585 12.0881 31.3566C11.4823 31.3542 10.8766 31.3556 10.2708 31.358C9.80496 31.3595 9.33913 31.3591 8.87327 31.358C8.64991 31.3577 8.42655 31.358 8.20319 31.359C7.89097 31.3601 7.57887 31.3585 7.26666 31.3562C7.12828 31.3574 7.12828 31.3574 6.98711 31.3587C6.55975 31.3528 6.33979 31.3376 5.97025 31.105C5.63013 30.7436 5.62155 30.4641 5.6262 29.983C5.66261 29.7487 5.66261 29.7487 5.8957 29.4379C6.40331 29.0687 6.90601 29.1112 7.51648 29.1104Z" fill="white"/>
<path d="M7.26675 43.5081C7.40321 43.5071 7.40321 43.5071 7.54244 43.5061C7.84437 43.504 8.1463 43.5028 8.44824 43.5018C8.55127 43.5013 8.65431 43.5009 8.76047 43.5005C9.30591 43.4983 9.85135 43.4968 10.3968 43.4959C10.9602 43.4947 11.5235 43.4912 12.0869 43.4871C12.5201 43.4843 12.9532 43.4835 13.3864 43.4831C13.594 43.4826 13.8017 43.4814 14.0094 43.4795C14.3002 43.477 14.591 43.477 14.8819 43.4778C14.9675 43.4764 15.0531 43.4751 15.1413 43.4737C15.6889 43.4787 16.0018 43.5768 16.4361 43.9408C16.616 44.3006 16.602 44.6879 16.5397 45.0803C16.3137 45.3658 16.1386 45.5398 15.8145 45.7019C15.5239 45.7132 15.2358 45.7182 14.945 45.7186C14.8551 45.7191 14.7651 45.7196 14.6724 45.7201C14.3739 45.7216 14.0753 45.7223 13.7767 45.7229C13.5695 45.7235 13.3622 45.7241 13.155 45.7247C12.7199 45.7258 12.2848 45.7264 11.8498 45.7268C11.2926 45.7273 10.7355 45.7298 10.1784 45.7328C9.75008 45.7347 9.32174 45.7352 8.89338 45.7354C8.68803 45.7357 8.48268 45.7365 8.27734 45.7379C7.98969 45.7397 7.7021 45.7395 7.41445 45.7388C7.32983 45.7397 7.24521 45.7407 7.15803 45.7417C6.6537 45.738 6.30513 45.6734 5.86978 45.3911C5.59336 44.9765 5.5762 44.6356 5.6626 44.148C6.15159 43.5303 6.52028 43.5105 7.26675 43.5081Z" fill="white"/>
<path d="M33.2179 27.5733C34.39 27.8158 35.382 28.5558 36.0739 29.5176C36.5736 30.2971 36.8728 31.045 36.8889 31.9824C36.8931 32.115 36.8972 32.2476 36.9015 32.3842C36.8288 32.8469 36.6976 32.9938 36.3256 33.2708C36.0667 33.3396 36.0667 33.3396 35.8077 33.3355C35.7222 33.3369 35.6368 33.3382 35.5487 33.3396C35.1684 33.2386 35.0135 33.0588 34.7718 32.7528C34.6751 32.4178 34.6751 32.4178 34.6229 32.0536C34.4747 31.2763 34.2718 30.6782 33.6088 30.206C33.1478 29.9528 32.7202 29.8263 32.2014 29.7487C31.831 29.6899 31.6597 29.6424 31.3338 29.4379C31.1037 29.057 31.0841 28.788 31.0773 28.3502C31.3517 27.3171 32.3766 27.4837 33.2179 27.5733Z" fill="white"/>
<path d="M20.0618 43.5263C20.6397 43.8534 20.6397 43.8534 20.7869 44.1478C20.8305 44.4647 20.8372 44.7638 20.7869 45.0801C20.5609 45.3656 20.3859 45.5396 20.0618 45.7017C19.516 45.7637 19.245 45.6244 18.8187 45.2873C18.6388 44.9276 18.6528 44.5402 18.7151 44.1478C19.1206 43.6357 19.4122 43.4638 20.0618 43.5263Z" fill="white"/>
<path d="M7.21647 14.8316C7.56331 15.0772 7.69895 15.2475 7.83802 15.6473C7.83802 16.0791 7.75059 16.3263 7.52724 16.6962C7.115 16.9578 6.90425 17.0226 6.42011 16.9487C5.87089 16.7104 5.87089 16.7104 5.6626 16.3854C5.57484 15.9023 5.59462 15.5619 5.85683 15.1423C6.26398 14.7591 6.67691 14.7496 7.21647 14.8316Z" fill="white"/>
</svg>
