<svg width="31" height="31" viewBox="0 0 31 31" fill="none" xmlns="http://www.w3.org/2000/svg">
<path d="M10.1039 0.374674C10.2306 0.374275 10.3573 0.373751 10.484 0.373112C10.8269 0.371774 11.1697 0.372289 11.5126 0.373223C11.8721 0.37397 12.2315 0.373277 12.5909 0.372816C13.1945 0.372281 13.798 0.372984 14.4015 0.374387C15.0985 0.375988 15.7954 0.375469 16.4924 0.37385C17.0917 0.372513 17.6909 0.372327 18.2902 0.373096C18.6477 0.373554 19.0053 0.373618 19.3628 0.372644C19.699 0.371792 20.0352 0.372388 20.3714 0.374084C20.4945 0.374472 20.6176 0.374363 20.7407 0.373712C22.0126 0.36761 22.0126 0.36761 22.5017 0.803778C22.8876 1.19273 22.9924 1.63646 22.9974 2.16885C22.9959 2.40752 22.9907 2.64589 22.9817 2.88439C23.0675 2.88254 23.0675 2.88254 23.1551 2.88065C23.3704 2.87635 23.5856 2.87367 23.801 2.87146C23.8936 2.87029 23.9862 2.86869 24.0788 2.86663C24.7674 2.85174 25.4106 2.86187 25.9425 3.36621C26.369 3.77914 26.6645 4.19647 26.7025 4.80523C26.7019 4.8795 26.7013 4.95377 26.7006 5.03029C26.7004 5.09016 26.7004 5.09016 26.7001 5.15123C26.6995 5.27713 26.698 5.40301 26.6965 5.5289C26.6959 5.61491 26.6954 5.70092 26.6949 5.78694C26.6936 5.9964 26.6916 6.20585 26.6891 6.41531C26.7282 6.41478 26.7672 6.41426 26.8074 6.41372C27.2141 6.40851 27.6207 6.40496 28.0275 6.40237C28.1792 6.40119 28.3309 6.39959 28.4826 6.39755C28.7009 6.39469 28.9191 6.39336 29.1373 6.39232C29.205 6.3911 29.2727 6.38989 29.3424 6.38864C29.701 6.38854 29.9467 6.39147 30.2201 6.6507C30.4413 6.92595 30.422 7.19197 30.4204 7.52916C30.421 7.61706 30.421 7.61706 30.4216 7.70673C30.4227 7.90022 30.4224 8.09369 30.4221 8.2872C30.4224 8.42183 30.4227 8.55646 30.423 8.69109C30.4236 8.97322 30.4234 9.25533 30.4228 9.53746C30.4222 9.89887 30.4234 10.2603 30.4251 10.6217C30.4262 10.8997 30.4261 11.1777 30.4258 11.4557C30.4258 11.589 30.4262 11.7222 30.4269 11.8555C30.4278 12.0418 30.4271 12.2281 30.4261 12.4145C30.4267 12.4695 30.4273 12.5244 30.4278 12.581C30.4241 12.909 30.3819 13.1001 30.1612 13.3594C29.8339 13.6154 29.4737 13.564 29.0762 13.5617C28.9689 13.5635 28.9689 13.5635 28.8595 13.5653C28.1956 13.5649 28.1956 13.5649 27.925 13.3006C27.7096 13.0287 27.7243 12.7804 27.7284 12.4489C27.7283 12.3932 27.7283 12.3375 27.7283 12.2801C27.7284 12.0964 27.7298 11.9127 27.7312 11.7289C27.7315 11.6014 27.7317 11.4738 27.7319 11.3462C27.7326 11.0108 27.7343 10.6754 27.7363 10.34C27.7381 9.99759 27.7389 9.65519 27.7398 9.31279C27.7417 8.6412 27.7448 7.96962 27.7484 7.29803C27.3988 7.29803 27.0493 7.29803 26.6891 7.29803C26.6894 7.39388 26.6896 7.48973 26.6898 7.58849C26.6949 9.86468 26.6988 12.1409 26.7012 14.4171C26.7014 14.6974 26.7018 14.9776 26.7021 15.2579C26.7021 15.3137 26.7022 15.3695 26.7023 15.427C26.7033 16.33 26.7051 17.2329 26.7073 18.1359C26.7095 19.0627 26.7108 19.9895 26.7113 20.9163C26.7116 21.4881 26.7126 22.0598 26.7145 22.6315C26.7158 23.0237 26.7162 23.416 26.7159 23.8082C26.7157 24.0344 26.7159 24.2606 26.7172 24.4867C26.7186 24.7324 26.7181 24.978 26.7174 25.2236C26.7181 25.2945 26.7188 25.3655 26.7195 25.4385C26.7147 26.1288 26.5414 26.6235 26.0595 27.1204C25.7597 27.4024 25.5031 27.5525 25.1002 27.6597C25.1011 27.7011 25.1021 27.7426 25.103 27.7854C25.1067 27.9764 25.109 28.1674 25.1113 28.3585C25.1135 28.4563 25.1135 28.4563 25.1157 28.5562C25.1209 29.1412 25.0458 29.6913 24.6294 30.1313C24.2852 30.4344 23.9432 30.5572 23.4816 30.5603C23.3693 30.5615 23.3693 30.5615 23.2548 30.5626C23.1738 30.5628 23.0928 30.5629 23.0118 30.563C22.9278 30.5634 22.8438 30.5638 22.7598 30.5642C22.5841 30.5649 22.4083 30.5651 22.2326 30.565C22.0086 30.565 21.7846 30.5666 21.5607 30.5687C21.3872 30.57 21.2138 30.5702 21.0404 30.5701C20.9579 30.5703 20.8754 30.5708 20.7929 30.5717C20.2261 30.5774 19.783 30.5448 19.3441 30.1644C19.3016 30.1146 19.2591 30.0649 19.2154 30.0136C19.1741 29.9711 19.1328 29.9286 19.0903 29.8849C18.6497 29.224 18.8034 28.4869 18.8034 27.7185C16.5119 27.7185 14.2203 27.7185 11.8593 27.7185C11.8593 28.1846 11.8593 28.6507 11.8593 29.1309C11.6851 29.7114 11.5665 30.0283 11.0908 30.3642C10.8126 30.5136 10.5538 30.5582 10.2406 30.5603C10.1284 30.5615 10.1284 30.5615 10.0138 30.5626C9.93284 30.5628 9.85185 30.5629 9.77085 30.563C9.68686 30.5634 9.60288 30.5638 9.51889 30.5642C9.34314 30.5649 9.16739 30.5651 8.99164 30.565C8.76765 30.565 8.54371 30.5666 8.31973 30.5687C8.1463 30.57 7.97288 30.5702 7.79945 30.5701C7.71693 30.5703 7.63442 30.5708 7.55192 30.5717C6.98512 30.5774 6.54207 30.5448 6.10316 30.1644C6.06068 30.1146 6.0182 30.0649 5.97443 30.0136C5.91253 29.9499 5.91253 29.9499 5.84937 29.8849C5.53878 29.419 5.53915 28.9009 5.55145 28.3585C5.55265 28.2572 5.55265 28.2572 5.55387 28.1539C5.55593 27.9891 5.55881 27.8244 5.56249 27.6597C5.51045 27.6448 5.51045 27.6448 5.45736 27.6296C4.8696 27.4498 4.49433 27.0697 4.15931 26.5613C3.97863 26.1963 3.95647 25.8586 3.95823 25.4586C3.95789 25.3768 3.9579 25.3768 3.95755 25.2934C3.95694 25.1113 3.95718 24.9292 3.95741 24.747C3.95715 24.6162 3.95685 24.4854 3.9565 24.3546C3.95571 23.9999 3.95568 23.6451 3.95583 23.2903C3.95589 22.9943 3.9556 22.6983 3.95532 22.4022C3.95463 21.6643 3.95468 20.9264 3.95506 20.1885C3.95536 19.5475 3.9547 18.9064 3.95358 18.2653C3.95244 17.6069 3.95197 16.9485 3.95218 16.29C3.95228 15.9204 3.95213 15.5508 3.95131 15.1812C3.95057 14.834 3.95068 14.4869 3.95145 14.1397C3.95159 14.012 3.95143 13.8843 3.95094 13.7567C3.95033 13.5829 3.9508 13.4092 3.95155 13.2355C3.95112 13.1845 3.95068 13.1336 3.95024 13.0811C3.95338 12.7375 3.95338 12.7375 4.05265 12.6128C4.19994 12.4961 4.3173 12.4841 4.50321 12.4767C4.64017 12.5437 4.74852 12.6043 4.8563 12.7121C4.86199 12.8246 4.86348 12.9372 4.86338 13.0498C4.8635 13.1599 4.8635 13.1599 4.86363 13.2721C4.86342 13.3542 4.8632 13.4362 4.86298 13.5183C4.86297 13.6041 4.86298 13.6899 4.86301 13.7757C4.86303 14.0094 4.86268 14.2431 4.86227 14.4768C4.8619 14.7207 4.86187 14.9647 4.8618 15.2086C4.86161 15.6709 4.86113 16.1332 4.86054 16.5954C4.85988 17.1216 4.85956 17.6477 4.85926 18.1739C4.85865 19.2565 4.85761 20.3391 4.8563 21.4217C4.89681 21.4212 4.93731 21.4207 4.97904 21.4201C5.40099 21.4149 5.82293 21.4114 6.24491 21.4088C6.40235 21.4077 6.55975 21.406 6.71719 21.4039C6.94361 21.4011 7.17001 21.3997 7.39645 21.3987C7.46671 21.3975 7.53697 21.3963 7.60937 21.395C7.98433 21.3949 8.22179 21.4004 8.50492 21.6571C8.82593 22.0097 8.98834 22.5294 9.17336 22.964C9.22945 23.0951 9.28697 23.2255 9.34454 23.356C9.70336 24.1842 9.70336 24.1842 9.62304 24.5995C9.46607 24.8039 9.38044 24.8849 9.12362 24.9292C9.04402 24.93 8.9644 24.9292 8.88483 24.9272C8.84117 24.9272 8.7975 24.9273 8.75251 24.9273C8.60886 24.9271 8.46533 24.9248 8.3217 24.9225C8.22185 24.922 8.122 24.9215 8.02214 24.9212C7.75984 24.9201 7.49759 24.9172 7.23531 24.914C6.96747 24.911 6.69962 24.9096 6.43177 24.9081C5.90659 24.905 5.38145 24.9 4.8563 24.8938C4.87245 25.0547 4.88933 25.2155 4.90665 25.3763C4.91112 25.4216 4.91559 25.467 4.9202 25.5137C4.96808 25.9483 5.09824 26.2074 5.41904 26.5047C5.76121 26.7329 6.06916 26.7842 6.47985 26.7845C6.57641 26.7848 6.57641 26.7848 6.67491 26.7851C6.78005 26.7849 6.78005 26.7849 6.88731 26.7848C6.96226 26.7849 7.0372 26.7851 7.11442 26.7852C7.32206 26.7856 7.52969 26.7855 7.73733 26.7855C7.96141 26.7855 8.1855 26.7858 8.40959 26.7861C8.84845 26.7866 9.28732 26.7867 9.72618 26.7868C10.0829 26.7868 10.4397 26.7869 10.7964 26.7871C11.808 26.7876 12.8195 26.7879 13.8311 26.7878C13.9129 26.7878 13.9129 26.7878 13.9963 26.7878C14.0509 26.7878 14.1055 26.7878 14.1617 26.7878C15.0465 26.7878 15.9313 26.7884 16.8162 26.7892C17.7248 26.79 18.6335 26.7904 19.5422 26.7904C20.0522 26.7904 20.5623 26.7905 21.0724 26.7912C21.5067 26.7917 21.9409 26.7918 22.3752 26.7914C22.5967 26.7912 22.8182 26.7912 23.0397 26.7917C23.2799 26.7923 23.5202 26.7919 23.7605 26.7915C23.8652 26.7919 23.8652 26.7919 23.9721 26.7924C24.49 26.7902 24.9152 26.7582 25.3356 26.4238C25.6386 26.0872 25.7105 25.8185 25.7549 25.3793C25.7625 25.3093 25.7625 25.3093 25.7703 25.2379C25.7827 25.1232 25.7946 25.0085 25.8064 24.8938C25.751 24.8944 25.6956 24.8951 25.6386 24.8957C25.1165 24.9017 24.5944 24.9061 24.0722 24.909C23.8038 24.9105 23.5354 24.9126 23.267 24.916C23.0079 24.9192 22.7488 24.9209 22.4897 24.9217C22.3909 24.9222 22.2921 24.9233 22.1933 24.9249C22.0548 24.927 21.9164 24.9273 21.7779 24.9272C21.7371 24.9282 21.6964 24.9293 21.6544 24.9304C21.433 24.928 21.3381 24.897 21.161 24.7602C21.0052 24.5538 21.0025 24.458 21.0173 24.2094C21.0549 23.9747 21.1383 23.7702 21.2353 23.5543C21.2555 23.5075 21.2757 23.4608 21.2965 23.4126C21.3391 23.3146 21.3822 23.2167 21.4258 23.119C21.492 22.9704 21.5564 22.8211 21.6207 22.6717C21.6625 22.5759 21.7045 22.4803 21.7465 22.3847C21.7752 22.3184 21.7752 22.3184 21.8044 22.2509C21.9605 21.9037 22.1378 21.5665 22.5109 21.4217C22.6643 21.4075 22.6643 21.4075 22.8401 21.4083C22.9391 21.4084 22.9391 21.4084 23.04 21.4084C23.1109 21.409 23.1817 21.4096 23.2548 21.4102C23.364 21.4105 23.364 21.4105 23.4754 21.4107C23.6685 21.4113 23.8616 21.4123 24.0547 21.4136C24.252 21.4148 24.4492 21.4153 24.6464 21.416C25.0331 21.4172 25.4198 21.4192 25.8064 21.4217C25.8016 19.3541 25.7962 17.2864 25.7899 15.2188C25.7892 14.9746 25.7885 14.7304 25.7877 14.4862C25.7876 14.4376 25.7874 14.389 25.7873 14.3389C25.7849 13.5521 25.783 12.7653 25.7812 11.9785C25.7794 11.171 25.7771 10.3635 25.7745 9.55599C25.7728 9.05784 25.7715 8.55968 25.7707 8.06152C25.77 7.71978 25.769 7.37804 25.7676 7.0363C25.7668 6.83923 25.7663 6.64215 25.7661 6.44507C25.7659 6.2311 25.765 6.01715 25.7639 5.80318C25.7641 5.71035 25.7641 5.71035 25.7643 5.61565C25.7604 5.10388 25.7279 4.64754 25.3945 4.23791C25.0197 3.9006 24.6826 3.81877 24.1829 3.8184C24.1185 3.81821 24.0541 3.81802 23.9878 3.81782C23.8827 3.81796 23.8827 3.81796 23.7754 3.8181C23.7005 3.81796 23.6255 3.81783 23.5483 3.81769C23.3407 3.81733 23.133 3.81734 22.9254 3.81741C22.7013 3.81742 22.4772 3.8171 22.2531 3.81682C21.8143 3.81633 21.3754 3.81617 20.9365 3.81614C20.5798 3.81611 20.2231 3.81599 19.8663 3.8158C18.8547 3.81528 17.8432 3.81501 16.8316 3.81505C16.7498 3.81506 16.7498 3.81506 16.6664 3.81506C16.6118 3.81506 16.5572 3.81507 16.501 3.81507C15.6162 3.81509 14.7314 3.81453 13.8466 3.8137C12.9379 3.81285 12.0292 3.81245 11.1206 3.8125C10.6105 3.81252 10.1004 3.81236 9.59029 3.81172C9.15604 3.81119 8.72178 3.81106 8.28753 3.81146C8.06602 3.81165 7.84452 3.81166 7.62301 3.81114C7.38276 3.8106 7.14251 3.81096 6.90226 3.81142C6.83243 3.81111 6.7626 3.81081 6.69065 3.8105C6.17266 3.81267 5.74749 3.84465 5.32709 4.17906C4.90584 4.64711 4.90646 5.11272 4.9068 5.71468C4.9065 5.80202 4.9065 5.80202 4.90618 5.89113C4.90575 6.01697 4.90544 6.14281 4.90523 6.26864C4.9048 6.46774 4.90388 6.66683 4.90279 6.86593C4.89971 7.43178 4.89688 7.99763 4.89597 8.56349C4.89538 8.91006 4.89366 9.25661 4.89119 9.60316C4.89046 9.73519 4.89016 9.86722 4.89029 9.99925C4.89043 10.1835 4.88913 10.3677 4.88749 10.552C4.88808 10.6339 4.88808 10.6339 4.88867 10.7176C4.88331 11.0849 4.88331 11.0849 4.74953 11.2748C4.55978 11.3984 4.43023 11.3902 4.20897 11.3586C4.03776 11.2312 3.97996 11.1624 3.94527 10.9497C3.94605 10.8485 3.94605 10.8485 3.94685 10.7453C3.94687 10.6688 3.94689 10.5922 3.9469 10.5133C3.94811 10.43 3.94933 10.3467 3.95059 10.2635C3.95103 10.178 3.95136 10.0926 3.9516 10.0072C3.95249 9.78271 3.9548 9.55828 3.95741 9.33383C3.95982 9.10465 3.96089 8.87546 3.96208 8.64626C3.9646 8.19684 3.96874 7.74744 3.97357 7.29803C3.62401 7.29803 3.27445 7.29803 2.9143 7.29803C2.91553 7.46911 2.91676 7.64018 2.91803 7.81644C2.92194 8.38181 2.92454 8.94718 2.9265 9.51255C2.92772 9.85533 2.92939 10.1981 2.93206 10.5409C2.93462 10.8717 2.93602 11.2025 2.93663 11.5333C2.93707 11.6595 2.93792 11.7857 2.93919 11.9119C2.9409 12.0887 2.94113 12.2654 2.94102 12.4423C2.94187 12.4944 2.94272 12.5465 2.94359 12.6002C2.94144 12.9215 2.89343 13.1047 2.6789 13.3594C2.35158 13.6154 1.9914 13.564 1.59388 13.5617C1.48664 13.5635 1.48664 13.5635 1.37722 13.5653C0.713324 13.5649 0.713324 13.5649 0.442658 13.3006C0.221697 13.0249 0.240711 12.7596 0.242334 12.4221C0.24193 12.3635 0.241527 12.3049 0.24111 12.2446C0.240034 12.0511 0.240261 11.8576 0.240596 11.6641C0.240327 11.5295 0.240015 11.3948 0.239661 11.2602C0.239135 10.9781 0.239278 10.696 0.239863 10.4138C0.240539 10.0524 0.23935 9.69104 0.237632 9.32962C0.236552 9.0516 0.236568 8.77359 0.236904 8.49556C0.236913 8.36232 0.236557 8.22907 0.235828 8.09583C0.234951 7.90946 0.235578 7.72315 0.236587 7.53678C0.236018 7.48183 0.235449 7.42688 0.234863 7.37027C0.238565 7.04369 0.275417 6.84547 0.501507 6.59185C0.710462 6.43077 0.859517 6.39343 1.12087 6.39526C1.21627 6.39528 1.21627 6.39528 1.3136 6.3953C1.38159 6.39621 1.44958 6.39713 1.51963 6.39806C1.62481 6.39844 1.62481 6.39844 1.73211 6.39882C1.95577 6.39981 2.1794 6.40202 2.40305 6.40427C2.55481 6.40516 2.70657 6.40596 2.85832 6.40668C3.23008 6.40863 3.60183 6.41158 3.97357 6.41531C3.97234 6.36343 3.97111 6.31156 3.96984 6.25811C3.96579 6.06255 3.96286 5.86703 3.96064 5.67144C3.95947 5.58737 3.95787 5.50331 3.95582 5.41926C3.94003 4.75762 3.9748 4.13789 4.4554 3.63103C4.87459 3.19807 5.29315 2.90683 5.91062 2.87103C5.99312 2.87105 6.07561 2.87169 6.1581 2.8729C6.22384 2.87314 6.22384 2.87314 6.29091 2.8734C6.4294 2.87405 6.56787 2.87553 6.70636 2.87703C6.80087 2.87762 6.89539 2.87816 6.98991 2.87864C7.22029 2.87993 7.45066 2.88196 7.68104 2.88439C7.67919 2.83553 7.67919 2.83553 7.6773 2.78569C7.63436 1.47994 7.63436 1.47994 8.07091 0.894571C8.65028 0.310518 9.33592 0.370614 10.1039 0.374674ZM8.81019 1.5603C8.4339 1.99034 8.62261 2.05578 8.62261 2.88439C13.0504 2.88439 17.4782 2.88439 22.0401 2.88439C22.1147 1.9673 22.1147 1.9673 21.8635 1.53087C21.5783 1.25515 21.2203 1.28686 20.8451 1.28761C20.7716 1.28741 20.7716 1.28741 20.6966 1.2872C20.5324 1.28683 20.3682 1.28688 20.2041 1.28693C20.0863 1.28675 19.9686 1.28655 19.8508 1.28633C19.5311 1.28581 19.2113 1.28567 18.8915 1.28563C18.6246 1.28558 18.3577 1.28536 18.0908 1.28515C17.4612 1.28467 16.8316 1.28453 16.202 1.28457C15.5523 1.28461 14.9026 1.28399 14.2529 1.28306C13.6952 1.28229 13.1375 1.28197 12.5798 1.28201C12.2467 1.28202 11.9136 1.28186 11.5804 1.28123C11.2672 1.28066 10.954 1.28066 10.6407 1.28109C10.5258 1.28115 10.4108 1.28101 10.2958 1.28065C10.1389 1.2802 9.98197 1.28047 9.82504 1.28093C9.77956 1.28062 9.73407 1.28032 9.68721 1.28001C9.33228 1.28228 9.07873 1.3216 8.81019 1.5603ZM1.14884 7.29803C1.14884 9.06526 1.14884 10.8325 1.14884 12.6533C1.44014 12.6533 1.73144 12.6533 2.03157 12.6533C2.03157 10.886 2.03157 9.11881 2.03157 7.29803C1.74027 7.29803 1.44897 7.29803 1.14884 7.29803ZM28.6311 7.29803C28.6311 9.06526 28.6311 10.8325 28.6311 12.6533C28.9224 12.6533 29.2137 12.6533 29.5139 12.6533C29.5139 10.886 29.5139 9.11881 29.5139 7.29803C29.2226 7.29803 28.9313 7.29803 28.6311 7.29803ZM4.8563 22.3633C4.8563 22.907 4.8563 23.4508 4.8563 24.011C6.06035 24.011 7.26439 24.011 8.50492 24.011C8.3183 23.4512 8.08658 22.9072 7.85758 22.3633C6.86716 22.3633 5.87674 22.3633 4.8563 22.3633ZM22.8051 22.3633C22.6983 22.6133 22.5915 22.8633 22.4815 23.121C22.4477 23.1998 22.4139 23.2786 22.379 23.3598C22.3528 23.4216 22.3265 23.4834 22.2994 23.5471C22.2723 23.6106 22.2452 23.6741 22.2172 23.7395C22.1507 23.8842 22.1507 23.8842 22.1578 24.011C23.3618 24.011 24.5659 24.011 25.8064 24.011C25.8064 23.4673 25.8064 22.9235 25.8064 22.3633C24.816 22.3633 23.8256 22.3633 22.8051 22.3633ZM6.50406 27.7185C6.37893 28.955 6.37893 28.955 6.73946 29.4251C6.97657 29.64 7.19336 29.6675 7.50594 29.67C7.56468 29.6706 7.62342 29.6711 7.68394 29.6717C7.77866 29.6721 7.77866 29.6721 7.87528 29.6725C7.97324 29.673 7.97324 29.673 8.07318 29.6735C8.21134 29.674 8.3495 29.6744 8.48766 29.6746C8.69844 29.6752 8.90918 29.677 9.11995 29.6789C9.25432 29.6793 9.38868 29.6796 9.52304 29.6798C9.58583 29.6805 9.64861 29.6813 9.7133 29.682C10.0629 29.681 10.3165 29.6565 10.6235 29.484C11.1437 28.9226 10.9177 28.7386 10.9177 27.7185C9.46121 27.7185 8.0047 27.7185 6.50406 27.7185ZM19.745 27.7185C19.6199 28.955 19.6199 28.955 19.9804 29.4251C20.2175 29.64 20.4343 29.6675 20.7469 29.67C20.8056 29.6706 20.8644 29.6711 20.9249 29.6717C21.0196 29.6721 21.0196 29.6721 21.1162 29.6725C21.2142 29.673 21.2142 29.673 21.3141 29.6735C21.4523 29.674 21.5904 29.6744 21.7286 29.6746C21.9394 29.6752 22.1501 29.677 22.3609 29.6789C22.4953 29.6793 22.6296 29.6796 22.764 29.6798C22.8268 29.6805 22.8895 29.6813 22.9542 29.682C23.3038 29.681 23.5575 29.6565 23.8644 29.484C24.3847 28.9226 24.1586 28.7386 24.1586 27.7185C22.7021 27.7185 21.2456 27.7185 19.745 27.7185Z" fill="white"/>
<path d="M6.67926 6.40742C6.77277 6.40702 6.77277 6.40702 6.86816 6.40662C6.93718 6.40663 7.00621 6.40664 7.07732 6.40665C7.15023 6.40644 7.22314 6.40622 7.29825 6.406C7.50128 6.40546 7.7043 6.40519 7.90733 6.40503C8.12604 6.40481 8.34476 6.40424 8.56347 6.40373C9.092 6.40256 9.62052 6.40197 10.149 6.40145C10.3978 6.40119 10.6466 6.40088 10.8953 6.40057C11.722 6.39957 12.5487 6.39871 13.3754 6.39829C13.5901 6.39817 13.8047 6.39806 14.0193 6.39795C14.0726 6.39792 14.126 6.39789 14.1809 6.39786C15.0453 6.39737 15.9096 6.39588 16.774 6.39397C17.661 6.39202 18.5479 6.39096 19.4349 6.39077C19.9331 6.39065 20.4313 6.39013 20.9295 6.38863C21.3537 6.38735 21.7779 6.38688 22.2021 6.38745C22.4186 6.38772 22.6351 6.3876 22.8516 6.38646C23.0862 6.38524 23.3209 6.38584 23.5555 6.38661C23.624 6.38597 23.6925 6.38532 23.7631 6.38466C24.1293 6.38759 24.3525 6.40235 24.6294 6.65071C24.8866 6.94262 24.9311 7.08663 24.9323 7.47434C24.9326 7.5172 24.9328 7.56007 24.933 7.60424C24.9337 7.74862 24.9339 7.893 24.9341 8.03739C24.9345 8.14061 24.9349 8.24384 24.9353 8.34706C24.9363 8.62806 24.9369 8.90906 24.9374 9.19006C24.9377 9.36555 24.9381 9.54104 24.9384 9.71653C24.9396 10.2654 24.9404 10.8143 24.9409 11.3631C24.9415 11.9971 24.943 12.631 24.9454 13.2649C24.9472 13.7547 24.948 14.2444 24.9482 14.7341C24.9484 15.0268 24.9489 15.3194 24.9504 15.612C24.9517 15.8873 24.952 16.1626 24.9514 16.4379C24.9514 16.539 24.9517 16.64 24.9525 16.741C24.9536 16.879 24.9532 17.0169 24.9524 17.155C24.9525 17.2322 24.9527 17.3094 24.9528 17.3889C24.9089 17.7016 24.7668 17.8805 24.5338 18.0857C24.3315 18.2295 24.2291 18.2513 23.9835 18.2518C23.9211 18.252 23.8588 18.2523 23.7946 18.2526C23.691 18.2526 23.691 18.2526 23.5854 18.2525C23.476 18.2529 23.476 18.2529 23.3645 18.2532C23.1614 18.2537 22.9584 18.254 22.7554 18.2542C22.5367 18.2544 22.318 18.255 22.0993 18.2555C21.5707 18.2566 21.0422 18.2572 20.5137 18.2578C20.2649 18.258 20.0162 18.2583 19.7674 18.2586C18.9407 18.2596 18.114 18.2605 17.2873 18.2609C17.0727 18.261 16.8581 18.2611 16.6434 18.2613C16.5901 18.2613 16.5368 18.2613 16.4818 18.2613C15.6174 18.2618 14.7531 18.2633 13.8887 18.2652C13.0018 18.2672 12.1148 18.2682 11.2278 18.2684C10.7296 18.2686 10.2314 18.2691 9.73326 18.2706C9.30903 18.2718 8.88481 18.2723 8.46057 18.2718C8.24408 18.2715 8.02761 18.2716 7.81112 18.2727C7.57648 18.274 7.34186 18.2734 7.10722 18.2726C7.00447 18.2736 7.00446 18.2736 6.89964 18.2745C6.53344 18.2716 6.31021 18.2568 6.03328 18.0085C5.77612 17.7166 5.73164 17.5726 5.73038 17.1849C5.73016 17.142 5.72995 17.0991 5.72972 17.055C5.72907 16.9106 5.72885 16.7662 5.72862 16.6218C5.72825 16.5186 5.72786 16.4154 5.72745 16.3121C5.72643 16.0311 5.72581 15.7501 5.72532 15.4691C5.72502 15.2937 5.72466 15.1182 5.72429 14.9427C5.72317 14.3938 5.72233 13.8449 5.72184 13.2961C5.72127 12.6621 5.71972 12.0282 5.71734 11.3943C5.71557 10.9045 5.71469 10.4148 5.7145 9.92505C5.71436 9.63244 5.71383 9.33983 5.71235 9.04722C5.71098 8.77189 5.71073 8.49659 5.71134 8.22126C5.71137 8.12024 5.71099 8.01923 5.71019 7.91822C5.70915 7.7802 5.70956 7.64225 5.71034 7.50423C5.7102 7.42702 5.71005 7.34982 5.70991 7.27028C5.75377 6.95762 5.89593 6.77872 6.12891 6.57347C6.33121 6.42973 6.43365 6.40789 6.67926 6.40742ZM6.62177 7.47459C6.59499 7.65409 6.59499 7.65409 6.59935 7.86326C6.59907 7.90294 6.5988 7.94262 6.59852 7.9835C6.59781 8.11674 6.59837 8.24994 6.59892 8.38318C6.59868 8.47858 6.59837 8.57399 6.59799 8.66939C6.59718 8.92874 6.59749 9.18807 6.59805 9.44741C6.5985 9.71853 6.59809 9.98965 6.59781 10.2608C6.59749 10.7161 6.59791 11.1714 6.59875 11.6268C6.59971 12.1536 6.5994 12.6804 6.59843 13.2072C6.59763 13.6591 6.59751 14.111 6.59798 14.5629C6.59825 14.8329 6.59829 15.103 6.59771 15.3731C6.5972 15.627 6.59755 15.8808 6.59857 16.1347C6.5988 16.228 6.59874 16.3213 6.59835 16.4146C6.59787 16.5417 6.59847 16.6688 6.59935 16.7959C6.59942 16.8671 6.59948 16.9384 6.59955 17.0117C6.60716 17.1812 6.60716 17.1812 6.69344 17.2823C6.8315 17.3861 6.91417 17.3833 7.08607 17.3834C7.14576 17.3838 7.20545 17.3843 7.26695 17.3848C7.33272 17.3844 7.39849 17.384 7.46625 17.3836C7.53597 17.3838 7.60568 17.3841 7.67751 17.3844C7.87136 17.385 8.06519 17.3848 8.25904 17.3842C8.46796 17.3838 8.67688 17.3845 8.8858 17.3849C9.29521 17.3857 9.70461 17.3856 10.114 17.385C10.4467 17.3846 10.7793 17.3846 11.112 17.3848C11.1592 17.3848 11.2065 17.3848 11.2553 17.3849C11.3513 17.3849 11.4474 17.385 11.5434 17.385C12.4448 17.3855 13.3462 17.385 14.2476 17.384C15.0215 17.3832 15.7954 17.3834 16.5694 17.3842C17.4675 17.3851 18.3655 17.3855 19.2636 17.3849C19.3593 17.3849 19.4551 17.3848 19.5508 17.3848C19.6214 17.3847 19.6214 17.3847 19.6935 17.3847C20.0258 17.3845 20.3582 17.3848 20.6906 17.3852C21.0954 17.3857 21.5003 17.3856 21.9052 17.3846C22.1119 17.3842 22.3186 17.384 22.5252 17.3846C22.749 17.3852 22.9727 17.3845 23.1965 17.3836C23.2951 17.3842 23.2951 17.3842 23.3958 17.3848C23.4853 17.3841 23.4853 17.3841 23.5767 17.3834C23.6283 17.3833 23.68 17.3833 23.7333 17.3833C23.8934 17.3563 23.9457 17.3144 24.041 17.1846C24.0677 17.0051 24.0677 17.0051 24.0634 16.7959C24.0636 16.7563 24.0639 16.7166 24.0642 16.6757C24.0649 16.5425 24.0644 16.4093 24.0638 16.276C24.064 16.1806 24.0644 16.0852 24.0647 15.9898C24.0655 15.7305 24.0652 15.4711 24.0647 15.2118C24.0642 14.9407 24.0646 14.6696 24.0649 14.3984C24.0652 13.9431 24.0648 13.4878 24.064 13.0324C24.063 12.5056 24.0633 11.9788 24.0643 11.452C24.0651 11.0001 24.0652 10.5482 24.0647 10.0963C24.0645 9.82626 24.0644 9.55619 24.065 9.28612C24.0655 9.03223 24.0652 8.77837 24.0642 8.52449C24.0639 8.43119 24.064 8.33788 24.0644 8.24458C24.0649 8.11745 24.0643 7.99038 24.0634 7.86326C24.0633 7.79205 24.0632 7.72084 24.0632 7.64747C24.0556 7.47798 24.0556 7.47798 23.9693 7.3769C23.8312 7.27309 23.7486 7.27592 23.5767 7.27583C23.517 7.27537 23.4573 7.27491 23.3958 7.27443C23.33 7.27483 23.2642 7.27522 23.1965 7.27563C23.1268 7.27535 23.057 7.27508 22.9852 7.27479C22.7914 7.27421 22.5975 7.27442 22.4037 7.27497C22.1948 7.27536 21.9858 7.27475 21.7769 7.27426C21.3675 7.27348 20.9581 7.27365 20.5487 7.27416C20.2161 7.27456 19.8834 7.27461 19.5508 7.27442C19.5035 7.27439 19.4562 7.27437 19.4075 7.27434C19.3114 7.27428 19.2154 7.27422 19.1193 7.27417C18.2179 7.27366 17.3165 7.27424 16.4151 7.27519C15.6412 7.27598 14.8673 7.27584 14.0934 7.27503C13.1953 7.27408 12.2972 7.27371 11.3991 7.27425C11.3034 7.27431 11.2077 7.27437 11.112 7.27442C11.0413 7.27446 11.0413 7.27446 10.9692 7.2745C10.6369 7.27466 10.3045 7.2744 9.97216 7.27398C9.56728 7.27349 9.16242 7.27362 8.75754 7.27456C8.55085 7.27503 8.34417 7.27521 8.13748 7.27462C7.91373 7.274 7.69 7.27474 7.46625 7.27563C7.3676 7.27504 7.3676 7.27504 7.26695 7.27443C7.17742 7.27512 7.17742 7.27512 7.08607 7.27583C7.03439 7.27586 6.98271 7.27589 6.92947 7.27592C6.76933 7.30294 6.71702 7.34477 6.62177 7.47459Z" fill="white"/>
<path d="M10.9042 19.9865C10.9625 19.9862 11.0208 19.9859 11.0808 19.9856C11.2736 19.9848 11.4663 19.9853 11.6591 19.9859C11.7929 19.9858 11.9267 19.9856 12.0605 19.9854C12.341 19.9851 12.6214 19.9855 12.9019 19.9863C13.2618 19.9873 13.6217 19.9868 13.9816 19.9857C14.2579 19.9851 14.5342 19.9853 14.8105 19.9857C14.9432 19.9858 15.076 19.9857 15.2087 19.9853C15.394 19.9848 15.5792 19.9855 15.7645 19.9865C15.8472 19.986 15.8472 19.986 15.9315 19.9854C15.9819 19.9859 16.0323 19.9864 16.0843 19.9869C16.1281 19.987 16.1719 19.9871 16.217 19.9871C16.3654 20.0158 16.4163 20.068 16.5084 20.1859C16.5744 20.403 16.5871 20.4984 16.4863 20.7045C16.3907 20.8332 16.3907 20.8332 16.3318 20.8921C16.1616 20.8977 15.9929 20.8995 15.8227 20.8988C15.7426 20.8988 15.7426 20.8988 15.6609 20.8988C15.4836 20.8987 15.3062 20.8983 15.1289 20.8978C15.0062 20.8977 14.8836 20.8976 14.761 20.8976C14.4376 20.8973 14.1142 20.8968 13.7907 20.8961C13.461 20.8955 13.1312 20.8953 12.8015 20.895C12.1539 20.8943 11.5064 20.8933 10.8589 20.8921C10.8748 20.9262 10.8907 20.9604 10.9071 20.9956C11.3617 21.9738 11.7872 22.9601 12.2124 23.9522C14.2709 23.9522 16.3295 23.9522 18.4504 23.9522C18.7222 23.3308 18.9941 22.7093 19.2742 22.0691C19.6301 21.2746 19.6301 21.2746 19.8039 20.8921C19.7481 20.8933 19.6922 20.8945 19.6347 20.8958C19.4272 20.8998 19.2198 20.9028 19.0122 20.905C18.9225 20.9062 18.8328 20.9078 18.743 20.9098C18.6139 20.9127 18.4848 20.914 18.3556 20.9151C18.278 20.9163 18.2003 20.9175 18.1203 20.9188C17.9207 20.8921 17.9207 20.8921 17.7777 20.7858C17.6428 20.5972 17.653 20.4707 17.6853 20.2447C17.7712 20.1163 17.7712 20.1163 17.9207 20.0094C18.1001 19.9738 18.2767 19.975 18.4591 19.976C18.5115 19.9757 18.5639 19.9753 18.6178 19.9749C18.7285 19.9745 18.8392 19.9747 18.9499 19.9754C19.1188 19.9762 19.2875 19.9742 19.4563 19.972C19.564 19.9719 19.6718 19.972 19.7795 19.9723C19.8297 19.9716 19.8799 19.9708 19.9317 19.97C20.1759 19.9738 20.3419 19.99 20.5373 20.1441C20.7665 20.389 20.8397 20.5622 20.8311 20.9048C20.771 21.2722 20.5917 21.6083 20.4365 21.944C20.3989 22.027 20.3613 22.1101 20.3238 22.1932C20.2664 22.3204 20.2089 22.4476 20.1509 22.5746C20.0238 22.8534 19.9018 23.1338 19.783 23.4161C19.752 23.4888 19.721 23.5614 19.69 23.6341C19.6325 23.7691 19.5758 23.9045 19.5198 24.0402C19.4935 24.1011 19.4671 24.1621 19.44 24.2248C19.4178 24.2776 19.3956 24.3303 19.3728 24.3846C19.234 24.6045 19.0884 24.7619 18.8623 24.8938C18.6325 24.9445 18.4084 24.9421 18.1738 24.9395C18.1055 24.9401 18.0373 24.9407 17.9669 24.9413C17.7418 24.9429 17.5169 24.9419 17.2918 24.9407C17.135 24.9409 16.9783 24.9413 16.8215 24.9417C16.4932 24.9423 16.165 24.9415 15.8367 24.9398C15.4579 24.9379 15.0792 24.9385 14.7004 24.9405C14.3744 24.9421 14.0484 24.9423 13.7223 24.9414C13.528 24.9408 13.3336 24.9409 13.1392 24.9419C12.9224 24.9428 12.7058 24.9414 12.4889 24.9395C12.3931 24.9405 12.3931 24.9405 12.2953 24.9416C11.9354 24.9356 11.7217 24.8935 11.4646 24.6325C11.3767 24.5265 11.3073 24.4287 11.252 24.3023C11.2323 24.2588 11.2127 24.2153 11.1924 24.1705C11.1631 24.1012 11.1631 24.1012 11.1331 24.0306C11.1113 23.9815 11.0895 23.9324 11.067 23.8818C10.9979 23.7255 10.9302 23.5685 10.8626 23.4115C10.8175 23.3092 10.7723 23.2068 10.7271 23.1045C10.6148 22.8502 10.5049 22.5949 10.3954 22.3394C10.3287 22.1854 10.2601 22.0324 10.1911 21.8795C10.1475 21.7811 10.104 21.6827 10.0605 21.5842C10.0401 21.5401 10.0197 21.4959 9.99871 21.4504C9.86646 21.1469 9.80993 20.8702 9.85846 20.539C10.1191 20.0363 10.3755 19.9831 10.9042 19.9865Z" fill="white"/>
<path d="M10.783 4.62665C10.8234 4.6263 10.8638 4.62594 10.9053 4.62557C11.0409 4.62459 11.1764 4.62487 11.3119 4.62515C11.409 4.62472 11.506 4.62422 11.6031 4.62364C11.8669 4.62233 12.1307 4.62216 12.3946 4.62227C12.6147 4.62228 12.8348 4.62178 13.0549 4.62129C13.5741 4.62015 14.0933 4.61999 14.6124 4.62038C15.1484 4.62077 15.6843 4.61943 16.2203 4.61725C16.6802 4.61544 17.14 4.61477 17.5998 4.615C17.8746 4.61512 18.1494 4.6148 18.4242 4.61336C18.6826 4.61205 18.9409 4.61216 19.1993 4.61335C19.2942 4.61355 19.3891 4.61325 19.484 4.61241C19.6134 4.61135 19.7427 4.61209 19.8722 4.61329C19.9809 4.61323 19.9809 4.61323 20.0918 4.61317C20.2746 4.64986 20.2746 4.64986 20.4177 4.78594C20.51 4.94411 20.51 4.94411 20.5063 5.15743C20.4332 5.42062 20.4332 5.42062 20.2746 5.53259C20.0992 5.55514 20.0992 5.55514 19.8796 5.5558C19.8393 5.55616 19.7989 5.55652 19.7574 5.55689C19.6218 5.55787 19.4863 5.55759 19.3508 5.55731C19.2537 5.55774 19.1567 5.55824 19.0596 5.55882C18.7958 5.56013 18.5319 5.5603 18.2681 5.56018C18.048 5.56018 17.8279 5.56068 17.6078 5.56117C17.0886 5.5623 16.5694 5.56247 16.0502 5.56208C15.5143 5.56168 14.9783 5.56303 14.4424 5.56521C13.9825 5.56702 13.5227 5.56769 13.0628 5.56746C12.7881 5.56734 12.5133 5.56766 12.2385 5.5691C11.9801 5.57041 11.7218 5.5703 11.4634 5.5691C11.3685 5.5689 11.2736 5.56921 11.1787 5.57004C11.0493 5.57111 10.92 5.57037 10.7905 5.56917C10.6818 5.56923 10.6818 5.56923 10.5709 5.56929C10.3881 5.53259 10.3881 5.53259 10.245 5.39652C10.1527 5.23835 10.1527 5.23835 10.1563 5.02502C10.2605 4.65007 10.4076 4.62779 10.783 4.62665Z" fill="white"/>
<path d="M13.4739 21.9855C13.5183 21.985 13.5628 21.9845 13.6085 21.984C13.7555 21.9826 13.9024 21.9825 14.0493 21.9826C14.1514 21.9822 14.2535 21.9817 14.3556 21.9813C14.5697 21.9805 14.7837 21.9804 14.9978 21.9807C15.2722 21.9811 15.5465 21.9793 15.8208 21.9769C16.0317 21.9754 16.2425 21.9752 16.4534 21.9754C16.5546 21.9753 16.6557 21.9747 16.7569 21.9737C16.8983 21.9724 17.0397 21.973 17.1812 21.974C17.223 21.9732 17.2648 21.9724 17.3078 21.9716C17.5243 21.9753 17.6117 21.9964 17.7722 22.1463C17.8618 22.3044 17.8618 22.3044 17.8582 22.5178C17.7842 22.7841 17.7842 22.7841 17.6264 22.8929C17.4759 22.911 17.3395 22.9183 17.1888 22.9176C17.1444 22.9181 17.0999 22.9186 17.0542 22.9192C16.9072 22.9205 16.7603 22.9206 16.6134 22.9205C16.5113 22.9209 16.4092 22.9214 16.3071 22.9219C16.093 22.9227 15.879 22.9228 15.6649 22.9224C15.3906 22.9221 15.1163 22.9239 14.8419 22.9262C14.631 22.9278 14.4202 22.9279 14.2093 22.9277C14.1081 22.9278 14.007 22.9284 13.9058 22.9294C13.7644 22.9307 13.623 22.9302 13.4815 22.9291C13.4188 22.9303 13.4188 22.9303 13.3549 22.9315C13.1384 22.9278 13.051 22.9067 12.8905 22.7569C12.8009 22.5987 12.8009 22.5987 12.8045 22.3854C12.9128 21.9956 13.0979 21.9839 13.4739 21.9855Z" fill="white"/>
<path d="M22.7463 4.64984C22.8934 4.7418 22.8934 4.7418 22.9817 4.88524C23.0145 5.11511 23.016 5.24134 22.8934 5.44062C22.7151 5.55208 22.5957 5.57043 22.3879 5.55878C22.2755 5.53257 22.2755 5.53257 22.1247 5.4112C22.0144 5.18587 22.0325 5.06571 22.0989 4.82639C22.2333 4.5814 22.4975 4.6058 22.7463 4.64984Z" fill="white"/>
<path d="M8.2748 4.62366C8.38721 4.64986 8.38721 4.64987 8.538 4.77124C8.64827 4.99657 8.63023 5.11673 8.56375 5.35605C8.50122 5.47007 8.50123 5.47007 8.38721 5.53259C7.98748 5.57701 7.98748 5.57701 7.7693 5.44064C7.64666 5.24136 7.64818 5.11513 7.68102 4.88526C7.83148 4.64077 8.00313 4.60843 8.2748 4.62366Z" fill="white"/>
</svg>
