<svg width="21" height="21" viewBox="0 0 21 21" fill="none" xmlns="http://www.w3.org/2000/svg">
<path d="M12.1488 14.6112C12.3347 14.6966 12.5441 14.7161 12.7425 14.6665C12.941 14.6169 13.1166 14.5012 13.2405 14.3385L13.56 13.92C13.7277 13.6964 13.9451 13.515 14.195 13.39C14.445 13.2651 14.7206 13.2 15 13.2H17.7C18.1774 13.2 18.6352 13.3896 18.9728 13.7272C19.3104 14.0648 19.5 14.5226 19.5 15V17.7C19.5 18.1774 19.3104 18.6352 18.9728 18.9728C18.6352 19.3104 18.1774 19.5 17.7 19.5C13.4035 19.5 9.28296 17.7932 6.24487 14.7551C3.20678 11.717 1.5 7.59651 1.5 3.3C1.5 2.82261 1.68964 2.36477 2.02721 2.02721C2.36477 1.68964 2.82261 1.5 3.3 1.5H6C6.47739 1.5 6.93523 1.68964 7.27279 2.02721C7.61036 2.36477 7.8 2.82261 7.8 3.3V6C7.8 6.27944 7.73494 6.55504 7.60997 6.80498C7.485 7.05492 7.30355 7.27234 7.08 7.44L6.6588 7.7559C6.49357 7.88206 6.37712 8.06153 6.32921 8.26382C6.28131 8.4661 6.3049 8.67874 6.396 8.8656C7.62601 11.3639 9.64898 13.3843 12.1488 14.6112Z" stroke="white" stroke-width="1.5" stroke-linecap="round" stroke-linejoin="round"/>
</svg>
