<svg width="51" height="51" viewBox="0 0 51 51" fill="none" xmlns="http://www.w3.org/2000/svg">
<path d="M31.7926 4.48797C31.8774 4.55666 31.8774 4.55666 31.9639 4.62674C35.9034 7.82728 38.3795 12.5325 38.9264 17.5729C38.9875 18.2592 38.9849 18.9489 38.9832 19.6373C38.9831 19.7209 38.983 19.8046 38.9829 19.8907C38.969 23.9053 37.7356 27.4992 35.6208 30.8829C36.4187 31.6808 37.2166 32.4787 38.0387 33.3007C38.4376 33.1013 38.5839 32.9541 38.8494 32.6199C39.1025 32.4589 39.3249 32.4333 39.6222 32.4397C40.1163 32.5581 40.4394 32.9739 40.7832 33.3264C40.8726 33.4149 40.962 33.5033 41.0541 33.5945C41.2983 33.837 41.5406 34.0813 41.7821 34.3265C42.0362 34.5838 42.2924 34.839 42.5483 35.0945C42.9783 35.5244 43.4067 35.9558 43.834 36.3883C44.326 36.886 44.8201 37.3815 45.3156 37.8756C45.7942 38.353 46.2713 38.8317 46.7477 39.3112C46.9494 39.5142 47.1516 39.7167 47.3541 39.9189C47.6384 40.2029 47.9205 40.4889 48.2024 40.7752C48.2853 40.8575 48.3682 40.9398 48.4535 41.0246C49.656 42.2558 50.1853 43.5601 50.1771 45.2621C50.1266 46.7885 49.4782 48.0102 48.3775 49.0546C47.9234 49.4354 47.4506 49.698 46.9041 49.9235C46.7951 49.9718 46.7951 49.9718 46.6838 50.0211C45.436 50.489 43.8719 50.3419 42.6729 49.8227C41.8588 49.382 41.2243 48.8271 40.5888 48.1605C40.4291 47.9955 40.2692 47.8307 40.109 47.6662C40.0401 47.5942 39.9712 47.5222 39.9002 47.448C39.7083 47.2599 39.5161 47.0874 39.3118 46.9139C38.6277 46.3201 37.9987 45.6667 37.3591 45.026C37.2159 44.8829 37.0727 44.7398 36.9296 44.5968C36.6311 44.2985 36.3328 44 36.0346 43.7013C35.652 43.3181 35.2688 42.9353 34.8855 42.5526C34.5906 42.258 34.2958 41.9631 34.0012 41.6682C33.8599 41.5269 33.7185 41.3856 33.5771 41.2444C33.3803 41.0479 33.1839 40.851 32.9875 40.6541C32.9289 40.5957 32.8702 40.5372 32.8098 40.477C32.3226 39.9872 32.3226 39.9872 32.2459 39.5846C32.3129 39.1322 32.5287 38.9478 32.8472 38.6331C33.0432 38.4274 33.0432 38.4274 33.0015 38.0357C32.8017 37.7717 32.8017 37.7717 32.5308 37.508C32.4585 37.4347 32.4585 37.4347 32.3846 37.3599C32.2825 37.257 32.1798 37.1547 32.0767 37.0528C31.9189 36.8964 31.7636 36.7377 31.6084 36.5786C31.5088 36.479 31.4091 36.3795 31.3093 36.2801C31.2186 36.1893 31.1278 36.0985 31.0343 36.005C30.8089 35.7967 30.8089 35.7967 30.5762 35.8267C30.3699 35.9259 30.1731 36.029 29.9772 36.1475C29.9 36.1936 29.8227 36.2397 29.7432 36.2871C29.6611 36.3364 29.5789 36.3856 29.4943 36.4364C24.9131 39.1209 19.5681 39.8214 14.4279 38.4931C11.5514 37.7011 8.95614 36.2525 6.70733 34.3082C6.64848 34.2575 6.58964 34.2068 6.52901 34.1546C5.66447 33.4032 4.89867 32.5875 4.18873 31.6888C4.14008 31.6275 4.09143 31.5662 4.0413 31.5031C0.918938 27.4998 -0.375958 22.298 0.192818 17.2865C0.472505 15.0939 1.09651 13.0175 2.07311 11.0363C2.10869 10.9634 2.14427 10.8904 2.18094 10.8153C3.27817 8.58822 4.8772 6.46425 6.80807 4.89095C6.91539 4.80019 7.02269 4.70941 7.12998 4.61862C14.1251 -1.22175 24.7496 -1.31272 31.7926 4.48797ZM11.8453 3.58127C11.7783 3.61321 11.7114 3.64514 11.6425 3.67803C7.58113 5.6539 4.23493 9.35557 2.74959 13.6364C1.16584 18.4904 1.51355 23.4824 3.82393 28.0369C4.66296 29.6369 5.75888 30.9985 7.00956 32.2933C7.06995 32.3589 7.13033 32.4245 7.19255 32.492C7.76967 33.1039 8.45228 33.6059 9.12518 34.1067C9.18283 34.1497 9.24047 34.1927 9.29986 34.2371C11.45 35.8165 13.9774 36.7371 16.5802 37.2297C16.7538 37.264 16.7538 37.264 16.9309 37.299C21.3716 38.0349 26.1449 36.7941 29.8064 34.2321C30.5049 33.7284 31.1585 33.1776 31.7926 32.5955C31.8445 32.5482 31.8964 32.5008 31.9498 32.4521C35.1455 29.5016 37.163 25.0506 37.3461 20.7103C37.5029 15.4567 35.7465 10.9792 32.2349 7.12069C31.112 5.94679 29.7754 4.98795 28.3673 4.18574C28.259 4.12107 28.1507 4.05639 28.0391 3.98976C23.171 1.16418 16.8607 1.18657 11.8453 3.58127ZM34.3112 32.1925C34.1735 32.3517 34.0424 32.5166 33.9145 32.6837C33.4199 33.3035 32.8129 34.0499 32.0948 34.4089C32.2544 34.7981 32.5038 35.0425 32.8008 35.3361C32.8497 35.3847 32.8986 35.4333 32.949 35.4834C33.1045 35.6378 33.2608 35.7916 33.4171 35.9453C33.523 36.0502 33.6288 36.1551 33.7346 36.2601C33.9934 36.5167 34.2529 36.7726 34.5126 37.0283C35.0791 36.5573 35.6004 36.0533 36.1183 35.5297C36.1968 35.4507 36.2753 35.3718 36.3561 35.2904C36.5478 35.0976 36.7393 34.9045 36.9305 34.7111C36.4464 34.1295 35.9289 33.5903 35.3942 33.0552C35.3121 32.9719 35.23 32.8885 35.1454 32.8027C35.067 32.7241 34.9886 32.6454 34.9077 32.5644C34.8367 32.4929 34.7656 32.4215 34.6924 32.3478C34.5268 32.1706 34.5268 32.1706 34.3112 32.1925ZM39.1367 34.6971C39.0495 34.7848 38.9622 34.8725 38.8723 34.9628C38.8242 35.011 38.776 35.0591 38.7263 35.1087C38.5667 35.2685 38.4078 35.429 38.2488 35.5895C38.1385 35.7002 38.0281 35.8109 37.9177 35.9215C37.6267 36.2132 37.3364 36.5056 37.0462 36.798C36.7501 37.0961 36.4534 37.3937 36.1568 37.6914C35.5746 38.2757 34.9931 38.8607 34.4119 39.4461C34.5481 39.7496 34.7 39.9612 34.9343 40.1963C35.0004 40.2631 35.0665 40.3299 35.1346 40.3987C35.207 40.4709 35.2794 40.5431 35.3541 40.6174C35.4304 40.6943 35.5068 40.7712 35.5855 40.8504C35.8384 41.1047 36.092 41.3582 36.3457 41.6117C36.5219 41.7883 36.6982 41.965 36.8744 42.1417C37.2441 42.5122 37.6143 42.8823 37.9847 43.2522C38.4584 43.7253 38.931 44.1996 39.4033 44.6743C39.7672 45.0396 40.1317 45.4043 40.4965 45.7687C40.6709 45.9432 40.8452 46.118 41.0192 46.293C41.2631 46.5382 41.5081 46.7824 41.7533 47.0265C41.8245 47.0984 41.8957 47.1704 41.969 47.2446C42.8176 48.0843 43.7284 48.6021 44.9459 48.6516C46.0416 48.6047 46.9496 48.1151 47.6912 47.323C48.1208 46.8027 48.4482 46.1695 48.516 45.4907C48.5256 45.3988 48.5256 45.3988 48.5353 45.305C48.6012 44.1318 48.1363 43.2415 47.4079 42.3677C47.1499 42.0846 46.8813 41.8134 46.6097 41.5434C46.5332 41.4666 46.4568 41.3899 46.3781 41.3107C46.1283 41.0601 45.8777 40.8101 45.6271 40.5602C45.4524 40.3853 45.2777 40.2105 45.1031 40.0355C44.7385 39.6707 44.3736 39.3062 44.0084 38.942C43.5394 38.4741 43.0713 38.0054 42.6035 37.5364C42.2438 37.1759 41.8835 36.8159 41.5232 36.456C41.3502 36.2832 41.1775 36.1103 41.0049 35.9372C40.7647 35.6965 40.5239 35.4565 40.2829 35.2166C40.2112 35.1446 40.1396 35.0725 40.0658 34.9983C39.9677 34.9011 39.9677 34.9011 39.8676 34.8019C39.8108 34.7451 39.754 34.6883 39.6954 34.6298C39.4466 34.4244 39.3715 34.4892 39.1367 34.6971Z" fill="white"/>
<path d="M22.9273 5.09242C23.0039 5.11083 23.0805 5.12924 23.1594 5.1482C27.0839 6.11641 30.3296 8.58614 32.4291 12.0186C33.8164 14.3506 34.4577 16.9125 34.4436 19.6184C34.4433 19.7281 34.4433 19.7281 34.443 19.8399C34.4383 20.9592 34.3841 22.0366 34.1098 23.1256C34.0936 23.1939 34.0774 23.2621 34.0607 23.3325C33.4592 25.8112 32.2111 28.0158 30.4831 29.8754C30.4135 29.9508 30.4135 29.9508 30.3426 30.0277C27.9178 32.6281 24.3937 34.3234 20.8342 34.5319C20.4255 34.5438 20.0178 34.5486 19.609 34.5474C19.5365 34.5474 19.4641 34.5473 19.3894 34.5473C15.3934 34.5334 11.7169 32.9578 8.86091 30.1588C6.10394 27.3672 4.64367 23.6108 4.65485 19.7066C4.6549 19.6341 4.65496 19.5616 4.65501 19.487C4.66708 15.9964 5.83344 12.6919 8.11792 10.0289C8.18714 9.94732 8.25636 9.86576 8.32767 9.78173C11.8625 5.73098 17.6569 3.75979 22.9273 5.09242ZM10.6365 9.92813C10.5005 10.042 10.3641 10.1554 10.2272 10.2681C7.96657 12.2519 6.57594 15.5337 6.32066 18.4902C6.11512 22.3554 7.29374 25.7463 9.78649 28.698C12.0324 31.1894 15.3851 32.732 18.7234 32.9099C22.4163 33.06 25.8865 31.814 28.6161 29.3159C31.0814 26.9889 32.6421 23.7002 32.8002 20.3047C32.8055 20.2033 32.8108 20.1019 32.8163 19.9974C32.9104 16.5177 31.592 13.2103 29.2197 10.6887C26.8443 8.221 23.6348 6.57751 20.167 6.48237C16.6345 6.43606 13.23 7.43784 10.6365 9.92813Z" fill="white"/>
<path d="M28.0651 12.8497C28.6153 13.1824 28.9417 13.7505 29.1355 14.3562C29.2685 15.082 29.2471 15.8319 28.8711 16.4765C28.3096 17.1583 27.6798 17.7835 27.0556 18.4074C26.9698 18.4935 26.8841 18.5796 26.7957 18.6684C26.5636 18.9012 26.3313 19.1339 26.0989 19.3664C25.9533 19.512 25.8078 19.6577 25.6623 19.8035C25.1537 20.3129 24.645 20.8221 24.1359 21.3311C23.6627 21.8043 23.1901 22.278 22.7177 22.752C22.3103 23.1606 21.9026 23.5689 21.4946 23.9769C21.2516 24.2198 21.0088 24.4629 20.7663 24.7064C20.4965 24.9772 20.2261 25.2473 19.9556 25.5173C19.8759 25.5975 19.7962 25.6777 19.7142 25.7604C19.6402 25.834 19.5662 25.9075 19.49 25.9833C19.4262 26.0471 19.3625 26.1109 19.2968 26.1766C18.6701 26.724 18.1013 26.7926 17.2934 26.778C15.5986 26.6382 14.0624 24.4578 12.9366 23.3344C12.6564 23.0552 12.3752 22.777 12.0939 22.4989C11.9135 22.3192 11.7332 22.1394 11.553 21.9596C11.4699 21.8777 11.3867 21.7958 11.3011 21.7115C10.5446 20.952 9.84027 20.1699 9.82774 19.0514C9.87672 18.2288 10.1211 17.6516 10.7309 17.0936C11.3303 16.5812 11.9792 16.4703 12.7521 16.4765C13.825 16.6375 14.5474 17.3327 15.2833 18.0813C15.347 18.1453 15.4107 18.2093 15.4763 18.2753C15.6769 18.477 15.8768 18.6793 16.0766 18.8818C16.2137 19.0198 16.3507 19.1578 16.4879 19.2958C16.8215 19.6316 17.1544 19.968 17.487 20.3048C17.776 20.1738 17.9818 20.036 18.2039 19.8102C18.2633 19.7504 18.3228 19.6905 18.384 19.6288C18.448 19.5633 18.512 19.4977 18.578 19.4302C18.6805 19.3265 18.6805 19.3265 18.7852 19.2207C18.9335 19.0705 19.0816 18.9202 19.2296 18.7696C19.4641 18.5311 19.6995 18.2933 19.935 18.0558C20.6047 17.3803 21.2734 16.7038 21.9405 16.0258C22.3488 15.611 22.7584 15.1975 23.1687 14.7847C23.3245 14.6275 23.4798 14.4698 23.6346 14.3116C23.8518 14.0898 24.0706 13.8696 24.2897 13.6496C24.3527 13.5845 24.4157 13.5194 24.4806 13.4523C25.4722 12.4673 26.7953 12.2148 28.0651 12.8497ZM23.8099 16.5022C23.5726 16.7422 23.3349 16.9817 23.097 17.2211C22.4214 17.9009 21.7461 18.5811 21.0725 19.2628C20.6587 19.6815 20.2439 20.0991 19.8285 20.5162C19.6708 20.6749 19.5135 20.834 19.3566 20.9934C19.1379 21.2155 18.918 21.4362 18.6978 21.6568C18.6334 21.7228 18.5689 21.7888 18.5026 21.8569C17.942 22.4136 17.942 22.4136 17.487 22.4204C16.8508 22.2155 16.4391 21.7023 15.9889 21.2327C15.815 21.0551 15.6412 20.8775 15.4672 20.6999C15.195 20.4201 14.9232 20.1399 14.6522 19.8588C14.3897 19.5872 14.1253 19.3174 13.8606 19.0478C13.7802 18.9634 13.6998 18.8789 13.617 18.7919C13.1601 18.3092 13.1601 18.3092 12.5566 18.0793C12.0803 18.0934 11.9696 18.2587 11.6439 18.5921C11.4919 18.8962 11.4927 19.0579 11.5431 19.3981C12.0447 20.1069 12.7323 20.7028 13.3459 21.315C13.4506 21.4197 13.5553 21.5245 13.6599 21.6293C13.8776 21.8471 14.0955 22.0648 14.3135 22.2823C14.5931 22.5613 14.8722 22.8408 15.1512 23.1204C15.3665 23.336 15.582 23.5514 15.7976 23.7668C15.9007 23.8698 16.0037 23.9729 16.1067 24.0761C16.2499 24.2195 16.3934 24.3626 16.537 24.5057C16.6185 24.5872 16.7001 24.6686 16.7841 24.7526C17.0864 25.0355 17.3409 25.1032 17.7592 25.0954C18.2637 24.9741 18.599 24.5434 18.9516 24.1848C19.044 24.0939 19.1365 24.003 19.2318 23.9093C19.4847 23.6606 19.735 23.4093 19.9847 23.1574C20.1937 22.947 20.404 22.738 20.6143 22.5289C21.1105 22.0356 21.6047 21.5403 22.0975 21.0436C22.6055 20.5318 23.1164 20.0231 23.629 19.516C24.0696 19.08 24.5084 18.6421 24.9457 18.2029C25.2067 17.9408 25.4683 17.6793 25.7315 17.4195C26.025 17.1295 26.3147 16.8361 26.6042 16.5421C26.6914 16.4568 26.7787 16.3715 26.8687 16.2836C27.3766 15.7636 27.3766 15.7636 27.5272 15.075C27.5025 14.7416 27.4499 14.6471 27.2529 14.3546C26.9676 14.1445 26.9676 14.1445 26.6358 14.0713C25.5708 14.3157 24.5623 15.7407 23.8099 16.5022Z" fill="white"/>
</svg>
