<svg width="37" height="38" viewBox="0 0 37 38" fill="none" xmlns="http://www.w3.org/2000/svg">
<path d="M21.3827 29.0128C22.0476 28.8431 22.5726 28.2306 23.6225 27.0021L32.6993 16.3988C36.0417 12.4963 37.3191 7.03977 34.2812 2.45301C33.2751 0.932252 31.5916 1.473 30.5399 2.51251L2.00589 30.7208C1.68737 31.0336 1.43437 31.4067 1.26166 31.8183C1.08895 32.23 1 32.6719 1 33.1183C1 33.5648 1.08895 34.0067 1.26166 34.4183C1.43437 34.83 1.68737 35.2031 2.00589 35.5158C2.36409 35.8687 2.79496 36.1391 3.26843 36.3083C3.74191 36.4775 4.24659 36.5413 4.74726 36.4953C5.24794 36.4493 5.73255 36.2946 6.1673 36.042C6.60204 35.7894 6.97644 35.445 7.26437 35.0328C8.91979 32.6388 11.5132 26.4841 14.404 25.3903C17.3999 24.2528 18.4446 29.7618 21.3827 29.0128Z" stroke="white" stroke-width="1.5" stroke-linecap="round" stroke-linejoin="round"/>
</svg>
