<svg width="33" height="38" viewBox="0 0 33 38" fill="none" xmlns="http://www.w3.org/2000/svg">
<path d="M32.25 19.0293C32.25 27.2788 32.25 31.4035 29.9435 33.9655C27.637 36.5275 23.9235 36.5293 16.5 36.5293C9.0765 36.5293 5.363 36.5293 3.0565 33.9655C0.75 31.4053 0.75 27.2788 0.75 19.0293C0.75 10.7798 0.75 6.65505 3.0565 4.0913C5.363 1.52755 9.0765 1.5293 16.5 1.5293C23.9235 1.5293 27.637 1.5293 29.9435 4.0913C31.4765 5.7958 31.991 8.19155 32.1625 12.0293" stroke="white" stroke-width="1.5" stroke-linecap="round"/>
<path d="M7.75 12.0293C7.75 11.2155 7.75 10.8095 7.83925 10.4753C7.95859 10.0306 8.19281 9.62505 8.51841 9.29945C8.844 8.97386 9.24952 8.73963 9.69425 8.6203C10.032 8.5293 10.438 8.5293 11.25 8.5293H21.75C22.5638 8.5293 22.9697 8.5293 23.304 8.61855C23.7487 8.73788 24.1542 8.97211 24.4798 9.2977C24.8054 9.6233 25.0397 10.0288 25.159 10.4735C25.25 10.8113 25.25 11.2173 25.25 12.0293C25.25 12.8413 25.25 13.249 25.1607 13.5833C25.0414 14.028 24.8072 14.4335 24.4816 14.7591C24.156 15.0847 23.7505 15.319 23.3057 15.4383C22.9697 15.5293 22.562 15.5293 21.75 15.5293H11.25C10.4362 15.5293 10.0303 15.5293 9.696 15.44C9.25127 15.3207 8.84575 15.0865 8.52016 14.7609C8.19456 14.4353 7.96034 14.0298 7.841 13.585C7.75 13.2473 7.75 12.8413 7.75 12.0293Z" stroke="white" stroke-width="1.5"/>
<path d="M9.5 22.5293C10.4665 22.5293 11.25 21.7458 11.25 20.7793C11.25 19.8128 10.4665 19.0293 9.5 19.0293C8.5335 19.0293 7.75 19.8128 7.75 20.7793C7.75 21.7458 8.5335 22.5293 9.5 22.5293Z" fill="white"/>
<path d="M9.5 29.5293C10.4665 29.5293 11.25 28.7458 11.25 27.7793C11.25 26.8128 10.4665 26.0293 9.5 26.0293C8.5335 26.0293 7.75 26.8128 7.75 27.7793C7.75 28.7458 8.5335 29.5293 9.5 29.5293Z" fill="white"/>
<path d="M16.5 22.5293C17.4665 22.5293 18.25 21.7458 18.25 20.7793C18.25 19.8128 17.4665 19.0293 16.5 19.0293C15.5335 19.0293 14.75 19.8128 14.75 20.7793C14.75 21.7458 15.5335 22.5293 16.5 22.5293Z" fill="white"/>
<path d="M16.5 29.5293C17.4665 29.5293 18.25 28.7458 18.25 27.7793C18.25 26.8128 17.4665 26.0293 16.5 26.0293C15.5335 26.0293 14.75 26.8128 14.75 27.7793C14.75 28.7458 15.5335 29.5293 16.5 29.5293Z" fill="white"/>
<path d="M23.5 22.5293C24.4665 22.5293 25.25 21.7458 25.25 20.7793C25.25 19.8128 24.4665 19.0293 23.5 19.0293C22.5335 19.0293 21.75 19.8128 21.75 20.7793C21.75 21.7458 22.5335 22.5293 23.5 22.5293Z" fill="white"/>
<path d="M23.5 29.5293C24.4665 29.5293 25.25 28.7458 25.25 27.7793C25.25 26.8128 24.4665 26.0293 23.5 26.0293C22.5335 26.0293 21.75 26.8128 21.75 27.7793C21.75 28.7458 22.5335 29.5293 23.5 29.5293Z" fill="white"/>
</svg>
