<svg width="49" height="49" viewBox="0 0 49 49" fill="none" xmlns="http://www.w3.org/2000/svg">
<path d="M37.4275 0.0790772C37.6844 0.25833 37.6844 0.25833 37.9232 0.496471C38.0149 0.586414 38.1066 0.676358 38.2011 0.769027C38.3003 0.869455 38.3995 0.969914 38.4986 1.0704C38.6048 1.17574 38.7111 1.28096 38.8176 1.38604C39.1056 1.67123 39.3916 1.95833 39.6772 2.2459C39.9766 2.54689 40.2775 2.84636 40.5782 3.14608C41.0829 3.64962 41.5862 4.15444 42.0889 4.66001C42.6696 5.24413 43.2526 5.826 43.8367 6.40675C44.3386 6.90581 44.8392 7.40606 45.3389 7.90733C45.6371 8.20655 45.9358 8.50534 46.2356 8.80305C46.5173 9.08305 46.7976 9.36451 47.0767 9.64717C47.1792 9.75054 47.2823 9.85339 47.3859 9.95566C47.5275 10.0956 47.6671 10.2376 47.8065 10.3797C47.9244 10.4979 47.9244 10.4979 48.0446 10.6186C48.274 10.9473 48.3091 11.1978 48.3267 11.5952C48.1044 12.041 47.7997 12.3279 47.43 12.6474C46.5932 13.3868 46.3322 14.0827 46.1152 15.1573C45.5379 17.9242 44.0802 19.5763 42.1276 21.5268C41.9677 21.6871 41.8079 21.8474 41.6481 22.0077C41.3154 22.3412 40.9823 22.6742 40.6489 23.007C40.2234 23.432 39.7991 23.858 39.3751 24.2844C39.0462 24.6148 38.7166 24.9445 38.3869 25.2739C38.2301 25.4307 38.0736 25.5878 37.9174 25.745C37.6988 25.9649 37.4792 26.1838 37.2594 26.4024C37.1962 26.4664 37.133 26.5303 37.068 26.5962C36.2195 27.4346 35.3175 28.0474 34.105 28.0918C33.0833 28.0623 32.3003 27.7586 31.561 27.0471C31.0643 26.4656 30.7936 25.8252 30.744 25.065C30.6422 25.0989 30.5404 25.1328 30.4356 25.1678C29.4807 25.2765 28.6272 25.0192 27.8329 24.4866C27.2322 24.0019 26.9014 23.3058 26.6311 22.5972C26.5436 22.6304 26.4562 22.6635 26.366 22.6976C25.5242 22.9494 24.5824 22.9083 23.7842 22.5342C22.9579 22.0387 22.3516 21.3762 22.0439 20.4548C21.9882 20.1435 21.9865 19.8415 21.9848 19.5254C21.9834 19.4027 21.9819 19.2799 21.9804 19.1535C22.0041 18.7929 22.0799 18.5115 22.2097 18.1759C22.1302 18.1409 22.0507 18.1059 21.9688 18.0698C20.9578 17.5994 20.2232 17.0831 19.8115 16.0186C19.5124 15.1248 19.5615 14.2043 19.9476 13.3432C20.2932 12.779 20.6483 12.2971 21.1815 11.9037C21.3756 11.7353 21.3756 11.7353 21.49 11.4924C21.4937 11.2171 21.484 10.9563 21.4643 10.6827C21.3976 9.64261 21.6863 8.7558 22.017 7.78435C22.0414 7.71098 22.0659 7.63761 22.0911 7.56202C22.6009 6.04739 23.2802 5.00741 24.4142 3.89323C24.5998 3.71052 24.7835 3.52596 24.9671 3.34108C26.3573 1.95323 27.8078 0.95365 29.8359 0.877961C30.685 0.884042 31.523 1.06505 32.3571 1.21013C32.614 1.25454 32.8711 1.2987 33.1282 1.34214C33.2872 1.36902 33.446 1.39645 33.6048 1.42453C34.4045 1.59155 34.4045 1.59155 35.1576 1.39915C35.2073 1.34446 35.2569 1.28977 35.308 1.23342C35.3641 1.17404 35.4202 1.11466 35.4781 1.05348C35.5619 0.959243 35.5619 0.959243 35.6474 0.8631C35.7608 0.739756 35.8748 0.616835 35.9892 0.494384C36.0631 0.411999 36.0631 0.411999 36.1385 0.32795C36.5646 -0.0659856 36.8663 -0.0436238 37.4275 0.0790772ZM36.6632 2.37933C36.5074 2.53756 36.3524 2.69652 36.1974 2.85549C35.702 3.35887 35.702 3.35887 35.3898 3.3851C34.7901 3.38721 34.2262 3.31582 33.6371 3.20834C33.4443 3.17503 33.2514 3.14176 33.0585 3.10853C32.7593 3.05608 32.4602 3.00315 32.1612 2.9494C30.5785 2.66665 29.232 2.46013 27.7622 3.26658C27.5153 3.45736 27.5153 3.45736 27.2834 3.67747C27.1948 3.75936 27.1063 3.84126 27.015 3.92564C26.5769 4.34082 26.1411 4.75804 25.7125 5.18308C25.6131 5.28131 25.5132 5.37907 25.4129 5.47639C24.5869 6.27494 24.5869 6.27494 24.0606 7.27666C24.0259 7.37386 23.9912 7.47105 23.9554 7.5712C23.8418 7.90428 23.735 8.23891 23.63 8.5748C23.5752 8.74538 23.5752 8.74538 23.5193 8.91941C23.1797 9.90519 23.1797 9.90519 23.2058 10.9269C23.2211 11 23.2363 11.0732 23.252 11.1486C23.4854 11.782 23.9512 12.2346 24.4217 12.6995C24.488 12.7658 24.5542 12.8321 24.6225 12.9004C24.8401 13.1178 25.0584 13.3345 25.2768 13.5512C25.4284 13.7025 25.5799 13.8537 25.7314 14.0051C26.1292 14.4021 26.5276 14.7985 26.9262 15.1947C27.3332 15.5996 27.7397 16.0051 28.1461 16.4106C28.943 17.2052 29.7405 17.9992 30.5384 18.7928C30.8074 18.5305 31.0119 18.3102 31.1746 17.9702C31.2079 17.9023 31.2411 17.8345 31.2754 17.7646C31.6269 16.9196 31.5404 15.9933 31.1995 15.1599C30.8448 14.4979 30.2839 14.0061 29.7455 13.4934C28.7279 12.5173 27.9019 11.6386 27.8473 10.1513C27.893 9.36605 28.1158 8.72447 28.5847 8.09924C28.6187 7.99745 28.6526 7.89565 28.6876 7.79077C29.0607 7.66638 29.3232 7.65309 29.7158 7.68795C30.0315 7.87592 30.0315 7.87592 30.3456 8.12495C31.2067 8.7683 32.2232 9.17893 33.3146 9.02465C34.2474 8.85793 35.0387 8.48384 35.7502 7.85504C36.0864 7.61879 36.3066 7.62961 36.7077 7.68795C36.9584 7.84861 36.9584 7.84861 37.119 8.09924C37.1792 8.51322 37.1818 8.7273 36.9431 9.07606C36.0136 10.0913 34.577 10.5702 33.2391 10.6963C31.9679 10.7479 30.706 10.3855 29.613 9.7444C29.498 10.1729 29.4925 10.476 29.6905 10.8799C30.0683 11.4732 30.5888 11.9662 31.0995 12.4447C31.9993 13.2954 32.6744 14.0991 32.9909 15.3286C33.0806 15.6246 33.0806 15.6246 33.3475 15.7149C33.4427 15.7318 33.5379 15.7486 33.6359 15.766C34.5193 15.9657 35.1785 16.382 35.6795 17.1476C36.0115 17.7873 36.1475 18.3857 36.1936 19.1013C36.3093 19.1146 36.3093 19.1146 36.4274 19.1282C37.5057 19.2762 38.3335 19.5655 39.0309 20.4307C39.2344 20.7304 39.3631 21.0223 39.4839 21.3634C39.7899 21.2255 40.0068 21.0728 40.2453 20.8376C40.3115 20.7726 40.3777 20.7077 40.446 20.6408C40.5165 20.5706 40.587 20.5003 40.6596 20.4279C40.7331 20.3551 40.8066 20.2823 40.8823 20.2072C41.0377 20.0529 41.1929 19.8982 41.3477 19.7433C41.5831 19.5084 41.82 19.2752 42.0571 19.042C42.2083 18.8914 42.3594 18.7408 42.5104 18.59C42.5807 18.5212 42.6509 18.4524 42.7233 18.3815C43.3525 17.7464 43.769 17.0641 44.019 16.2017C44.052 16.0878 44.0851 15.9739 44.1191 15.8566C44.2136 15.5033 44.3015 15.1493 44.3861 14.7936C44.414 14.6763 44.4419 14.5591 44.4706 14.4383C44.5269 14.1993 44.5815 13.9599 44.6345 13.7201C44.8266 12.9287 45.0803 12.4713 45.6533 11.9037C45.744 11.7976 45.8336 11.6907 45.9225 11.5832C46.0033 11.4854 46.0841 11.3875 46.1674 11.2867C44.9763 10.0933 43.785 8.90007 42.5932 7.70723C42.0399 7.15341 41.4868 6.59949 40.9338 6.04535C40.452 5.56254 39.97 5.07992 39.4879 4.59751C39.2324 4.3419 38.977 4.08621 38.7218 3.8303C38.4375 3.54511 38.1527 3.26033 37.8679 2.97558C37.7827 2.89001 37.6975 2.80444 37.6097 2.71628C37.5326 2.63928 37.4555 2.56228 37.376 2.48294C37.3086 2.41546 37.2412 2.34798 37.1718 2.27845C36.9133 2.04096 36.9366 2.11288 36.6632 2.37933ZM22.1423 13.4022C21.5297 14.0928 21.5297 14.0928 21.4 14.9819C21.481 15.4705 21.6692 15.8311 22.0631 16.1459C22.4895 16.42 22.8283 16.4931 23.3408 16.4279C23.8777 16.2306 24.192 15.9125 24.5747 15.5025C24.4223 15.1492 24.222 14.9177 23.9513 14.6462C23.8694 14.564 23.7875 14.4818 23.7031 14.3971C23.6175 14.3123 23.5318 14.2275 23.4436 14.1401C23.358 14.0537 23.2724 13.9672 23.1842 13.8782C23.1022 13.7965 23.0203 13.7149 22.9359 13.6308C22.8608 13.5559 22.7856 13.4809 22.7082 13.4037C22.4571 13.1878 22.3847 13.1718 22.1423 13.4022ZM25.3908 17.1267C25.3089 17.2084 25.227 17.29 25.1426 17.3742C25.057 17.4606 24.9714 17.547 24.8831 17.636C24.7975 17.7209 24.7119 17.8057 24.6237 17.8931C24.5008 18.0164 24.5008 18.0164 24.3754 18.1421C24.2627 18.2552 24.2627 18.2552 24.1477 18.3706C23.7812 18.7884 23.6996 19.1339 23.7131 19.6788C23.8018 20.2363 24.1005 20.6259 24.549 20.9521C24.9736 21.0827 25.37 21.1477 25.8085 21.0549C26.3914 20.7354 26.8253 20.2675 27.2866 19.7953C27.4001 19.6804 27.4001 19.6804 27.516 19.5632C27.7013 19.3754 27.8862 19.1871 28.0706 18.9984C27.9182 18.6451 27.718 18.4137 27.4473 18.1421C27.3654 18.0599 27.2834 17.9778 27.1991 17.8931C27.1134 17.8083 27.0278 17.7234 26.9396 17.636C26.854 17.5496 26.7683 17.4632 26.6801 17.3742C26.5982 17.2925 26.5163 17.2109 26.4319 17.1267C26.3567 17.0518 26.2816 16.9769 26.2042 16.8997C25.8326 16.5802 25.6894 16.8291 25.3908 17.1267ZM33.1089 17.3533C33.0751 17.4801 33.0751 17.4801 33.0407 17.6095C32.7633 18.586 32.3652 19.7524 31.4638 20.3351C30.6999 20.6491 30.0605 20.4996 29.3045 20.2323C28.7694 20.7288 28.4237 21.0649 28.3405 21.8132C28.4025 22.4122 28.6203 22.7588 29.0732 23.1499C29.5207 23.3737 29.9309 23.5192 30.4242 23.3553C30.984 23.0805 31.3889 22.7294 31.8229 22.2855C31.892 22.2164 31.9611 22.1472 32.0322 22.0759C32.177 21.9305 32.3213 21.7846 32.4651 21.6382C32.6852 21.4143 32.907 21.1921 33.129 20.9701C33.27 20.8282 33.4108 20.6861 33.5516 20.544C33.6176 20.4777 33.6837 20.4114 33.7518 20.3431C33.813 20.2806 33.8741 20.2181 33.9371 20.1538C33.9908 20.0993 34.0445 20.0448 34.0998 19.9887C34.4577 19.5606 34.4897 19.178 34.4786 18.6357C34.4178 18.1669 34.1697 17.8912 33.8351 17.5782C33.5937 17.4392 33.3814 17.4022 33.1089 17.3533ZM34.6529 21.8486C34.5693 21.9318 34.5693 21.9318 34.4841 22.0167C34.3674 22.1333 34.2509 22.2502 34.1347 22.3672C33.957 22.546 33.7783 22.7237 33.5994 22.9013C33.4856 23.0152 33.372 23.1291 33.2584 23.2431C33.2051 23.2959 33.1519 23.3487 33.097 23.4031C32.6985 23.8069 32.4636 24.1123 32.4534 24.6858C32.4678 25.1708 32.5702 25.5273 32.9033 25.8876C33.3838 26.2399 33.8485 26.3857 34.4456 26.2988C34.9774 26.0316 35.3744 25.7245 35.7908 25.3032C35.8463 25.2479 35.9019 25.1926 35.9591 25.1357C36.0753 25.0197 36.1912 24.9033 36.3067 24.7865C36.4831 24.6084 36.6611 24.4321 36.8393 24.2558C36.9526 24.1423 37.0658 24.0287 37.1789 23.915C37.2318 23.8628 37.2847 23.8105 37.3392 23.7566C37.7636 23.3238 37.9221 23.0041 37.9802 22.4044C37.9654 21.9439 37.8298 21.6105 37.5303 21.2605C37.1033 20.8855 36.6796 20.8028 36.1225 20.7946C35.5207 20.9331 35.0752 21.4229 34.6529 21.8486Z" fill="white"/>
<path d="M16.4601 19.9933C17.2893 20.5658 17.8684 21.2224 18.1996 22.1859C18.3141 22.152 18.4286 22.118 18.5466 22.0831C19.4956 21.8509 20.4472 21.9281 21.3044 22.4177C22.0317 22.9251 22.6551 23.6629 22.8266 24.5508C22.8792 25.2786 22.8833 25.9195 22.621 26.6073C22.7005 26.6423 22.78 26.6773 22.862 26.7133C23.873 27.1838 24.6076 27.7 25.0192 28.7646C25.2286 29.3902 25.2998 30.0869 25.0887 30.7202C25.1522 30.7279 25.2157 30.7356 25.2811 30.7435C26.2159 30.8886 26.9409 31.3118 27.5271 32.0613C28.0797 32.9027 28.1804 33.737 28.0706 34.7303C27.7247 36.2606 26.2426 37.4128 25.1803 38.4741C25.0184 38.6363 24.8566 38.7986 24.6947 38.9609C24.3567 39.2998 24.0182 39.6383 23.6794 39.9765C23.2481 40.4072 22.8179 40.8392 22.388 41.2714C22.0544 41.6066 21.72 41.941 21.3855 42.2752C21.2267 42.4341 21.0681 42.5932 20.9098 42.7525C19.1492 44.5233 17.6529 45.5515 15.1839 46.0745C14.2829 46.2677 13.5891 46.4583 12.9557 47.1718C12.8671 47.2594 12.7786 47.347 12.6873 47.4373C12.5394 47.5914 12.3916 47.7457 12.2439 47.9C12.0298 48.0976 11.8964 48.2165 11.619 48.3029C11.0664 48.269 10.7945 48.1725 10.4035 47.7826C10.3118 47.6927 10.2201 47.6028 10.1256 47.5101C10.0264 47.4097 9.92721 47.3092 9.82805 47.2087C9.72187 47.1034 9.61556 46.9982 9.50913 46.8931C9.22113 46.6079 8.93512 46.3208 8.6495 46.0332C8.35008 45.7322 8.04916 45.4328 7.74847 45.133C7.24381 44.6295 6.74046 44.1247 6.23784 43.6191C5.65707 43.035 5.07411 42.4531 4.48997 41.8724C3.98811 41.3733 3.48746 40.873 2.98781 40.3718C2.68955 40.0726 2.39089 39.7738 2.09114 39.4761C1.80936 39.1961 1.52914 38.9146 1.25004 38.6319C1.14748 38.5286 1.04441 38.4257 0.940767 38.3234C0.799155 38.1835 0.65963 38.0415 0.520216 37.8994C0.402336 37.7812 0.402336 37.7812 0.282075 37.6605C0.0525765 37.3317 0.0173303 37.0816 0 36.6839C0.303612 36.082 0.805952 35.7127 1.31942 35.2922C1.58119 34.98 1.56644 34.7285 1.54073 34.3302C1.51102 34.086 1.47701 33.8423 1.43952 33.5992C1.42012 33.4705 1.40073 33.3417 1.38075 33.209C1.30487 32.7311 1.22314 32.2543 1.13941 31.7777C0.809627 29.8883 0.844164 28.1641 1.95363 26.5045C2.27551 26.0981 2.62262 25.7307 2.98999 25.3656C3.2182 25.137 3.44171 24.9042 3.66547 24.6713C3.83589 24.4961 4.00646 24.3209 4.17717 24.146C4.25686 24.0632 4.33655 23.9804 4.41866 23.8951C5.40443 22.9 6.50083 22.4295 7.80809 21.9931C7.88299 21.9676 7.95788 21.9421 8.03505 21.9158C9.0259 21.5817 9.88 21.384 10.9339 21.4648C11.2771 21.4861 11.478 21.4884 11.7796 21.3127C11.9883 21.1049 11.9883 21.1049 12.1584 20.8737C12.3671 20.6073 12.5888 20.4388 12.8657 20.2451C12.9465 20.1881 13.0274 20.1311 13.1107 20.0724C14.032 19.5381 15.5138 19.4716 16.4601 19.9933ZM13.6919 21.83C13.5435 21.9774 13.403 22.1325 13.2641 22.2887C13.417 22.6451 13.6196 22.8738 13.8947 23.1451C13.9776 23.2272 14.0604 23.3094 14.1457 23.3941C14.2323 23.4789 14.3188 23.5637 14.408 23.6511C14.539 23.7808 14.539 23.7808 14.6727 23.913C14.8882 24.1261 15.1042 24.3387 15.3206 24.5508C15.638 24.4004 15.8331 24.2625 16.0596 23.9917C16.112 23.9304 16.1643 23.869 16.2183 23.8058C16.4956 23.4226 16.4897 23.0545 16.4516 22.5972C16.2526 22.0524 15.9436 21.7314 15.4234 21.4662C14.7667 21.2837 14.2145 21.3928 13.6919 21.83ZM9.15121 23.4198C9.06184 23.4465 8.97248 23.4732 8.8804 23.5007C8.57105 23.5945 8.26346 23.693 7.9559 23.7925C7.85662 23.8227 7.75735 23.8529 7.65506 23.8841C6.85381 24.153 6.35059 24.5759 5.75807 25.1678C5.66487 25.2564 5.57168 25.3449 5.47566 25.4362C5.18111 25.7164 4.89096 26.0007 4.60131 26.286C4.5522 26.3331 4.5031 26.3803 4.4525 26.4289C3.53185 27.3137 2.76133 28.271 2.67339 29.5891C2.69764 30.7565 2.93078 31.9037 3.13521 33.0496C3.53463 35.3005 3.53463 35.3005 3.25377 35.8015C3.19161 35.8615 3.12945 35.9216 3.0654 35.9834C3.00456 36.0443 2.94372 36.1051 2.88104 36.1678C2.81252 36.2363 2.74399 36.3048 2.67339 36.3754C2.50373 36.579 2.33407 36.7826 2.15928 36.9924C5.17918 40.0123 8.19908 43.0322 11.3105 46.1436C11.7753 45.7495 11.7753 45.7495 12.2269 45.3407C12.6619 44.9293 13.0566 44.7748 13.6352 44.6462C13.7183 44.6257 13.8013 44.6053 13.8868 44.5841C14.1501 44.5193 14.4139 44.4572 14.6779 44.3956C14.9404 44.3338 15.2027 44.2714 15.4646 44.2071C15.6267 44.1673 15.7891 44.1289 15.9519 44.0923C17.0659 43.8198 17.8992 43.2325 18.686 42.4171C18.7643 42.3381 18.8426 42.2591 18.9232 42.1777C19.1695 41.9285 19.414 41.6776 19.6584 41.4266C19.8265 41.2559 19.9947 41.0853 20.1631 40.9149C20.5725 40.4999 20.9804 40.0834 21.3871 39.6658C21.1678 39.4396 20.9688 39.2851 20.6931 39.1324C20.0298 38.7244 19.5208 38.1682 19.278 37.4205C19.1849 37.008 19.1501 36.5913 19.125 36.1698C19.0381 36.1597 18.9511 36.1496 18.8615 36.1393C17.7385 35.9912 16.969 35.7346 16.246 34.8331C15.9621 34.3997 15.8362 34.0427 15.7961 33.5285C15.7652 33.2882 15.7652 33.2882 15.629 33.0851C15.2876 32.9174 14.9558 32.8156 14.5876 32.7212C13.6655 32.4298 12.9713 31.5807 12.3194 30.9066C11.3754 29.869 11.3754 29.869 10.0766 29.4863C9.97482 29.5542 9.87303 29.622 9.76815 29.692C9.80911 29.7569 9.85006 29.8219 9.89226 29.8888C10.7127 31.2741 10.895 32.7677 10.5265 34.3254C10.2586 35.3616 9.78964 36.2174 9.04839 36.9924C8.73049 37.1513 8.47317 37.1254 8.12299 37.0952C7.79491 36.8849 7.727 36.7464 7.63458 36.369C7.66071 35.8605 8.02492 35.5048 8.32421 35.1187C8.72838 34.5692 8.99142 33.9744 9.04839 33.2908C9.05489 33.2259 9.06138 33.1611 9.06807 33.0943C9.13832 31.8458 8.59346 30.8316 7.81452 29.8976C7.78059 29.8637 7.74666 29.8297 7.7117 29.7948C7.6875 29.0448 7.6875 29.0448 7.81452 28.6637C8.00089 28.5549 8.00089 28.5549 8.22581 28.4581C8.29367 28.423 8.36154 28.3878 8.43145 28.3517C8.49932 28.3168 8.56718 28.2819 8.6371 28.246C8.70496 28.2109 8.77283 28.1758 8.84275 28.1396C9.62809 27.7853 10.743 27.8102 11.5483 28.0918C12.303 28.4506 12.8589 29.0724 13.43 29.6659C14.3484 30.615 15.1684 31.4331 16.5609 31.4721C17.4006 31.4642 18.2037 31.209 18.8165 30.6174C18.6564 30.2342 18.421 29.9907 18.1287 29.6989C18.0554 29.6253 18.0554 29.6253 17.9806 29.5502C17.8193 29.3885 17.6572 29.2275 17.4951 29.0666C17.3821 28.9537 17.2691 28.8407 17.1561 28.7277C16.9191 28.4909 16.6817 28.2543 16.444 28.0181C16.1414 27.7171 15.8394 27.4155 15.5376 27.1137C15.3041 26.8802 15.0702 26.6469 14.8363 26.4137C14.725 26.3027 14.6137 26.1917 14.5026 26.0806C13.9524 25.5312 13.4008 24.9883 12.808 24.4845C12.6009 24.3051 12.4154 24.1092 12.2295 23.9082C11.3142 22.984 10.3185 23.0603 9.15121 23.4198ZM17.5955 24.93C17.4746 25.053 17.4746 25.053 17.3513 25.1784C17.1535 25.3798 16.9565 25.5819 16.7601 25.7847C16.9129 26.1411 17.1156 26.3698 17.3907 26.641C17.4735 26.7232 17.5564 26.8054 17.6417 26.89C17.7283 26.9749 17.8148 27.0597 17.904 27.1471C18.035 27.2767 18.035 27.2767 18.1687 27.409C18.3842 27.6221 18.6001 27.8346 18.8165 28.0468C19.1448 27.9018 19.367 27.7284 19.6206 27.4757C19.6926 27.4039 19.7646 27.3322 19.8387 27.2584C19.9128 27.1835 19.9869 27.1086 20.0633 27.0314C20.1382 26.9573 20.213 26.8832 20.2902 26.8069C20.3619 26.7349 20.4336 26.663 20.5075 26.5888C20.5727 26.5233 20.6379 26.4579 20.7052 26.3904C21.0613 25.9779 21.1257 25.6293 21.11 25.0971C21.0587 24.7076 20.9345 24.4284 20.6673 24.1395C19.4261 23.2295 18.505 23.9904 17.5955 24.93ZM20.2561 29.2807C20.2807 29.3504 20.3054 29.4201 20.3308 29.4919C20.5526 30.1883 20.6495 30.7512 20.3589 31.4399C19.8331 32.2794 18.6297 32.7915 17.6983 33.0273C17.5923 33.0464 17.4863 33.0654 17.377 33.0851C17.5009 33.717 17.6694 33.9511 18.1996 34.319C18.6921 34.4832 19.1282 34.5041 19.6068 34.3096C20.0356 34.0627 20.3478 33.7574 20.6943 33.4076C20.7634 33.3388 20.8325 33.2699 20.9038 33.199C21.0492 33.0537 21.1943 32.9081 21.339 32.7621C21.5599 32.5396 21.7824 32.3188 22.005 32.0981C22.1466 31.9563 22.288 31.8145 22.4294 31.6725C22.4956 31.6069 22.5618 31.5414 22.63 31.4738C23.0315 31.0659 23.411 30.6645 23.4656 30.0679C23.3894 29.4754 23.2572 29.0277 22.7676 28.6376C21.764 27.9904 20.9766 28.5087 20.2561 29.2807ZM23.0339 33.4675C22.9503 33.5507 22.9503 33.5507 22.8651 33.6357C22.7484 33.7522 22.6319 33.8691 22.5157 33.9862C22.338 34.165 22.1592 34.3426 21.9803 34.5202C21.8666 34.6341 21.7529 34.748 21.6393 34.862C21.5861 34.9148 21.5329 34.9676 21.478 35.0221C21.0533 35.4523 20.8439 35.7554 20.8344 36.3626C20.8468 36.8578 20.9389 37.1346 21.2843 37.5065C21.637 37.7922 21.9655 37.9427 22.4218 37.9628C23.1561 37.8812 23.5825 37.517 24.0814 37.0125C24.1394 36.9548 24.1973 36.8971 24.2571 36.8377C24.3788 36.7162 24.5001 36.5943 24.621 36.4721C24.8058 36.2857 24.9921 36.101 25.1787 35.9163C25.2971 35.7977 25.4155 35.6789 25.5338 35.5601C25.5892 35.5052 25.6447 35.4504 25.7019 35.3938C26.1321 34.9555 26.2981 34.6354 26.3676 34.0298C26.3531 33.5207 26.1377 33.1555 25.8085 32.7766C25.3875 32.4705 25.012 32.4309 24.5071 32.4172C23.9027 32.5451 23.4556 33.0424 23.0339 33.4675Z" fill="white"/>
<path d="M36.2257 35.2701C37.2053 35.4693 38.0603 36.6807 38.7522 37.3727C38.9581 37.5783 39.1648 37.7831 39.3715 37.9879C39.503 38.1191 39.6345 38.2504 39.7659 38.3817C39.8275 38.4425 39.8891 38.5034 39.9525 38.5661C40.0095 38.6234 40.0666 38.6807 40.1253 38.7398C40.1754 38.7897 40.2254 38.8396 40.2769 38.891C40.5461 39.2119 40.618 39.4028 40.5957 39.8264C40.5122 40.1799 40.5122 40.1799 40.3965 40.3727C40.0869 40.5584 39.8434 40.5851 39.4839 40.5912C38.9301 40.2835 38.5112 39.8524 38.0681 39.4047C37.9939 39.3304 37.9197 39.2562 37.8433 39.1797C37.6874 39.0235 37.5318 38.8671 37.3764 38.7104C37.1378 38.47 36.8985 38.2304 36.6589 37.9909C36.5074 37.8388 36.3559 37.6867 36.2045 37.5346C36.0968 37.4268 36.0968 37.4268 35.987 37.3168C35.9211 37.2502 35.8552 37.1836 35.7872 37.115C35.729 37.0564 35.6708 36.9979 35.6109 36.9375C35.3936 36.6984 35.3698 36.5699 35.3325 36.2405C35.371 35.8613 35.371 35.8613 35.5831 35.5593C35.8851 35.3472 35.8851 35.3472 36.2257 35.2701Z" fill="white"/>
<path d="M9.04835 7.79079C9.8408 8.35795 10.5151 9.13907 11.2013 9.82754C11.4085 10.0353 11.6162 10.2424 11.824 10.4495C11.9558 10.5814 12.0876 10.7134 12.2194 10.8453C12.2815 10.9073 12.3436 10.9692 12.4076 11.0329C12.941 11.5694 12.941 11.5694 12.9942 12.0387C12.9556 12.4178 12.9556 12.4178 12.7435 12.7199C12.4415 12.9319 12.4415 12.9319 12.1009 13.009C11.1213 12.8098 10.2663 11.5985 9.57441 10.9065C9.36855 10.7008 9.16188 10.496 8.95516 10.2913C8.82364 10.16 8.69217 10.0288 8.56074 9.89745C8.49916 9.83661 8.43758 9.77576 8.37413 9.71308C8.28859 9.62706 8.28859 9.62706 8.20132 9.5393C8.15128 9.48942 8.10125 9.43953 8.0497 9.38813C7.78053 9.06728 7.70864 8.87631 7.73093 8.45271C7.8413 7.98578 7.8413 7.98578 8.12294 7.79079C8.50738 7.66265 8.65878 7.67319 9.04835 7.79079Z" fill="white"/>
<path d="M6.00115 15.4567C6.09928 15.4836 6.19742 15.5105 6.29852 15.5382C6.50441 15.5949 6.71015 15.6521 6.91573 15.7099C7.23035 15.7983 7.54541 15.8849 7.86059 15.9712C8.06124 16.0267 8.26187 16.0822 8.46246 16.1379C8.5564 16.1638 8.65034 16.1897 8.74712 16.2165C8.83468 16.2411 8.92224 16.2658 9.01245 16.2913C9.08912 16.3127 9.16578 16.3342 9.24477 16.3563C9.55259 16.4588 9.80408 16.5474 10.006 16.807C10.1107 17.1593 10.0624 17.4107 9.97388 17.7646C9.80679 18.0152 9.80679 18.0152 9.56259 18.1759C8.90915 18.2353 8.33081 18.066 7.70375 17.8943C7.59595 17.8654 7.48815 17.8364 7.37708 17.8066C7.1502 17.7454 6.92345 17.6838 6.69681 17.6217C6.34949 17.5268 6.00165 17.4341 5.65372 17.3414C5.43305 17.2817 5.2124 17.2217 4.9918 17.1617C4.88769 17.1341 4.78358 17.1064 4.67632 17.0779C4.57986 17.0512 4.48339 17.0244 4.384 16.9969C4.29918 16.9738 4.21436 16.9508 4.12696 16.927C3.88336 16.8296 3.76212 16.7346 3.59887 16.5307C3.47623 16.1365 3.47751 15.9606 3.63101 15.5732C4.10833 14.813 5.28626 15.254 6.00115 15.4567Z" fill="white"/>
<path d="M39.4839 30.1033C39.8433 30.1733 40.195 30.2665 40.5483 30.3623C40.6488 30.389 40.7492 30.4156 40.8527 30.4431C41.0642 30.4995 41.2756 30.5563 41.4869 30.6135C41.8096 30.7007 42.1328 30.7862 42.4561 30.8714C42.6621 30.9265 42.868 30.9818 43.0739 31.0371C43.1702 31.0625 43.2665 31.0879 43.3657 31.1141C43.8255 31.2398 44.2372 31.356 44.625 31.6456C44.7901 31.9758 44.776 32.3157 44.7279 32.6738C44.5801 32.9309 44.5801 32.9309 44.3166 33.0851C43.6246 33.1733 42.9866 33.0099 42.3256 32.8224C42.2275 32.7955 42.1293 32.7686 42.0282 32.7409C41.8223 32.6843 41.6166 32.627 41.411 32.5693C41.0964 32.4809 40.7813 32.3943 40.4662 32.3079C40.2655 32.2525 40.0649 32.1969 39.8643 32.1412C39.7703 32.1153 39.6764 32.0894 39.5796 32.0627C39.4483 32.0256 39.4483 32.0256 39.3143 31.9879C39.2376 31.9664 39.161 31.9449 39.082 31.9228C38.5201 31.7358 38.5201 31.7358 38.3272 31.4657C38.2235 31.1546 38.2034 30.9437 38.25 30.6174C38.6228 30.0978 38.8662 30.058 39.4839 30.1033Z" fill="white"/>
<path d="M31.361 38.2263C31.7477 38.5314 31.8658 38.827 32.0036 39.2931C32.0238 39.3612 32.044 39.4293 32.0647 39.4995C32.1406 39.7601 32.2135 40.0214 32.2864 40.2827C32.3205 40.4028 32.3545 40.5229 32.3897 40.6467C32.4856 40.9852 32.5797 41.3241 32.6729 41.6634C32.7105 41.8 32.7485 41.9365 32.7868 42.0729C32.9974 42.8261 33.1768 43.5085 33.109 44.2928C32.9547 44.5563 32.9547 44.5563 32.6977 44.7041C32.4116 44.7598 32.1578 44.7792 31.8751 44.7041C31.5507 44.4258 31.4023 44.2057 31.2879 43.796C31.2599 43.698 31.2318 43.6001 31.203 43.4991C31.1745 43.3942 31.1461 43.2892 31.1168 43.1811C31.0864 43.0726 31.0561 42.9641 31.0248 42.8523C30.9297 42.5103 30.8368 42.1677 30.744 41.8251C30.6829 41.6039 30.6217 41.3827 30.5605 41.1615C30.5037 40.9522 30.447 40.7428 30.3906 40.5334C30.364 40.4363 30.3373 40.3392 30.3099 40.2392C30.1761 39.7304 30.0765 39.2712 30.1271 38.7404C30.4777 38.241 30.7599 38.1279 31.361 38.2263Z" fill="white"/>
<path d="M16.5545 3.57505C16.8416 3.8017 16.9262 4.0133 17.0206 4.36181C17.0474 4.45861 17.0741 4.5554 17.1017 4.65514C17.1431 4.81178 17.1431 4.81178 17.1854 4.97159C17.2147 5.07924 17.2439 5.18689 17.274 5.2978C17.3356 5.52559 17.3967 5.75351 17.4573 5.98157C17.55 6.32991 17.6446 6.67768 17.7395 7.02543C17.7992 7.24691 17.8587 7.46842 17.9181 7.68996C17.9463 7.79377 17.9746 7.89758 18.0037 8.00453C18.3226 9.21455 18.3226 9.21455 18.039 9.72513C17.7092 10.0211 17.5092 10.0606 17.0686 10.0529C16.6038 9.76346 16.4651 9.50518 16.3167 8.98609C16.297 8.91795 16.2773 8.84982 16.257 8.77962C16.2108 8.61778 16.1658 8.45564 16.1215 8.29329C16.0433 8.00719 15.9628 7.72179 15.882 7.43642C15.8049 7.16316 15.7293 6.88953 15.6539 6.61579C15.6163 6.47918 15.5783 6.34266 15.5399 6.20622C15.3297 5.45431 15.1459 4.76953 15.2178 3.98634C15.5895 3.47363 15.9602 3.42649 16.5545 3.57505Z" fill="white"/>
</svg>
