<svg width="49" height="49" viewBox="0 0 49 49" fill="none" xmlns="http://www.w3.org/2000/svg">
<path d="M1.05521 0.00913719C1.1592 0.00840151 1.1592 0.00840151 1.26529 0.00765097C1.41181 0.0070504 1.55833 0.00717518 1.70484 0.0079722C1.92873 0.00876782 2.1524 0.00607864 2.37627 0.00310664C2.51874 0.00295579 2.66122 0.00300991 2.8037 0.00328939C2.87048 0.00223828 2.93725 0.00118718 3.00604 0.000104221C3.32812 0.00460882 3.49698 0.0269789 3.75475 0.226968C3.91464 0.443026 3.95483 0.575051 3.98825 0.839159C4.0655 1.26161 4.21458 1.46115 4.55548 1.73387C4.855 1.88363 5.16542 1.86064 5.49113 1.82744C5.85076 1.69158 5.93846 1.58622 6.11685 1.24266C6.24424 0.893705 6.24424 0.893705 6.33322 0.535074C6.42678 0.236836 6.42678 0.236836 6.70748 0.0497063C7.10662 0.0114478 7.5066 0.0149371 7.90735 0.0150307C8.10413 0.0146215 8.30071 0.0112226 8.49745 0.00767524C8.62287 0.00712613 8.7483 0.00675477 8.87372 0.00657877C8.98757 0.00580988 9.10142 0.00504099 9.21872 0.00424879C9.56871 0.0580524 9.67635 0.146482 9.88868 0.423965C9.94971 0.628273 9.94971 0.628273 9.97639 0.839159C10.0536 1.26161 10.2027 1.46115 10.5436 1.73387C10.8447 1.88439 11.1528 1.87113 11.4793 1.82744C11.7972 1.66846 11.9841 1.55498 12.1576 1.24266C12.198 1.09445 12.2366 0.945648 12.2698 0.795666C12.3928 0.251578 12.3928 0.251578 12.6956 0.0497063C13.0948 0.0114478 13.4947 0.0149371 13.8955 0.0150307C14.0923 0.0146215 14.2889 0.0112226 14.4856 0.00767524C14.611 0.00712613 14.7364 0.00675477 14.8619 0.00657877C14.9757 0.00580988 15.0896 0.00504099 15.2069 0.00424879C15.5569 0.0580524 15.6645 0.146482 15.8768 0.423965C15.9379 0.628273 15.9379 0.628273 15.9645 0.839159C16.0418 1.26161 16.1909 1.46115 16.5318 1.73387C16.8328 1.88439 17.141 1.87113 17.4674 1.82744C17.7854 1.66846 17.9723 1.55498 18.1458 1.24266C18.1862 1.09445 18.2247 0.945648 18.258 0.795666C18.381 0.251578 18.381 0.251578 18.6838 0.0497063C18.9172 0.0291974 19.1399 0.0190235 19.3734 0.0182744C19.4407 0.0176515 19.5079 0.0170287 19.5772 0.016387C19.7193 0.0154405 19.8615 0.0150006 20.0036 0.0150307C20.2207 0.0146215 20.4376 0.0112228 20.6547 0.00767524C20.7929 0.00712615 20.9311 0.00675478 21.0693 0.00657877C21.134 0.00523415 21.1988 0.00388953 21.2654 0.00250416C21.5527 0.0052206 21.7369 0.0258831 21.9756 0.190687C22.2143 0.518121 22.198 0.817741 22.1942 1.2078C22.1953 1.32749 22.1953 1.32749 22.1964 1.4496C22.1983 1.71741 22.1975 1.98514 22.1967 2.25296C22.1976 2.44475 22.1985 2.63654 22.1997 2.82833C22.2023 3.34948 22.2026 3.8706 22.2025 4.39175C22.2028 4.93621 22.2052 5.48065 22.2074 6.0251C22.2112 7.05631 22.2131 8.08751 22.2143 9.11872C22.2161 10.512 22.2207 11.9054 22.2253 13.2987C22.2323 15.4943 22.2354 17.6898 22.2392 19.8854C27.2875 14.8372 27.2875 14.8372 32.4378 9.68688C32.2982 9.33777 32.2982 9.33777 32.1472 8.99355C31.9534 8.43223 31.9826 7.76142 32.1805 7.20741C32.2345 7.13022 32.2886 7.05303 32.3442 6.9735C32.4253 6.85192 32.4253 6.85193 32.508 6.72789C32.9568 6.2541 33.4568 6.05725 34.0986 6.01446C35.1234 6.04272 35.6789 6.67178 36.3675 7.34776C36.6349 7.22639 36.8269 7.09853 37.0333 6.89031C37.0876 6.836 37.1419 6.78169 37.1979 6.72573C37.2553 6.66735 37.3127 6.60896 37.3719 6.5488C37.4316 6.48884 37.4913 6.42888 37.5528 6.3671C37.7429 6.17592 37.9324 5.98409 38.1219 5.79225C38.2508 5.66233 38.3798 5.53246 38.5089 5.40264C38.8248 5.08466 39.1401 4.76611 39.4552 4.44725C39.3657 4.34192 39.2761 4.23671 39.1864 4.13154C39.1365 4.07293 39.0867 4.01433 39.0353 3.95395C38.8898 3.78372 38.8898 3.78372 38.7022 3.60407C38.273 3.18169 38.1221 2.80153 38.0535 2.20462C38.0498 1.63536 38.1985 1.13018 38.537 0.669573C39.1363 0.110257 39.6374 0.00806737 40.4522 0C41.1698 0.114014 41.6633 0.518385 42.161 1.02293C42.2508 1.11178 42.2508 1.11178 42.3425 1.20243C42.5385 1.3968 42.7331 1.5925 42.9276 1.78833C43.0643 1.92473 43.201 2.06108 43.3378 2.19737C43.6235 2.48251 43.9085 2.7683 44.193 3.05458C44.5571 3.42081 44.9228 3.78533 45.2891 4.14937C45.5715 4.43036 45.8529 4.71223 46.1341 4.99438C46.2686 5.12913 46.4034 5.26361 46.5384 5.3978C46.7272 5.58562 46.9147 5.77462 47.102 5.96396C47.1576 6.01876 47.2131 6.07356 47.2704 6.13002C47.7692 6.63915 48.0096 7.12601 48.0105 7.85652C47.9921 8.4961 47.883 8.91648 47.44 9.38243C46.8962 9.84803 46.302 9.9716 45.5975 9.96575C45.0139 9.88841 44.6713 9.55384 44.2606 9.15254C44.0439 8.9423 43.8078 8.75271 43.572 8.5641C42.6148 9.52127 41.6577 10.4784 40.6715 11.4646C40.8477 11.8171 41.0039 12.005 41.2738 12.2833C41.7726 12.8302 42.0412 13.3258 42.0084 14.0833C41.9189 14.7065 41.6567 15.2286 41.158 15.6202C40.5585 16.0125 39.9694 16.0576 39.268 15.9557C39.037 15.864 39.037 15.864 38.8411 15.7569C38.735 15.699 38.6289 15.6411 38.5195 15.5815C38.1884 15.688 37.9787 15.9121 37.7369 16.1547C37.6146 16.2767 37.6146 16.2767 37.4898 16.4012C37.3997 16.492 37.3096 16.5828 37.2195 16.6737C37.1236 16.7698 37.0275 16.8658 36.9315 16.9619C36.6674 17.2261 36.4038 17.4909 36.1404 17.7558C35.8563 18.0414 35.5716 18.3263 35.287 18.6113C34.7938 19.1054 34.3009 19.5998 33.8082 20.0944C33.0954 20.81 32.3819 21.5249 31.6683 22.2396C30.5099 23.3998 29.3518 24.5603 28.194 25.7211C28.1247 25.7906 28.0554 25.8601 27.984 25.9317C27.2107 26.707 26.4374 27.4825 25.6642 28.258C25.3839 28.5391 25.1036 28.8203 24.8232 29.1015C24.7541 29.1709 24.6849 29.2403 24.6136 29.3118C23.4606 30.4682 22.307 31.6241 21.153 32.7796C20.4411 33.4925 19.7296 34.206 19.0187 34.92C18.5316 35.4091 18.044 35.8978 17.556 36.386C17.2744 36.6679 16.993 36.9499 16.7122 37.2326C16.4551 37.4914 16.1974 37.7495 15.9392 38.0071C15.8459 38.1004 15.7529 38.1939 15.6601 38.2878C15.5339 38.4153 15.4067 38.5418 15.2795 38.6684C15.174 38.7742 15.174 38.7742 15.0663 38.8822C14.6807 39.2067 14.3186 39.3863 13.8126 39.3703C13.7362 39.3689 13.6599 39.3674 13.5812 39.3659C13.3506 39.3469 13.3506 39.3469 13.113 39.2738C12.8691 39.2252 12.8691 39.2252 12.6792 39.4186C12.6132 39.4953 12.5472 39.572 12.4793 39.651C12.0384 40.118 11.7072 40.3626 11.0571 40.3838C10.5348 40.3549 10.213 40.2367 9.79511 39.9083C9.67145 39.8438 9.54687 39.781 9.42085 39.7212C9.3792 39.7636 9.33754 39.806 9.29462 39.8498C8.28013 40.8829 7.26331 41.9136 6.24386 42.9418C5.75091 43.4391 5.25878 43.9371 4.7685 44.4371C4.34109 44.8729 3.91221 45.3072 3.48152 45.7397C3.25358 45.9688 3.02644 46.1985 2.80103 46.43C2.54918 46.6887 2.29405 46.944 2.03858 47.1991C1.96461 47.276 1.89065 47.353 1.81445 47.4324C1.46944 47.7717 1.22831 48.0003 0.73044 48.0197C0.490044 48.0069 0.377891 47.9795 0.184685 47.8346C-0.00650711 47.5797 -0.00371558 47.3739 0.00839808 47.0622C0.122145 46.5946 0.483022 46.3046 0.820203 45.9807C0.940665 45.86 0.940665 45.86 1.06356 45.7369C1.28325 45.5177 1.50463 45.3006 1.727 45.0841C1.95927 44.8571 2.18915 44.6277 2.4193 44.3986C2.85504 43.9654 3.29288 43.5345 3.73152 43.1043C4.23098 42.6143 4.72804 42.1218 5.22491 41.6292C6.24666 40.6162 7.27137 39.6063 8.29808 38.5984C8.18414 38.3618 8.06572 38.157 7.91797 37.9376C7.63813 37.5133 7.58127 37.1328 7.64312 36.6335C7.81784 36.0582 8.17482 35.7031 8.62446 35.3196C8.79316 35.1447 8.79316 35.1447 8.74251 34.9088C8.71935 34.8296 8.69619 34.7503 8.67234 34.6687C8.65746 34.5171 8.64772 34.3648 8.6431 34.2126C8.6396 34.1375 8.6361 34.0625 8.6325 33.9852C8.7545 33.2129 9.392 32.6982 9.9237 32.1795C10.0134 32.091 10.103 32.0024 10.1926 31.9137C10.3846 31.7238 10.5771 31.5343 10.7698 31.3452C11.0746 31.046 11.378 30.7456 11.6813 30.4449C12.5434 29.5904 13.407 28.7375 14.2724 27.8863C14.751 27.4154 15.2285 26.9434 15.7047 26.4702C16.0059 26.1709 16.3086 25.8732 16.6123 25.5765C16.8006 25.3919 16.9876 25.2059 17.1741 25.0195C17.3024 24.8921 17.4323 24.7665 17.5622 24.6408C17.6379 24.5646 17.7136 24.4884 17.7916 24.4099C17.8581 24.3444 17.9247 24.2788 17.9932 24.2113C18.1505 24.0016 18.1505 24.0016 18.105 23.7096C18.0108 23.3773 17.942 23.2607 17.6546 23.0666C17.2382 22.9511 16.9097 22.9425 16.4967 23.0725C16.0895 23.3731 15.9852 23.7287 15.8885 24.207C15.7833 24.5637 15.7833 24.5637 15.5791 24.7236C15.0937 24.946 14.5778 24.8923 14.0523 24.8912C13.9379 24.8938 13.8234 24.8965 13.7055 24.8992C12.8704 24.901 12.8704 24.901 12.4833 24.6309C12.3415 24.4082 12.2543 24.2592 12.2103 24.0023C12.1969 23.9384 12.1835 23.8744 12.1697 23.8086C12.158 23.749 12.1463 23.6894 12.1342 23.628C12.0778 23.3618 12.0778 23.3618 11.9471 23.1602C11.4937 22.9169 11.03 22.9327 10.5436 23.0666C10.1331 23.3344 10.0456 23.6034 9.93546 24.0608C9.91906 24.1488 9.90265 24.2369 9.88575 24.3276C9.76393 24.6449 9.63006 24.6975 9.32729 24.8444C8.90796 24.9037 8.48727 24.8921 8.06416 24.8912C7.9497 24.8938 7.83525 24.8965 7.71732 24.8992C6.88391 24.901 6.88391 24.901 6.49842 24.6375C6.3393 24.3862 6.24157 24.1845 6.16948 23.897C6.14873 23.8177 6.12799 23.7383 6.10661 23.6565C6.08876 23.5854 6.07091 23.5142 6.05252 23.4409C6.02165 23.3483 5.99077 23.2556 5.95896 23.1602C5.49393 22.9277 5.04823 22.9309 4.55548 23.0666C4.14498 23.3344 4.05742 23.6034 3.94731 24.0608C3.93091 24.1488 3.91451 24.2369 3.89761 24.3276C3.77521 24.6464 3.64479 24.6985 3.33914 24.8444C2.93664 24.8945 2.5357 24.8887 2.13029 24.8861C1.93619 24.8853 1.74234 24.888 1.54825 24.891C1.36372 24.8909 1.36372 24.8909 1.17546 24.8908C1.06329 24.891 0.95112 24.8911 0.835553 24.8913C0.463288 24.8337 0.326587 24.7384 0.0643748 24.4701C0.00550327 24.1825 0.00550327 24.1825 0.00496878 23.838C0.00423898 23.7745 0.00350921 23.711 0.00275729 23.6456C0.00089161 23.433 0.00236897 23.2205 0.00384091 23.0078C0.00320697 22.8553 0.002374 22.7029 0.00135673 22.5504C-0.000777521 22.1363 5.15481e-05 21.7223 0.00153412 21.3082C0.00271772 20.875 0.00162029 20.4419 0.000885597 20.0088C3.42336e-05 19.2814 0.00115678 18.554 0.00338405 17.8266C0.00593012 16.9853 0.00510541 16.1441 0.00252958 15.3029C0.0004073 14.5809 0.000106745 13.8589 0.00133139 13.1369C0.00206113 12.7056 0.00215688 12.2743 0.000612553 11.8429C-0.000737869 11.4374 0.000196656 11.032 0.0029022 10.6264C0.00352134 10.4775 0.00334217 10.3286 0.0023115 10.1797C0.0010349 9.97656 0.00263342 9.77363 0.00496878 9.5705C0.00514516 9.45679 0.00532154 9.34308 0.00550327 9.22593C0.0643748 8.93836 0.0643748 8.93836 0.280801 8.71136C0.532199 8.5641 0.532199 8.5641 0.871371 8.56995C1.28635 8.68522 1.28635 8.68522 1.46785 8.93836C1.50239 9.19793 1.50239 9.19793 1.5016 9.51914C1.50199 9.64076 1.50237 9.76239 1.50277 9.8877C1.50178 10.0228 1.50076 10.1579 1.49971 10.2929C1.49963 10.4349 1.49968 10.5769 1.49984 10.7189C1.49992 11.1048 1.49826 11.4906 1.49631 11.8764C1.49455 12.2795 1.49439 12.6826 1.49405 13.0857C1.49318 13.8492 1.49088 14.6126 1.48806 15.3761C1.48493 16.2452 1.48338 17.1143 1.48197 17.9834C1.47904 19.7714 1.4741 21.5594 1.46785 23.3473C1.80749 23.3473 2.14713 23.3473 2.49706 23.3473C2.51636 23.2701 2.53565 23.193 2.55554 23.1134C2.8714 22.3094 3.39959 21.834 4.18123 21.476C5.10159 21.242 5.9686 21.3742 6.78715 21.8594C7.2435 22.2046 7.55772 22.7169 7.73669 23.2538C7.9837 23.2538 8.23071 23.2538 8.48521 23.2538C8.51138 23.1927 8.53755 23.1317 8.56452 23.0688C8.92616 22.2804 9.35783 21.8112 10.1694 21.476C11.0082 21.2197 11.8286 21.3846 12.6021 21.7567C13.1582 22.0864 13.5234 22.6493 13.7248 23.2538C13.9718 23.2538 14.2189 23.2538 14.4734 23.2538C14.4995 23.1927 14.5257 23.1317 14.5527 23.0688C14.9123 22.2849 15.2847 21.8638 16.0873 21.5345C16.892 21.2725 17.6012 21.2913 18.3757 21.6372C18.8249 21.8875 19.1655 22.2383 19.5259 22.5988C19.9815 22.2766 20.4479 21.9213 20.6162 21.369C20.7116 20.7859 20.6898 20.195 20.6805 19.6061C20.6811 19.4078 20.6822 19.2095 20.6837 19.0111C20.6865 18.4751 20.683 17.9392 20.6783 17.4032C20.6745 16.8421 20.6765 16.2811 20.6779 15.72C20.6797 14.6586 20.6762 13.5973 20.6709 12.536C20.665 11.3272 20.665 10.1185 20.6655 8.90969C20.6664 6.42416 20.6599 3.93868 20.6486 1.45318C20.4961 1.46374 20.3437 1.4756 20.1913 1.48804C20.0639 1.49774 20.0639 1.49774 19.934 1.50764C19.696 1.52599 19.696 1.52599 19.5456 1.73753C19.5198 1.81737 19.494 1.89722 19.4674 1.97948C19.2068 2.61849 18.7859 3.02797 18.1575 3.31863C17.4764 3.53354 16.6465 3.53899 15.9821 3.27184C15.2532 2.88501 14.7837 2.40332 14.4734 1.64031C14.4734 1.57855 14.4734 1.5168 14.4734 1.45318C14.0848 1.4386 14.0848 1.4386 13.7248 1.54674C13.5784 1.76664 13.4855 1.99223 13.3816 2.23496C13.1281 2.73839 12.6763 3.08411 12.1693 3.31863C11.4883 3.53354 10.6584 3.53899 9.99394 3.27184C9.26506 2.88501 8.79558 2.40332 8.48521 1.64031C8.48521 1.57855 8.48521 1.5168 8.48521 1.45318C8.09669 1.4386 8.09669 1.4386 7.73669 1.54674C7.59023 1.76664 7.49732 1.99223 7.3935 2.23496C7.13992 2.73839 6.6882 3.08411 6.18117 3.31863C5.50015 3.53354 4.67021 3.53899 4.00579 3.27184C3.27692 2.88501 2.80744 2.40332 2.49706 1.64031C2.49706 1.57855 2.49706 1.5168 2.49706 1.45318C2.15742 1.45318 1.81778 1.45318 1.46785 1.45318C1.4703 1.58727 1.47275 1.72136 1.47527 1.85951C1.48374 2.3568 1.48911 2.85409 1.49354 3.35143C1.4959 3.56671 1.49909 3.78199 1.50314 3.99724C1.50881 4.30662 1.51147 4.61589 1.51353 4.92531C1.51595 5.02162 1.51836 5.11792 1.52085 5.21714C1.52111 5.88222 1.52111 5.88223 1.25228 6.19547C0.908443 6.36323 0.709334 6.32617 0.345069 6.22498C0.187256 6.11308 0.187256 6.11307 0.0643748 5.94429C0.0287312 5.6993 0.0287312 5.6993 0.0280544 5.40154C0.0271697 5.29007 0.0262849 5.17861 0.0253733 5.06376C0.0259414 4.94329 0.0265096 4.82283 0.027095 4.69871C0.0269059 4.57392 0.0266335 4.44912 0.0262813 4.32433C0.0258675 4.06289 0.0264687 3.80146 0.0277803 3.54002C0.0293796 3.20492 0.0284587 2.86989 0.0267776 2.53479C0.0257632 2.27713 0.0260861 2.01948 0.0268134 1.76182C0.0270917 1.57819 0.0262394 1.39456 0.0253733 1.21093C0.0267004 1.04373 0.0267004 1.04373 0.0280544 0.87315C0.0282778 0.774889 0.0285011 0.676629 0.0287312 0.575392C0.0643748 0.330401 0.0643748 0.330401 0.18712 0.158494C0.450637 -0.0230044 0.746296 0.00787005 1.05521 0.00913719ZM39.7534 1.6637C39.6262 1.85117 39.5768 1.97674 39.5487 2.2017C39.6374 2.36819 39.6374 2.36819 39.793 2.52079C39.8541 2.58623 39.9152 2.65167 39.9782 2.71909C40.0526 2.79536 40.127 2.87163 40.2037 2.95021C40.2675 3.01607 40.2675 3.01607 40.3325 3.08325C40.699 3.4611 41.07 3.83437 41.4416 4.20713C41.5004 4.26619 41.5592 4.32526 41.6198 4.38612C41.93 4.6977 42.2404 5.00902 42.5511 5.3201C42.8717 5.64122 43.1914 5.9632 43.5109 6.28539C43.7575 6.53364 44.0046 6.78126 44.2519 7.02871C44.3701 7.14722 44.4881 7.26596 44.6059 7.38495C44.77 7.55065 44.935 7.71546 45.1002 7.88007C45.1485 7.9293 45.1969 7.97853 45.2467 8.02926C45.573 8.35546 45.573 8.35546 46.0047 8.47054C46.2541 8.37789 46.3522 8.33695 46.4725 8.09628C46.5256 7.8337 46.5256 7.8337 46.4725 7.53489C46.2988 7.30582 46.1351 7.12066 45.9317 6.92146C45.8742 6.86298 45.8167 6.80449 45.7575 6.74423C45.5672 6.55144 45.3748 6.36077 45.1823 6.17016C45.0493 6.03679 44.9164 5.90333 44.7836 5.7698C44.505 5.49032 44.2253 5.21188 43.9449 4.93413C43.5856 4.57797 43.2288 4.21936 42.8727 3.85993C42.5988 3.58392 42.3235 3.30926 42.0477 3.03499C41.9156 2.90326 41.784 2.77112 41.6527 2.63856C41.4691 2.45349 41.2837 2.27032 41.0978 2.08753C41.0438 2.03242 40.9898 1.9773 40.9342 1.92052C40.6812 1.67537 40.53 1.55282 40.1759 1.50563C39.9242 1.528 39.9242 1.528 39.7534 1.6637ZM40.453 5.59013C40.4 5.64332 40.347 5.69651 40.2925 5.75131C40.2325 5.81125 40.1726 5.8712 40.1108 5.93296C40.0458 5.99845 39.9808 6.06394 39.9138 6.13142C39.8144 6.2311 39.8144 6.2311 39.7129 6.3328C39.5 6.54615 39.2875 6.75982 39.075 6.9735C38.9312 7.11777 38.7874 7.26201 38.6436 7.40624C38.2901 7.76076 37.9369 8.11555 37.5839 8.47054C37.7313 8.78162 37.8909 8.98667 38.1372 9.22929C38.2084 9.29985 38.2795 9.3704 38.3528 9.4431C38.4271 9.51583 38.5014 9.58856 38.578 9.66349C38.653 9.73766 38.728 9.81184 38.8053 9.88826C38.9903 10.0711 39.1758 10.2534 39.3616 10.4354C39.6334 10.3125 39.8263 10.1808 40.036 9.96936C40.0922 9.91317 40.1483 9.85699 40.2062 9.7991C40.2954 9.70846 40.2954 9.70846 40.3864 9.61598C40.4482 9.55394 40.51 9.4919 40.5736 9.42798C40.7704 9.23012 40.9666 9.03162 41.1627 8.8331C41.2962 8.69868 41.4297 8.5643 41.5633 8.42997C41.8903 8.10091 42.2167 7.77127 42.5428 7.44133C42.1067 6.92626 42.1067 6.92626 41.6433 6.43587C41.5865 6.37888 41.5296 6.32189 41.471 6.26318C41.4136 6.20619 41.3563 6.1492 41.2972 6.09048C41.2085 6.0012 41.2085 6.0012 41.1179 5.91012C41.0335 5.8259 41.0335 5.8259 40.9474 5.73998C40.8966 5.68927 40.8458 5.63856 40.7935 5.58632C40.627 5.43637 40.619 5.43905 40.453 5.59013ZM33.812 7.57582C33.6286 7.72391 33.6286 7.72391 33.543 8.01441C33.5617 8.40079 33.5719 8.43333 33.8149 8.69789C33.875 8.76342 33.9352 8.82895 33.9971 8.89647C34.461 9.38281 34.93 9.86367 35.4026 10.3415C35.459 10.3985 35.5154 10.4555 35.5735 10.5142C35.8712 10.8149 36.1693 11.1153 36.4676 11.4154C36.7135 11.6631 36.9586 11.9115 37.2031 12.1606C37.4999 12.463 37.798 12.764 38.0972 13.064C38.2105 13.1781 38.3233 13.2927 38.4356 13.4077C38.5925 13.5683 38.7511 13.727 38.9102 13.8854C38.9558 13.9329 39.0014 13.9804 39.0484 14.0293C39.3823 14.3563 39.6448 14.451 40.1101 14.4587C40.4008 14.3024 40.4008 14.3024 40.4785 14.061C40.489 13.5984 40.1586 13.2956 39.8593 12.9665C39.7633 12.8688 39.6667 12.7716 39.5698 12.6748C39.5168 12.6212 39.4638 12.5676 39.4092 12.5123C39.2352 12.3366 39.0605 12.1615 38.8857 11.9865C38.7638 11.864 38.6419 11.7415 38.5201 11.619C38.2651 11.3629 38.0098 11.1072 37.7542 10.8517C37.4271 10.5246 37.1013 10.1963 36.7758 9.86758C36.5247 9.61442 36.2728 9.36211 36.0206 9.11004C35.9001 8.98933 35.7799 8.86831 35.66 8.74699C35.4923 8.57745 35.3235 8.40915 35.1543 8.2411C35.1053 8.19104 35.0563 8.14097 35.0058 8.08939C34.6634 7.75271 34.3108 7.48147 33.812 7.57582ZM33.4031 10.8511C33.3403 10.9142 33.2776 10.9774 33.2129 11.0425C33.1418 11.1137 33.0706 11.1848 32.9973 11.2582C32.9205 11.3359 32.8437 11.4137 32.7645 11.4938C32.6859 11.5728 32.6072 11.6517 32.5262 11.733C32.2741 11.9862 32.0226 12.24 31.7711 12.4938C31.6007 12.6652 31.4303 12.8364 31.2598 13.0077C30.8411 13.4285 30.4229 13.8498 30.0051 14.2716C30.1446 14.5666 30.2828 14.748 30.5256 14.9674C30.7286 15.1658 30.8391 15.2807 30.9466 15.5464C30.9395 15.8163 30.8794 15.9981 30.7536 16.2364C30.4373 16.3946 30.1538 16.422 29.818 16.33C29.5021 16.0791 29.238 15.7937 28.9759 15.4879C28.5744 15.6425 28.3076 15.9455 28.0125 16.2459C27.9292 16.3296 27.9292 16.3296 27.8442 16.415C27.6674 16.5929 27.4912 16.7713 27.3151 16.9498C27.1952 17.0707 27.0752 17.1916 26.9551 17.3124C26.6614 17.6082 26.3682 17.9046 26.0754 18.2013C26.1133 18.2452 26.1511 18.2892 26.1902 18.3345C26.2402 18.3927 26.2903 18.4509 26.3418 18.5108C26.3913 18.5683 26.4407 18.6258 26.4917 18.685C27.0133 19.3007 27.0133 19.3007 27.0052 19.7159C26.8707 20.1194 26.8707 20.1194 26.6368 20.2597C26.2269 20.3076 26.0467 20.3091 25.7132 20.055C25.6339 19.9682 25.5547 19.8813 25.4731 19.7919C25.3921 19.705 25.3112 19.6182 25.2278 19.5287C25.1679 19.4612 25.1079 19.3936 25.0462 19.3241C24.3979 19.8542 23.8165 20.4497 23.2275 21.0433C23.1223 21.149 23.0171 21.2546 22.9119 21.3602C22.6562 21.6169 22.4009 21.8739 22.1457 22.131C22.5546 22.6203 22.9849 23.0763 23.4373 23.5253C23.505 23.5929 23.5728 23.6605 23.6426 23.7302C23.8568 23.9439 24.0714 24.1573 24.286 24.3707C24.4322 24.5165 24.5784 24.6622 24.7245 24.808C25.081 25.1635 25.4378 25.5186 25.7947 25.8736C26.4066 25.37 26.9615 24.8129 27.5203 24.2521C27.6273 24.1451 27.7343 24.0381 27.8414 23.9311C28.1304 23.6422 28.4191 23.3529 28.7077 23.0636C29.01 22.7608 29.3125 22.4582 29.615 22.1556C30.1871 21.5832 30.759 21.0105 31.3308 20.4378C31.982 19.7855 32.6336 19.1334 33.2851 18.4814C34.6248 17.1408 35.9641 15.7999 37.3032 14.4587C37.163 14.1653 37.019 13.9637 36.7886 13.7327C36.7217 13.6653 36.6549 13.5979 36.5861 13.5285C36.514 13.4567 36.4418 13.385 36.3675 13.3111C36.2935 13.2368 36.2194 13.1626 36.1431 13.0861C35.9867 12.9295 35.83 12.7732 35.6731 12.6171C35.4321 12.3771 35.1922 12.1362 34.9523 11.8952C34.8004 11.7433 34.6483 11.5915 34.4962 11.4398C34.4241 11.3673 34.352 11.2947 34.2777 11.22C34.1774 11.1207 34.1774 11.1207 34.0752 11.0194C34.0163 10.9606 33.9575 10.9019 33.8968 10.8414C33.6845 10.663 33.6126 10.6715 33.4031 10.8511ZM20.7632 23.5029C20.6486 23.6174 20.5343 23.7323 20.4202 23.8473C20.3301 23.9377 20.3301 23.9377 20.2381 24.0298C20.0453 24.2232 19.8528 24.4168 19.6604 24.6105C19.5301 24.7412 19.3998 24.8719 19.2695 25.0026C18.9492 25.3239 18.6293 25.6454 18.3095 25.9672C18.451 26.2656 18.6031 26.463 18.8358 26.6981C19.0844 26.9757 19.1476 27.0655 19.2101 27.4466C19.1516 27.7449 19.1516 27.7449 19.0463 27.9203C18.7739 28.0838 18.633 28.1313 18.3095 28.1191C18.0303 27.9299 17.7972 27.7039 17.561 27.4642C17.5073 27.4106 17.4536 27.3571 17.3983 27.3019C17.3594 27.2628 17.3204 27.2238 17.2803 27.1835C16.8788 27.3381 16.612 27.6411 16.3169 27.9415C16.2613 27.9973 16.2058 28.0531 16.1486 28.1106C15.9718 28.2885 15.7956 28.4669 15.6195 28.6454C15.4996 28.7663 15.3796 28.8872 15.2595 29.008C14.9658 29.3038 14.6726 29.6002 14.3798 29.8969C14.5193 30.1919 14.6575 30.3733 14.9002 30.5928C15.1033 30.7912 15.2138 30.906 15.3213 31.1717C15.3142 31.4417 15.2541 31.6234 15.1283 31.8617C14.812 32.0199 14.5285 32.0474 14.1927 31.9553C13.8768 31.7044 13.6127 31.419 13.3506 31.1132C13.0815 31.2355 12.8855 31.3668 12.6747 31.5733C12.6182 31.6283 12.5617 31.6833 12.5036 31.7399C12.4438 31.7992 12.384 31.8584 12.3225 31.9195C12.2605 31.9806 12.1985 32.0418 12.1346 32.1048C12.004 32.234 11.8737 32.3635 11.7437 32.4932C11.5438 32.6919 11.3423 32.8888 11.1407 33.0858C11.014 33.2115 10.8875 33.3373 10.7611 33.4633C10.67 33.5516 10.67 33.5516 10.5771 33.6417C10.5221 33.6973 10.4671 33.7529 10.4105 33.8101C10.3615 33.8586 10.3126 33.907 10.2622 33.957C10.1513 34.104 10.1513 34.104 10.1815 34.2909C10.2801 34.5218 10.4004 34.656 10.5768 34.8347C10.643 34.9024 10.7093 34.9701 10.7775 35.0399C10.8495 35.1119 10.9215 35.184 10.9957 35.2582C11.0695 35.3327 11.1432 35.4071 11.2192 35.4838C11.3753 35.6409 11.5317 35.7977 11.6885 35.954C11.929 36.1944 12.1673 36.4366 12.4056 36.679C12.5573 36.8313 12.7092 36.9834 12.8612 37.1354C12.9326 37.2083 13.0041 37.2813 13.0777 37.3565C13.1448 37.4228 13.2119 37.489 13.2811 37.5572C13.3692 37.6456 13.3692 37.6456 13.459 37.7358C13.6206 37.8683 13.6206 37.8683 13.8008 37.8365C14.0854 37.725 14.2434 37.5529 14.459 37.3366C14.5033 37.2926 14.5475 37.2485 14.5931 37.2032C14.7414 37.0554 14.8885 36.9067 15.0357 36.758C15.1417 36.6519 15.2478 36.5459 15.3539 36.4399C15.642 36.1519 15.9292 35.8631 16.2162 35.5741C16.5163 35.2723 16.8172 34.9712 17.1179 34.6701C17.6874 34.0997 18.2562 33.5286 18.8248 32.9573C19.472 32.3069 20.1201 31.6573 20.7682 31.0077C22.1015 29.6715 23.4338 28.3343 24.7655 26.9964C24.4719 26.6497 24.1796 26.3053 23.8584 25.9836C23.7969 25.9219 23.7355 25.8601 23.6721 25.7965C23.6078 25.7323 23.5434 25.6681 23.4771 25.602C23.4096 25.5344 23.3421 25.4668 23.2725 25.3972C23.131 25.2556 22.9894 25.1142 22.8477 24.9728C22.6297 24.7554 22.4123 24.5374 22.1948 24.3194C22.057 24.1816 21.9192 24.0439 21.7813 23.9062C21.6833 23.8079 21.6833 23.8079 21.5834 23.7077C21.4934 23.6182 21.4934 23.6182 21.4016 23.5268C21.3487 23.4739 21.2957 23.4211 21.2411 23.3666C21.0077 23.1554 21.0177 23.2587 20.7632 23.5029ZM9.63357 36.4025C9.54564 36.4937 9.54564 36.4937 9.45594 36.5868C9.39684 36.6475 9.33774 36.7083 9.27685 36.771C9.23174 36.8182 9.18664 36.8655 9.14016 36.9142C9.27653 37.2289 9.44997 37.4331 9.69351 37.673C9.80025 37.7788 9.80025 37.7788 9.90915 37.8868C9.98344 37.9595 10.0577 38.0323 10.1343 38.1072C10.2093 38.1814 10.2843 38.2555 10.3616 38.332C10.5466 38.5148 10.7321 38.6971 10.9179 38.8791C11.2702 38.718 11.4934 38.5056 11.76 38.2241C11.6241 37.9123 11.4526 37.7056 11.2132 37.4654C11.1429 37.3948 11.0726 37.3243 11.0001 37.2516C10.9267 37.1789 10.8532 37.1061 10.7775 37.0312C10.7041 36.957 10.6306 36.8828 10.555 36.8064C10.4495 36.7013 10.4495 36.7013 10.3419 36.5941C10.2774 36.5298 10.2129 36.4656 10.1465 36.3994C9.92147 36.2075 9.8552 36.206 9.63357 36.4025Z" fill="white"/>
<path d="M33.3212 30.368C35.1001 31.7362 36.0475 33.9793 36.9812 35.9552C38.2043 38.5321 39.4874 40.4473 42.193 41.5567C44.9144 42.6751 44.9144 42.6751 46.0043 43.6509C46.0873 43.7248 46.1703 43.7988 46.2558 43.875C47.2132 44.7797 47.9629 45.9054 48.0101 47.259C48.0097 47.5081 48.0061 47.6269 47.852 47.8243C47.646 47.9888 47.5387 47.9905 47.2772 47.9918C47.1931 47.9929 47.109 47.9939 47.0224 47.995C46.9304 47.9947 46.8383 47.9945 46.7435 47.9942C46.6465 47.995 46.5494 47.9958 46.4493 47.9966C46.1276 47.9988 45.806 47.9989 45.4842 47.9987C45.2611 47.9994 45.0379 48.0001 44.8147 48.0009C44.3467 48.0022 43.8786 48.0023 43.4105 48.0018C42.8101 48.0012 42.2097 48.0041 41.6092 48.0079C41.1483 48.0103 40.6873 48.0105 40.2263 48.0102C40.0049 48.0104 39.7835 48.0113 39.5621 48.0129C39.2527 48.015 38.9435 48.0141 38.6341 48.0125C38.5423 48.0137 38.4505 48.0149 38.3558 48.0162C37.7384 48.0085 37.7384 48.0085 37.4297 47.7386C37.2564 47.3952 37.2947 47.198 37.3964 46.8321C37.5199 46.6744 37.5199 46.6744 37.6771 46.5514C37.9545 46.5224 38.2128 46.5105 38.4905 46.511C38.5736 46.51 38.6567 46.5091 38.7423 46.5081C39.0172 46.5052 39.2921 46.5044 39.567 46.5035C39.7575 46.502 39.948 46.5003 40.1385 46.4984C40.6401 46.494 41.1417 46.4912 41.6433 46.4888C42.155 46.486 42.6668 46.4816 43.1786 46.4774C44.1828 46.4693 45.1871 46.4631 46.1914 46.4579C46.1022 46.307 46.0127 46.1563 45.923 46.0056C45.8732 45.9217 45.8234 45.8377 45.772 45.7512C44.807 44.1945 42.7883 43.5418 41.1795 42.8721C37.5902 41.374 36.3604 38.4302 34.7528 35.0718C34.3321 34.1982 33.844 33.399 33.2795 32.6103C33.2307 32.5409 33.1818 32.4716 33.1315 32.4001C32.6437 31.7689 31.8913 31.3201 31.1275 31.1132C30.1021 31 29.2473 31.1918 28.4141 31.8033C27.4761 32.6098 26.8217 33.6725 26.1607 34.7046C24.4478 37.3782 22.7075 39.4298 19.8245 40.8356C17.4359 42.0011 15.3706 43.5964 14.086 45.9639C14.0106 46.1027 14.0106 46.1027 13.9337 46.2443C13.8955 46.3148 13.8574 46.3853 13.818 46.4579C13.9252 46.458 14.0324 46.4581 14.1428 46.4583C16.7486 46.4617 19.3543 46.4672 21.96 46.4751C22.2106 46.4758 22.4613 46.4765 22.7119 46.4773C22.7742 46.4775 22.8365 46.4776 22.9007 46.4778C23.91 46.4807 24.9192 46.4823 25.9285 46.4834C26.9638 46.4846 27.9991 46.4872 29.0344 46.491C29.616 46.4932 30.1977 46.4946 30.7793 46.4945C31.3264 46.4944 31.8735 46.4961 32.4206 46.4991C32.6217 46.4999 32.8228 46.5001 33.0239 46.4996C33.2979 46.4989 33.5718 46.5006 33.8459 46.5029C33.9259 46.5021 34.006 46.5014 34.0886 46.5007C34.4434 46.5058 34.6253 46.51 34.9195 46.7211C35.1221 47.022 35.1078 47.2265 35.0572 47.5806C34.9229 47.7852 34.9229 47.7852 34.683 47.9549C34.3862 48.011 34.0929 48.0058 33.7915 48.003C33.7002 48.0037 33.6088 48.0043 33.5147 48.005C33.2076 48.0067 32.9007 48.0058 32.5937 48.0048C32.3739 48.0055 32.1541 48.0063 31.9344 48.0072C31.3369 48.0094 30.7394 48.0091 30.1418 48.0082C29.5805 48.0077 29.0192 48.0086 28.4579 48.0094C27.2784 48.0109 26.099 48.0101 24.9195 48.0086C23.8401 48.0072 22.7607 48.0085 21.6813 48.0112C20.5732 48.014 19.4652 48.015 18.3571 48.0141C17.7349 48.0136 17.1127 48.0139 16.4905 48.0158C15.9056 48.0175 15.3207 48.017 14.7358 48.0147C14.5208 48.0142 14.3058 48.0145 14.0908 48.0157C13.798 48.0172 13.5053 48.0158 13.2124 48.0137C13.1268 48.0148 13.0411 48.0159 12.9528 48.017C12.3782 48.0085 12.3782 48.0085 12.0802 47.7292C11.8647 47.3383 11.9307 47.0661 12.0403 46.645C12.5853 45.0597 13.5164 43.737 14.6601 42.5281C14.7301 42.4521 14.8 42.3762 14.8721 42.2979C16.2362 40.8661 17.9948 39.9028 19.7594 39.0487C22.0717 37.9198 23.4208 36.0478 24.7579 33.9217C25.9388 32.0455 27.2022 30.151 29.4766 29.5588C30.8667 29.3555 32.1496 29.5649 33.3212 30.368Z" fill="white"/>
<path d="M7.78932 13.7979C8.21058 13.9281 8.35514 14.1113 8.62701 14.4463C9.16078 15.0834 9.70803 15.5193 10.5436 15.675C11.4883 15.7567 12.3236 15.6085 13.0765 15.0099C13.2889 14.8018 13.4554 14.5755 13.6313 14.3359C14.0158 13.8358 14.0158 13.8358 14.3973 13.7628C14.754 13.8037 14.754 13.8037 15.0347 13.9967C15.2219 14.2716 15.2219 14.2716 15.2862 14.5289C15.1124 15.3502 14.4225 16.0383 13.7537 16.5062C12.6056 17.2217 11.3685 17.466 10.0298 17.201C8.82625 16.8626 7.81382 16.199 7.10476 15.152C6.94062 14.8346 6.93784 14.6238 6.98817 14.2716C7.23654 13.9103 7.34583 13.8057 7.78932 13.7979Z" fill="white"/>
<path d="M13.163 9.40607C13.3852 9.6049 13.3852 9.6049 13.5373 9.78033C13.7426 9.68828 13.8925 9.61388 14.046 9.44701C14.2468 9.26225 14.3896 9.23826 14.66 9.21894C14.9344 9.29081 15.0927 9.37446 15.3033 9.56396C15.4623 9.89077 15.4119 10.0899 15.315 10.4353C15.0752 10.7101 15.0752 10.7101 14.8472 10.9031C14.9389 11.1078 15.007 11.2545 15.1805 11.4002C15.3995 11.6572 15.4028 11.8823 15.4085 12.213C15.2301 12.5414 15.1137 12.6538 14.7594 12.7744C14.3436 12.7744 14.1326 12.6125 13.8355 12.3358C13.7988 12.2953 13.7622 12.2548 13.7244 12.213C13.5197 12.3048 13.373 12.3729 13.2273 12.5463C12.9702 12.7653 12.7452 12.7687 12.4145 12.7744C12.0861 12.5959 11.9737 12.4795 11.8531 12.1253C11.8531 11.7094 12.015 11.4985 12.2917 11.2013C12.3322 11.1647 12.3727 11.128 12.4145 11.0902C12.3226 10.8852 12.2513 10.7371 12.0812 10.5873C11.8789 10.3587 11.8651 10.1749 11.8531 9.8739C11.9756 9.57441 12.0754 9.44238 12.3502 9.27157C12.6842 9.20165 12.8557 9.26223 13.163 9.40607Z" fill="white"/>
<path d="M8.11097 9.40607C8.33904 9.6049 8.33903 9.6049 8.48523 9.78033C8.69057 9.68828 8.84046 9.61388 8.99399 9.44701C9.19481 9.26225 9.33755 9.23826 9.60801 9.21894C9.89773 9.30653 10.0482 9.3784 10.263 9.5932C10.3163 9.87909 10.3138 10.1492 10.263 10.4353C10.029 10.7218 10.029 10.7218 9.79514 10.9031C9.89171 11.1111 9.97728 11.272 10.1343 11.4411C10.3258 11.7544 10.3397 12.043 10.263 12.4001C10.07 12.6399 10.07 12.6399 9.79514 12.7744C9.36261 12.7821 9.19319 12.7271 8.86534 12.4411C8.80165 12.3658 8.73797 12.2906 8.67236 12.213C8.46765 12.3048 8.32101 12.3729 8.1753 12.5463C7.92467 12.7598 7.68381 12.7575 7.36245 12.7744C7.11468 12.7007 7.02292 12.6319 6.86539 12.4294C6.76881 12.1045 6.80877 11.8843 6.89463 11.5581C7.13439 11.2832 7.13439 11.2832 7.36245 11.0902C7.25512 10.8487 7.15472 10.6942 6.97065 10.4996C6.80106 10.2482 6.80106 10.2482 6.80691 9.90898C6.92433 9.48627 6.92433 9.48627 7.17532 9.31251C7.5525 9.18678 7.74196 9.27012 8.11097 9.40607Z" fill="white"/>
<path d="M29.2563 41.4055C29.5298 41.644 29.6164 41.798 29.6832 42.154C29.6112 42.538 29.4742 42.6723 29.1627 42.9025C28.8762 42.9552 28.8762 42.9552 28.6013 42.9025C28.3258 42.709 28.2417 42.5742 28.1393 42.2534C28.1323 41.9109 28.2071 41.7675 28.4142 41.4991C28.7069 41.3527 28.934 41.3722 29.2563 41.4055Z" fill="white"/>
<path d="M29.1627 35.1363C29.3791 35.2357 29.3791 35.2357 29.537 35.417C29.6402 35.7888 29.6694 35.9868 29.5077 36.341C29.3063 36.5946 29.2203 36.6257 28.8996 36.6684C28.6013 36.6334 28.6013 36.6334 28.3265 36.4462C28.1286 36.1584 28.1023 36.1063 28.1276 35.7796C28.1785 35.5301 28.2178 35.428 28.385 35.2299C28.6671 35.1079 28.8579 35.0982 29.1627 35.1363Z" fill="white"/>
<path d="M39.0808 43.6508C39.2972 43.7502 39.2972 43.7502 39.4551 43.9315C39.5584 44.3033 39.5875 44.5013 39.4259 44.8554C39.268 45.0543 39.268 45.0543 39.0808 45.1478C38.7811 45.1739 38.5783 45.1749 38.3031 45.0484C38.0677 44.7782 38.0577 44.5655 38.0516 44.2122C38.2929 43.6836 38.5119 43.6053 39.0808 43.6508Z" fill="white"/>
<path d="M19.3389 43.6507C19.5669 43.7911 19.5669 43.7911 19.7131 44.025C19.7712 44.3527 19.778 44.6551 19.6137 44.9548C19.3248 45.1132 19.1068 45.1478 18.7775 45.1478C18.5026 44.9606 18.5026 44.9606 18.3097 44.6799C18.2507 44.3066 18.2507 44.117 18.4558 43.7969C18.7721 43.5942 18.9702 43.598 19.3389 43.6507Z" fill="white"/>
<path d="M32.7769 36.8206C33.244 36.959 33.244 36.959 33.3734 37.1948C33.444 37.8304 33.444 37.8304 33.2272 38.1773C32.9103 38.3722 32.7096 38.3698 32.3442 38.3176C32.1161 38.1714 32.1161 38.1714 31.9699 37.9433C31.9021 37.529 31.9236 37.3557 32.1629 37.0077C32.4377 36.8206 32.4377 36.8206 32.7769 36.8206Z" fill="white"/>
</svg>
