<svg width="47" height="48" viewBox="0 0 47 48" fill="none" xmlns="http://www.w3.org/2000/svg">
<path d="M19.8668 0.163634C20.0173 0.171509 20.1681 0.176417 20.3188 0.175853C20.4205 0.176231 20.4205 0.176231 20.5243 0.176616C20.7575 0.1671 20.7575 0.1671 21.0282 0.115526C22.0664 -0.0535933 23.112 0.00425977 23.9904 0.621811C25.5967 1.94372 26.0399 3.89551 26.2461 5.88793C26.318 6.66029 26.3358 7.42771 26.3362 8.20311C26.3374 8.3218 26.3386 8.44049 26.3399 8.56278C26.3409 9.18701 26.3101 9.73245 26.1224 10.3291C26.197 10.3795 26.2716 10.4299 26.3484 10.4818C26.7626 10.8574 26.8804 11.1693 26.9357 11.7116C26.9828 13.1358 26.4503 14.4961 25.5001 15.5633C25.3264 15.7174 25.1569 15.8037 24.9495 15.9066C24.4404 16.1987 24.3274 16.6804 24.1244 17.2059C23.7861 17.997 23.1089 19.02 22.3104 19.4193C22.3426 19.6451 22.3749 19.8709 22.4081 20.1035C22.5089 20.037 22.6097 19.9704 22.7136 19.9019C22.9576 19.7408 23.0785 19.7123 23.3756 19.7175C23.768 19.8376 23.9381 20.0244 24.2164 20.3234C24.857 21.0045 25.2829 21.4173 26.2079 21.5635C26.9315 21.6948 27.5932 21.8854 28.2739 22.163C28.5524 22.2763 28.7504 22.3516 29.0547 22.3516C29.2158 22.1339 29.2158 22.1339 29.3663 21.8568C29.7251 21.2665 30.1393 20.7194 30.8141 20.4945C30.969 20.4921 31.1241 20.4953 31.2788 20.5021C32.687 20.5712 32.687 20.5712 33.942 20.0057C34.5568 19.64 34.9732 19.4583 35.7014 19.517C36.2022 19.6673 36.6451 19.8755 37.0759 20.1707C37.6624 20.5493 38.2399 20.4973 38.9205 20.4802C40.2175 20.455 40.2175 20.455 40.6863 20.8854C41.0216 21.2909 41.2969 21.7183 41.5355 22.1867C41.9034 22.6143 42.4153 22.7439 42.9344 22.9381C43.5641 23.1839 44.0222 23.4736 44.3029 24.111C44.3901 24.481 44.4452 24.8552 44.4874 25.2328C44.5765 25.9685 44.887 26.3874 45.433 26.8845C45.9224 27.3642 46.1391 27.7422 46.178 28.4419C46.1591 28.8209 46.0812 29.1207 45.9645 29.4808C45.6747 30.4651 45.7568 31.0023 46.0745 31.9829C46.2118 32.5267 46.2193 32.9977 45.9756 33.5117C45.7019 33.9601 45.3333 34.3486 44.9283 34.68C44.6039 35.0684 44.5692 35.4284 44.4984 35.9198C44.3923 36.6456 44.2518 37.3561 43.6417 37.832C43.3619 38.001 43.1661 38.0885 42.8367 38.0885C43.619 39.5095 44.4083 40.9246 45.2332 42.3214C45.9645 43.5625 45.9645 43.5625 45.9645 43.9715C45.8668 44.2464 45.8668 44.2464 45.6476 44.4136C45.3338 44.5603 45.2119 44.5544 44.8771 44.4846C44.7263 44.4546 44.7263 44.4546 44.5724 44.4239C44.4512 44.3976 44.33 44.3712 44.2051 44.3441C44.042 44.3102 43.8788 44.2765 43.7156 44.2429C43.2593 44.1484 42.8036 44.0513 42.348 43.9531C42.3336 44.0115 42.3193 44.0698 42.3045 44.1299C42.1489 44.7316 41.9638 45.3206 41.7615 45.908C41.7372 45.9805 41.7128 46.053 41.6878 46.1277C41.5645 46.4795 41.4683 46.7479 41.175 46.9832C40.8391 47.026 40.8391 47.026 40.4908 46.9832C40.1714 46.717 39.9857 46.4224 39.7891 46.0592C39.7022 45.9004 39.7022 45.9004 39.6135 45.7384C39.5522 45.625 39.491 45.5117 39.4279 45.3949C39.2978 45.1565 39.1673 44.9184 39.0365 44.6805C39.0034 44.6201 38.9702 44.5597 38.9361 44.4974C38.5383 43.7753 38.1184 43.0663 37.6947 42.3591C37.4355 41.9218 37.2003 41.517 37.0698 41.0208C37.0001 41.0549 36.9304 41.0891 36.8586 41.1243C35.9978 41.5333 35.3539 41.7132 34.4307 41.4118C34.1436 41.2529 34.1436 41.2529 33.942 41.1185C33.8775 41.1185 33.8129 41.1185 33.7465 41.1185C33.7073 41.1871 33.6681 41.2557 33.6277 41.3263C33.5722 41.4236 33.5166 41.5208 33.4594 41.621C33.3968 41.7306 33.3342 41.8401 33.2697 41.953C33.1302 42.197 32.9907 42.441 32.851 42.6849C32.5165 43.2695 32.1826 43.8543 31.8522 44.4411C31.7114 44.691 31.5702 44.9407 31.4289 45.1904C31.3615 45.3098 31.2943 45.4293 31.2274 45.549C31.1335 45.7169 31.0387 45.8842 30.944 46.0516C30.8904 46.1468 30.8369 46.242 30.7818 46.34C30.6169 46.5949 30.4606 46.7888 30.2277 46.9832C29.6426 47.055 29.6426 47.0551 29.3897 46.8718C29.2003 46.6249 29.125 46.3798 29.0292 46.084C28.9904 45.9659 28.9517 45.8478 28.9118 45.7261C28.8718 45.6014 28.8319 45.4768 28.7921 45.3521C28.7511 45.2263 28.71 45.1005 28.6689 44.9747C28.5687 44.667 28.4692 44.3591 28.3705 44.0509C27.6639 44.1175 26.9921 44.2493 26.3024 44.414C25.8579 44.5139 25.4941 44.5832 25.0472 44.4418C24.8032 44.0757 24.8142 43.8987 24.8517 43.4644C24.9782 43.165 24.9782 43.165 25.156 42.8642C25.1882 42.8088 25.2204 42.7534 25.2535 42.6964C25.3565 42.5198 25.4614 42.3446 25.5665 42.1693C25.6329 42.0564 25.6991 41.9433 25.7652 41.8302C25.9029 41.5952 26.0413 41.3606 26.1803 41.1264C26.4589 40.6557 26.7326 40.1823 27.0063 39.7089C27.0543 39.6259 27.1022 39.543 27.1517 39.4575C27.2648 39.2618 27.3778 39.0661 27.4908 38.8704C26.7814 38.8454 26.072 38.8263 25.3622 38.8147C25.0325 38.8091 24.7031 38.8016 24.3735 38.7893C22.8899 38.6527 22.8899 38.6527 21.5356 39.1006C21.2887 39.3718 21.1165 39.6246 20.942 39.9456C20.8293 40.0809 20.7138 40.2139 20.5937 40.3427C20.5402 40.4043 20.4866 40.4659 20.4315 40.5294C20.1556 40.8441 19.8743 41.1539 19.5938 41.4645C19.3956 41.6855 19.2 41.9085 19.0054 42.1326C18.9505 42.1949 18.8955 42.2571 18.8389 42.3213C18.721 42.4559 18.6061 42.5933 18.4922 42.7313C18.3029 42.8779 18.3029 42.8779 18.0157 42.9329C17.6315 42.8623 17.4822 42.6641 17.2277 42.3892C17.1502 42.3076 17.1502 42.3076 17.0712 42.2243C16.8985 42.0418 16.727 41.8583 16.5557 41.6745C16.4947 41.6091 16.4338 41.5438 16.371 41.4764C16.0199 41.0988 15.6731 40.7185 15.3369 40.3274C15.0578 40.0062 14.7696 39.693 14.4828 39.3786C14.2953 39.1637 14.2953 39.1637 14.0998 38.8704C13.8528 38.8259 13.8528 38.8259 13.5588 38.8334C13.3863 38.8322 13.3863 38.8322 13.2104 38.831C13.0202 38.8319 13.0202 38.8319 12.8261 38.8328C12.6918 38.8324 12.5574 38.8319 12.423 38.8312C12.1333 38.8301 11.8436 38.8298 11.5539 38.8303C11.096 38.8309 10.6381 38.8294 10.1802 38.8275C9.20807 38.8238 8.23596 38.8225 7.26385 38.8215C6.21482 38.8205 5.1658 38.819 4.11678 38.8146C3.66138 38.8128 3.20601 38.8125 2.75061 38.8132C2.46748 38.8133 2.18437 38.8123 1.90124 38.8109C1.70695 38.8103 1.51266 38.8112 1.31836 38.8121C1.2031 38.8113 1.08784 38.8105 0.969086 38.8097C0.868698 38.8096 0.76831 38.8095 0.66488 38.8095C0.377798 38.7671 0.294652 38.7077 0.1224 38.4794C-0.0045278 38.2256 0.011542 38.0399 0.0104566 37.7556C0.00983304 37.6449 0.00920944 37.5342 0.00856695 37.4202C0.0084038 37.2393 0.00840379 37.2393 0.00823734 37.0549C0.00774934 36.8685 0.00774934 36.8685 0.00725148 36.6784C0.0067554 36.4142 0.00648521 36.15 0.00654304 35.8858C0.00655286 35.5516 0.00523081 35.2173 0.00353476 34.8831C0.00216642 34.5603 0.00224353 34.2376 0.00212832 33.9149C0.00142597 33.7969 0.000723627 33.6789 0 33.5574C0.007774 30.5919 0.977197 27.708 2.95699 25.4794C3.02011 25.4035 3.08324 25.3275 3.14828 25.2492C4.71684 23.3931 7.39067 21.7683 9.84339 21.538C9.98476 21.5295 9.98476 21.5295 10.129 21.5208C10.8519 21.4293 11.2779 20.8399 11.7414 20.3269C11.983 20.0631 12.2065 19.8642 12.5359 19.7125C12.9543 19.7296 13.2008 19.827 13.5134 20.1035C13.644 19.7653 13.644 19.7653 13.6111 19.4193C13.3914 19.1802 13.1485 18.985 12.8983 18.7782C12.1784 18.129 11.775 17.1936 11.4607 16.2915C11.4607 16.2269 11.4607 16.1624 11.4607 16.096C11.3757 16.0809 11.3757 16.0809 11.2889 16.0654C10.5586 15.8415 10.0569 15.0678 9.70135 14.4343C9.18744 13.4364 8.78055 12.3838 9.08434 11.2515C9.28648 10.7394 9.50192 10.4776 9.99458 10.2313C10.0591 10.2313 10.1236 10.2313 10.1901 10.2313C10.1812 10.1615 10.1723 10.0917 10.1632 10.0197C9.81897 7.28079 9.58621 4.54613 11.3225 2.20252C12.3125 0.984853 13.8226 0.324212 15.3498 0.096817C16.8249 -0.048492 18.4007 -0.0334154 19.8668 0.163634ZM12.4325 3.00395C11.2475 4.39279 11.1788 6.24997 11.2653 7.98319C11.3088 8.50759 11.3794 9.02724 11.4607 9.5471C11.5632 9.46436 11.6648 9.38066 11.7662 9.29663C11.8229 9.25013 11.8796 9.20364 11.938 9.15574C12.5582 8.57104 12.922 7.95455 13.2669 7.18061C13.3683 6.97241 13.4637 6.79344 13.6111 6.61476C14.1241 6.44097 14.5137 6.54933 15.0223 6.70029C17.2807 7.31785 19.4852 6.86177 21.4986 5.73163C21.7151 5.60293 21.9272 5.46664 22.1344 5.32347C22.4832 5.10065 22.6862 5.07963 23.0923 5.1486C23.3619 5.51566 23.5157 5.93384 23.6727 6.35819C23.698 6.42651 23.7234 6.49483 23.7495 6.56522C24.1365 7.63109 24.3996 8.71724 24.5585 9.84033C24.8212 9.62505 24.9389 9.50987 24.9985 9.16991C24.9983 9.0628 24.9982 8.95568 24.998 8.84532C24.9984 8.66518 24.9984 8.66518 24.9988 8.48141C24.9967 8.35328 24.9945 8.22516 24.9922 8.09315C24.9916 8.02777 24.991 7.9624 24.9903 7.89504C24.9746 6.32068 24.908 4.65482 24.2653 3.19371C24.2302 3.11408 24.1952 3.03445 24.1591 2.9524C23.8344 2.29861 23.3714 1.82238 22.7197 1.48929C22.1233 1.38405 21.5285 1.37915 20.942 1.53206C20.3154 1.58715 19.6943 1.50584 19.0726 1.43431C16.7258 1.171 14.2018 1.23464 12.4325 3.00395ZM22.3104 6.71251C22.0867 6.82448 21.8729 6.94185 21.6567 7.06683C20.2156 7.86633 18.7282 8.21524 17.0811 8.20311C16.9784 8.20387 16.8757 8.20462 16.7699 8.2054C16.1669 8.20391 15.6045 8.15064 15.0145 8.02509C14.759 7.97153 14.759 7.97153 14.3931 7.98319C14.2309 8.20498 14.2309 8.20498 14.0937 8.49634C13.8329 8.99457 13.5894 9.26464 13.1529 9.62842C12.5933 10.1772 12.5305 10.7263 12.5149 11.4894C12.5146 11.8192 12.5203 12.1479 12.5311 12.4775C12.542 12.8144 12.5451 13.1506 12.5468 13.4876C12.5674 15.1749 12.7394 16.6138 13.9361 17.905C14.459 18.4025 14.9901 18.7684 15.6638 19.0283C15.744 19.0594 15.8243 19.0905 15.907 19.1226C17.2058 19.5305 18.9864 19.5213 20.2577 19.0283C20.341 18.9962 20.4243 18.964 20.5101 18.9309C21.774 18.3699 22.5797 17.3416 23.1156 16.1002C23.2581 15.7181 23.301 15.3823 23.3051 14.9742C23.3064 14.8667 23.3076 14.7592 23.3089 14.6485C23.3096 14.5323 23.3104 14.4162 23.3111 14.2965C23.3123 14.1152 23.3123 14.1152 23.3135 13.9302C23.3149 13.6734 23.3159 13.4167 23.3167 13.1599C23.3175 12.9003 23.3198 12.6407 23.3227 12.3811C23.3439 10.4879 23.3024 8.57062 22.5059 6.81025C22.4091 6.76187 22.4091 6.76187 22.3104 6.71251ZM10.4986 11.5268C10.2832 11.8521 10.3275 12.2091 10.3856 12.5772C10.5922 13.2242 10.8385 13.7054 11.2653 14.2388C11.2653 13.3034 11.2653 12.368 11.2653 11.4042C10.7233 11.3493 10.7233 11.3493 10.4986 11.5268ZM24.754 11.4042C24.6263 11.5099 24.6263 11.5099 24.6451 11.7643C24.6457 11.8785 24.6462 11.9926 24.6467 12.1102C24.647 12.2334 24.6473 12.3565 24.6477 12.4834C24.6485 12.6145 24.6493 12.7455 24.6501 12.8765C24.6506 13.0079 24.6511 13.1393 24.6515 13.2707C24.6526 13.5934 24.6542 13.9161 24.6562 14.2388C25.2113 13.7071 25.5076 12.9951 25.6276 12.2351C25.6498 11.8232 25.6498 11.8232 25.4382 11.502C25.0947 11.4133 25.0947 11.4133 24.754 11.4042ZM14.8818 20.2012C14.6883 20.6367 14.6883 20.6367 14.4908 21.0809C14.8956 21.4941 15.3073 21.8876 15.7451 22.2653C15.9813 22.4704 16.2136 22.6795 16.4457 22.8892C16.5276 22.9628 16.6095 23.0364 16.6939 23.1122C16.8489 23.2519 17.0032 23.3924 17.1567 23.5337C17.2244 23.5952 17.2922 23.6567 17.3621 23.72C17.4213 23.7745 17.4805 23.8289 17.5415 23.885C17.7981 24.0741 17.7981 24.0741 18.1074 24.111C18.3148 23.9545 18.4868 23.8042 18.6694 23.6223C18.7745 23.5217 18.8796 23.4211 18.9848 23.3207C19.0356 23.2714 19.0864 23.2222 19.1387 23.1715C19.3154 23.0022 19.4981 22.8411 19.6835 22.6815C20.0662 22.35 20.4409 22.0099 20.8152 21.6689C21.0141 21.4944 21.2165 21.3339 21.4307 21.1787C21.322 20.837 21.2043 20.5194 21.0397 20.2012C20.9191 20.2313 20.9191 20.2313 20.7961 20.2619C18.803 20.743 16.8724 20.6817 14.8818 20.2012ZM34.449 21.2642C33.5845 21.8097 32.9114 21.9032 31.9069 21.7665C31.4908 21.7254 31.3445 21.7383 30.9787 21.9744C30.7328 22.2364 30.5647 22.4718 30.3926 22.7854C29.8461 23.6724 29.1105 23.9617 28.1479 24.2893C27.8547 24.3873 27.8547 24.3873 27.6863 24.6975C27.6533 24.8993 27.621 25.1014 27.5948 25.3042C27.4415 26.4852 27.0785 27.1339 26.1846 27.9307C25.9852 28.1649 25.9442 28.3006 25.9269 28.6073C26.0002 28.8952 26.0002 28.8952 26.1163 29.1937C26.456 30.2446 26.3889 31.1006 26.0029 32.1287C25.9123 32.4754 25.9144 32.6645 26.0247 33.0058C26.2552 33.2734 26.2552 33.2734 26.5439 33.5189C27.3646 34.2918 27.5213 35.0206 27.6191 36.1236C27.6995 36.4861 27.7797 36.5995 28.0773 36.8178C28.3909 36.945 28.3909 36.945 28.7371 37.0438C29.7157 37.3788 30.1961 37.8482 30.6847 38.7498C30.8127 38.9657 30.9127 39.1044 31.1074 39.2614C31.3166 39.2954 31.3166 39.2954 31.5472 39.2763C31.6334 39.2733 31.7196 39.2703 31.8085 39.2672C31.8997 39.2632 31.9909 39.2593 32.0848 39.2553C33.2552 39.2313 34.0217 39.4659 34.9889 40.1338C35.2806 40.2707 35.3985 40.2448 35.7014 40.1411C35.9984 39.9796 36.2815 39.8014 36.5681 39.6222C37.3341 39.2087 38.0221 39.2501 38.8634 39.312C39.3617 39.3357 39.3617 39.3357 39.7956 39.1228C39.9481 38.9484 40.075 38.7736 40.1976 38.5772C40.2498 38.4973 40.3019 38.4174 40.3557 38.3351C40.3962 38.2658 40.4368 38.1965 40.4786 38.1251C40.9846 37.3576 41.7233 37.1301 42.5671 36.8384C42.8633 36.7373 42.8633 36.7373 43.0322 36.4268C43.0831 36.1597 43.1269 35.8952 43.1666 35.6265C43.3495 34.5309 43.634 34.0071 44.4842 33.2589C44.751 32.9367 44.7825 32.7369 44.7916 32.3215C44.721 32.0115 44.721 32.0115 44.6022 31.7106C44.2736 30.7078 44.3561 29.9819 44.7061 28.9929C44.7925 28.702 44.8433 28.5152 44.7916 28.2163C44.5947 27.9748 44.5947 27.9748 44.3334 27.752C43.5416 26.9881 43.2776 26.355 43.1458 25.278C43.1032 24.9637 43.0565 24.7323 42.8734 24.4703C42.5737 24.2589 42.2571 24.1353 41.9142 24.0133C40.9998 23.686 40.6086 23.2649 40.147 22.4452C39.9691 22.1485 39.8379 21.9766 39.5271 21.8178C39.1833 21.7588 38.9005 21.7736 38.5543 21.814C37.5386 21.8979 36.9471 21.6958 36.0883 21.1537C35.4149 20.7379 35.0882 20.8605 34.449 21.2642ZM12.2733 21.6857C12.2104 21.7436 12.1475 21.8014 12.0827 21.861C11.9244 22.0499 11.9244 22.0499 11.9729 22.2812C12.0559 22.5782 12.174 22.8182 12.3217 23.0889C12.3782 23.1931 12.4347 23.2973 12.4929 23.4046C12.5535 23.5148 12.614 23.6249 12.6764 23.7384C12.7379 23.8512 12.7994 23.964 12.8627 24.0803C13.0461 24.4169 13.2308 24.7527 13.4156 25.0885C13.4675 25.1829 13.5194 25.2773 13.5728 25.3746C14.0559 26.2728 14.0559 26.2728 14.5886 27.1411C14.9259 26.994 15.1621 26.7974 15.4316 26.5485C15.6985 26.303 15.9654 26.0585 16.238 25.8193C16.3267 25.7414 16.4154 25.6635 16.5068 25.5833C16.5887 25.5118 16.6706 25.4404 16.755 25.3668C16.9574 25.2055 16.9574 25.2055 16.9344 24.9907C16.793 24.8438 16.793 24.8438 16.6045 24.6914C16.2864 24.421 15.9732 24.1469 15.6638 23.8667C15.3105 23.5479 14.9543 23.2329 14.5954 22.9205C14.359 22.7127 14.1256 22.5017 13.8921 22.2905C13.1376 21.442 13.1376 21.442 12.2733 21.6857ZM23.1901 21.3742C22.7631 21.7451 22.3393 22.1193 21.9194 22.4982C21.5661 22.817 21.21 23.132 20.8511 23.4444C20.6147 23.6522 20.3812 23.8632 20.1478 24.0744C19.7999 24.3885 19.448 24.6944 19.0848 24.9907C19.4928 25.92 20.557 26.6197 21.3329 27.2388C21.4332 27.0574 21.5335 26.8759 21.6338 26.6944C21.6654 26.6372 21.697 26.5801 21.7295 26.5212C21.9049 26.2038 22.08 25.8862 22.2546 25.5684C22.5888 24.9604 22.9245 24.3535 23.2687 23.751C23.3239 23.6533 23.379 23.5556 23.4359 23.4549C23.5391 23.2723 23.6434 23.0904 23.7491 22.9092C23.7947 22.8279 23.8403 22.7466 23.8873 22.6628C23.9275 22.5928 23.9677 22.5228 24.0091 22.4507C24.0924 22.2503 24.0924 22.2503 23.994 22.0419C23.8575 21.8378 23.7236 21.7299 23.52 21.5941C23.4582 21.5523 23.3965 21.5104 23.3329 21.4673C23.2858 21.4366 23.2386 21.4058 23.1901 21.3742ZM5.20511 25.1862C5.07659 25.2932 5.07659 25.2932 4.94548 25.4023C2.81126 27.2548 1.87582 29.586 1.39308 32.3215C1.39308 33.9988 1.39308 35.6761 1.39308 37.4043C5.5218 37.4043 9.65052 37.4043 13.9044 37.4043C14.0917 36.8422 14.2645 36.2979 14.4029 35.7252C14.4212 35.6507 14.4395 35.5761 14.4584 35.4994C14.518 35.2564 14.577 35.0133 14.6359 34.7701C14.6774 34.5997 14.7188 34.4292 14.7603 34.2587C14.8467 33.903 14.9327 33.5472 15.0185 33.1913C15.1285 32.7358 15.2399 32.2808 15.3515 31.8257C15.4375 31.4745 15.5224 31.123 15.6071 30.7714C15.6477 30.6035 15.6887 30.4357 15.7301 30.2679C15.7878 30.0336 15.8441 29.799 15.9 29.5642C15.9173 29.4955 15.9345 29.4268 15.9523 29.356C16.0483 28.945 16.0549 28.6269 15.957 28.2163C15.5769 28.1758 15.5769 28.1758 15.3774 28.3659C15.3147 28.4295 15.2519 28.493 15.1873 28.5584C14.8235 28.8931 14.8235 28.8931 14.4603 28.9616C14.1602 28.8918 14.0994 28.8376 13.9044 28.6073C13.8014 28.436 13.7042 28.2612 13.6107 28.0846C13.5549 27.9798 13.4991 27.8751 13.4416 27.7672C13.3827 27.6553 13.3237 27.5435 13.2629 27.4282C13.1704 27.2544 13.0778 27.0807 12.9851 26.907C12.8927 26.734 12.8006 26.561 12.7084 26.3879C11.8372 24.5086 11.8372 24.5086 10.6788 22.8403C8.76986 22.7242 6.60897 24.0116 5.20511 25.1862ZM25.2427 22.8403C25.0084 23.2638 24.7742 23.6874 24.5402 24.111C24.505 24.1746 24.4699 24.2382 24.4337 24.3037C23.8908 25.2864 23.353 26.2715 22.8237 27.2616C22.6053 27.6677 22.384 28.0718 22.1477 28.4679C22.1111 28.5293 22.0745 28.5908 22.0368 28.6541C21.9194 28.8027 21.9194 28.8027 21.6078 28.9494C21.0275 28.8733 20.6789 28.5058 20.2577 28.1185C20.161 28.183 20.0642 28.2476 19.9645 28.314C20.0211 29.2902 20.2675 30.2155 20.4994 31.1616C20.5432 31.3421 20.5869 31.5226 20.6305 31.7031C20.7448 32.1753 20.8599 32.6474 20.9752 33.1194C21.1137 33.6872 21.2512 34.2554 21.3889 34.8234C21.5976 35.6839 21.8075 36.544 22.0171 37.4043C23.5654 37.4043 25.1137 37.4043 26.7089 37.4043C26.6121 37.0817 26.5153 36.7591 26.4156 36.4268C26.3862 36.2116 26.361 35.9957 26.3423 35.7793C26.2503 35.1258 26.0069 34.8157 25.5359 34.3742C25.0541 33.8723 24.6681 33.3948 24.6505 32.6721C24.681 32.2533 24.7617 31.8842 24.9067 31.4907C25.171 30.741 25.078 30.1333 24.8456 29.3831C24.624 28.6559 24.6021 28.1885 24.8945 27.4893C25.0975 27.1632 25.3681 26.9215 25.6459 26.6585C26.0773 26.2378 26.262 25.9748 26.3179 25.3817C26.4267 24.5183 26.5678 23.8612 27.1976 23.2313C27.0005 23.1649 26.8029 23.1001 26.605 23.0358C26.495 22.9995 26.385 22.9633 26.2717 22.9259C25.9145 22.8373 25.609 22.8342 25.2427 22.8403ZM17.3621 26.5546C17.3117 26.6012 17.2613 26.6479 17.2093 26.6959C17.0847 26.8113 16.9607 26.9273 16.8367 27.0433C16.958 27.3792 17.0656 27.6733 17.3254 27.923C17.7895 28.0211 18.2292 28.0164 18.6938 27.923C18.9502 27.6963 19.0721 27.4625 19.1826 27.1411C19.0688 27.0273 18.9549 26.9136 18.8408 26.8001C18.7388 26.6975 18.6378 26.5938 18.5377 26.4893C18.3978 26.3447 18.2529 26.2049 18.1074 26.0659C17.7801 26.0659 17.5898 26.3407 17.3621 26.5546ZM17.2277 29.2915C16.9551 30.4058 16.6839 31.5205 16.4146 32.6357C16.2896 33.1535 16.164 33.6711 16.0373 34.1885C15.915 34.6876 15.7941 35.1871 15.6741 35.6867C15.6281 35.8775 15.5815 36.0681 15.5345 36.2587C15.4688 36.5252 15.4049 36.792 15.3413 37.059C15.3114 37.1775 15.3114 37.1775 15.281 37.2985C15.1816 37.7161 15.1816 37.7161 15.2544 38.1307C15.3778 38.2936 15.5026 38.4459 15.6435 38.594C15.6967 38.6505 15.75 38.707 15.8048 38.7652C15.8611 38.8241 15.9173 38.883 15.9753 38.9437C16.091 39.0665 16.2065 39.1893 16.322 39.3122C16.3774 39.371 16.4328 39.4298 16.4898 39.4903C16.7769 39.7976 17.0521 40.1148 17.3254 40.4343C17.4101 40.5328 17.4101 40.5328 17.4965 40.6333C17.6352 40.7948 17.7736 40.9566 17.9119 41.1185C18.221 40.9844 18.4 40.8393 18.6144 40.5809C18.8804 40.2666 19.1505 39.9576 19.4269 39.6524C19.5735 39.4895 19.7202 39.3266 19.8668 39.1637C19.932 39.0915 19.9973 39.0193 20.0645 38.9449C20.1541 38.8445 20.1541 38.8445 20.2455 38.7421C20.2977 38.684 20.3499 38.626 20.4036 38.5661C20.4522 38.5053 20.5009 38.4444 20.551 38.3817C20.6056 38.3145 20.6602 38.2472 20.7164 38.178C20.897 37.7753 20.7967 37.4681 20.6906 37.0584C20.6708 36.9756 20.651 36.8927 20.6306 36.8073C20.5647 36.5339 20.496 36.2612 20.4273 35.9885C20.3809 35.7988 20.3347 35.6091 20.2887 35.4193C20.167 34.9201 20.043 34.4216 19.9185 33.9231C19.8171 33.5151 19.7173 33.1066 19.6177 32.6982C19.4992 32.2126 19.3799 31.7271 19.2604 31.2418C19.2375 31.1486 19.2146 31.0555 19.191 30.9595C19.1263 30.6973 19.0611 30.4352 18.9958 30.1732C18.9668 30.0556 18.9668 30.0556 18.9373 29.9356C18.873 29.5848 18.873 29.5848 18.6938 29.2915C18.4465 29.2843 18.2019 29.2824 17.9546 29.2854C17.8504 29.286 17.8504 29.286 17.7441 29.2867C17.5719 29.2878 17.3998 29.2896 17.2277 29.2915ZM29.0547 38.8704C29.0179 38.9368 28.9811 39.0031 28.9431 39.0715C28.2494 40.3191 27.5542 41.5639 26.8066 42.7802C27.107 42.9304 27.3283 42.8148 27.6497 42.7374C28.6429 42.5174 28.6429 42.5174 29.1525 42.5847C29.4941 42.9201 29.6085 43.388 29.7573 43.8309C29.7839 43.9084 29.8106 43.9859 29.838 44.0658C29.9034 44.2561 29.9679 44.4467 30.0322 44.6373C30.3008 44.3974 30.4562 44.1366 30.6293 43.8222C30.6871 43.7182 30.7448 43.6141 30.8042 43.507C30.8938 43.3438 30.8938 43.3438 30.9852 43.1773C31.1027 42.9646 31.2203 42.7519 31.338 42.5393C31.396 42.4342 31.454 42.3291 31.5138 42.2209C31.7528 41.7955 32.0021 41.3766 32.2533 40.9583C32.3935 40.7426 32.3935 40.7426 32.3781 40.5321C32.2813 40.5366 32.1845 40.5411 32.0848 40.5458C30.6592 40.5935 30.6592 40.5935 30.1299 40.1411C29.8285 39.8099 29.5975 39.4518 29.3724 39.0659C29.3321 39.0014 29.2918 38.9369 29.2502 38.8704C29.1857 38.8704 29.1212 38.8704 29.0547 38.8704ZM41.566 38.8704C41.3716 39.1339 41.186 39.4031 40.9994 39.6722C40.6697 40.0908 40.3238 40.3856 39.8066 40.5321C39.548 40.5455 39.3008 40.5507 39.043 40.5443C38.9414 40.543 38.9414 40.543 38.8378 40.5416C38.672 40.5393 38.5062 40.5358 38.3405 40.5321C38.4769 40.8941 38.6407 41.2248 38.8303 41.5618C38.8884 41.6652 38.9464 41.7686 39.0062 41.8751C39.0667 41.9823 39.1272 42.0894 39.1896 42.1998C39.2483 42.3044 39.3069 42.4089 39.3674 42.5166C39.7674 43.2277 40.1755 43.9337 40.5886 44.6373C40.7972 44.5593 40.7972 44.5593 40.857 44.3701C40.8904 44.2622 40.8904 44.2622 40.9246 44.1521C40.9495 44.0739 40.9745 43.9957 41.0002 43.9151C41.0256 43.8329 41.0511 43.7507 41.0773 43.666C41.1277 43.5041 41.1786 43.3423 41.23 43.1807C41.2635 43.0726 41.2635 43.0726 41.2976 42.9623C41.3705 42.7802 41.3705 42.7802 41.566 42.5847C42.1012 42.5465 42.5702 42.6162 43.0914 42.7374C43.3372 42.7823 43.5649 42.7873 43.8141 42.7802C43.6711 42.3984 43.4941 42.0501 43.296 41.6939C43.2649 41.6379 43.2338 41.5819 43.2018 41.5241C43.1361 41.406 43.0703 41.288 43.0043 41.17C42.9049 40.992 42.8059 40.8137 42.7071 40.6354C42.3746 40.0373 42.0417 39.4412 41.6638 38.8704C41.6315 38.8704 41.5993 38.8704 41.566 38.8704Z" fill="white"/>
<path d="M39.7088 25.0884C41.0569 26.2239 41.9926 27.7226 42.2501 29.4869C42.3867 31.548 42.0669 33.4404 40.6931 35.0492C39.4411 36.4349 37.8266 37.2895 35.9639 37.4897C34.699 37.5513 33.5279 37.3565 32.3779 36.8177C32.243 36.7578 32.243 36.7578 32.1053 36.6967C30.4656 35.8957 29.3458 34.4106 28.7545 32.7121C28.1642 30.8097 28.4111 28.8771 29.3074 27.1154C30.1515 25.5738 31.6217 24.4771 33.2672 23.9086C35.4985 23.2763 37.8539 23.6745 39.7088 25.0884ZM30.8988 27.1876C29.9486 28.4504 29.7114 29.9022 29.8366 31.4418C29.9228 31.8877 30.0556 32.2927 30.2276 32.7124C30.2596 32.7962 30.2916 32.88 30.3245 32.9663C30.8982 34.2874 32.0657 35.2163 33.3615 35.7731C34.8494 36.3199 36.3102 36.2168 37.7653 35.6169C39.1913 34.8918 40.1607 33.6993 40.695 32.2088C41.1373 30.825 40.9582 29.3124 40.3502 28.0138C39.6605 26.7173 38.5874 25.7603 37.2098 25.2533C34.7479 24.514 32.5387 25.2833 30.8988 27.1876Z" fill="white"/>
<path d="M35.7015 26.7503C36.0898 27.1371 36.2633 27.5994 36.459 28.1003C36.4898 28.1774 36.5207 28.2544 36.5525 28.3338C36.628 28.5225 36.7024 28.7115 36.7766 28.9006C36.8368 28.9055 36.8969 28.9104 36.9589 28.9155C37.2322 28.9382 37.5053 28.9622 37.7785 28.9862C37.8731 28.9938 37.9678 29.0015 38.0653 29.0094C38.1566 29.0176 38.248 29.0258 38.3421 29.0343C38.468 29.045 38.468 29.045 38.5965 29.056C38.8402 29.098 39.0105 29.1616 39.2202 29.2916C39.3755 29.6022 39.3567 29.8284 39.318 30.1713C39.1322 30.3944 38.9764 30.5534 38.756 30.7333C38.7033 30.7791 38.6506 30.8248 38.5964 30.8719C38.3755 31.0621 38.1548 31.2401 37.9106 31.3996C37.7341 31.5266 37.7341 31.5266 37.7304 31.7333C37.7482 31.8401 37.7482 31.8401 37.7663 31.949C37.7785 32.027 37.7907 32.105 37.8033 32.1854C37.8471 32.3965 37.8986 32.6026 37.9557 32.8104C38.0666 33.2328 38.1169 33.6471 38.0473 34.0811C37.8946 34.2888 37.8946 34.2888 37.6563 34.3743C37.0364 34.3487 36.6482 34.1148 36.1474 33.7817C36.0759 33.7356 36.0044 33.6894 35.9307 33.6418C35.7559 33.5287 35.5819 33.414 35.4082 33.2991C35.3315 33.344 35.2547 33.3888 35.1757 33.4351C34.9638 33.5588 34.7517 33.682 34.5392 33.8046C34.367 33.9059 34.1959 34.0093 34.0291 34.1193C33.7192 34.3211 33.5539 34.3744 33.1784 34.3682C32.8669 34.2766 32.8669 34.2766 32.6714 33.9833C32.6275 33.4345 32.7332 32.9525 32.8669 32.4255C32.8855 32.3494 32.9042 32.2732 32.9234 32.1947C32.969 32.0088 33.0156 31.8231 33.0624 31.6375C32.8955 31.4846 32.7285 31.3319 32.5614 31.1793C32.5124 31.1341 32.4634 31.089 32.413 31.0425C32.1602 30.811 31.9056 30.5963 31.6267 30.3973C31.4007 30.1713 31.4007 30.1713 31.3335 29.8231C31.4007 29.4871 31.4007 29.4871 31.5801 29.2752C32.0392 29.0094 32.4733 29.0302 32.9952 29.0228C33.1457 29.0185 33.1457 29.0185 33.2993 29.014C33.5461 29.0071 33.7929 29.002 34.0398 28.9984C34.0533 28.9251 34.0668 28.8519 34.0807 28.7764C34.1558 28.4239 34.285 28.0978 34.4186 27.7644C34.4436 27.6991 34.4687 27.6338 34.4945 27.5666C34.7627 26.8928 34.9428 26.6438 35.7015 26.7503ZM35.3105 29.1939C35.2865 29.2622 35.2626 29.3304 35.2379 29.4008C34.943 30.1187 34.943 30.1187 34.5717 30.2797C34.3274 30.3255 34.0924 30.3562 33.8443 30.3668C33.8866 30.4026 33.929 30.4384 33.9726 30.4752C34.2632 30.7577 34.4175 30.9466 34.4697 31.3576C34.4677 31.6484 34.4564 31.9344 34.4308 32.2239C34.4804 32.1946 34.5301 32.1652 34.5812 32.135C34.9173 31.9493 35.1339 31.8299 35.5243 31.8452C35.7855 31.9264 36.0347 32.0232 36.2879 32.1262C36.2811 32.0565 36.2743 31.9868 36.2673 31.9151C36.2378 31.3926 36.225 31.048 36.5812 30.6417C36.6764 30.5475 36.7734 30.4549 36.8744 30.3668C36.8013 30.3558 36.7282 30.3449 36.6529 30.3336C35.876 30.178 35.876 30.178 35.6407 29.8582C35.5464 29.6385 35.4688 29.4251 35.4082 29.1939C35.376 29.1939 35.3437 29.1939 35.3105 29.1939Z" fill="white"/>
</svg>
