<?xml version="1.0" encoding="UTF-8"?> <svg xmlns="http://www.w3.org/2000/svg" width="40" height="40" viewBox="0 0 40 40" fill="none"> <g clip-path="url(#clip0_2641_273)"> <circle cx="20" cy="20" r="20" fill="#191A23"></circle> <path d="M18.6003 18.3994C18.6003 19.1994 18.2003 19.9994 17.7003 20.4994C16.9003 21.2994 16.2003 22.2994 15.8003 23.3994C15.3003 24.5994 15.4003 25.9994 16.2003 27.0994C16.3003 27.1994 16.5003 27.4994 16.5003 27.4994H11.5003C11.0003 27.4994 10.6003 27.3994 10.2003 27.0994C9.20033 26.4994 8.90033 25.2994 9.30033 24.3994C9.80033 22.8994 11.0003 21.7994 12.4003 21.0994C11.5003 20.2994 11.0003 18.9994 11.3003 17.5994C11.6003 16.1994 12.7003 14.9994 14.2003 14.6994C15.9003 14.3994 17.4003 15.1994 18.2003 16.5994C18.4003 17.0994 18.6003 17.6994 18.6003 18.3994Z" fill="white"></path> <path d="M30.8002 24C30.0002 22 28.4002 20.6 26.5002 19.9C27.6002 19.1 28.3002 17.8 28.3002 16.4C28.3002 13.9 26.4002 12 24.0002 12C21.6002 12 19.7002 13.9 19.7002 16.3C19.7002 17.7 20.4002 19 21.5002 19.8C19.5002 20.5 17.9002 22 17.1002 24C16.8002 24.8 16.9002 25.6 17.3002 26.3C17.8002 27 18.6002 27.5 19.5002 27.5H28.4002C29.3002 27.5 30.1002 27.1 30.6002 26.3C31.0002 25.6 31.1002 24.7 30.8002 24Z" fill="white"></path> </g> <defs> <clipPath id="clip0_2641_273"> <rect width="40" height="40" fill="white"></rect> </clipPath> </defs> </svg> 