<svg width="47" height="38" viewBox="0 0 47 38" fill="none" xmlns="http://www.w3.org/2000/svg">
<path d="M8.37049 14.2601C8.75682 14.1107 8.94891 13.6764 8.79953 13.2901C8.65014 12.9037 8.21585 12.7116 7.82951 12.861L8.1 13.5605L8.37049 14.2601ZM0.755621 23.3126C0.705002 23.7238 0.997237 24.0981 1.40835 24.1487C1.81945 24.1993 2.19376 23.9071 2.24438 23.496L1.5 23.4043L0.755621 23.3126ZM39.1705 12.861C38.7841 12.7116 38.3499 12.9037 38.2005 13.2901C38.0511 13.6764 38.2432 14.1107 38.6295 14.2601L38.9 13.5605L39.1705 12.861ZM44.7556 23.496C44.8062 23.9071 45.1805 24.1993 45.5917 24.1487C46.0028 24.0981 46.295 23.7238 46.2444 23.3126L45.5 23.4043L44.7556 23.496ZM17.0762 12.8315C16.6736 12.7342 16.2683 12.9817 16.171 13.3843C16.0737 13.7869 16.3212 14.1922 16.7238 14.2895L16.9 13.5605L17.0762 12.8315ZM30.2762 14.2895C30.6788 14.1922 30.9263 13.7869 30.829 13.3843C30.7317 12.9817 30.3264 12.7342 29.9238 12.8315L30.1 13.5605L30.2762 14.2895ZM19.2311 30.7052C19.639 30.6328 19.9109 30.2435 19.8384 29.8357C19.766 29.4278 19.3767 29.1559 18.9689 29.2283L19.1 29.9668L19.2311 30.7052ZM11.791 36.2848C11.6559 36.6764 11.8639 37.1033 12.2555 37.2383C12.6471 37.3734 13.074 37.1654 13.209 36.7738L12.5 36.5293L11.791 36.2848ZM28.0311 29.2283C27.6233 29.1559 27.234 29.4278 27.1616 29.8357C27.0891 30.2435 27.361 30.6328 27.7689 30.7052L27.9 29.9668L28.0311 29.2283ZM33.791 36.7738C33.926 37.1654 34.3529 37.3734 34.7445 37.2383C35.1361 37.1033 35.3441 36.6764 35.209 36.2848L34.5 36.5293L33.791 36.7738ZM8.1 13.5605C7.82951 12.861 7.82911 12.8612 7.82868 12.8613C7.82851 12.8614 7.82806 12.8616 7.82772 12.8617C7.82704 12.862 7.82626 12.8623 7.82541 12.8626C7.82369 12.8633 7.82163 12.8641 7.81923 12.8651C7.81442 12.867 7.80826 12.8694 7.80077 12.8725C7.7858 12.8786 7.76554 12.887 7.74032 12.8978C7.68987 12.9195 7.61951 12.9508 7.53182 12.9927C7.3565 13.0765 7.11145 13.2025 6.81749 13.3776C6.23006 13.7276 5.44379 14.2755 4.62814 15.0761C2.98944 16.6846 1.25006 19.297 0.755621 23.3126L1.5 23.4043L2.24438 23.496C2.69264 19.8554 4.25326 17.5459 5.67888 16.1466C6.3954 15.4433 7.08237 14.9658 7.58514 14.6663C7.83628 14.5167 8.04057 14.4121 8.17833 14.3463C8.24717 14.3134 8.29927 14.2903 8.33215 14.2761C8.34859 14.2691 8.36022 14.2643 8.36671 14.2616C8.36996 14.2603 8.37192 14.2595 8.37257 14.2593C8.37289 14.2591 8.37288 14.2591 8.37253 14.2593C8.37236 14.2593 8.3721 14.2594 8.37176 14.2596C8.37159 14.2596 8.37127 14.2598 8.37119 14.2598C8.37085 14.2599 8.37049 14.2601 8.1 13.5605ZM38.9 13.5605C38.6295 14.2601 38.6292 14.2599 38.6288 14.2598C38.6287 14.2598 38.6284 14.2596 38.6282 14.2596C38.6279 14.2594 38.6276 14.2593 38.6275 14.2593C38.6271 14.2591 38.6271 14.2591 38.6274 14.2593C38.6281 14.2595 38.63 14.2603 38.6333 14.2616C38.6398 14.2643 38.6514 14.2691 38.6678 14.2761C38.7007 14.2903 38.7528 14.3134 38.8217 14.3463C38.9594 14.4121 39.1637 14.5167 39.4149 14.6663C39.9176 14.9658 40.6046 15.4433 41.3211 16.1466C42.7467 17.5459 44.3074 19.8554 44.7556 23.496L45.5 23.4043L46.2444 23.3126C45.7499 19.297 44.0106 16.6846 42.3719 15.0761C41.5562 14.2755 40.7699 13.7276 40.1825 13.3776C39.8885 13.2025 39.6435 13.0765 39.4682 12.9927C39.3805 12.9508 39.3101 12.9195 39.2597 12.8978C39.2345 12.887 39.2142 12.8786 39.1992 12.8725C39.1917 12.8694 39.1856 12.867 39.1808 12.8651C39.1784 12.8641 39.1763 12.8633 39.1746 12.8626C39.1737 12.8623 39.173 12.862 39.1723 12.8617C39.1719 12.8616 39.1715 12.8614 39.1713 12.8613C39.1709 12.8612 39.1705 12.861 38.9 13.5605ZM16.9 13.5605C16.7238 14.2895 16.7234 14.2895 16.7231 14.2894C16.723 14.2894 16.7226 14.2893 16.7225 14.2892C16.7221 14.2891 16.7218 14.2891 16.7216 14.289C16.7212 14.2889 16.7211 14.2889 16.7214 14.289C16.7218 14.2891 16.7235 14.2895 16.7263 14.2902C16.7321 14.2917 16.7426 14.2945 16.7576 14.2987C16.7876 14.3071 16.8356 14.3211 16.8994 14.3417C17.027 14.3828 17.217 14.4498 17.452 14.5498C17.9229 14.7501 18.569 15.0804 19.2543 15.5957C20.6153 16.619 22.1477 18.3827 22.7656 21.3688L23.5 21.2168L24.2344 21.0648C23.5323 17.6711 21.7647 15.6066 20.1557 14.3968C19.356 13.7954 18.5996 13.4079 18.0392 13.1695C17.7586 13.0502 17.5258 12.9676 17.3595 12.914C17.2763 12.8872 17.2096 12.8676 17.1616 12.8542C17.1377 12.8475 17.1184 12.8423 17.104 12.8386C17.0969 12.8367 17.091 12.8352 17.0863 12.834C17.084 12.8335 17.082 12.833 17.0803 12.8325C17.0795 12.8323 17.0787 12.8321 17.078 12.832C17.0777 12.8319 17.0772 12.8318 17.0771 12.8317C17.0766 12.8316 17.0762 12.8315 16.9 13.5605ZM30.1 13.5605C29.9238 12.8315 29.9234 12.8316 29.9229 12.8317C29.9228 12.8318 29.9223 12.8319 29.922 12.832C29.9213 12.8321 29.9205 12.8323 29.9197 12.8325C29.918 12.833 29.916 12.8335 29.9137 12.834C29.909 12.8352 29.9031 12.8367 29.896 12.8386C29.8816 12.8423 29.8623 12.8475 29.8384 12.8542C29.7904 12.8676 29.7237 12.8872 29.6405 12.914C29.4742 12.9676 29.2414 13.0502 28.9608 13.1695C28.4004 13.4079 27.644 13.7954 26.8443 14.3968C25.2353 15.6066 23.4677 17.6711 22.7656 21.0648L23.5 21.2168L24.2344 21.3688C24.8523 18.3827 26.3847 16.619 27.7457 15.5957C28.431 15.0804 29.0771 14.7501 29.548 14.5498C29.783 14.4498 29.973 14.3828 30.1006 14.3417C30.1644 14.3211 30.2124 14.3071 30.2424 14.2987C30.2574 14.2945 30.2679 14.2917 30.2737 14.2902C30.2765 14.2895 30.2782 14.2891 30.2786 14.289C30.2789 14.2889 30.2788 14.2889 30.2784 14.289C30.2782 14.2891 30.2779 14.2891 30.2775 14.2892C30.2774 14.2893 30.277 14.2894 30.2769 14.2894C30.2766 14.2895 30.2762 14.2895 30.1 13.5605ZM19.1 29.9668C18.9689 29.2283 18.9685 29.2284 18.968 29.2285C18.9678 29.2285 18.9674 29.2286 18.967 29.2287C18.9664 29.2288 18.9656 29.2289 18.9648 29.2291C18.9631 29.2294 18.9612 29.2297 18.9589 29.2302C18.9545 29.231 18.9489 29.2321 18.9423 29.2334C18.9289 29.236 18.9112 29.2396 18.8894 29.2443C18.8456 29.2537 18.7852 29.2677 18.71 29.2871C18.5595 29.326 18.3492 29.3871 18.0937 29.4788C17.5832 29.6621 16.8888 29.969 16.1302 30.4682C14.6048 31.4719 12.8407 33.2404 11.791 36.2848L12.5 36.5293L13.209 36.7738C14.1393 34.076 15.6752 32.5632 16.9548 31.7213C17.5987 31.2976 18.183 31.0405 18.6006 30.8906C18.8092 30.8157 18.9753 30.7678 19.0853 30.7394C19.1402 30.7252 19.181 30.7159 19.2059 30.7105C19.2184 30.7078 19.2268 30.7061 19.2311 30.7053C19.2333 30.7049 19.2343 30.7047 19.2344 30.7047C19.2344 30.7047 19.2341 30.7047 19.2336 30.7048C19.2333 30.7049 19.2329 30.7049 19.2325 30.705C19.2323 30.705 19.232 30.7051 19.2319 30.7051C19.2315 30.7052 19.2311 30.7052 19.1 29.9668ZM27.9 29.9668C27.7689 30.7052 27.7685 30.7052 27.7681 30.7051C27.768 30.7051 27.7677 30.705 27.7675 30.705C27.7671 30.7049 27.7667 30.7049 27.7664 30.7048C27.7659 30.7047 27.7656 30.7047 27.7656 30.7047C27.7657 30.7047 27.7667 30.7049 27.7689 30.7053C27.7732 30.7061 27.7816 30.7078 27.7941 30.7105C27.819 30.7159 27.8598 30.7252 27.9147 30.7394C28.0247 30.7678 28.1908 30.8157 28.3994 30.8906C28.817 31.0405 29.4013 31.2976 30.0452 31.7213C31.3248 32.5632 32.8607 34.076 33.791 36.7738L34.5 36.5293L35.209 36.2848C34.1593 33.2404 32.3952 31.4719 30.8698 30.4682C30.1112 29.969 29.4168 29.6621 28.9063 29.4788C28.6508 29.3871 28.4405 29.326 28.29 29.2871C28.2148 29.2677 28.1544 29.2537 28.1106 29.2443C28.0888 29.2396 28.0711 29.236 28.0577 29.2334C28.0511 29.2321 28.0455 29.231 28.0411 29.2302C28.0388 29.2297 28.0369 29.2294 28.0352 29.2291C28.0344 29.2289 28.0337 29.2288 28.033 29.2287C28.0326 29.2286 28.0322 29.2285 28.032 29.2285C28.0315 29.2284 28.0311 29.2283 27.9 29.9668ZM29 26.6855H28.25C28.25 29.2876 26.1274 31.4043 23.5 31.4043V32.1543V32.9043C26.9477 32.9043 29.75 30.1241 29.75 26.6855H29ZM23.5 32.1543V31.4043C20.8726 31.4043 18.75 29.2876 18.75 26.6855H18H17.25C17.25 30.1241 20.0523 32.9043 23.5 32.9043V32.1543ZM18 26.6855H18.75C18.75 24.0835 20.8726 21.9668 23.5 21.9668V21.2168V20.4668C20.0523 20.4668 17.25 23.247 17.25 26.6855H18ZM23.5 21.2168V21.9668C26.1274 21.9668 28.25 24.0835 28.25 26.6855H29H29.75C29.75 23.247 26.9477 20.4668 23.5 20.4668V21.2168ZM41.1 8.0918H40.35C40.35 11.2979 37.7349 13.9043 34.5 13.9043V14.6543V15.4043C38.5553 15.4043 41.85 12.1344 41.85 8.0918H41.1ZM34.5 14.6543V13.9043C31.2651 13.9043 28.65 11.2979 28.65 8.0918H27.9H27.15C27.15 12.1344 30.4447 15.4043 34.5 15.4043V14.6543ZM27.9 8.0918H28.65C28.65 4.88567 31.2651 2.2793 34.5 2.2793V1.5293V0.779297C30.4447 0.779297 27.15 4.04919 27.15 8.0918H27.9ZM34.5 1.5293V2.2793C37.7349 2.2793 40.35 4.88567 40.35 8.0918H41.1H41.85C41.85 4.04919 38.5553 0.779297 34.5 0.779297V1.5293ZM19.1 8.0918H18.35C18.35 11.2979 15.7349 13.9043 12.5 13.9043V14.6543V15.4043C16.5553 15.4043 19.85 12.1344 19.85 8.0918H19.1ZM12.5 14.6543V13.9043C9.2651 13.9043 6.65 11.2979 6.65 8.0918H5.9H5.15C5.15 12.1344 8.44474 15.4043 12.5 15.4043V14.6543ZM5.9 8.0918H6.65C6.65 4.88567 9.2651 2.2793 12.5 2.2793V1.5293V0.779297C8.44474 0.779297 5.15 4.04919 5.15 8.0918H5.9ZM12.5 1.5293V2.2793C15.7349 2.2793 18.35 4.88567 18.35 8.0918H19.1H19.85C19.85 4.04919 16.5553 0.779297 12.5 0.779297V1.5293Z" fill="white"/>
</svg>
