<svg width="45" height="41" viewBox="0 0 45 41" fill="none" xmlns="http://www.w3.org/2000/svg">
<path d="M22.3008 0.357422C24.4337 0.357422 26.4791 1.2036 27.9873 2.70996C29.4955 4.21635 30.3437 6.25925 30.3438 8.38965C30.3438 8.4151 30.3386 8.4388 30.3359 8.45703C33.1596 10.0392 35.4342 12.443 36.8555 15.3496C38.2729 18.2482 38.7719 21.5077 38.292 24.6963C40.2503 25.1807 41.9567 26.3809 43.0723 28.0625C44.2044 29.7691 44.6432 31.8423 44.2988 33.8604C43.9544 35.8785 42.853 37.6902 41.2188 38.9258C39.5845 40.1613 37.54 40.7284 35.502 40.5117C33.4638 40.2949 31.5843 39.3105 30.2471 37.7588C28.91 36.2071 28.2149 34.2045 28.3037 32.1592C28.3926 30.1139 29.259 28.1792 30.7256 26.749C32.1716 25.3389 34.0944 24.5246 36.1123 24.4639C36.215 23.7944 36.2716 23.1187 36.2773 22.4414L36.2705 22.0029C36.2009 19.8154 35.6144 17.6729 34.5576 15.751C33.4514 13.7392 31.8636 12.0336 29.9375 10.7842C29.4429 12.3935 28.4523 13.807 27.1035 14.8203C25.7189 15.8605 24.0333 16.4229 22.3008 16.4229C20.5682 16.4228 18.8827 15.8605 17.498 14.8203C16.1493 13.807 15.1587 12.3935 14.6641 10.7842C12.738 12.0336 11.1502 13.7392 10.0439 15.751C8.91668 17.8011 8.32577 20.1025 8.3252 22.4414C8.33098 23.1186 8.38559 23.7945 8.48828 24.4639C10.4992 24.525 12.4149 25.3374 13.8555 26.7432C15.3163 28.1687 16.1786 30.0968 16.2666 32.1348C16.3545 34.1725 15.6623 36.1672 14.3301 37.7129C12.9977 39.2587 11.1253 40.24 9.09473 40.4561C7.06409 40.672 5.02692 40.1067 3.39844 38.876C1.77002 37.6451 0.671886 35.8407 0.328125 33.8301C-0.0155521 31.8193 0.420376 29.7526 1.54785 28.0518C2.65854 26.3762 4.3582 25.18 6.30859 24.6963C5.82829 21.5075 6.32786 18.2475 7.74512 15.3486C9.16622 12.4421 11.4413 10.0384 14.2646 8.45605C14.262 8.438 14.2588 8.41421 14.2588 8.38965C14.2589 6.25925 15.1061 4.21635 16.6143 2.70996C18.1225 1.20355 20.1679 0.357456 22.3008 0.357422ZM38.5977 27.1025C37.5334 26.6624 36.3622 26.547 35.2324 26.7715C34.1026 26.996 33.0645 27.5507 32.25 28.3643C31.4356 29.1778 30.881 30.2145 30.6562 31.3428C30.4316 32.4712 30.5465 33.6412 30.9873 34.7041C31.4281 35.767 32.1751 36.6752 33.1328 37.3145C34.0907 37.9537 35.2171 38.2949 36.3691 38.2949C37.9135 38.2933 39.3944 37.6795 40.4863 36.5889C41.5781 35.4983 42.1917 34.0197 42.1934 32.4775C42.1934 31.327 41.8519 30.2018 41.2119 29.2451C40.5719 28.2886 39.6619 27.5428 38.5977 27.1025ZM8.23242 26.6602C7.08057 26.6602 5.95481 27.0015 4.99707 27.6406C4.03929 28.2798 3.29242 29.1881 2.85156 30.251C2.41074 31.3139 2.29484 32.4839 2.51953 33.6123C2.74427 34.7408 3.29968 35.7772 4.11426 36.5908C4.92885 37.4044 5.96678 37.9591 7.09668 38.1836C8.22646 38.408 9.3977 38.2928 10.4619 37.8525C11.5262 37.4122 12.4362 36.6666 13.0762 35.71C13.7162 34.7533 14.0576 33.6281 14.0576 32.4775L14.0498 32.1895C13.9771 30.752 13.3734 29.3878 12.3496 28.3652C11.2576 27.2747 9.77668 26.6617 8.23242 26.6602ZM24.5303 3.01562C23.4659 2.5753 22.294 2.46009 21.1641 2.68457C20.0345 2.9091 18.997 3.463 18.1826 4.27637C17.368 5.08996 16.8126 6.12643 16.5879 7.25488C16.3632 8.38335 16.4791 9.55321 16.9199 10.6162C17.3607 11.679 18.1069 12.5874 19.0645 13.2266C20.0223 13.8658 21.1488 14.207 22.3008 14.207C23.8451 14.2055 25.326 13.5926 26.418 12.502C27.51 11.4113 28.1244 9.93206 28.126 8.38965C28.1259 7.23917 27.7835 6.11482 27.1436 5.1582C26.5036 4.20164 25.5944 3.45598 24.5303 3.01562Z" fill="white" stroke="white" stroke-width="0.2"/>
</svg>
