<?xml version="1.0" encoding="UTF-8"?> <svg xmlns="http://www.w3.org/2000/svg" width="40" height="40" viewBox="0 0 40 40" fill="none"> <g clip-path="url(#clip0_2641_289)"> <circle cx="20" cy="20" r="20" fill="#191A23"></circle> <path d="M21 20.4241L23.3162 23.0265L26.4485 25L27 20.4458L26.4485 16L23.2721 17.7349L21 20.4241Z" fill="#00832D"></path> <path d="M9 24.7655V28.469C9 29.3172 9.68276 30 10.531 30H14.2345L15 27.2069L14.2552 24.7655L11.7103 24L9 24.7655Z" fill="#0066DA"></path> <path d="M14.2734 11L9 16.2345L11.699 17L14.2526 16.2345L15 13.8345L14.2734 11Z" fill="#E94235"></path> <path d="M14 17H9V25H13.9803V17H14Z" fill="#2684FC"></path> <path d="M29.7647 13.1811L26.4307 16.0416V24.9888L29.7647 27.8493C30.2587 28.2579 30.9996 27.8923 30.9996 27.2255V13.8049C31.0202 13.1381 30.2793 12.751 29.7647 13.1811ZM21.3679 20.4507V24.5586H14V30H24.9283C25.7721 30 26.4513 29.2903 26.4513 28.4084V24.9888L21.3679 20.4507Z" fill="#00AC47"></path> <path d="M24.5322 11H14V16.6982H21.1008V21L26 16.3829V12.6667C26 11.7432 25.3455 11 24.5322 11Z" fill="#FFBA00"></path> </g> <defs> <clipPath id="clip0_2641_289"> <rect width="40" height="40" fill="white"></rect> </clipPath> </defs> </svg> 