<svg width="47" height="49" viewBox="0 0 47 49" fill="none" xmlns="http://www.w3.org/2000/svg">
<path d="M34.7152 18.6443C34.9555 18.8559 35.189 19.073 35.4209 19.2938C35.4715 19.3419 35.5221 19.3899 35.5742 19.4394C38.72 22.4455 40.551 26.5558 40.6953 30.9141C40.7638 35.1574 39.3942 39.2988 36.5471 42.4736C36.4767 42.5553 36.4062 42.6371 36.3337 42.7214C34.9687 44.2884 33.318 45.4638 31.4794 46.4151C31.4222 46.4449 31.3649 46.4747 31.3059 46.5055C29.3854 47.4923 27.128 48.1103 24.9642 48.1233C24.8909 48.124 24.8176 48.1246 24.7421 48.1253C21.6853 48.1467 21.6853 48.1467 20.4057 47.8227C20.3267 47.8031 20.2476 47.7834 20.1662 47.7632C15.7056 46.6273 11.966 43.9287 9.54462 40.0006C7.34376 36.2835 6.69566 31.7016 7.70307 27.5079C7.79759 27.1439 7.90437 26.7845 8.01817 26.4261C8.04089 26.3542 8.0636 26.2823 8.087 26.2083C8.65766 24.4489 9.50959 22.8172 10.6458 21.3584C10.7075 21.2759 10.7692 21.1934 10.8328 21.1084C12.2853 19.2377 14.0971 17.7703 16.1827 16.6662C16.2797 16.6117 16.3767 16.5573 16.4767 16.5012C22.2602 13.3934 29.7634 14.4956 34.7152 18.6443ZM13.6489 20.2323C13.594 20.2831 13.539 20.3339 13.4824 20.3863C12.1818 21.6017 11.176 22.9673 10.3643 24.5492C10.3195 24.6353 10.3195 24.6353 10.2738 24.7231C9.77735 25.6891 9.42235 26.6908 9.14432 27.7399C9.12431 27.8151 9.1043 27.8904 9.08369 27.9679C8.54947 30.0865 8.50843 32.6572 9.05047 34.7783C9.06862 34.8538 9.08676 34.9292 9.10546 35.007C9.91705 38.3336 11.8331 41.4355 14.5873 43.5059C14.7261 43.6149 14.7261 43.6149 14.8678 43.7262C18.0195 46.1428 22.1225 47.1083 26.0399 46.6244C27.6407 46.3873 29.184 45.9088 30.6348 45.1951C30.694 45.1663 30.7533 45.1375 30.8143 45.1079C34.3824 43.3538 37.0868 40.197 38.424 36.4675C38.6117 35.9115 38.7599 35.3494 38.8932 34.7783C38.9086 34.7172 38.9239 34.6561 38.9397 34.5932C39.4628 32.4611 39.3755 29.8489 38.7993 27.7399C38.7751 27.6509 38.7509 27.5619 38.726 27.4703C38.015 24.9536 36.7593 22.7729 34.9517 20.8892C34.8682 20.7998 34.7848 20.7104 34.6988 20.6183C32.0256 17.806 28.1907 16.3329 24.3578 16.1739C20.421 16.0798 16.5269 17.5496 13.6489 20.2323Z" fill="white"/>
<path d="M33.0998 20.9348C34.467 22.1319 35.5171 23.5053 36.3591 25.1124C36.416 25.2199 36.4728 25.3274 36.5314 25.4382C38.0873 28.5003 38.3175 32.3613 37.2683 35.6212C36.4204 38.11 35.0469 40.424 32.9807 42.0983C32.8493 42.2068 32.8493 42.2068 32.7153 42.3175C29.8044 44.6722 26.1075 45.6425 22.4105 45.2921C19.1239 44.9349 16.2271 43.4234 13.9302 41.066C13.879 41.0202 13.8278 40.9743 13.7751 40.9271C12.6781 39.9108 11.9024 38.5747 11.3025 37.2184C11.2762 37.1591 11.2498 37.0998 11.2227 37.0388C9.77006 33.7186 9.6825 29.9213 10.9271 26.52C11.6201 24.7918 12.5858 23.2939 13.8363 21.9216C13.9162 21.8339 13.996 21.7462 14.0783 21.6558C19.093 16.4084 27.6667 16.3191 33.0998 20.9348ZM14.7707 23.0287C14.0223 23.8713 13.4169 24.7709 12.8979 25.7693C12.8687 25.8246 12.8396 25.88 12.8095 25.9371C11.3767 28.6963 11.1218 32.0233 12.003 34.995C13.0821 38.3926 15.3699 41.0403 18.5192 42.6763C19.3405 43.0857 20.1733 43.3769 21.0624 43.5998C21.1565 43.6245 21.1565 43.6244 21.2524 43.6496C24.3801 44.4383 27.7061 43.7124 30.4466 42.1178C31.2429 41.6376 31.9316 41.0465 32.6053 40.4091C32.6826 40.3378 32.7599 40.2666 32.8396 40.1932C35.0907 38.0474 36.3151 34.9613 36.451 31.8832C36.5334 28.4329 35.2297 25.2399 32.8623 22.7483C30.9508 20.7877 28.4573 19.5303 25.7546 19.1063C25.6765 19.0939 25.5983 19.0816 25.5178 19.0689C21.4824 18.5593 17.5621 20.1375 14.7707 23.0287Z" fill="white"/>
<path d="M26.0581 21.892C26.7624 22.416 27.274 23.1086 27.4441 23.9863C27.5716 25.081 27.2239 26.1483 26.881 27.177C26.9898 27.1784 27.0986 27.1798 27.2107 27.1812C27.6183 27.1866 28.0258 27.1939 28.4333 27.2016C28.6089 27.2047 28.7846 27.2074 28.9602 27.2095C31.4373 27.2406 31.4373 27.2406 32.3241 28.1155C32.9087 28.834 33.0102 29.52 32.9275 30.4162C32.8532 31.0179 32.7281 31.6092 32.6038 32.2021C32.5753 32.3397 32.5469 32.4772 32.5185 32.6148C32.4592 32.901 32.3995 33.1872 32.3393 33.4732C32.2627 33.8379 32.1877 34.2029 32.1132 34.568C32.055 34.8514 31.9959 35.1346 31.9366 35.4177C31.9085 35.5522 31.8808 35.6867 31.8534 35.8213C31.641 36.8624 31.4114 37.7583 30.541 38.4384C29.9092 38.7762 29.3337 38.8676 28.6259 38.8564C28.5333 38.8565 28.4408 38.8565 28.3454 38.8566C28.0427 38.8563 27.7401 38.8534 27.4375 38.8505C27.2263 38.8498 27.0152 38.8492 26.804 38.8488C26.2508 38.8474 25.6975 38.8437 25.1443 38.8396C24.5788 38.8357 24.0132 38.834 23.4476 38.8321C22.3398 38.8281 21.232 38.8217 20.1242 38.8138C20.0963 38.8879 20.0684 38.9619 20.0397 39.0383C19.9302 39.2979 19.8355 39.4064 19.6198 39.5822C19.5374 39.6509 19.5374 39.6509 19.4534 39.7211C18.8978 40.1208 18.3524 40.0983 17.6842 40.0338C17.1548 39.8765 16.7655 39.4501 16.4642 39.0015C16.3162 38.6793 16.2529 38.4256 16.2515 38.0718C16.2507 37.9816 16.2499 37.8913 16.249 37.7984C16.2491 37.7005 16.2492 37.6026 16.2493 37.5017C16.2487 37.3977 16.248 37.2938 16.2474 37.1866C16.2456 36.8429 16.2452 36.4991 16.245 36.1553C16.2444 35.9161 16.2438 35.6768 16.2431 35.4375C16.242 34.9358 16.2417 34.4341 16.2418 33.9323C16.2419 33.354 16.2399 32.7757 16.2369 32.1974C16.2342 31.6394 16.2335 31.0815 16.2336 30.5235C16.2334 30.2869 16.2326 30.0503 16.2311 29.8137C16.2293 29.4822 16.2298 29.1507 16.231 28.8192C16.2299 28.7221 16.2289 28.6249 16.2278 28.5248C16.2336 27.8447 16.3414 27.2372 16.8123 26.719C17.3127 26.2514 17.8233 26.1008 18.501 26.1224C19.1966 26.1945 19.5637 26.4731 20.0069 27.0044C20.1242 27.177 20.1242 27.177 20.1242 27.3647C20.5887 27.3183 20.5887 27.3183 21.0627 27.2709C21.0977 27.143 21.1328 27.0151 21.169 26.8834C21.3614 26.2426 21.6282 25.6369 21.8955 25.0244C21.944 24.912 21.9925 24.7996 22.0425 24.6837C22.1839 24.3569 22.3269 24.0307 22.4703 23.7048C22.513 23.6066 22.5557 23.5084 22.5997 23.4072C22.6397 23.3166 22.6798 23.2259 22.7211 23.1325C22.7558 23.0535 22.7904 22.9745 22.8262 22.8931C23.0893 22.381 23.4908 21.8718 24.0521 21.6779C24.7324 21.5503 25.4513 21.5254 26.0581 21.892ZM24.1595 23.4232C23.9982 23.71 23.8787 24.0107 23.7574 24.3162C23.7215 24.4035 23.6855 24.4907 23.6485 24.5806C23.5341 24.8591 23.4215 25.1382 23.3091 25.4174C23.1959 25.6952 23.0824 25.9727 22.9686 26.2502C22.8981 26.4226 22.828 26.5951 22.7584 26.7679C22.1321 28.3109 22.1321 28.3109 21.5319 28.5847C21.1293 28.6466 20.7267 28.7086 20.3119 28.7724C20.3119 31.6215 20.3119 34.4706 20.3119 37.4061C21.8827 37.4143 21.8827 37.4143 23.4535 37.4199C24.0942 37.4216 24.7349 37.4235 25.3757 37.4274C25.8923 37.4304 26.4089 37.4321 26.9255 37.4328C27.1225 37.4334 27.3195 37.4344 27.5166 37.4359C27.7927 37.4379 28.0687 37.4382 28.3448 37.4381C28.4262 37.4391 28.5075 37.4401 28.5913 37.4412C29.0602 37.4388 29.3895 37.3942 29.7902 37.1246C30.0973 36.8101 30.2214 36.5535 30.3086 36.1259C30.3305 36.0219 30.3525 35.9179 30.375 35.8107C30.3971 35.6991 30.4192 35.5874 30.442 35.4724C30.466 35.3566 30.4901 35.2407 30.5148 35.1214C30.5783 34.8138 30.6407 34.5061 30.7025 34.1982C30.7651 33.8877 30.8293 33.5775 30.8933 33.2672C31.0081 32.7093 31.1219 32.1512 31.234 31.5928C31.2714 31.407 31.3093 31.2214 31.3478 31.0359C31.3648 30.9538 31.3817 30.8716 31.3991 30.787C31.4139 30.7163 31.4286 30.6456 31.4438 30.5728C31.533 30.06 31.5543 29.6702 31.3152 29.2006C31.0565 28.9059 30.8818 28.7887 30.4901 28.7469C30.4004 28.7459 30.3107 28.7449 30.2182 28.7439C30.1161 28.7424 30.014 28.7408 29.9088 28.7392C29.7442 28.738 29.7442 28.738 29.5762 28.7368C29.463 28.7352 29.3499 28.7336 29.2333 28.732C28.8715 28.727 28.5097 28.7232 28.1479 28.7196C27.7862 28.7155 27.4244 28.7111 27.0626 28.7062C26.8374 28.7032 26.6122 28.7007 26.3871 28.6987C26.285 28.6974 26.1829 28.6961 26.0777 28.6948C25.9879 28.6939 25.8982 28.693 25.8058 28.6921C25.5878 28.6797 25.4006 28.6462 25.1918 28.5847C25.0288 27.8734 25.2156 27.3637 25.4616 26.6902C25.532 26.4915 25.6021 26.2927 25.6721 26.0938C25.7036 26.0066 25.7352 25.9195 25.7677 25.8298C25.987 25.1586 26.0891 24.421 25.7842 23.7634C25.6036 23.4492 25.4153 23.2336 25.098 23.0478C24.6607 22.9604 24.4675 23.121 24.1595 23.4232ZM17.7781 27.8339C17.6907 28.0962 17.6719 28.2562 17.6704 28.5274C17.6697 28.6116 17.6691 28.6958 17.6684 28.7825C17.6681 28.8747 17.6679 28.9668 17.6676 29.0618C17.667 29.159 17.6664 29.2562 17.6658 29.3564C17.6639 29.6786 17.6628 30.0008 17.6619 30.323C17.6615 30.433 17.6611 30.5429 17.6607 30.6562C17.6588 31.2378 17.6574 31.8194 17.6565 32.4011C17.6555 33.0025 17.6523 33.6038 17.6485 34.2052C17.6461 34.6672 17.6453 35.1291 17.645 35.5911C17.6445 35.8128 17.6434 36.0345 17.6417 36.2562C17.6394 36.5663 17.6395 36.8763 17.6401 37.1863C17.6389 37.2781 17.6377 37.3698 17.6365 37.4644C17.6397 37.8801 17.6445 38.0953 17.8747 38.4522C17.9662 38.5383 17.9662 38.5383 18.0596 38.6261C18.4646 38.5976 18.4646 38.5976 18.7798 38.3668C18.9199 38.1304 18.9399 38.0025 18.9412 37.7301C18.9423 37.645 18.9434 37.5599 18.9445 37.4722C18.9442 37.3795 18.9439 37.2868 18.9436 37.1913C18.9444 37.0932 18.9452 36.995 18.946 36.8939C18.9482 36.5691 18.9483 36.2444 18.9482 35.9196C18.9489 35.6941 18.9496 35.4685 18.9504 35.2429C18.9516 34.77 18.9518 34.297 18.9512 33.8241C18.9507 33.2177 18.9535 32.6115 18.9573 32.0051C18.9598 31.5392 18.96 31.0734 18.9597 30.6075C18.9599 30.3839 18.9608 30.1603 18.9624 29.9368C18.9645 29.6242 18.9636 29.3118 18.962 28.9993C18.9632 28.9068 18.9644 28.8143 18.9657 28.719C18.9604 28.283 18.951 28.0844 18.6836 27.7259C18.2942 27.4541 18.1109 27.5344 17.7781 27.8339Z" fill="white"/>
<path d="M24.1562 0C24.4566 0.0876578 24.5468 0.269559 24.7225 0.524945C24.8363 0.785367 24.9212 1.05257 25.0056 1.32373C25.0422 1.43767 25.0422 1.43767 25.0797 1.55391C25.1309 1.71364 25.1817 1.87352 25.232 2.03355C25.3092 2.27915 25.3878 2.52427 25.4667 2.76934C25.5164 2.92481 25.566 3.0803 25.6155 3.23582C25.6507 3.34609 25.6507 3.34609 25.6866 3.45858C25.8487 3.97506 25.8487 3.97506 25.8487 4.1849C26.0326 4.18195 26.0326 4.18195 26.2203 4.17894C26.6759 4.17214 27.1315 4.16784 27.5871 4.16428C27.7842 4.16239 27.9812 4.15983 28.1783 4.15658C28.4618 4.15202 28.7452 4.1499 29.0288 4.14824C29.1606 4.14534 29.1606 4.14534 29.2951 4.14237C29.6928 4.14223 29.919 4.15044 30.2681 4.35472C30.4471 4.56028 30.4471 4.56028 30.5057 4.88287C30.3281 5.89522 28.4819 6.8269 27.6679 7.3982C27.4996 7.51598 27.3311 7.63353 27.1625 7.75101C27.2991 8.63631 27.6032 9.46459 27.9051 10.304C27.9711 10.4881 28.0352 10.6729 28.0991 10.8578C28.1377 10.9663 28.1764 11.0749 28.2161 11.1867C28.2985 11.5479 28.2773 11.8022 28.1948 12.1617C27.9898 12.3971 27.87 12.4372 27.561 12.4741C27.1795 12.4355 26.9632 12.2786 26.6698 12.0503C26.5551 11.965 26.4404 11.8797 26.3256 11.7944C26.2645 11.7482 26.2033 11.7019 26.1404 11.6543C25.7777 11.3802 25.4117 11.1109 25.0451 10.842C24.9379 10.7615 24.9379 10.7615 24.8286 10.6794C24.7606 10.6294 24.6925 10.5794 24.6225 10.5279C24.5625 10.4832 24.5026 10.4386 24.4408 10.3926C24.2165 10.2636 24.042 10.2126 23.7841 10.191C23.5374 10.3442 23.3272 10.4957 23.1037 10.6778C22.9707 10.7815 22.8375 10.885 22.7041 10.9883C22.6353 11.0422 22.5664 11.0962 22.4955 11.1517C22.1439 11.4248 21.7866 11.6893 21.4262 11.9506C21.3608 11.9998 21.2953 12.0491 21.2278 12.0998C20.8509 12.3718 20.6067 12.5158 20.1241 12.4433C19.9071 12.3377 19.9071 12.3377 19.7488 12.1617C19.5938 11.6417 19.7259 11.2699 19.8954 10.7768C19.9207 10.6993 19.9461 10.6218 19.9722 10.542C20.053 10.2956 20.1353 10.0497 20.218 9.80387C20.3006 9.55735 20.3828 9.31074 20.4638 9.0637C20.5141 8.91027 20.5653 8.75713 20.6176 8.60434C20.7732 8.13125 20.7732 8.13125 20.6872 7.65717C20.5546 7.52227 20.5546 7.52227 20.3819 7.41376C20.3178 7.36989 20.2537 7.32602 20.1877 7.28082C20.1184 7.23469 20.049 7.18855 19.9775 7.14102C19.8326 7.04174 19.6878 6.94227 19.5431 6.84262C19.4687 6.7916 19.3943 6.74058 19.3176 6.68801C18.9552 6.43599 18.6007 6.17372 18.2472 5.9093C18.1827 5.86158 18.1182 5.81386 18.0516 5.76469C17.6016 5.42746 17.6016 5.42746 17.4965 5.2172C17.4613 4.90047 17.4613 4.90047 17.4965 4.56028C17.697 4.32685 17.8595 4.20183 18.1678 4.15268C18.4177 4.1414 18.6647 4.14273 18.9148 4.14824C19.0058 4.14877 19.0968 4.1493 19.1905 4.14985C19.4803 4.15195 19.7699 4.15666 20.0596 4.16144C20.2564 4.16332 20.4532 4.16504 20.65 4.16657C21.1317 4.1707 21.6133 4.17718 22.0949 4.1849C22.1117 4.12063 22.1284 4.05637 22.1457 3.99015C22.3323 3.28066 22.5525 2.58344 22.7831 1.88735C22.8463 1.69594 22.9083 1.50416 22.9703 1.31236C23.0108 1.18966 23.0513 1.06697 23.092 0.944315C23.1461 0.779461 23.1461 0.779461 23.2012 0.611276C23.4154 0.0947824 23.5965 0.025879 24.1562 0ZM23.8779 3.24645C23.8496 3.33379 23.8496 3.33379 23.8206 3.42289C23.7346 3.68682 23.6479 3.95052 23.5612 4.21423C23.5315 4.30586 23.5017 4.3975 23.471 4.49191C23.4275 4.62392 23.4275 4.62392 23.3831 4.7586C23.3433 4.88024 23.3433 4.88024 23.3026 5.00433C23.221 5.2172 23.221 5.2172 23.0333 5.49873C22.7533 5.59207 22.5453 5.61093 22.2522 5.62227C22.1074 5.62817 22.1074 5.62817 21.9598 5.63418C21.8089 5.63972 21.8089 5.63972 21.655 5.64536C21.5025 5.65144 21.5025 5.65144 21.3469 5.65764C21.0957 5.6676 20.8446 5.67718 20.5934 5.68642C20.9327 6.04679 21.2837 6.32357 21.696 6.59554C22.2703 6.97564 22.2703 6.97564 22.3764 7.18794C22.426 7.77696 22.2732 8.26646 22.0949 8.82436C22.068 8.91092 22.0412 8.99747 22.0135 9.08665C21.9476 9.29863 21.8809 9.5103 21.8134 9.72176C22.0738 9.59852 22.3022 9.46075 22.5341 9.28992C22.63 9.22097 22.63 9.22097 22.728 9.15062C22.861 9.05443 22.9935 8.9574 23.1254 8.85956C23.4066 8.65937 23.6307 8.51606 23.9685 8.43505C24.4075 8.53789 24.7147 8.79368 25.0686 9.06484C25.2093 9.17099 25.3504 9.2766 25.492 9.38157C25.5847 9.45234 25.5847 9.45234 25.6792 9.52454C25.8557 9.65235 25.8557 9.65235 26.1302 9.62791C26.1132 9.57734 26.0961 9.52676 26.0785 9.47466C26.0009 9.24258 25.9248 9.01003 25.8487 8.77744C25.8218 8.6979 25.795 8.61836 25.7673 8.53641C25.6186 8.07775 25.505 7.67564 25.5672 7.18794C25.6951 7.00648 25.6951 7.00648 25.878 6.86535C25.9454 6.812 26.0128 6.75865 26.0822 6.70369C26.16 6.64671 26.2378 6.58973 26.3179 6.53103C26.4102 6.4634 26.5025 6.39578 26.5976 6.32611C26.7811 6.19296 26.9654 6.06103 27.1508 5.93056C27.2495 5.85617 27.2495 5.85617 27.3502 5.78027C27.3502 5.7493 27.3502 5.71833 27.3502 5.68642C27.2868 5.68456 27.2234 5.6827 27.158 5.68078C26.8701 5.67183 26.5823 5.66155 26.2945 5.65123C26.1947 5.64833 26.0948 5.64542 25.992 5.64243C25.8478 5.63699 25.8478 5.63699 25.7006 5.63143C25.6121 5.62848 25.5237 5.62554 25.4325 5.6225C25.1751 5.5905 25.0266 5.55722 24.8164 5.40489C24.7049 5.18544 24.7049 5.18544 24.6155 4.9144C24.5828 4.81762 24.5502 4.72084 24.5165 4.62113C24.4839 4.51976 24.4512 4.41838 24.4176 4.31394C24.3834 4.21184 24.3493 4.10974 24.3142 4.00454C24.2301 3.75223 24.1473 3.49956 24.0656 3.24645C24.0037 3.24645 23.9418 3.24645 23.8779 3.24645Z" fill="white"/>
<path d="M7.8305 5.21712C8.2047 5.58317 8.33691 5.99539 8.48888 6.48183C8.52557 6.59544 8.52557 6.59544 8.56301 6.71134C8.61426 6.87067 8.66503 7.03016 8.71533 7.18979C8.79246 7.43439 8.87112 7.67846 8.95004 7.9225C8.99974 8.07765 9.04935 8.23284 9.09887 8.38805C9.13405 8.49759 9.13405 8.49759 9.16995 8.60935C9.25991 8.89603 9.33202 9.13779 9.33202 9.44015C9.38547 9.43952 9.43893 9.4389 9.49401 9.43825C10.0496 9.43203 10.6053 9.42778 11.1609 9.42468C11.3684 9.42326 11.5758 9.42134 11.7833 9.41891C12.0812 9.4155 12.3791 9.4139 12.6771 9.41265C12.77 9.4112 12.863 9.40975 12.9588 9.40825C13.0452 9.40823 13.1316 9.40821 13.2206 9.40818C13.3347 9.40725 13.3347 9.40725 13.4511 9.40629C13.6982 9.4486 13.7778 9.52657 13.9304 9.72168C14.0428 10.0186 14.0374 10.1544 13.9297 10.4548C13.6855 10.8456 13.3956 11.0373 13.0154 11.2877C12.872 11.3852 12.7287 11.4828 12.5854 11.5806C12.4764 11.6544 12.4764 11.6544 12.3653 11.7298C11.9604 12.0091 11.5681 12.3059 11.1758 12.6025C10.7599 12.9124 10.7599 12.9124 10.552 12.9124C10.589 13.0232 10.6259 13.1339 10.664 13.2481C10.8013 13.6602 10.9374 14.0727 11.0732 14.4853C11.1321 14.6636 11.1913 14.8418 11.2508 15.0199C11.3363 15.2764 11.4208 15.5332 11.5051 15.7901C11.5451 15.9089 11.5451 15.9089 11.586 16.0301C11.7192 16.4398 11.8189 16.7928 11.772 17.2293C11.6254 17.4522 11.6254 17.4522 11.3966 17.6047C10.8716 17.6761 10.6018 17.5591 10.1908 17.2612C10.1261 17.212 10.0614 17.1627 9.99479 17.112C9.92642 17.0621 9.85805 17.0121 9.78761 16.9607C9.42718 16.6961 9.07295 16.4239 8.71982 16.1497C8.65219 16.0976 8.58456 16.0456 8.51488 15.992C8.38522 15.8917 8.25646 15.7903 8.12873 15.6875C7.82841 15.4281 7.82841 15.4281 7.45681 15.3733C7.25679 15.4503 7.10531 15.5406 6.93127 15.6654C6.86768 15.7107 6.8041 15.756 6.73858 15.8026C6.63744 15.8759 6.63744 15.8759 6.53426 15.9506C6.46417 16.0005 6.39408 16.0503 6.32187 16.1016C5.96861 16.3537 5.62013 16.6105 5.27725 16.8766C5.21523 16.9241 5.15321 16.9716 5.08931 17.0206C4.97238 17.1106 4.85645 17.2019 4.74174 17.2947C4.35456 17.5916 4.09116 17.6633 3.60747 17.6047C3.37872 17.4639 3.37872 17.4639 3.23209 17.2293C3.18979 16.6472 3.29113 16.1937 3.47843 15.6456C3.50343 15.5696 3.52842 15.4936 3.55418 15.4153C3.63347 15.175 3.71428 14.9352 3.79516 14.6955C3.84952 14.5316 3.90377 14.3678 3.95792 14.2039C4.09019 13.8043 4.22383 13.4052 4.35823 13.0063C4.17067 12.868 3.9831 12.7297 3.7955 12.5914C3.63412 12.4724 3.47278 12.3534 3.31148 12.2343C2.92552 11.9496 2.53907 11.6656 2.14994 11.3852C2.08577 11.3388 2.0216 11.2924 1.95549 11.2446C1.83533 11.1578 1.71491 11.0714 1.59418 10.9854C1.33314 10.7963 1.16075 10.65 0.97981 10.3786C0.939235 10.0608 0.934632 9.88583 1.10967 9.61345C1.49001 9.34498 1.8606 9.38354 2.31563 9.38296C2.40884 9.38141 2.50204 9.37986 2.59807 9.37826C2.89544 9.3737 3.19277 9.3717 3.49016 9.36976C3.69191 9.36712 3.89365 9.36431 4.09539 9.36133C4.58966 9.35439 5.08391 9.34955 5.57821 9.3463C5.61085 9.24073 5.64349 9.13516 5.67712 9.02639C5.79876 8.63355 5.9212 8.24098 6.04389 7.84847C6.09681 7.67878 6.1495 7.50902 6.20198 7.3392C6.27758 7.09465 6.35397 6.85036 6.43052 6.6061C6.4537 6.53052 6.47688 6.45493 6.50076 6.37706C6.6229 5.9901 6.7468 5.6445 6.98589 5.31097C7.27949 5.16416 7.5073 5.18369 7.8305 5.21712ZM7.45511 8.31401C7.43385 8.37792 7.41258 8.44183 7.39067 8.50768C7.29375 8.79729 7.19556 9.08646 7.09733 9.37563C7.06388 9.47622 7.03043 9.5768 6.99597 9.68044C6.94652 9.82515 6.94652 9.82515 6.89608 9.97279C6.8661 10.0617 6.83612 10.1507 6.80523 10.2423C6.70017 10.482 6.63809 10.6061 6.42282 10.754C6.16688 10.7946 6.16688 10.7946 5.86158 10.802C5.75241 10.8053 5.64323 10.8087 5.53074 10.8121C5.41673 10.8142 5.30271 10.8163 5.18524 10.8185C5.07013 10.8217 4.95503 10.8249 4.83644 10.8282C4.55192 10.836 4.26742 10.8424 3.98285 10.8478C4.34683 11.1393 4.71182 11.4293 5.07966 11.7159C5.13416 11.759 5.18866 11.802 5.24481 11.8464C5.51993 12.0844 5.51993 12.0844 5.85975 12.1617C5.93563 12.8631 5.78006 13.4365 5.54919 14.0904C5.40663 14.4816 5.40663 14.4816 5.48437 14.8832C5.61847 14.7864 5.61847 14.7864 5.75527 14.6878C5.87416 14.6023 5.99306 14.5169 6.11196 14.4315C6.17069 14.3891 6.22942 14.3467 6.28993 14.303C6.40569 14.22 6.522 14.1377 6.63887 14.0563C6.77262 13.9626 6.90395 13.8655 7.03465 13.7676C7.37872 13.6132 7.56282 13.653 7.92434 13.757C8.20284 13.9246 8.45224 14.1214 8.70443 14.326C8.83671 14.431 8.96928 14.5358 9.10217 14.6401C9.15991 14.6867 9.21765 14.7333 9.27714 14.7813C9.42162 14.9008 9.42162 14.9008 9.61355 14.8832C9.48164 14.3826 9.34836 13.8867 9.17365 13.3992C9.06251 13.0658 8.98619 12.7968 9.05048 12.4432C9.40508 12.0418 9.819 11.7424 10.2529 11.4344C10.4799 11.2726 10.7043 11.1089 10.9274 10.9417C10.9274 10.9107 10.9274 10.8797 10.9274 10.8478C10.8583 10.8469 10.7892 10.8461 10.718 10.8452C10.4045 10.8401 10.0912 10.8323 9.77778 10.8244C9.61465 10.8224 9.61465 10.8224 9.44822 10.8203C9.34358 10.8173 9.23894 10.8143 9.13113 10.8112C9.0348 10.8092 8.93848 10.8072 8.83924 10.8052C8.51223 10.7403 8.40725 10.6412 8.20587 10.3786C8.10296 10.1465 8.10296 10.1465 8.02552 9.89031C7.99709 9.79837 7.96866 9.70643 7.93937 9.61171C7.91118 9.51638 7.883 9.42105 7.85396 9.32284C7.82432 9.22606 7.79468 9.12928 7.76414 9.02957C7.69135 8.79135 7.61967 8.55285 7.54896 8.31401C7.51799 8.31401 7.48702 8.31401 7.45511 8.31401Z" fill="white"/>
<path d="M40.7701 5.21738C41.1641 5.51183 41.2815 5.89994 41.4251 6.35195C41.4494 6.4253 41.4736 6.49864 41.4986 6.57421C41.5755 6.80784 41.6508 7.04196 41.7261 7.27611C41.7778 7.43322 41.8295 7.5903 41.8814 7.74735C41.9307 7.89805 41.9801 8.04877 42.0293 8.19953C42.0637 8.30498 42.0637 8.30498 42.0989 8.41256C42.2082 8.75286 42.3053 9.08782 42.3654 9.44041C42.4175 9.43957 42.4696 9.43874 42.5232 9.43788C43.0652 9.42958 43.6071 9.42391 44.1491 9.41979C44.3513 9.4179 44.5536 9.41534 44.7559 9.41209C45.0466 9.40754 45.3372 9.40541 45.628 9.40375C45.7184 9.40181 45.8089 9.39987 45.9021 9.39788C46.5279 9.39767 46.5279 9.39767 46.8332 9.61316C47.0136 9.89306 47.0173 10.0516 46.9638 10.3789C46.6701 10.8247 46.2833 11.0868 45.8494 11.3818C45.707 11.4804 45.5647 11.579 45.4224 11.6777C45.3152 11.7515 45.3152 11.7515 45.2058 11.8268C44.8803 12.0524 44.5583 12.2829 44.2365 12.5138C44.1278 12.5916 44.0192 12.6693 43.9106 12.747C43.8342 12.8017 43.7579 12.8563 43.6793 12.9127C43.7284 13.734 44.0402 14.4859 44.3158 15.2535C44.7925 16.5883 44.7925 16.5883 44.7115 17.3234C44.5106 17.5886 44.3731 17.5995 44.0466 17.6478C43.5231 17.5867 43.2342 17.328 42.8288 17.0067C42.6712 16.8865 42.5136 16.7664 42.3559 16.6463C42.2784 16.5864 42.201 16.5266 42.1212 16.4649C41.8007 16.2173 41.4775 15.9739 41.1513 15.7339C41.0987 15.6935 41.0462 15.6531 40.992 15.6115C40.725 15.404 40.725 15.404 40.4023 15.3735C40.1762 15.458 40.0156 15.5677 39.8232 15.7134C39.7501 15.7681 39.6771 15.8228 39.6019 15.8792C39.5248 15.9377 39.4477 15.9962 39.3683 16.0565C39.2076 16.1761 39.0469 16.2956 38.8862 16.415C38.6678 16.5779 38.4496 16.741 38.232 16.905C38.0702 17.0264 37.9072 17.1458 37.7436 17.2647C37.654 17.3313 37.5645 17.3978 37.4723 17.4664C37.1408 17.6375 36.9154 17.6403 36.547 17.6049C36.3124 17.47 36.3124 17.47 36.1717 17.2295C36.1644 16.6447 36.3361 16.0912 36.521 15.5429C36.5459 15.467 36.5707 15.3911 36.5963 15.313C36.6749 15.0737 36.7547 14.8349 36.8344 14.596C36.8883 14.4326 36.9422 14.2692 36.9959 14.1057C37.127 13.7077 37.259 13.3101 37.3916 12.9127C37.3367 12.8865 37.2818 12.8603 37.2252 12.8333C37.0291 12.7317 36.8565 12.6212 36.6768 12.4933C36.6127 12.4479 36.5486 12.4025 36.4825 12.3557C36.3434 12.2562 36.2043 12.1566 36.0651 12.057C35.7233 11.8126 35.3811 11.5705 35.0305 11.3389C34.9705 11.2985 34.9106 11.2581 34.8488 11.2165C34.7367 11.1411 34.6238 11.0671 34.5098 10.9947C34.2141 10.7929 34.1058 10.6572 33.97 10.3213C33.9194 10.0035 33.9194 10.0035 34.0425 9.73367C34.2009 9.53425 34.2009 9.53425 34.2948 9.44041C34.4302 9.43168 34.566 9.42938 34.7017 9.42975C34.8313 9.42976 34.8313 9.42976 34.9636 9.42978C35.0575 9.43026 35.1514 9.43074 35.2482 9.43124C35.3439 9.43138 35.4396 9.43151 35.5382 9.43164C35.8451 9.43217 36.1521 9.43335 36.4591 9.43454C36.6666 9.43501 36.8741 9.43544 37.0817 9.43582C37.5917 9.43686 38.1016 9.43843 38.6116 9.44041C38.6225 9.38814 38.6333 9.33587 38.6444 9.28202C38.7489 8.79306 38.8762 8.32018 39.0336 7.84578C39.0665 7.74546 39.0665 7.74546 39.1002 7.64312C39.1462 7.50348 39.1925 7.36391 39.2391 7.22442C39.31 7.01099 39.3796 6.79715 39.4491 6.58327C39.4943 6.44687 39.5395 6.3105 39.5849 6.17416C39.6157 6.0787 39.6157 6.0787 39.6471 5.98132C39.8693 5.32458 40.0562 5.12972 40.7701 5.21738ZM40.3947 8.31427C40.3734 8.38151 40.3521 8.44876 40.3302 8.51804C40.2335 8.82193 40.1352 9.1253 40.0369 9.42868C40.0034 9.53453 39.97 9.64038 39.9355 9.74944C39.8861 9.90095 39.8861 9.90095 39.8356 10.0555C39.8057 10.1489 39.7757 10.2423 39.7448 10.3385C39.6439 10.5665 39.6439 10.5665 39.3624 10.7542C39.1151 10.7842 39.1151 10.7842 38.8217 10.7931C38.6643 10.7985 38.6643 10.7985 38.5037 10.8041C38.3941 10.807 38.2846 10.8099 38.1717 10.8129C38.0058 10.8183 38.0058 10.8183 37.8365 10.8239C37.5631 10.8327 37.2897 10.8408 37.0163 10.8481C37.3687 11.2227 37.7424 11.5138 38.1659 11.8041C38.7869 12.2309 38.7869 12.2309 38.8932 12.4434C38.8695 13.1428 38.6603 13.7461 38.4294 14.3992C38.3202 14.6733 38.3202 14.6733 38.3301 14.8834C38.8174 14.7249 39.1678 14.4166 39.5508 14.09C39.915 13.7947 40.1913 13.6685 40.6762 13.6634C40.8921 13.7543 40.8921 13.7543 41.0809 13.898C41.1862 13.9753 41.1862 13.9753 41.2935 14.0542C41.3685 14.1111 41.4435 14.1679 41.5208 14.2265C41.6945 14.3482 41.8685 14.4695 42.0428 14.5902C42.1817 14.6878 42.3205 14.7855 42.4593 14.8834C42.586 14.5031 42.4521 14.254 42.3244 13.8922C42.1264 13.3033 42.0161 12.7884 42.0839 12.1619C42.1655 12.1229 42.1655 12.1229 42.2488 12.0831C42.5968 11.9031 42.9113 11.6745 43.2335 11.4522C43.3034 11.4046 43.3733 11.357 43.4454 11.308C43.5445 11.2398 43.5445 11.2398 43.6455 11.1703C43.706 11.1287 43.7666 11.0872 43.8289 11.0444C43.8724 11.0106 43.9159 10.9768 43.9608 10.9419C43.9608 10.911 43.9608 10.88 43.9608 10.8481C43.8883 10.8467 43.8159 10.8453 43.7413 10.8439C43.4136 10.837 43.086 10.8279 42.7584 10.8188C42.6444 10.8166 42.5304 10.8145 42.4129 10.8123C42.2491 10.8074 42.2491 10.8074 42.0821 10.8023C41.9813 10.7998 41.8806 10.7973 41.7768 10.7948C41.5208 10.7542 41.5208 10.7542 41.357 10.6417C41.2078 10.4274 41.131 10.2206 41.0476 9.97305C41.0146 9.87658 40.9816 9.7801 40.9477 9.6807C40.9142 9.58011 40.8808 9.47952 40.8463 9.37589C40.8118 9.27421 40.7772 9.17253 40.7416 9.06778C40.6565 8.81685 40.5722 8.56568 40.4885 8.31427C40.4576 8.31427 40.4266 8.31427 40.3947 8.31427Z" fill="white"/>
</svg>
