<svg width="40" height="49" viewBox="0 0 40 49" fill="none" xmlns="http://www.w3.org/2000/svg">
<path d="M8.39023 37.4777C4.29785 38.3996 1.67773 39.8137 1.67773 41.4023C1.67773 44.1768 9.69246 46.4277 19.5777 46.4277C29.463 46.4277 37.4777 44.1768 37.4777 41.4023C37.4777 39.8137 34.8576 38.3996 30.7652 37.4777M25.1715 17.3402C25.1715 18.8238 24.5821 20.2466 23.5331 21.2956C22.4841 22.3446 21.0613 22.934 19.5777 22.934C18.0942 22.934 16.6714 22.3446 15.6224 21.2956C14.5733 20.2466 13.984 18.8238 13.984 17.3402C13.984 15.8567 14.5733 14.4339 15.6224 13.3849C16.6714 12.3358 18.0942 11.7465 19.5777 11.7465C21.0613 11.7465 22.4841 12.3358 23.5331 13.3849C24.5821 14.4339 25.1715 15.8567 25.1715 17.3402ZM22.3903 36.3456C21.6345 37.0727 20.6265 37.4789 19.5777 37.4789C18.529 37.4789 17.5209 37.0727 16.7652 36.3456C9.85354 29.6487 0.592529 22.1688 5.1078 11.3079C7.55339 5.4345 13.4156 1.67773 19.5777 1.67773C25.7398 1.67773 31.6043 5.43673 34.0476 11.3079C38.5584 22.1531 29.3198 29.6711 22.3903 36.3456Z" stroke="white" stroke-width="3.35625" stroke-linecap="round" stroke-linejoin="round"/>
</svg>
