<svg width="49" height="49" viewBox="0 0 49 49" fill="none" xmlns="http://www.w3.org/2000/svg">
<path d="M15.5501 0.1493C16.5382 0.650541 17.0744 1.51313 17.5656 2.46534C17.6294 2.58552 17.6934 2.7056 17.7576 2.82556C17.8559 3.00955 17.9541 3.19361 18.0515 3.37808C18.4373 4.10839 18.8466 4.82506 19.2543 5.54326C19.3055 5.63412 19.3567 5.72498 19.4095 5.81859C19.4542 5.89747 19.4989 5.97636 19.545 6.05763C19.6636 6.28415 19.6636 6.28415 19.7528 6.54346C19.7856 6.61347 19.8184 6.68348 19.8522 6.75561C20.0308 6.8026 20.2099 6.84828 20.3911 6.88379C21.0625 7.07202 21.6412 7.59799 22.0209 8.16999C22.3446 8.7463 22.3359 9.31401 22.3038 9.96153C22.3563 9.97429 22.4088 9.98705 22.4629 10.0002C23.2984 10.2359 23.8574 10.7225 24.2876 11.4731C24.5375 11.9851 24.6023 12.5144 24.6611 13.0732C24.7215 13.0938 24.7819 13.1145 24.8441 13.1358C25.8006 13.4864 26.2873 13.9096 26.727 14.8404C26.8884 15.3229 26.8778 15.7771 26.8298 16.2791C26.9076 16.283 26.9854 16.2869 27.0655 16.2909C27.735 16.4582 28.2111 16.9366 28.5974 17.4934C29.0015 18.177 29.0909 18.8884 28.9985 19.6736C28.9273 19.8373 28.8546 20.0003 28.7805 20.1627C28.6952 20.4435 28.6697 20.6174 28.8013 20.8849C29.0839 21.319 29.422 21.709 29.7598 22.1006C30.0502 22.4415 30.3222 22.7961 30.5956 23.1506C30.6766 23.2545 30.6766 23.2545 30.7592 23.3605C31.1744 23.8936 31.5795 24.4336 31.9805 24.9775C32.0625 25.0887 32.0625 25.0887 32.1462 25.2021C32.2924 25.4015 32.4373 25.6018 32.5816 25.8025C32.6209 25.8559 32.6603 25.9094 32.7008 25.9644C32.9615 26.3309 33.0211 26.5765 33.0026 27.0169C32.9314 27.3416 32.7442 27.4926 32.4873 27.6884C32.1465 27.8588 31.806 27.7991 31.4501 27.6884C31.1736 27.4792 30.9901 27.2149 30.79 26.934C30.7099 26.8239 30.6297 26.7138 30.5495 26.6036C30.3838 26.3747 30.22 26.1445 30.0578 25.913C29.8968 25.6845 29.7337 25.4591 29.5642 25.2368C29.2359 25.2963 29.0232 25.4255 28.7521 25.6173C28.6666 25.6773 28.5811 25.7373 28.493 25.7991C28.4012 25.8644 28.3093 25.9297 28.2147 25.997C28.0184 26.1352 27.8221 26.2733 27.6257 26.4114C27.5251 26.4824 27.4245 26.5535 27.3208 26.6267C26.8484 26.9594 26.3734 27.2884 25.8987 27.6177C25.0117 28.2341 24.128 28.8553 23.2467 29.4799C23.4163 29.8736 23.6784 30.1961 23.9362 30.5348C23.9862 30.6009 24.0363 30.667 24.0878 30.7352C24.1938 30.875 24.2999 31.0148 24.4061 31.1545C24.5615 31.3588 24.7163 31.5635 24.871 31.7683C25.425 32.4994 25.9899 33.2196 26.5715 33.9288C26.8596 34.2804 27.1424 34.6351 27.4203 34.9948C27.8743 35.5821 28.3517 36.1362 28.8589 36.6781C29.0493 36.8823 29.2346 37.0888 29.4169 37.3002C30.4631 38.5034 31.5605 39.6608 32.7702 40.7006C32.8306 40.7527 32.891 40.8049 32.9532 40.8585C33.9424 41.7058 34.9672 42.4602 36.0704 43.1522C36.1365 43.194 36.2026 43.2358 36.2707 43.2789C38.9827 44.9801 42.0354 45.9545 45.2167 46.2638C45.1836 46.2189 45.1505 46.1741 45.1164 46.1278C45.0158 45.9912 44.9151 45.8546 44.8145 45.718C44.6958 45.5569 44.577 45.3958 44.4582 45.2347C44.161 44.8315 43.864 44.4281 43.568 44.024C42.9935 43.2405 42.4125 42.4624 41.8222 41.6907C41.064 40.6995 40.3238 39.6958 39.5866 38.689C38.945 37.8132 38.2971 36.943 37.638 36.0803C37.5114 35.9141 37.3848 35.7479 37.2582 35.5816C37.0601 35.3216 36.8609 35.0626 36.6593 34.8052C36.0378 33.9936 36.0378 33.9936 36.0704 33.4402C36.1879 33.1006 36.2923 32.9238 36.5713 32.6976C36.8784 32.5691 37.0601 32.5443 37.3905 32.5915C37.93 32.8806 38.2207 33.2818 38.5691 33.7761C38.6862 33.9385 38.8033 34.101 38.9205 34.2634C38.9797 34.3462 39.0389 34.429 39.1 34.5143C39.3717 34.8933 39.6479 35.2689 39.9245 35.6442C39.9785 35.7175 40.0324 35.7908 40.0879 35.8664C40.503 36.4293 40.9257 36.9863 41.3507 37.5419C42.1089 38.533 42.8491 39.5367 43.5863 40.5435C44.2781 41.4878 44.9788 42.4244 45.6901 43.3541C46.2296 44.0605 46.7598 44.7733 47.283 45.4918C47.4583 45.732 47.6367 45.9678 47.8237 46.199C48.1823 46.652 48.4134 46.9783 48.4009 47.5681C48.2817 47.9037 48.1553 48.1436 47.8568 48.3383C47.4457 48.4217 47.0432 48.4091 46.6252 48.3972C46.504 48.3952 46.3829 48.3932 46.258 48.3912C39.4109 48.2063 33.8713 44.8107 29.1517 40.1113C29.0811 40.0411 29.0104 39.9709 28.9377 39.8986C28.5509 39.5106 28.18 39.1141 27.8225 38.6991C27.6409 38.4884 27.4535 38.2834 27.2659 38.0781C26.4456 37.1678 25.6975 36.1973 24.944 35.2317C24.8907 35.1636 24.8375 35.0955 24.7827 35.0254C24.1859 34.2618 23.5916 33.4971 23.0128 32.7197C22.7598 32.381 22.5026 32.0455 22.2457 31.7096C21.6204 30.8918 21.0034 30.0686 20.3952 29.238C20.0075 28.71 19.6099 28.193 19.1922 27.6884C19.1157 27.7374 19.0393 27.7863 18.9605 27.8368C16.8817 29.146 14.5807 29.7716 12.1301 29.2551C11.7127 29.157 11.3016 29.0499 10.8945 28.9142C10.7205 29.0123 10.7205 29.0123 10.5494 29.1672C10.4828 29.2232 10.4162 29.2792 10.3476 29.3369C10.2772 29.3977 10.2068 29.4585 10.1343 29.5212C9.98832 29.6443 9.84234 29.7675 9.69632 29.8906C9.59101 29.9802 9.59101 29.9802 9.48357 30.0716C9.1877 30.3222 8.88572 30.5646 8.5814 30.8048C8.39939 30.9485 8.21912 31.0938 8.03922 31.2401C7.93024 31.3272 7.82121 31.4143 7.71215 31.5013C7.66204 31.5426 7.61193 31.5839 7.5603 31.6264C7.22953 31.8873 6.98101 32.022 6.55707 32.0258C5.93971 31.8572 5.70068 31.5477 5.36075 31.0239C5.26196 30.8779 5.16312 30.7319 5.06424 30.586C5.01458 30.5115 4.96491 30.4371 4.91374 30.3604C4.68574 30.0213 4.44848 29.689 4.21157 29.3562C3.74077 28.6901 3.27318 28.0219 2.80576 27.3535C2.4967 26.9118 2.18718 26.4703 1.8761 26.03C1.78367 25.899 1.69153 25.7678 1.59967 25.6364C1.35971 25.2941 1.11463 24.9574 0.860529 24.6254C0.807914 24.5551 0.755299 24.4848 0.701089 24.4124C0.601104 24.279 0.4994 24.1469 0.395654 24.0164C0.0800069 23.5905 -0.0283829 23.2481 0.00614829 22.7146C0.0812568 22.3587 0.228436 22.2406 0.522405 22.0309C0.849991 21.826 1.18534 21.6387 1.52425 21.4533C1.66714 21.3723 1.66714 21.3723 1.81291 21.2897C2.27714 21.0273 2.74124 20.7777 3.22556 20.5542C4.01504 20.2118 4.01504 20.2118 4.56737 19.5925C4.65471 19.2452 4.65685 18.9047 4.65761 18.5483C4.65878 18.0101 4.77878 17.5214 4.91876 17.0039C4.94344 16.9124 4.96812 16.8209 4.99355 16.7265C5.54857 14.7429 6.36666 12.7552 7.49226 11.0249C7.61237 10.8221 7.61236 10.8221 7.57089 10.6303C7.4883 10.4005 7.38155 10.2631 7.2219 10.0787C7.16548 10.0124 7.10905 9.94605 7.05091 9.87774C6.99102 9.80815 6.93112 9.73856 6.86942 9.66687C6.0512 8.69227 5.3719 7.85114 5.43147 6.52578C5.54128 5.62332 5.97495 4.98152 6.65137 4.39832C6.96811 4.17043 7.297 3.96561 7.62964 3.76185C7.81642 3.64527 8.00316 3.52863 8.18987 3.41194C8.28141 3.35509 8.37295 3.29823 8.46726 3.23966C8.81742 3.02102 9.16373 2.79678 9.50958 2.57142C9.637 2.48887 9.76444 2.40637 9.89191 2.3239C10.132 2.16853 10.3719 2.01299 10.6117 1.85723C10.9237 1.65478 11.2361 1.45302 11.5486 1.25133C11.647 1.18735 11.7453 1.12337 11.8465 1.05746C13.0498 0.28273 14.0866 -0.282023 15.5501 0.1493ZM13.3284 2.48302C13.2554 2.52933 13.1823 2.57564 13.1071 2.62335C12.8714 2.77342 12.6372 2.92565 12.4032 3.07824C12.2453 3.18007 12.0874 3.28185 11.9295 3.38358C11.534 3.6391 11.1399 3.89663 10.746 4.15463C10.4555 4.34444 10.1639 4.5327 9.87227 4.72079C9.33555 5.06699 8.79959 5.41437 8.26611 5.76555C8.17884 5.82292 8.09157 5.88029 8.00165 5.9394C7.72261 6.13858 7.53544 6.27482 7.42338 6.60239C7.37913 7.22181 7.83483 7.64713 8.20718 8.09338C8.26321 8.16162 8.31925 8.22987 8.37698 8.30019C8.68135 8.66972 8.68135 8.66972 9.00866 9.01861C9.0625 8.9593 9.11635 8.89998 9.17183 8.83887C10.1689 7.78631 11.4447 6.94905 12.9258 6.83075C13.8792 6.81385 14.5868 6.99587 15.3277 7.61197C15.5942 7.8696 15.7883 8.13992 15.9862 8.45286C16.6506 8.0975 17.2569 7.66002 17.8721 7.22707C17.4235 6.37143 16.9608 5.52376 16.4923 4.67891C16.4007 4.51381 16.3093 4.34864 16.2179 4.18347C16.0477 3.87718 15.876 3.57176 15.7034 3.26682C15.6519 3.17525 15.6004 3.08368 15.5473 2.98933C15.4989 2.90551 15.4505 2.82169 15.4006 2.73532C15.3378 2.6258 15.3378 2.6258 15.2738 2.51407C15.1225 2.30277 14.9809 2.17773 14.7605 2.04103C14.1559 1.95132 13.814 2.16413 13.3284 2.48302ZM10.9888 9.77295C10.9314 9.82047 10.874 9.868 10.8149 9.91696C8.51269 11.9975 6.80212 16.1267 6.52466 19.1819C6.47876 20.1435 6.63352 20.9167 6.99888 21.8097C7.19691 22.3168 7.23984 22.6576 7.1086 23.189C7.08218 23.2425 7.05575 23.2959 7.02853 23.351C6.64337 23.4793 6.29938 23.5035 5.89703 23.4452C5.34597 23.0946 5.17443 22.4301 4.95411 21.8423C4.11182 22.2799 3.29358 22.7304 2.50253 23.2567C2.6542 23.7263 2.93061 24.0797 3.2215 24.4707C3.71656 25.1457 4.20051 25.8274 4.67713 26.5156C5.18636 27.2503 5.69806 27.9831 6.21492 28.7125C6.39484 28.9665 6.57299 29.2209 6.74566 29.4799C7.06992 29.423 7.25053 29.3056 7.50036 29.0943C7.57019 29.0359 7.64002 28.9775 7.71196 28.9173C7.78398 28.856 7.856 28.7947 7.9302 28.7315C8.07363 28.6107 8.21715 28.49 8.36077 28.3694C8.42404 28.3157 8.48732 28.262 8.55251 28.2066C8.72578 28.0655 8.72578 28.0655 9.00866 27.877C8.88029 27.5791 8.74477 27.4155 8.49005 27.2169C8.12064 26.9289 7.98974 26.7006 7.9302 26.2327C7.97145 25.8968 7.97145 25.8968 8.17182 25.6257C8.47613 25.4008 8.63143 25.3311 9.00866 25.3311C9.46349 25.5198 9.79785 25.7933 10.1578 26.1208C11.4076 27.2108 12.9184 27.5217 14.5471 27.4254C15.8463 27.304 17.0323 26.7858 18.0607 25.9911C17.7216 25.4558 17.3522 24.9464 16.9704 24.4412C16.4009 23.6875 15.8469 22.9235 15.2957 22.1563C15.0236 21.7781 14.7505 21.4007 14.4776 21.0231C14.1304 20.5429 13.7844 20.0618 13.4404 19.5793C13.2314 19.7883 13.1881 19.922 13.0927 20.1981C12.7511 21.0709 12.0304 21.9815 11.1774 22.408C10.7066 22.4436 10.4249 22.415 10.0459 22.1252C9.898 21.8294 9.91559 21.5055 9.95158 21.1822C10.0712 20.8643 10.2356 20.7067 10.4996 20.4986C11.1631 19.9339 11.4852 19.3 11.5752 18.4389C11.5971 17.9049 11.5081 17.4029 11.4131 16.8802C11.0927 15.0533 11.3407 13.4952 12.4032 11.9417C12.6881 11.7517 12.7725 11.7213 13.0986 11.7118C13.1693 11.7081 13.24 11.7043 13.3129 11.7004C13.9088 11.842 14.2638 12.5783 14.5789 13.0652C14.8702 13.493 15.1337 13.7091 15.6091 13.9218C15.9011 13.9769 15.9011 13.9769 16.1866 13.963C16.2802 13.9629 16.3738 13.9628 16.4702 13.9627C16.7754 13.9165 16.9599 13.813 17.212 13.6389C16.9341 13.1298 16.6193 12.6672 16.275 12.201C15.7677 11.5074 15.2773 10.8042 14.7984 10.0907C14.2956 9.26029 14.2956 9.26029 13.5347 8.73574C12.5949 8.59869 11.6713 9.17289 10.9888 9.77295ZM18.538 9.07755C18.4414 9.14585 18.3448 9.21416 18.2452 9.28454C18.1532 9.35237 18.0612 9.42019 17.9664 9.49007C17.8473 9.57722 17.8473 9.57722 17.7259 9.66613C17.5532 9.79434 17.3819 9.92393 17.212 10.0558C17.5006 10.5774 17.8197 11.0717 18.155 11.5645C18.5877 11.4175 18.9252 11.1865 19.2923 10.9221C19.35 10.882 19.4077 10.8418 19.4671 10.8004C19.8098 10.5555 20.0868 10.3165 20.3237 9.96153C20.3814 9.55742 20.3712 9.37444 20.1469 9.0304C19.8917 8.77525 19.8137 8.74069 19.4511 8.70848C19.042 8.74005 18.8686 8.84059 18.538 9.07755ZM20.7951 12.2245C20.729 12.2643 20.6629 12.3041 20.5948 12.345C19.6913 12.8576 19.6913 12.8576 19.0596 13.6374C19.0231 13.8914 19.0121 14.1371 19.0036 14.3932C18.8122 14.9786 18.3928 15.2505 17.8721 15.5247C17.9474 15.7123 17.9474 15.7123 18.0607 15.9019C18.3361 16.0133 18.4363 16.0402 18.7207 15.9962C19.0967 15.8224 19.4236 15.5781 19.7579 15.3362C19.896 15.2381 20.0341 15.1402 20.1723 15.0422C20.6028 14.7355 21.0293 14.4235 21.4552 14.1104C21.5976 14.0068 21.5976 14.0068 21.7428 13.9012C22.2665 13.5232 22.2665 13.5232 22.5867 12.9789C22.5803 12.6145 22.5457 12.3968 22.3391 12.0949C21.747 11.6897 21.3464 11.8811 20.7951 12.2245ZM13.2518 14.6761C13.1428 14.8941 13.1419 15.0288 13.1398 15.2713C13.1385 15.3429 13.1371 15.4145 13.1358 15.4883C13.1949 16.1006 13.5826 16.5293 13.9413 17.0039C14.0617 17.1652 14.182 17.3265 14.3023 17.4879C14.3632 17.5695 14.4242 17.6511 14.487 17.7352C14.7565 18.0979 15.021 18.4641 15.2849 18.8308C15.3351 18.9005 15.3853 18.9701 15.437 19.0418C15.6392 19.3224 15.8412 19.6031 16.0432 19.8838C16.1951 20.0947 16.347 20.3055 16.499 20.5163C16.5492 20.586 16.5995 20.6557 16.6513 20.7275C17.0252 21.2452 17.4038 21.7592 17.7837 22.2725C18.3918 23.0945 18.9835 23.9273 19.5693 24.7653C19.9668 24.6824 20.2551 24.4828 20.583 24.2526C20.6681 24.1949 20.6681 24.1949 20.755 24.136C20.8979 24.0367 21.0356 23.9301 21.1723 23.8224C21.1723 23.7602 21.1723 23.6979 21.1723 23.6338C21.1023 23.5638 21.0323 23.4938 20.9601 23.4217C20.5483 23.0098 20.2743 22.5984 20.1351 22.0309C20.1389 21.9089 20.1389 21.9089 20.1428 21.7845C20.1472 21.4904 20.1395 21.2718 20.0408 20.9937C19.7706 20.801 19.4999 20.6853 19.194 20.5579C18.5841 20.2794 18.2907 19.7492 18.0323 19.1517C17.9567 18.8853 17.9622 18.6591 17.9664 18.383C17.9653 18.1189 17.9653 18.1189 17.8721 17.882C17.5999 17.6837 17.3297 17.5637 17.019 17.4349C16.472 17.2019 16.1958 16.7715 15.892 16.2791C15.8691 16.2148 15.8462 16.1505 15.8227 16.0842C15.6441 15.8114 15.4429 15.8015 15.1317 15.7251C14.5433 15.5604 14.11 15.3294 13.629 14.959C13.5591 14.9066 13.4892 14.8542 13.4172 14.8002C13.3626 14.7593 13.308 14.7183 13.2518 14.6761ZM22.2449 15.9137C22.0963 16.0228 21.9478 16.1318 21.7992 16.2408C21.6892 16.3217 21.6892 16.3217 21.577 16.4043C21.374 16.5523 21.1695 16.6977 20.9638 16.8419C20.8729 16.9057 20.8729 16.9057 20.7802 16.9707C20.6673 17.0498 20.554 17.1286 20.4406 17.2069C20.1839 17.3875 20.029 17.5225 19.8522 17.7877C19.7974 18.3365 19.7974 18.3365 20.029 18.8191C20.2731 19.056 20.3673 19.1003 20.7049 19.1502C21.233 19.0902 21.5375 18.8375 21.9561 18.5244C22.0781 18.4358 22.0781 18.4358 22.2026 18.3455C22.3721 18.2223 22.5412 18.0985 22.7098 17.9741C22.9574 17.7925 23.207 17.6143 23.4578 17.4371C23.6114 17.3281 23.765 17.2191 23.9185 17.11C24.0265 17.0337 24.0265 17.0337 24.1367 16.9558C24.203 16.9081 24.2694 16.8604 24.3377 16.8113C24.3958 16.7698 24.4539 16.7284 24.5138 16.6856C24.7964 16.4483 24.8499 16.2774 24.8968 15.9137C24.8884 15.5627 24.853 15.5284 24.5963 15.2478C23.6913 14.6843 22.9979 15.354 22.2449 15.9137ZM24.9145 18.7483C24.7924 18.8369 24.7924 18.8369 24.6679 18.9273C24.4984 19.0504 24.3294 19.1742 24.1608 19.2986C23.9132 19.4803 23.6636 19.6585 23.4128 19.8356C23.2592 19.9446 23.1056 20.0537 22.952 20.1627C22.88 20.2136 22.8081 20.2645 22.7339 20.3169C22.6675 20.3646 22.6012 20.4123 22.5329 20.4614C22.4748 20.5029 22.4167 20.5444 22.3568 20.5871C22.0973 20.805 22.0236 20.9731 21.9797 21.306C22.0332 21.7573 22.1517 21.9214 22.4924 22.2194C22.9681 22.3478 22.9681 22.3478 23.4308 22.2342C23.626 22.1091 23.807 21.9739 23.9893 21.8305C24.1288 21.7261 24.2684 21.6218 24.408 21.5174C24.4799 21.4626 24.5517 21.4077 24.6258 21.3512C24.8538 21.1791 25.0849 21.0125 25.3178 20.8471C25.3942 20.7927 25.4706 20.7384 25.5493 20.6825C25.6238 20.6296 25.6982 20.5767 25.7749 20.5222C26.4947 20.0502 26.4947 20.0502 27.0184 19.3907C27.0748 18.8939 26.948 18.6472 26.6412 18.2592C25.9524 17.9148 25.4493 18.3483 24.9145 18.7483ZM26.6471 22.2765C26.5335 22.3564 26.5335 22.3564 26.4176 22.4379C26.2949 22.5252 26.2949 22.5252 26.1697 22.6143C26.0427 22.704 26.0427 22.704 25.913 22.7955C25.2982 23.2304 24.6875 23.6709 24.0781 24.1133C23.3802 24.619 22.6738 25.1123 21.9668 25.6051C21.6057 25.8569 21.247 26.1117 20.8894 26.3683C21.0254 26.7597 21.2195 27.0566 21.4669 27.3878C21.5353 27.4798 21.6036 27.5718 21.6739 27.6666C21.7523 27.7707 21.7523 27.7707 21.8323 27.877C22.2258 27.74 22.5229 27.5458 22.8578 27.2994C22.9754 27.2138 23.0931 27.1284 23.211 27.0431C23.2762 26.9958 23.3415 26.9485 23.4087 26.8998C23.821 26.6041 24.2384 26.3157 24.6552 26.0265C24.7464 25.9631 24.8377 25.8998 24.9317 25.8345C25.1209 25.7031 25.3102 25.5717 25.4995 25.4403C25.8013 25.2307 26.1029 25.0209 26.4044 24.811C26.5033 24.7422 26.6021 24.6733 26.704 24.6024C26.8945 24.4698 27.085 24.3371 27.2754 24.2045C27.3613 24.1448 27.4471 24.0851 27.5355 24.0235C27.6111 23.9709 27.6867 23.9183 27.7645 23.8641C27.9233 23.7543 28.0835 23.6466 28.2442 23.5395C28.0857 23.1846 27.863 22.8825 27.6313 22.573C27.5932 22.5208 27.5552 22.4685 27.516 22.4147C27.4177 22.283 27.3128 22.1565 27.207 22.0309C26.9518 22.0309 26.855 22.1296 26.6471 22.2765Z" fill="white"/>
<path d="M34.8441 29.1969C35.3663 29.487 35.3663 29.487 35.5041 29.7627C35.5438 30.0511 35.5499 30.3234 35.5041 30.6113C35.2984 30.8711 35.1391 31.0296 34.8441 31.177C34.4274 31.2251 34.2305 31.2046 33.8658 30.9885C33.5981 30.6825 33.5286 30.528 33.5078 30.1328C33.5405 29.7671 33.726 29.5636 33.9719 29.3089C34.2828 29.1448 34.4972 29.155 34.8441 29.1969Z" fill="white"/>
</svg>
