<svg width="31" height="31" viewBox="0 0 31 31" fill="none" xmlns="http://www.w3.org/2000/svg">
<path d="M7.80307 14.4306C7.888 14.4303 7.97293 14.43 8.05786 14.4296C8.28641 14.4288 8.51495 14.4288 8.74351 14.4289C8.93533 14.429 9.12715 14.4287 9.31897 14.4284C9.77208 14.4278 10.2252 14.4277 10.6783 14.4281C11.1434 14.4285 11.6085 14.4277 12.0736 14.4264C12.4751 14.4254 12.8765 14.425 13.278 14.4252C13.5168 14.4253 13.7556 14.4252 13.9945 14.4243C14.2193 14.4236 14.4442 14.4237 14.6691 14.4245C14.7893 14.4247 14.9095 14.424 15.0298 14.4233C16.1293 14.4296 17.0741 14.6815 17.8677 15.4729C18.2313 15.865 18.4483 16.2811 18.6389 16.7782C18.6568 16.8246 18.6747 16.871 18.6931 16.9188C18.8417 17.3073 18.9806 17.699 19.118 18.0916C19.1612 18.2144 19.2044 18.3372 19.2476 18.4599C19.3137 18.6478 19.3794 18.8358 19.4442 19.0242C19.5081 19.2098 19.5735 19.3949 19.6392 19.58C19.6674 19.6637 19.6674 19.6637 19.6962 19.7491C19.8166 20.0841 19.9619 20.3229 20.2084 20.5807C20.3723 20.7525 20.5089 20.9444 20.6495 21.1354C20.7114 21.2186 20.7732 21.3019 20.8351 21.3851C20.8823 21.4488 20.8823 21.4488 20.9305 21.5138C21.0306 21.6485 21.1314 21.7826 21.2325 21.9166C21.2655 21.9603 21.2984 22.004 21.3324 22.0491C21.396 22.1334 21.4596 22.2177 21.5233 22.3019C21.7254 22.5705 21.8154 22.7002 21.8167 23.0338C21.8173 23.1306 21.8173 23.1306 21.8179 23.2293C21.818 23.3343 21.818 23.3343 21.8181 23.4415C21.8183 23.5134 21.8185 23.5853 21.8187 23.6594C21.819 23.812 21.8191 23.9646 21.8191 24.1172C21.8192 24.3498 21.8203 24.5824 21.8215 24.8151C21.8216 24.9633 21.8218 25.1116 21.8218 25.2598C21.8222 25.3291 21.8227 25.3984 21.8231 25.4698C21.8218 25.9483 21.8001 26.3808 21.5231 26.789C21.4949 26.8319 21.4668 26.8749 21.4378 26.9192C21.3281 27.0439 21.3281 27.0439 21.1437 27.142C20.9468 27.2699 20.9468 27.2699 20.9266 27.4998C20.9262 27.586 20.9276 27.6723 20.9305 27.7586C20.9304 27.8047 20.9303 27.8509 20.9301 27.8985C20.9299 28.0461 20.9319 28.1935 20.9345 28.3411C20.9535 29.595 20.9535 29.595 20.6083 30.0431C20.4651 30.1783 20.4651 30.1783 20.3271 30.2568C20.2811 30.2841 20.2351 30.3114 20.1877 30.3396C20.004 30.4373 19.8975 30.4711 19.6891 30.4737C19.6355 30.4744 19.5818 30.4752 19.5265 30.476C19.4391 30.4767 19.4391 30.4767 19.35 30.4773C19.2901 30.4778 19.2301 30.4783 19.1684 30.4788C19.0412 30.4796 18.914 30.4803 18.7869 30.4807C18.5933 30.4818 18.3998 30.4844 18.2063 30.4871C18.0827 30.4877 17.959 30.4882 17.8354 30.4886C17.7779 30.4896 17.7204 30.4907 17.6611 30.4918C17.2344 30.4904 16.9145 30.4002 16.5879 30.1184C16.5611 30.0849 16.5344 30.0514 16.5068 30.0169C16.4791 29.9836 16.4514 29.9502 16.4229 29.9159C15.9464 29.1859 16.2294 28.3459 16.2294 27.4638C12.8048 27.4638 9.38028 27.4638 5.85196 27.4638C5.85196 28.1368 5.85196 28.8098 5.85196 29.5033C5.37208 30.3031 5.37208 30.3031 4.8922 30.463C4.80431 30.47 4.71614 30.4738 4.62799 30.4756C4.5747 30.4767 4.52141 30.4779 4.4665 30.4791C4.22189 30.4825 3.9773 30.4855 3.73267 30.4873C3.60416 30.4886 3.47565 30.4907 3.34716 30.4935C3.161 30.4975 2.97494 30.4992 2.78874 30.5003C2.73204 30.502 2.67535 30.5036 2.61693 30.5054C2.1795 30.504 1.87673 30.3732 1.53304 30.1031C1.04865 29.5937 1.13098 28.9533 1.14313 28.2961C1.20499 27.5183 1.20499 27.5183 0.94256 26.8232C0.911433 26.7927 0.880305 26.7622 0.848235 26.7308C0.508429 26.3488 0.546877 25.7858 0.549377 25.3071C0.549204 25.234 0.549032 25.161 0.548855 25.0857C0.548733 24.932 0.549061 24.7783 0.549816 24.6247C0.550783 24.3895 0.549822 24.1543 0.548674 23.919C0.548792 23.7694 0.549023 23.6197 0.549377 23.4701C0.549012 23.3999 0.548648 23.3296 0.548273 23.2573C0.54884 23.1918 0.549407 23.1263 0.549992 23.0588C0.550135 23.0014 0.550278 22.944 0.550425 22.8849C0.58861 22.6176 0.741172 22.4268 0.916082 22.2284C0.947007 22.1931 0.977932 22.1578 1.00979 22.1214C1.0591 22.0657 1.0591 22.0657 1.10939 22.0089C1.14361 21.9696 1.17784 21.9304 1.21309 21.8899C1.38435 21.6934 1.557 21.4984 1.73174 21.305C1.79422 21.2347 1.85671 21.1644 1.91919 21.0941C1.94745 21.0636 1.97571 21.0331 2.00482 21.0017C2.55976 20.373 2.82535 19.4739 3.14139 18.7097C3.30136 18.3242 3.46168 17.9388 3.62261 17.5537C3.67007 17.44 3.71742 17.3263 3.76467 17.2125C3.8357 17.0418 3.90731 16.8713 3.97907 16.7009C4.0003 16.6496 4.02153 16.5983 4.0434 16.5454C4.41814 15.6611 5.03588 15.0477 5.9157 14.6607C6.53188 14.4501 7.1575 14.4293 7.80307 14.4306ZM5.43207 16.1866C5.00821 16.708 4.7799 17.3597 4.52854 17.9749C4.48732 18.0746 4.44604 18.1743 4.40471 18.274C4.3441 18.4202 4.28359 18.5664 4.22347 18.7127C4.13186 18.9356 4.03919 19.1578 3.94254 19.3785C3.92562 19.4173 3.9087 19.456 3.89127 19.4959C3.84597 19.599 3.80025 19.7019 3.75449 19.8048C3.68171 19.9649 3.68171 19.9649 3.6925 20.1456C4.79424 20.147 5.89597 20.1481 6.99771 20.1487C7.50923 20.149 8.02075 20.1494 8.53227 20.1501C8.97794 20.1507 9.42362 20.1511 9.8693 20.1513C10.1054 20.1513 10.3416 20.1515 10.5777 20.152C10.7997 20.1524 11.0217 20.1525 11.2437 20.1524C11.3645 20.1524 11.4853 20.1527 11.6062 20.1531C11.7131 20.1529 11.7131 20.1529 11.8221 20.1528C11.9156 20.1529 11.9156 20.1529 12.0109 20.153C12.1481 20.1613 12.1481 20.1613 12.2104 20.0856C12.2268 19.9871 12.2415 19.8883 12.2554 19.7894C12.3663 19.1644 12.6748 18.6206 13.1915 18.2427C13.8721 17.8133 14.5643 17.6878 15.3547 17.8477C16.0027 18.044 16.5223 18.4501 16.8578 19.0422C17.0401 19.4202 17.1028 19.7137 17.1891 20.1456C17.7038 20.1456 18.2185 20.1456 18.7488 20.1456C18.6306 19.7123 18.5091 19.2972 18.3539 18.8782C18.3337 18.8233 18.3135 18.7684 18.2927 18.7118C18.2503 18.5968 18.2077 18.4818 18.1649 18.3669C18.1003 18.1928 18.0367 18.0183 17.973 17.8438C17.6327 16.9203 17.318 16.0981 16.3868 15.6493C15.9009 15.4562 15.4655 15.4493 14.9454 15.4503C14.8576 15.45 14.7699 15.4497 14.6822 15.4494C14.4447 15.4486 14.2072 15.4485 13.9698 15.4487C13.7711 15.4487 13.5724 15.4485 13.3737 15.4482C12.9046 15.4475 12.4356 15.4475 11.9665 15.4478C11.4837 15.4482 11.0009 15.4475 10.5181 15.4462C10.1027 15.4451 9.68723 15.4448 9.27178 15.445C9.02407 15.4451 8.77637 15.4449 8.52866 15.4441C8.29552 15.4433 8.0624 15.4434 7.82926 15.4442C7.7441 15.4444 7.65894 15.4442 7.57378 15.4437C6.70044 15.439 6.09792 15.6208 5.43207 16.1866ZM13.5715 19.1882C13.313 19.488 13.2351 19.7558 13.1701 20.1456C14.1599 20.1456 15.1496 20.1456 16.1694 20.1456C16.0985 19.5786 15.965 19.4062 15.5845 19.0171C14.9183 18.5687 14.1502 18.6341 13.5715 19.1882ZM2.49924 21.901C2.41314 22.036 2.31142 22.1525 2.20342 22.2704C2.14615 22.3369 2.08889 22.4035 2.03166 22.47C2.00185 22.5045 1.97205 22.539 1.94133 22.5745C1.65143 22.905 1.65143 22.905 1.5756 23.3214C1.57483 23.3817 1.57406 23.4419 1.57328 23.504C1.57314 23.5691 1.57301 23.6341 1.57287 23.7011C1.57247 23.7681 1.57207 23.835 1.57166 23.904C1.57105 24.0457 1.57077 24.1873 1.57079 24.329C1.57053 24.5458 1.56835 24.7624 1.56608 24.9791C1.56572 25.1167 1.56549 25.2543 1.56537 25.392C1.56451 25.4568 1.56365 25.5216 1.56276 25.5883C1.56357 25.949 1.56357 25.949 1.70722 26.2736C1.8991 26.4421 2.00496 26.4516 2.25539 26.4521C2.35201 26.4525 2.35201 26.4525 2.45058 26.4529C2.52191 26.4529 2.59325 26.4529 2.66674 26.4529C2.77974 26.4532 2.77974 26.4532 2.89503 26.4535C3.10483 26.4541 3.31463 26.4544 3.52443 26.4545C3.75043 26.4548 3.97643 26.4553 4.20243 26.4559C4.74855 26.457 5.29467 26.4576 5.84078 26.4582C6.09779 26.4584 6.35479 26.4588 6.6118 26.4591C7.46584 26.4601 8.31988 26.461 9.17392 26.4614C9.39563 26.4615 9.61734 26.4616 9.83905 26.4617C9.89416 26.4618 9.94926 26.4618 10.006 26.4618C10.8992 26.4623 11.7923 26.4639 12.6854 26.4658C13.6017 26.4678 14.5181 26.4689 15.4345 26.4691C15.9492 26.4692 16.464 26.4697 16.9787 26.4712C17.417 26.4725 17.8553 26.473 18.2936 26.4724C18.5173 26.4722 18.741 26.4723 18.9647 26.4734C19.207 26.4747 19.4493 26.4741 19.6917 26.4733C19.7626 26.474 19.8335 26.4746 19.9066 26.4753C20.2808 26.4744 20.2808 26.4744 20.6206 26.3335C20.7819 26.1396 20.7966 25.9771 20.8036 25.7334C20.8062 25.6447 20.8062 25.6447 20.8089 25.5543C20.8148 25.2828 20.8192 25.0113 20.8224 24.7398C20.8246 24.5971 20.8279 24.4545 20.8323 24.3118C20.898 23.3855 20.898 23.3855 20.542 22.5713C20.4459 22.4806 20.3481 22.3917 20.2484 22.3051C20.1731 22.2132 20.0999 22.1195 20.0293 22.0239C19.9964 21.9808 19.9635 21.9377 19.9296 21.8934C19.8975 21.8511 19.8653 21.8088 19.8322 21.7652C19.7816 21.699 19.7816 21.699 19.7299 21.6314C19.598 21.4583 19.4694 21.2865 19.3486 21.1054C19.227 21.0774 19.227 21.0774 19.084 21.0807C19.028 21.0798 18.9721 21.0789 18.9144 21.0779C18.8525 21.0779 18.7906 21.0778 18.7268 21.0777C18.6614 21.0769 18.5959 21.0761 18.5285 21.0753C18.3077 21.0729 18.0869 21.0718 17.8661 21.0707C17.7084 21.0692 17.5507 21.0678 17.3929 21.0662C16.9184 21.0618 16.4438 21.0592 15.9692 21.0568C15.8351 21.0562 15.701 21.0554 15.5668 21.0547C14.7337 21.0502 13.9006 21.0462 13.0675 21.044C12.8745 21.0434 12.6814 21.0429 12.4884 21.0424C12.4164 21.0422 12.4164 21.0422 12.3429 21.042C11.5667 21.0397 10.7905 21.0337 10.0143 21.0262C9.21692 21.0186 8.41961 21.0143 7.62222 21.0134C7.17467 21.0128 6.72723 21.0107 6.27972 21.0047C5.89829 20.9997 5.51701 20.9977 5.13555 20.9997C4.94107 21.0007 4.74694 20.9997 4.55249 20.9957C3.58647 20.977 3.03067 21.0463 2.49924 21.901ZM2.13289 27.4638C2.12918 27.7347 2.12547 28.0057 2.12164 28.2848C2.12 28.3698 2.11836 28.4547 2.11668 28.5423C2.11623 28.6097 2.11578 28.6772 2.11531 28.7467C2.11437 28.8155 2.11343 28.8843 2.11246 28.9551C2.13518 29.1645 2.18757 29.2757 2.31284 29.4433C2.50089 29.5373 2.70197 29.5143 2.90848 29.5155C2.95567 29.5158 3.00286 29.5161 3.05148 29.5165C3.15142 29.5171 3.25136 29.5175 3.35131 29.5177C3.50403 29.5183 3.65671 29.5201 3.80942 29.522C3.90651 29.5224 4.00359 29.5227 4.10068 29.523C4.1463 29.5237 4.19192 29.5244 4.23892 29.5252C4.43086 29.5244 4.56902 29.5159 4.73922 29.4233C4.92328 29.2254 4.89922 29.0148 4.89806 28.7584C4.89791 28.6906 4.89776 28.6229 4.8976 28.5531C4.89706 28.467 4.89651 28.381 4.89595 28.2923C4.89471 28.0189 4.89348 27.7455 4.8922 27.4638C3.98163 27.4638 3.07105 27.4638 2.13289 27.4638ZM17.1891 27.4638C17.183 27.7446 17.1768 28.0255 17.1704 28.3148C17.1677 28.4029 17.1649 28.491 17.1621 28.5818C17.1614 28.6516 17.1606 28.7215 17.1598 28.7935C17.1583 28.8648 17.1567 28.9361 17.1551 29.0096C17.2006 29.2683 17.2759 29.352 17.4891 29.5033C17.6616 29.5311 17.7975 29.5414 17.9692 29.5368C18.0148 29.5366 18.0604 29.5365 18.1074 29.5364C18.2034 29.5358 18.2995 29.5345 18.3955 29.5325C18.5423 29.5295 18.689 29.5288 18.8358 29.5285C18.9293 29.5276 19.0229 29.5266 19.1164 29.5255C19.1601 29.5252 19.2039 29.5249 19.2489 29.5246C19.5588 29.5186 19.5588 29.5186 19.8285 29.3833C19.9728 29.183 19.9624 28.9936 19.9602 28.7525C19.9599 28.6849 19.9596 28.6173 19.9593 28.5477C19.9582 28.4622 19.9571 28.3767 19.9559 28.2886C19.9535 28.0164 19.951 27.7442 19.9485 27.4638C19.0379 27.4638 18.1273 27.4638 17.1891 27.4638Z" fill="white"/>
<path d="M20.0318 0.43947C20.1237 0.439145 20.2156 0.438717 20.3075 0.438196C20.5555 0.437109 20.8035 0.437524 21.0515 0.438287C21.3119 0.438898 21.5724 0.43833 21.8328 0.437955C22.2701 0.437519 22.7074 0.438091 23.1446 0.439236C23.649 0.440542 24.1534 0.440119 24.6577 0.438798C25.092 0.437706 25.5263 0.437557 25.9606 0.438183C26.2195 0.438556 26.4783 0.438611 26.7371 0.437815C26.9806 0.437118 27.224 0.437609 27.4674 0.438989C27.5563 0.439304 27.6453 0.439219 27.7342 0.438686C28.4946 0.434554 29.0327 0.562077 29.5939 1.09591C29.9612 1.52506 30.0926 2.02596 30.0948 2.58022C30.0954 2.69195 30.0954 2.69195 30.0961 2.80594C30.0963 2.88803 30.0964 2.97013 30.0966 3.05222C30.0969 3.13905 30.0973 3.22589 30.0978 3.31272C30.099 3.59751 30.0996 3.8823 30.1002 4.1671C30.1005 4.26544 30.1007 4.36378 30.101 4.46212C30.1021 4.92445 30.103 5.38678 30.1035 5.8491C30.1041 6.38121 30.1056 6.9133 30.1081 7.4454C30.1099 7.85764 30.1108 8.26988 30.111 8.68213C30.1111 8.92787 30.1116 9.1736 30.1132 9.41934C30.1146 9.65095 30.1148 9.88254 30.1142 10.1142C30.1142 10.1986 30.1145 10.283 30.1154 10.3674C30.1215 11.0241 30.0757 11.7625 29.5911 12.2576C29.0934 12.7593 28.6302 12.9512 27.923 12.961C27.7554 12.9614 27.5879 12.9604 27.4204 12.9591C27.3309 12.9589 27.2415 12.9587 27.1521 12.9586C26.9182 12.9582 26.6843 12.957 26.4504 12.9556C26.2111 12.9544 25.9719 12.9539 25.7326 12.9533C25.2642 12.952 24.7958 12.9499 24.3274 12.9474C24.3275 12.9837 24.3276 13.02 24.3277 13.0575C24.333 15.2088 24.3371 17.3602 24.3396 19.5116C24.3399 19.7698 24.3403 20.0281 24.3406 20.2863C24.3406 20.3377 24.3407 20.3891 24.3408 20.4421C24.3418 21.2749 24.3437 22.1077 24.3459 22.9405C24.3481 23.7947 24.3495 24.649 24.35 25.5033C24.3503 26.0306 24.3513 26.5579 24.3533 27.0852C24.3545 27.4466 24.3549 27.808 24.3546 28.1694C24.3545 28.378 24.3547 28.5867 24.356 28.7953C24.3572 29.0214 24.3569 29.2474 24.3562 29.4735C24.3569 29.5396 24.3576 29.6057 24.3584 29.6738C24.3549 30.1168 24.3549 30.1168 24.2141 30.354C24.0676 30.4802 24.0048 30.5008 23.8138 30.493C23.7679 30.4924 23.7221 30.4918 23.6748 30.4912C23.5187 30.4567 23.4648 30.4084 23.3676 30.2831C23.3091 30.1075 23.3002 29.9959 23.3003 29.8131C23.3001 29.7529 23.3 29.6928 23.2999 29.6309C23.3001 29.5647 23.3002 29.4984 23.3004 29.4302C23.3004 29.36 23.3003 29.2898 23.3003 29.2174C23.3002 29.0222 23.3004 28.827 23.3007 28.6319C23.3009 28.4215 23.3008 28.2111 23.3008 28.0007C23.3008 27.6361 23.301 27.2715 23.3013 26.9069C23.3018 26.3798 23.3019 25.8526 23.302 25.3255C23.3021 24.4703 23.3025 23.6151 23.3031 22.7598C23.3037 21.929 23.3041 21.0981 23.3043 20.2672C23.3044 20.216 23.3044 20.1648 23.3044 20.1121C23.3045 19.8553 23.3045 19.5984 23.3046 19.3416C23.3052 17.2102 23.3063 15.0788 23.3076 12.9474C23.2598 12.9479 23.2119 12.9485 23.1626 12.949C22.7082 12.9539 22.2539 12.9575 21.7995 12.9598C21.5659 12.9611 21.3324 12.9628 21.0989 12.9655C20.873 12.9681 20.647 12.9696 20.421 12.9702C20.3354 12.9706 20.2498 12.9715 20.1643 12.9728C19.4606 12.9831 18.8085 12.9217 18.2427 12.4675C17.7175 11.9492 17.5496 11.3694 17.5411 10.6539C17.5405 10.5019 17.5403 10.3498 17.5404 10.1978C17.5402 10.1137 17.54 10.0296 17.5398 9.94549C17.5392 9.71793 17.5391 9.49037 17.539 9.26281C17.539 9.12035 17.5389 8.97789 17.5387 8.83543C17.5382 8.33761 17.5379 7.83979 17.538 7.34197C17.538 6.87928 17.5374 6.4166 17.5364 5.95392C17.5356 5.55558 17.5353 5.15725 17.5353 4.75891C17.5354 4.52149 17.5352 4.28408 17.5346 4.04666C17.534 3.82313 17.534 3.5996 17.5344 3.37607C17.5345 3.25593 17.534 3.13578 17.5335 3.01564C17.5362 2.24088 17.607 1.60302 18.1381 1.00804C18.6911 0.481991 19.3021 0.4351 20.0318 0.43947ZM18.7863 1.81643C18.6104 2.09379 18.5538 2.31249 18.5532 2.64075C18.5528 2.71534 18.5523 2.78993 18.5519 2.86678C18.552 2.94898 18.5522 3.03117 18.5523 3.11336C18.5521 3.20029 18.5518 3.28721 18.5514 3.37414C18.5506 3.60986 18.5506 3.84558 18.5507 4.08131C18.5508 4.27823 18.5505 4.47515 18.5502 4.67207C18.5496 5.13669 18.5495 5.60131 18.5499 6.06593C18.5502 6.54497 18.5495 7.02401 18.5482 7.50305C18.5472 7.91463 18.5468 8.3262 18.547 8.73777C18.5471 8.98347 18.547 9.22915 18.5461 9.47484C18.5454 9.70591 18.5455 9.93696 18.5463 10.168C18.5464 10.2527 18.5463 10.3374 18.5458 10.4221C18.5451 10.5379 18.5457 10.6537 18.5464 10.7696C18.5464 10.8343 18.5464 10.8991 18.5463 10.9658C18.5848 11.2776 18.7165 11.5094 18.9587 11.7065C18.994 11.7359 19.0292 11.7654 19.0656 11.7957C19.2734 11.9407 19.4635 11.9356 19.7086 11.9369C19.7839 11.9374 19.8592 11.9379 19.9367 11.9385C20.0203 11.9387 20.1038 11.939 20.1874 11.9392C20.2753 11.9397 20.3632 11.9402 20.4511 11.9407C20.7399 11.9423 21.0288 11.9432 21.3176 11.9441C21.4171 11.9444 21.5166 11.9447 21.6161 11.945C22.0301 11.9463 22.444 11.9475 22.858 11.9481C23.4509 11.9491 24.0438 11.9511 24.6366 11.9545C25.0537 11.9568 25.4708 11.958 25.8879 11.9583C26.1369 11.9585 26.3858 11.9593 26.6348 11.9612C26.8692 11.963 27.1036 11.9634 27.338 11.9627C27.4238 11.9627 27.5096 11.9632 27.5954 11.9642C28.2021 11.9774 28.2021 11.9774 28.7345 11.7218C29.1357 11.3109 29.1003 10.8238 29.0963 10.2786C29.0965 10.1911 29.0969 10.1035 29.0973 10.016C29.0981 9.77941 29.0975 9.54285 29.0965 9.30626C29.0956 9.05817 29.096 8.81008 29.0962 8.56199C29.0964 8.14559 29.0956 7.7292 29.0942 7.3128C29.0926 6.8318 29.0925 6.35083 29.0932 5.86983C29.0938 5.40638 29.0935 4.94294 29.0926 4.47949C29.0923 4.28256 29.0923 4.08564 29.0926 3.88871C29.0929 3.6568 29.0922 3.42491 29.091 3.19301C29.0906 3.10804 29.0906 3.02306 29.0909 2.93809C29.0912 2.82188 29.0904 2.70566 29.0895 2.58945C29.0893 2.52449 29.0892 2.45954 29.089 2.39261C29.0506 2.08551 28.9353 1.89712 28.7138 1.68521C28.4263 1.47821 28.212 1.41534 27.8588 1.41424C27.7849 1.41373 27.711 1.41321 27.6348 1.41269C27.5534 1.41273 27.472 1.41278 27.3905 1.41285C27.3044 1.41249 27.2183 1.41208 27.1321 1.41163C26.8985 1.41057 26.6649 1.41029 26.4312 1.41021C26.2851 1.41013 26.139 1.40987 25.993 1.40955C25.4829 1.40844 24.9728 1.40795 24.4628 1.40805C23.988 1.40812 23.5132 1.40685 23.0383 1.40496C22.6302 1.40339 22.222 1.40275 21.8138 1.40282C21.5703 1.40285 21.3268 1.40252 21.0832 1.40124C20.854 1.40008 20.6248 1.40007 20.3956 1.40094C20.3118 1.40107 20.2279 1.40079 20.1441 1.40006C19.601 1.39566 19.184 1.40824 18.7863 1.81643Z" fill="white"/>
<path d="M22.3802 3.13102C22.4323 3.13008 22.4844 3.12913 22.5381 3.12816C22.5937 3.12877 22.6493 3.12937 22.7066 3.13C22.7647 3.12971 22.8227 3.12942 22.8826 3.12913C23.0053 3.12892 23.1281 3.12948 23.2509 3.13073C23.4372 3.13233 23.6233 3.13075 23.8096 3.12883C23.9293 3.12902 24.049 3.12941 24.1687 3.13C24.2512 3.12909 24.2512 3.12909 24.3354 3.12816C24.7478 3.13551 25.0594 3.24745 25.4071 3.46976C25.5423 3.61082 25.5423 3.61082 25.6208 3.74719C25.6481 3.7925 25.6754 3.83781 25.7035 3.8845C25.8836 4.23945 25.8449 4.62741 25.848 5.01594C25.849 5.10663 25.8506 5.19731 25.8529 5.28798C25.8666 5.83145 25.8676 6.31371 25.5271 6.76894C25.386 6.90414 25.386 6.90414 25.2496 6.98263C25.2043 7.00993 25.159 7.03722 25.1123 7.06535C24.8582 7.1943 24.6347 7.19672 24.3567 7.19469C24.313 7.1946 24.2693 7.19452 24.2243 7.19443C24.0849 7.1941 23.9456 7.19334 23.8063 7.19258C23.7117 7.19228 23.6172 7.19201 23.5226 7.19176C23.291 7.1911 23.0594 7.19006 22.8277 7.18883C22.8287 7.26721 22.8296 7.3456 22.8306 7.42635C22.8339 7.71757 22.8359 8.00878 22.8376 8.3C22.8385 8.42597 22.8398 8.55194 22.8413 8.6779C22.8435 8.85911 22.8445 9.0403 22.8453 9.22153C22.8462 9.27771 22.8472 9.3339 22.8481 9.39178C22.8482 9.68525 22.8441 9.89221 22.6478 10.1281C22.4595 10.2222 22.3156 10.2092 22.1079 10.1881C21.9349 10.0672 21.8257 9.97091 21.7803 9.7589C21.7688 9.59513 21.7675 9.43384 21.7692 9.26968C21.7687 9.20751 21.7681 9.14535 21.7676 9.0813C21.7663 8.87597 21.7672 8.67072 21.7682 8.46539C21.768 8.32263 21.7677 8.17988 21.7673 8.03712C21.7669 7.738 21.7675 7.43889 21.7689 7.13977C21.7706 6.7563 21.7696 6.37289 21.7678 5.98942C21.7667 5.69465 21.7671 5.3999 21.7679 5.10514C21.7681 4.96375 21.7678 4.82235 21.7671 4.68096C21.7664 4.48335 21.7675 4.28584 21.7692 4.08824C21.7686 4.02977 21.768 3.9713 21.7674 3.91106C21.7716 3.63873 21.7795 3.50901 21.9434 3.28356C22.1101 3.16831 22.1816 3.13207 22.3802 3.13102ZM22.8277 4.18958C22.8277 4.84281 22.8277 5.49605 22.8277 6.16908C23.121 6.1728 23.4142 6.17651 23.7163 6.18033C23.8547 6.18279 23.8547 6.18279 23.996 6.1853C24.0686 6.18575 24.1412 6.1862 24.2161 6.18666C24.2905 6.1876 24.365 6.18854 24.4417 6.18951C24.6224 6.18245 24.6224 6.18245 24.7416 6.10181C24.8385 5.93557 24.8295 5.79978 24.829 5.60837C24.829 5.53371 24.829 5.45905 24.8289 5.38213C24.828 5.30407 24.827 5.22601 24.826 5.14559C24.8262 5.0673 24.8264 4.98901 24.8266 4.90834C24.8553 4.51323 24.8553 4.51323 24.6873 4.18958C24.4948 4.17283 24.4948 4.17283 24.2688 4.17786C24.156 4.17831 24.156 4.17831 24.0409 4.17877C23.9449 4.17986 23.8489 4.18095 23.75 4.18208C23.2935 4.18579 23.2935 4.18579 22.8277 4.18958Z" fill="white"/>
<path d="M16.3379 22.347C16.4139 22.3466 16.4139 22.3466 16.4914 22.3462C16.5982 22.3459 16.705 22.3459 16.8119 22.3461C16.9747 22.3463 17.1375 22.3449 17.3003 22.3434C17.4044 22.3433 17.5085 22.3432 17.6126 22.3433C17.6609 22.3427 17.7093 22.3422 17.7591 22.3416C18.1035 22.3444 18.361 22.4058 18.6206 22.6502C18.6493 22.686 18.678 22.7218 18.7075 22.7587C18.7517 22.8126 18.7517 22.8126 18.7968 22.8677C19.0062 23.1508 18.9472 23.5035 18.9512 23.8422C18.9546 23.9469 18.9546 23.9469 18.958 24.0538C18.9618 24.4285 18.9434 24.7076 18.7346 25.0242C18.3895 25.3509 18.087 25.4005 17.6294 25.3962C17.5477 25.3965 17.5477 25.3965 17.4644 25.3969C17.3498 25.397 17.2352 25.3966 17.1206 25.3956C16.9458 25.3943 16.7711 25.3956 16.5962 25.3971C16.4845 25.397 16.3728 25.3967 16.261 25.3962C16.2091 25.3967 16.1572 25.3972 16.1037 25.3977C15.7268 25.3918 15.5069 25.2966 15.231 25.0285C14.9382 24.6614 14.9552 24.3656 14.951 23.9134C14.9492 23.8525 14.9475 23.7915 14.9457 23.7287C14.9424 23.3413 14.9834 23.0466 15.2096 22.725C15.5536 22.3899 15.8788 22.3465 16.3379 22.347ZM15.9895 23.3848C15.9878 23.5435 15.9866 23.7022 15.9857 23.8609C15.9852 23.9062 15.9847 23.9515 15.9842 23.9981C15.9837 24.1136 15.9863 24.2291 15.9895 24.3446C16.1039 24.4591 16.3083 24.4124 16.46 24.4125C16.501 24.4126 16.5421 24.4126 16.5843 24.4127C16.6713 24.4127 16.7582 24.4126 16.8451 24.4124C16.9786 24.4121 17.1121 24.4124 17.2456 24.4128C17.3299 24.4127 17.4142 24.4126 17.4984 24.4125C17.5757 24.4125 17.6529 24.4124 17.7324 24.4123C17.9023 24.4248 17.9023 24.4248 17.969 24.3446C17.9765 24.1951 17.9801 24.048 17.9802 23.8984C17.9813 23.836 17.9813 23.836 17.9824 23.7723C17.9827 23.663 17.9763 23.5538 17.969 23.4448C17.8569 23.3069 17.8569 23.3069 17.6776 23.3103C17.6061 23.3105 17.5346 23.3107 17.461 23.311C17.3834 23.3111 17.3058 23.3112 17.2259 23.3113C17.1855 23.3117 17.145 23.3121 17.1033 23.3125C16.9797 23.3136 16.8561 23.3137 16.7325 23.3137C16.3498 23.2936 16.3498 23.2936 15.9895 23.3848Z" fill="white"/>
<path d="M4.74481 22.3508C4.79535 22.3503 4.84588 22.3498 4.89794 22.3493C5.00499 22.3485 5.11204 22.3478 5.21908 22.3473C5.32805 22.3467 5.43701 22.3454 5.54596 22.3437C5.70382 22.3411 5.86162 22.3401 6.0195 22.3395C6.06763 22.3385 6.11576 22.3374 6.16535 22.3363C6.50791 22.3376 6.76471 22.415 7.05166 22.605C7.42886 22.9921 7.43192 23.3779 7.43032 23.8909C7.43128 23.9524 7.43225 24.0138 7.43324 24.0771C7.4335 24.4712 7.40802 24.757 7.12641 25.0562C7.09061 25.0849 7.0548 25.1135 7.01792 25.1431C6.98196 25.1726 6.94601 25.202 6.90896 25.2324C6.57667 25.4782 6.03273 25.3828 5.63267 25.3853C5.51456 25.3863 5.39647 25.3879 5.27838 25.3902C5.10761 25.3935 4.93693 25.3948 4.76614 25.3957C4.71388 25.3971 4.66163 25.3984 4.60779 25.3998C4.23266 25.3985 3.98208 25.3055 3.6925 25.0644C3.3902 24.6975 3.41639 24.3216 3.42256 23.8609C3.42164 23.7914 3.42071 23.722 3.41975 23.6504C3.42189 23.1861 3.46394 22.9602 3.78833 22.6263C4.10761 22.3717 4.3485 22.3544 4.74481 22.3508ZM4.41232 23.4448C4.40202 23.5985 4.39836 23.7449 4.40107 23.8984C4.40111 23.9403 4.40115 23.9822 4.40119 24.0253C4.38504 24.2323 4.38504 24.2323 4.4723 24.4045C4.60904 24.4106 4.74596 24.4124 4.88283 24.4125C4.92387 24.4126 4.96492 24.4126 5.00721 24.4127C5.09414 24.4127 5.18108 24.4126 5.26801 24.4124C5.40151 24.412 5.53499 24.4124 5.66849 24.4127C5.75276 24.4127 5.83704 24.4126 5.92132 24.4125C5.99852 24.4124 6.07573 24.4124 6.15528 24.4123C6.32514 24.4247 6.32514 24.4247 6.39182 24.3446C6.39621 24.1828 6.39737 24.0226 6.39557 23.8609C6.3953 23.8154 6.39503 23.7699 6.39475 23.723C6.39404 23.6103 6.39297 23.4975 6.39182 23.3848C6.13814 23.2579 5.80523 23.3137 5.52617 23.3137C5.40255 23.3136 5.27895 23.3125 5.15534 23.3113C5.07778 23.3112 5.00022 23.3111 4.92032 23.311C4.84883 23.3107 4.77734 23.3105 4.70369 23.3102C4.52438 23.3069 4.52438 23.3069 4.41232 23.4448Z" fill="white"/>
<path d="M10.4296 23.3529C10.4899 23.3527 10.5503 23.3525 10.6124 23.3522C10.7399 23.3521 10.8674 23.3525 10.9948 23.3535C11.19 23.3548 11.385 23.3535 11.5801 23.352C11.704 23.3522 11.8278 23.3525 11.9517 23.3529C12.0101 23.3524 12.0684 23.352 12.1286 23.3515C12.5324 23.3571 12.5324 23.3571 12.7269 23.4993C12.8169 23.6347 12.8428 23.7035 12.8402 23.8647C12.8409 23.9043 12.8415 23.9439 12.8421 23.9847C12.7925 24.1714 12.7277 24.2295 12.5703 24.3446C12.3644 24.3813 12.1604 24.3782 11.9517 24.3764C11.8914 24.3767 11.831 24.3769 11.7689 24.3771C11.6414 24.3773 11.5139 24.3768 11.3865 24.3758C11.1913 24.3746 10.9963 24.3758 10.8012 24.3774C10.6773 24.3772 10.5535 24.3769 10.4296 24.3764C10.3712 24.3769 10.3129 24.3774 10.2527 24.3779C9.84894 24.3723 9.84894 24.3723 9.65435 24.2301C9.56444 24.0947 9.53854 24.0259 9.54106 23.8647C9.54013 23.8053 9.54013 23.8053 9.53919 23.7447C9.6571 23.3008 10.0532 23.3498 10.4296 23.3529Z" fill="white"/>
</svg>
