<svg width="53" height="54" viewBox="0 0 53 54" fill="none" xmlns="http://www.w3.org/2000/svg">
<path d="M24.5204 30.9276C25.9824 31.9943 27.7529 32.3161 29.4788 32.7548C30.1359 32.9223 30.7918 33.0939 31.447 33.2685C31.6687 33.3269 31.8909 33.3831 32.1132 33.4391C33.1642 33.7158 34.1108 34.0665 34.8203 34.9279C34.8877 35.0078 34.955 35.0877 35.0244 35.17C35.1602 35.3447 35.2865 35.5267 35.4092 35.7108C35.4928 35.6861 35.5764 35.6614 35.6625 35.636C36.4681 35.3982 37.2737 35.1605 38.0794 34.9232C38.4932 34.8012 38.9069 34.6792 39.3206 34.5571C40.3631 34.2492 41.4061 33.9429 42.4499 33.6392C42.6101 33.5926 42.7703 33.546 42.9305 33.4993C43.3988 33.3629 43.8675 33.2274 44.3366 33.0934C44.4801 33.0523 44.6236 33.0109 44.767 32.9692C45.9852 32.6152 47.2038 32.3483 48.4777 32.3583C48.6001 32.3591 48.6001 32.3591 48.725 32.3599C50.0002 32.3862 51.1444 32.7224 52.0911 33.603C52.9479 34.5134 53.0168 35.5244 52.9974 36.7216C52.972 37.3367 52.8203 37.8405 52.5394 38.3874C52.4928 38.4794 52.4461 38.5715 52.3981 38.6663C51.568 40.1654 50.2862 40.8739 48.7261 41.4596C48.6073 41.5052 48.4886 41.5507 48.3662 41.5976C47.9777 41.7463 47.5887 41.8936 47.1996 42.041C46.9257 42.1454 46.6519 42.2502 46.3781 42.3549C45.8158 42.57 45.2532 42.7845 44.6905 42.9986C43.5789 43.4217 42.4692 43.8499 41.3594 44.2777C40.7901 44.497 40.2204 44.7156 39.6508 44.9342C38.8518 45.2409 38.0533 45.5489 37.2554 45.8587C36.8016 46.0347 36.3476 46.2102 35.8936 46.3856C35.6826 46.4672 35.4717 46.5491 35.261 46.6314C34.2239 47.036 33.1864 47.4209 32.1203 47.743C32.036 47.7685 31.9517 47.794 31.8648 47.8203C30.8727 48.1106 29.9192 48.2777 28.885 48.2841C28.7894 48.2876 28.6938 48.2912 28.5954 48.2948C27.0165 48.3068 25.4547 47.6733 23.9575 47.2281C23.8866 47.2071 23.8157 47.186 23.7426 47.1643C23.5247 47.0995 23.3068 47.0347 23.0889 46.9699C23.016 46.9482 22.9432 46.9266 22.8681 46.9042C22.4953 46.7933 22.1228 46.6817 21.7506 46.5688C21.3836 46.4575 21.0161 46.3481 20.6481 46.24C20.4447 46.1796 20.2418 46.1173 20.0389 46.0549C17.9234 45.4372 16.5128 46.0774 14.6668 47.0817C14.5515 47.1451 14.4363 47.2084 14.3176 47.2737C14.3472 47.3423 14.3769 47.4109 14.4075 47.4816C14.7875 48.3889 14.9604 49.1063 14.6388 50.0574C14.1845 50.901 13.5306 51.2917 12.6735 51.6349C12.5477 51.6868 12.5477 51.6868 12.4194 51.7398C12.1536 51.8493 11.8873 51.957 11.6209 52.0648C11.4408 52.1387 11.2608 52.2128 11.0808 52.2869C8.9098 53.1783 8.9098 53.1783 7.74149 52.8824C6.53676 52.3525 6.14209 50.8981 5.67884 49.7763C5.59923 49.5861 5.51954 49.3959 5.43975 49.2057C5.18537 48.5981 4.93351 47.9895 4.6818 47.3808C4.59898 47.1809 4.51614 46.981 4.43328 46.7812C4.05625 45.8714 3.68026 44.9612 3.30534 44.0505C2.60957 42.3607 1.90623 40.674 1.20188 38.9877C1.15849 38.8838 1.1151 38.7798 1.07039 38.6727C0.990121 38.4804 0.909784 38.2881 0.829363 38.0958C0.721082 37.8364 0.613539 37.5766 0.506306 37.3168C0.446768 37.1735 0.446768 37.1735 0.386027 37.0274C0.347259 36.9327 0.308491 36.8381 0.268548 36.7406C0.233463 36.6554 0.198378 36.5703 0.162229 36.4825C-0.0602534 35.8577 -0.0523311 35.1017 0.176331 34.48C0.637928 33.6897 1.32577 33.2858 2.15032 32.9556C2.2342 32.9209 2.31808 32.8863 2.40451 32.8506C2.67023 32.7412 2.93659 32.6334 3.20298 32.5256C3.38307 32.4517 3.56311 32.3777 3.74311 32.3036C5.94706 31.3986 5.94706 31.3986 7.08614 31.7155C7.80721 32.0478 8.15805 32.5796 8.49805 33.2709C8.5455 33.367 8.59295 33.4631 8.64184 33.5621C8.6955 33.6718 8.6955 33.6718 8.75024 33.7836C9.28795 33.5319 9.82546 33.2798 10.3629 33.0275C10.4443 32.9893 10.5257 32.9511 10.6096 32.9118C11.513 32.4878 12.4148 32.0612 13.3109 31.6219C13.4205 31.5683 13.4205 31.5683 13.5322 31.5136C13.8763 31.3452 14.22 31.176 14.5631 31.0054C15.2356 30.6754 15.9114 30.3745 16.6119 30.11C16.6809 30.0839 16.75 30.0577 16.8211 30.0308C19.3199 29.1129 22.3223 29.3121 24.5204 30.9276ZM15.4953 32.3918C15.3657 32.4544 15.2362 32.517 15.1066 32.5796C14.5069 32.8698 13.9074 33.1604 13.3088 33.453C12.2596 33.9652 11.2042 34.4598 10.1362 34.932C10.0387 34.9756 9.94132 35.0193 9.84095 35.0642C9.75635 35.1015 9.67175 35.1389 9.58458 35.1773C9.37395 35.2691 9.37395 35.2691 9.28556 35.4967C9.38247 35.7647 9.48695 36.0208 9.60173 36.2812C9.63678 36.3627 9.67183 36.4441 9.70795 36.528C9.78471 36.7062 9.86183 36.8842 9.93928 37.0621C10.149 37.5439 10.356 38.027 10.5632 38.5099C10.6289 38.6627 10.6289 38.6627 10.6958 38.8185C11.2583 40.1302 11.7995 41.4506 12.3418 42.7707C12.4268 42.9775 12.5118 43.1843 12.5968 43.391C12.6739 43.5785 12.7509 43.766 12.8277 43.9535C13.0645 44.5296 13.3122 45.0999 13.5681 45.6677C14.2893 45.4569 14.9454 45.1052 15.6157 44.7719C17.1282 44.0353 18.5233 43.9978 20.1275 44.4378C20.2329 44.466 20.3384 44.4942 20.4471 44.5233C21.8245 44.8957 23.1933 45.2992 24.5623 45.7012C24.9613 45.8181 25.3604 45.9348 25.7595 46.0515C26.0051 46.1234 26.2507 46.1953 26.4962 46.2674C26.6611 46.3158 26.6611 46.3158 26.8293 46.365C26.9255 46.3933 27.0218 46.4216 27.1209 46.4507C30.9364 47.5369 35.5636 44.782 39.0301 43.4324C40.2241 42.9675 41.4197 42.5071 42.6159 42.0482C43.0898 41.8664 43.5635 41.6841 44.037 41.5013C44.2657 41.4131 44.4943 41.3249 44.7229 41.2367C44.8333 41.1941 44.9436 41.1516 45.0573 41.1077C45.6529 40.8783 46.2494 40.6518 46.8475 40.4292C47.1764 40.3066 47.5046 40.1822 47.8326 40.0574C47.9781 40.0027 48.1238 39.9488 48.2699 39.8958C49.6336 39.4013 50.6293 38.6528 51.2547 37.3168C51.4669 36.6747 51.4805 35.8771 51.2798 35.234C50.9444 34.6152 50.4011 34.3398 49.7558 34.1048C49.3329 33.9962 48.927 33.9767 48.4911 33.971C48.3046 33.9669 48.3046 33.9669 48.1143 33.9626C46.6365 34.0229 45.1869 34.504 43.7811 34.9245C43.5821 34.9834 43.3831 35.0422 43.184 35.1009C42.665 35.2542 42.1463 35.4085 41.6276 35.5631C41.1007 35.7199 40.5736 35.8757 40.0464 36.0316C38.607 36.4575 37.1679 36.8844 35.7304 37.3168C35.7165 37.472 35.7165 37.472 35.7024 37.6304C35.5667 38.8876 35.2679 39.9704 34.2352 40.806C33.213 41.5408 32.1577 41.7226 30.9125 41.5993C30.2524 41.4887 29.6091 41.301 28.9649 41.1225C28.7807 41.073 28.5966 41.0236 28.4124 40.9744C27.9311 40.8453 27.4504 40.7139 26.9699 40.582C26.58 40.4755 26.1898 40.3705 25.7995 40.2656C21.158 39.0181 21.158 39.0181 20.8485 38.7086C20.79 38.0657 20.79 38.0657 20.9622 37.7517C21.5312 37.4397 22.2466 37.6989 22.8324 37.864C22.9647 37.9 22.9647 37.9 23.0997 37.9368C23.2902 37.9888 23.4806 38.0412 23.6708 38.094C23.9727 38.1777 24.2749 38.2601 24.5772 38.3422C25.4363 38.5758 26.2948 38.8119 27.1532 39.0483C27.6792 39.1932 28.2056 39.3367 28.7323 39.4794C28.932 39.5339 29.1317 39.5889 29.3311 39.6444C29.611 39.7223 29.8913 39.7985 30.1718 39.8744C30.2528 39.8974 30.3339 39.9204 30.4174 39.9441C31.3528 40.1931 32.1696 40.207 33.0253 39.732C33.5702 39.3571 33.9183 38.9089 34.1244 38.2803C34.2184 37.4883 34.1853 36.7884 33.6962 36.139C32.7949 35.0053 31.0306 34.8246 29.7005 34.4846C29.5725 34.4517 29.4445 34.4187 29.3126 34.3848C28.5127 34.1791 28.5127 34.1791 27.7116 33.9777C26.1794 33.5958 24.901 33.2378 23.6321 32.2847C20.8344 30.6035 18.2971 31.0336 15.4953 32.3918ZM4.89802 33.5611C4.8193 33.5934 4.74058 33.6257 4.65947 33.6589C4.49411 33.727 4.32901 33.7958 4.16418 33.8652C3.91259 33.9709 3.66005 34.0739 3.40728 34.1768C3.24613 34.2435 3.08505 34.3104 2.92403 34.3775C2.81143 34.4234 2.81143 34.4234 2.69657 34.4702C2.28224 34.6465 1.94232 34.7994 1.68401 35.1755C1.59611 35.8024 1.78391 36.2634 2.0303 36.8245C2.06721 36.9116 2.10412 36.9986 2.14215 37.0883C2.26481 37.3769 2.3893 37.6646 2.51376 37.9524C2.60133 38.1578 2.68875 38.3632 2.77603 38.5686C2.96021 39.002 3.14495 39.4351 3.33002 39.8681C3.73821 40.825 4.13707 41.7859 4.53617 42.7466C4.66863 43.0653 4.80142 43.3838 4.9343 43.7022C5.35801 44.7179 5.78028 45.7341 6.19882 46.7518C6.39486 47.2284 6.59154 47.7046 6.78827 48.1808C6.88212 48.4085 6.97564 48.6363 7.06883 48.8642C7.19802 49.1802 7.32828 49.4956 7.45878 49.811C7.51551 49.951 7.51551 49.951 7.5734 50.0938C7.85216 50.7812 7.85216 50.7812 8.32198 51.3421C8.9228 51.4336 9.38312 51.2586 9.92585 51.0293C10.0046 50.9971 10.0833 50.9648 10.1644 50.9316C10.3298 50.8634 10.4949 50.7947 10.6597 50.7253C10.9113 50.6196 11.1638 50.5165 11.4166 50.4137C11.5777 50.3469 11.7388 50.28 11.8998 50.213C11.9749 50.1824 12.05 50.1518 12.1273 50.1203C12.5416 49.9439 12.8816 49.791 13.1399 49.415C13.2278 48.7881 13.04 48.3271 12.7936 47.766C12.7567 47.6789 12.7198 47.5919 12.6817 47.5022C12.5591 47.2136 12.4346 46.9258 12.3101 46.638C12.2225 46.4327 12.1351 46.2273 12.0478 46.0218C11.8637 45.5885 11.6789 45.1554 11.4939 44.7224C11.0857 43.7654 10.6868 42.8046 10.2877 41.8438C10.1552 41.5252 10.0225 41.2067 9.88957 40.8882C9.46587 39.8726 9.0436 38.8564 8.62506 37.8386C8.42902 37.3621 8.23234 36.8859 8.0356 36.4096C7.94176 36.182 7.84823 35.9542 7.75504 35.7262C7.62585 35.4103 7.49559 35.0948 7.3651 34.7794C7.32727 34.6861 7.28945 34.5928 7.25047 34.4966C6.97171 33.8093 6.97171 33.8093 6.50189 33.2483C5.90107 33.1568 5.44075 33.3318 4.89802 33.5611Z" fill="white"/>
<path d="M34.8096 0.00262694C34.9515 0.00201235 34.9515 0.00201235 35.0962 0.00138535C35.2953 0.00109528 35.4943 0.00187603 35.6933 0.00367248C35.9965 0.00596627 36.2994 0.00369024 36.6025 0.000954062C36.7967 0.00123708 36.9909 0.00178582 37.1851 0.00262694C37.3198 0.0013266 37.3198 0.0013266 37.4572 0C38.0734 0.0097387 38.4365 0.12943 38.9416 0.487761C39.3287 0.974879 39.4382 1.47643 39.5171 2.08703C39.6532 2.92707 39.8696 3.44866 40.548 3.97236C41.1506 4.35614 41.7626 4.49942 42.4747 4.44913C43.1566 4.28573 43.6662 3.94974 44.2099 3.5211C44.6243 3.21327 45.0082 3.1428 45.5127 3.16436C46.5306 3.32603 47.2754 4.28885 47.9684 4.98445C48.064 5.0783 48.1596 5.17215 48.2581 5.26884C48.3956 5.4063 48.3956 5.4063 48.536 5.54654C48.6185 5.62879 48.7011 5.71105 48.7862 5.7958C49.2502 6.34412 49.382 6.8131 49.3569 7.513C49.2833 8.13667 48.8941 8.57621 48.5134 9.04996C48.0909 9.66069 48.0845 10.2609 48.1491 10.98C48.3007 11.6715 48.6391 12.2316 49.2294 12.6299C49.7476 12.918 50.1965 13.0437 50.7856 13.1079C51.3955 13.1835 51.7232 13.3479 52.1653 13.7691C52.5588 14.2846 52.5717 14.8046 52.5709 15.4328C52.5714 15.5208 52.5719 15.6089 52.5723 15.6995C52.5729 15.8852 52.573 16.0708 52.5725 16.2565C52.5722 16.5394 52.5747 16.8222 52.5774 17.1051C52.5777 17.2859 52.5777 17.4668 52.5776 17.6477C52.5786 17.7317 52.5796 17.8157 52.5806 17.9022C52.5756 18.5057 52.4348 18.9152 52.0825 19.4159C51.6479 19.8409 51.2056 19.9411 50.6183 20.0336C49.8098 20.1612 49.2368 20.3055 48.7091 20.9566C48.1787 21.7132 48.0403 22.3693 48.1491 23.2924C48.38 23.9622 48.7574 24.4789 49.2197 25.0054C49.3959 25.5339 49.4631 26.1075 49.2196 26.6252C48.7522 27.3139 48.1999 27.8896 47.6071 28.4716C47.5124 28.5667 47.4176 28.6618 47.32 28.7598C46.6921 29.3825 46.2015 29.8672 45.2931 29.9362C44.5226 29.9181 44.0311 29.4976 43.4554 29.0295C42.9317 28.645 42.3569 28.5912 41.7253 28.6456C40.9443 28.811 40.3531 29.1426 39.8784 29.7924C39.5617 30.3442 39.5116 30.9141 39.4288 31.5368C39.3081 32.1936 38.934 32.5532 38.4063 32.9282C38.0439 33.1094 37.6324 33.0573 37.2336 33.0607C37.138 33.0616 37.0424 33.0625 36.9439 33.0634C36.7412 33.0648 36.5385 33.066 36.3358 33.0668C36.0268 33.0687 35.7179 33.0734 35.4089 33.0781C35.2119 33.0792 35.0149 33.0801 34.818 33.0808C34.7259 33.0827 34.6339 33.0846 34.5391 33.0865C33.8238 33.0839 33.4437 32.8748 32.9192 32.3795C32.6976 32.0152 32.6416 31.7048 32.5692 31.2887C32.4195 30.4517 32.2243 29.7446 31.5542 29.1809C30.8441 28.7322 30.1338 28.5233 29.2912 28.6912C28.6934 28.8613 28.2898 29.156 27.8124 29.546C27.386 29.8766 27.0092 29.952 26.482 29.9304C25.489 29.7736 24.7635 28.8502 24.0865 28.1705C23.9969 28.0827 23.9073 27.9948 23.815 27.9043C22.7506 26.8407 22.7506 26.8407 22.6148 26.1125C22.6339 25.3288 22.8392 24.875 23.3169 24.256C23.8313 23.5795 23.9272 22.9501 23.8456 22.1147C23.6909 21.3905 23.3 20.7798 22.675 20.3745C22.1929 20.1348 21.7492 20.0528 21.2158 19.9935C20.6052 19.9134 20.2723 19.7476 19.8294 19.3256C19.4359 18.8101 19.423 18.2902 19.4237 17.6619C19.4233 17.5739 19.4228 17.4859 19.4224 17.3952C19.4217 17.2095 19.4217 17.0239 19.4221 16.8383C19.4225 16.5554 19.42 16.2726 19.4173 15.9897C19.417 15.8088 19.4169 15.6279 19.4171 15.447C19.4161 15.363 19.4151 15.279 19.4141 15.1925C19.4191 14.5891 19.5599 14.1795 19.9122 13.6788C20.3462 13.2543 20.783 13.1575 21.3697 13.0678C22.21 12.9385 22.8339 12.7289 23.3759 12.0478C23.8464 11.3361 23.9454 10.6489 23.8456 9.80233C23.6146 9.13256 23.2373 8.61584 22.7749 8.08931C22.6757 7.79174 22.6404 7.57645 22.6277 7.26625C22.6225 7.17972 22.6172 7.09319 22.6118 7.00403C22.7895 6.03237 23.6561 5.34305 24.3274 4.68333C24.4288 4.5817 24.5301 4.48 24.6314 4.37824C25.7897 3.22902 25.7897 3.22902 26.7012 3.15809C27.3156 3.17355 27.7608 3.4359 28.2352 3.80675C28.835 4.27374 29.3329 4.48449 30.1021 4.44913C30.8804 4.34673 31.4952 4.0378 32.0226 3.4521C32.3546 2.97416 32.4327 2.43478 32.5058 1.8688C32.5807 1.32629 32.7143 0.914064 33.0531 0.487761C33.6468 0.0665827 34.0918 -0.00430249 34.8096 0.00262694ZM34.2308 1.66547C34.1759 1.91139 34.1308 2.15952 34.0903 2.40822C33.8731 3.61011 33.4033 4.60591 32.3772 5.32572C31.2536 6.03873 30.0619 6.21395 28.7705 5.93464C28.2346 5.79127 27.827 5.581 27.3824 5.25211C27.1405 5.07377 26.8877 4.9235 26.6292 4.77032C26.2901 5.09622 25.9528 5.42382 25.617 5.75314C25.5025 5.86494 25.3875 5.97626 25.2721 6.08709C25.1063 6.24636 24.9423 6.4073 24.7786 6.56866C24.6794 6.6651 24.5801 6.76154 24.4779 6.86089C24.2465 7.10147 24.2465 7.10147 24.2873 7.36294C24.3952 7.58316 24.5228 7.74882 24.682 7.9354C25.4592 8.95606 25.5744 10.0584 25.4515 11.3012C25.2165 12.3667 24.6596 13.3293 23.7511 13.9481C23.0015 14.4003 22.3204 14.5773 21.45 14.685C21.1775 14.6975 21.1775 14.6975 21.0619 14.8343C21.0511 15.0874 21.0469 15.3373 21.0477 15.5905C21.0476 15.6661 21.0475 15.7418 21.0474 15.8197C21.0473 15.9799 21.0475 16.1401 21.0479 16.3003C21.0485 16.5463 21.048 16.7923 21.0473 17.0384C21.0473 17.1937 21.0475 17.349 21.0477 17.5043C21.0475 17.5783 21.0473 17.6524 21.047 17.7287C21.0188 18.0781 21.0188 18.0781 21.169 18.3675C21.3761 18.3941 21.5837 18.4182 21.7913 18.4411C22.8004 18.5897 23.7766 19.0141 24.488 19.7593C25.3397 20.9538 25.579 22.0601 25.4515 23.5065C25.2949 24.2304 24.9957 24.7916 24.5168 25.353C24.3541 25.5778 24.2897 25.6898 24.2738 25.969C24.4806 26.2504 24.4806 26.2504 24.7786 26.5261C24.8573 26.6036 24.8573 26.6036 24.9375 26.6827C25.1054 26.8476 25.2751 27.0105 25.4448 27.1735C25.5589 27.2849 25.6729 27.3964 25.7867 27.508C26.0662 27.7816 26.3473 28.0534 26.6292 28.3244C26.9679 28.1235 27.2884 27.9141 27.6062 27.682C28.5483 27.054 29.5851 26.9216 30.6876 27.0861C31.8265 27.3224 32.7591 27.8618 33.4353 28.8196C33.9418 29.661 34.0657 30.4391 34.2308 31.4293C35.3967 31.4293 36.5626 31.4293 37.7639 31.4293C37.8699 30.8993 37.9759 30.3693 38.0851 29.8233C38.5732 28.6624 39.1754 27.8991 40.3334 27.3608C41.6496 26.899 42.791 26.9276 44.0807 27.4679C44.3242 27.6192 44.5398 27.7772 44.7569 27.9639C44.9494 28.1202 45.1429 28.217 45.3654 28.3244C45.7046 27.9985 46.0419 27.6709 46.3777 27.3416C46.4922 27.2298 46.6071 27.1185 46.7226 27.0077C46.8884 26.8484 47.0523 26.6874 47.2161 26.5261C47.3153 26.4296 47.4145 26.3332 47.5168 26.2338C47.7482 25.9933 47.7482 25.9933 47.7074 25.7318C47.5995 25.5116 47.4719 25.3459 47.3127 25.1593C46.5355 24.1387 46.4202 23.0364 46.5431 21.7935C46.7782 20.7281 47.3351 19.7654 48.2436 19.1466C48.9931 18.6944 49.6743 18.5175 50.5447 18.4097C50.8172 18.3972 50.8172 18.3972 50.9328 18.2604C50.9436 18.0073 50.9477 17.7574 50.947 17.5043C50.9471 17.4286 50.9472 17.353 50.9473 17.275C50.9474 17.1148 50.9472 16.9546 50.9467 16.7944C50.9462 16.5484 50.9467 16.3024 50.9474 16.0564C50.9473 15.9011 50.9472 15.7458 50.947 15.5905C50.9473 15.4794 50.9473 15.4794 50.9477 15.3661C50.9759 15.0166 50.9758 15.0166 50.8257 14.7273C50.636 14.6939 50.4463 14.6609 50.256 14.6309C49.4643 14.5037 48.812 14.3455 48.1491 13.8708C48.0365 13.7935 47.9239 13.7162 47.8078 13.6366C46.928 12.7568 46.5169 11.6865 46.4963 10.4581C46.5043 9.3861 46.7815 8.55797 47.4779 7.74177C47.6406 7.51698 47.705 7.40489 47.7209 7.12573C47.5141 6.84437 47.5141 6.84437 47.2161 6.56866C47.1636 6.51699 47.1112 6.46531 47.0572 6.41207C46.8893 6.24717 46.7196 6.08423 46.5498 5.92126C46.4358 5.80986 46.3218 5.69834 46.2079 5.58669C45.9285 5.31313 45.6474 5.0413 45.3654 4.77032C45.0278 4.97044 44.7105 5.1794 44.3952 5.41271C43.4267 6.06051 42.2705 6.18646 41.1431 5.98148C39.8606 5.6631 39.0452 4.98792 38.3544 3.89415C38.0155 3.26427 37.9206 2.63479 37.8241 1.93438C37.8042 1.84564 37.7844 1.7569 37.7639 1.66547C37.4588 1.5129 37.1979 1.5445 36.8572 1.54418C36.6496 1.54397 36.6496 1.54397 36.4377 1.54376C36.3294 1.5441 36.3294 1.5441 36.2188 1.54444C35.9982 1.54502 35.7776 1.54445 35.557 1.54376C35.4185 1.5439 35.2801 1.54404 35.1375 1.54418C34.9461 1.54436 34.9461 1.54436 34.7508 1.54455C34.4507 1.53738 34.4507 1.53738 34.2308 1.66547Z" fill="white"/>
<path d="M41.0306 9.80704C41.1567 9.91045 41.2817 10.0153 41.4054 10.1215C41.4749 10.1759 41.5445 10.2303 41.6161 10.2863C43.1943 11.567 44.1277 13.6142 44.353 15.6069C44.5708 18.0158 43.8821 20.213 42.3489 22.0793C40.9826 23.6704 39.0847 24.6132 37.0157 24.8964C34.5642 25.049 32.2579 24.4662 30.3577 22.8421C28.662 21.2334 27.7057 19.116 27.5966 16.7885C27.536 14.4152 28.4428 12.2726 30.0566 10.5498C33.0433 7.66607 37.6852 7.36982 41.0306 9.80704ZM30.806 12.1558C29.6085 13.6747 29.0626 15.4078 29.2498 17.3429C29.4089 18.3984 29.6963 19.4476 30.3778 20.2926C30.4484 20.2926 30.5191 20.2926 30.5919 20.2926C30.7252 20.1187 30.851 19.9391 30.9733 19.7573C31.973 18.3624 33.3193 17.5899 34.9815 17.1878C34.7617 16.968 34.5893 16.8808 34.3124 16.7461C33.6142 16.3634 33.1379 15.747 32.8917 14.9875C32.6871 13.9445 32.7605 13.0301 33.2944 12.1052C33.8307 11.3341 34.5006 10.9826 35.4098 10.7639C36.3993 10.627 37.3667 10.8606 38.1734 11.4598C38.8772 12.1433 39.2199 13.0016 39.2373 13.9758C39.2185 14.9067 38.9409 15.6916 38.2762 16.3551C37.877 16.6802 37.4994 16.9022 37.0157 17.0807C37.2876 17.3525 37.502 17.3826 37.8722 17.4822C39.4009 17.9413 40.6024 18.9119 41.4054 20.2926C41.7431 20.2174 41.7431 20.2174 41.8871 19.9355C42.8359 18.0133 42.9963 16.2061 42.3689 14.1624C41.6929 12.3644 40.3318 11.0832 38.6154 10.2997C35.8943 9.12259 32.7473 9.92608 30.806 12.1558ZM34.8264 12.7408C34.3818 13.2618 34.3013 13.5704 34.309 14.2393C34.3662 14.7559 34.6582 15.0381 35.0016 15.4011C35.4183 15.6512 35.7831 15.7088 36.2663 15.6889C36.8977 15.51 37.179 15.2396 37.5511 14.7253C37.7498 14.3279 37.7062 13.8743 37.6581 13.4405C37.4212 12.9668 37.1284 12.6702 36.6945 12.3699C36.0027 12.1393 35.3545 12.207 34.8264 12.7408ZM32.6997 20.0651C32.2226 20.5693 31.8074 21.1024 31.6625 21.7915C33.3738 22.9605 35.1494 23.5936 37.2366 23.2206C38.377 22.9812 39.5289 22.5593 40.3347 21.6845C39.8247 20.4871 38.9321 19.5631 37.7535 19.0087C35.9531 18.3188 34.0759 18.7583 32.6997 20.0651Z" fill="white"/>
</svg>
