<svg width="29" height="23" viewBox="0 0 29 23" fill="none" xmlns="http://www.w3.org/2000/svg">
<path d="M16.8418 4H11.4338C11.0605 4 10.7578 4.30266 10.7578 4.676V22.324C10.7578 22.6973 11.0605 23 11.4338 23H16.8418C17.2152 23 17.5178 22.6973 17.5178 22.324V4.676C17.5178 4.30266 17.2152 4 16.8418 4Z" fill="#EE336C"/>
<path d="M22.7606 9.99781H5.5225C5.21667 9.99781 4.96875 10.2457 4.96875 10.5516V16.4486C4.96875 16.7544 5.21667 17.0023 5.5225 17.0023H22.7606C23.0664 17.0023 23.3143 16.7544 23.3143 16.4486V10.5516C23.3143 10.2457 23.0664 9.99781 22.7606 9.99781Z" fill="#EE336C"/>
<path d="M26.2052 0H23.9282C23.771 0 23.6436 0.127435 23.6436 0.284634V7.71537C23.6436 7.87256 23.771 8 23.9282 8H26.2052C26.3624 8 26.4899 7.87256 26.4899 7.71537V0.284634C26.4899 0.127435 26.3624 0 26.2052 0Z" fill="#EE336C"/>
<path d="M28.6973 2.52539H21.4392C21.3104 2.52539 21.2061 2.62978 21.2061 2.75855V5.24151C21.2061 5.37028 21.3104 5.47467 21.4392 5.47467H28.6973C28.8261 5.47467 28.9305 5.37028 28.9305 5.24151V2.75855C28.9305 2.62978 28.8261 2.52539 28.6973 2.52539Z" fill="#EE336C"/>
<path d="M5.20525 0H2.92819C2.77099 0 2.64355 0.127435 2.64355 0.284634V7.71537C2.64355 7.87256 2.77099 8 2.92819 8H5.20525C5.36245 8 5.48988 7.87256 5.48988 7.71537V0.284634C5.48988 0.127435 5.36245 0 5.20525 0Z" fill="#EE336C"/>
<path d="M7.69735 2.52539H0.439211C0.310443 2.52539 0.206055 2.62978 0.206055 2.75855V5.24151C0.206055 5.37028 0.310443 5.47467 0.439211 5.47467H7.69735C7.82612 5.47467 7.93051 5.37028 7.93051 5.24151V2.75855C7.93051 2.62978 7.82612 2.52539 7.69735 2.52539Z" fill="#EE336C"/>
</svg>
