<svg width="24" height="24" viewBox="0 0 24 24" fill="none" xmlns="http://www.w3.org/2000/svg">
<circle cx="12" cy="12.4531" r="11.5" fill="#214E92"/>
<path d="M12.6504 6.12402C13.2072 6.15705 13.7021 6.27917 13.9854 6.53418C14.124 6.6788 14.1805 6.84791 14.2061 7.07617C14.1922 7.29294 14.095 7.47609 13.9355 7.63086C13.7749 7.76091 13.6086 7.79073 13.3828 7.76855L13.0693 7.7002C11.7523 7.39865 10.3986 7.69991 9.27441 8.44141L9.27051 8.44336C8.11818 9.25184 7.37852 10.4426 7.10254 11.8535L7.10156 11.8555C6.86036 13.1687 7.14134 14.5824 7.84375 15.6982L7.8457 15.7012C8.58901 16.8328 9.73869 17.6727 11.0518 17.9326H11.0537C12.3383 18.1688 13.6079 17.9358 14.7158 17.2363L14.9385 17.0879C15.0962 16.9716 15.2381 16.839 15.373 16.7129C15.3984 16.69 15.424 16.6671 15.4502 16.6436H15.4512C16.3881 15.7909 16.9604 14.494 17.0498 13.2168V13.2148C17.0551 13.1163 17.06 13.0164 17.0625 12.916C17.0699 12.6706 17.1217 12.4864 17.2617 12.3115C17.3601 12.2241 17.4399 12.1747 17.5205 12.1455C17.6017 12.1161 17.6948 12.1031 17.8262 12.1035C18.0016 12.1194 18.1508 12.1941 18.2695 12.3301C18.4234 12.5331 18.4418 12.7623 18.4258 13.0654V13.0664C18.4246 13.0896 18.4231 13.1128 18.4219 13.1367C18.3374 14.6614 17.7859 16.1266 16.793 17.2471V17.248C16.7394 17.3089 16.6887 17.3705 16.6396 17.4316C15.7381 18.5013 14.3658 19.1537 13.0225 19.3916H13.0215L12.9639 19.4014C11.4624 19.6597 9.86977 19.2547 8.58887 18.4023L8.33691 18.2266C8.25672 18.1653 8.17813 18.1017 8.09961 18.0361H8.09863C8.07126 18.0136 8.04381 17.991 8.01562 17.9678H8.0166C7.65266 17.6614 7.30995 17.3169 7.02637 16.9346L6.90918 16.7686C6.89556 16.7485 6.88122 16.7287 6.86719 16.708H6.86816C5.85989 15.2083 5.46312 13.4155 5.75586 11.6084L5.75488 11.6074C5.96679 10.3973 6.50299 9.28901 7.28711 8.37207H7.28809C7.33805 8.31322 7.38618 8.25256 7.43262 8.19531L7.43164 8.19434C7.50327 8.10983 7.5828 8.03545 7.6709 7.95801L7.67285 7.95703C7.71868 7.91592 7.76334 7.87387 7.80664 7.83105C8.68407 6.96479 9.86871 6.43048 11.0615 6.22559L11.0625 6.22461C11.0841 6.22082 11.1057 6.2168 11.1279 6.21289C11.5246 6.14715 12.0988 6.09131 12.6504 6.12402ZM18.3867 6.85938C18.5493 6.81519 18.7334 6.83648 18.958 6.98242C19.1081 7.14227 19.1864 7.30364 19.1943 7.51953C19.1774 7.86405 19.0243 8.0461 18.7559 8.31836C18.724 8.34739 18.6915 8.37658 18.6592 8.40527L18.6582 8.40625C18.5265 8.52568 18.404 8.65145 18.2852 8.77637C18.2503 8.81287 18.2504 8.81345 18.2148 8.85059C18.1508 8.91762 18.0864 8.98468 18.0225 9.05176C17.9533 9.12428 17.8838 9.19699 17.8145 9.26953C17.71 9.37879 17.6053 9.48834 17.501 9.59766C17.2961 9.8123 17.091 10.0268 16.8857 10.2412C16.8534 10.275 16.8214 10.309 16.7891 10.3428C16.74 10.394 16.6907 10.4458 16.6416 10.4971C16.4569 10.69 16.2715 10.8822 16.0869 11.0752C16.0701 11.0928 16.0535 11.1108 16.0361 11.1289C15.7626 11.4148 15.489 11.7011 15.2158 11.9873C14.9351 12.2814 14.6544 12.5757 14.373 12.8691C14.1996 13.0501 14.0264 13.2315 13.8535 13.4131C13.7354 13.5371 13.6168 13.6607 13.498 13.7842C13.4294 13.8556 13.3604 13.9277 13.292 14C13.2185 14.0775 13.1439 14.1542 13.0693 14.2314L13.0684 14.2334C13.0478 14.2553 13.027 14.2772 13.0059 14.2998C12.8619 14.4473 12.7248 14.5233 12.5352 14.5537C12.1631 14.546 11.9887 14.3714 11.6797 14.0518C11.6602 14.0317 11.6412 14.0109 11.6211 13.9902C11.5576 13.9249 11.4941 13.8596 11.4307 13.7939C11.4088 13.7713 11.3868 13.7489 11.3643 13.7256C11.2489 13.6063 11.1337 13.4867 11.0186 13.3672C10.9234 13.2685 10.8279 13.1695 10.7324 13.0713C10.6168 12.9524 10.5008 12.8325 10.3857 12.7129C10.342 12.6675 10.2979 12.6223 10.2539 12.5771C10.1928 12.5144 10.1323 12.4504 10.0713 12.3867L10.0693 12.3857L10.0146 12.3301C9.85406 12.1597 9.74793 11.9594 9.73926 11.7402C9.74343 11.5351 9.81782 11.3525 9.95215 11.2021C10.1138 11.0638 10.2938 11.0056 10.502 11.0176C10.7236 11.0652 10.8825 11.1952 11.0576 11.373L11.2441 11.5684C11.275 11.6006 11.306 11.6328 11.3369 11.665C11.4174 11.749 11.4978 11.8336 11.5781 11.918C11.6605 12.0043 11.7428 12.0907 11.8252 12.1768C11.9863 12.3452 12.1477 12.5138 12.3086 12.6826L12.3896 12.7676L12.4951 12.7178C12.5927 12.6716 12.6676 12.6191 12.7451 12.5381L12.7441 12.5371L12.7969 12.4844C12.8151 12.4652 12.8328 12.4455 12.8516 12.4258L12.8525 12.4268C12.8722 12.4063 12.8918 12.3854 12.9121 12.3643C12.9786 12.295 13.0452 12.2255 13.1113 12.1562L13.1104 12.1553C13.1577 12.1059 13.2056 12.0571 13.2529 12.0078C13.3687 11.8871 13.485 11.7663 13.6006 11.6455C13.735 11.5049 13.8702 11.3641 14.0049 11.2236C14.2455 10.9728 14.4861 10.7218 14.7266 10.4707C14.7409 10.4557 14.7557 10.4403 14.7705 10.4248C14.7847 10.41 14.7989 10.3951 14.8135 10.3799C15.0175 10.1668 15.2217 9.95324 15.4258 9.74023C15.4401 9.72526 15.4549 9.71074 15.4697 9.69531C15.7093 9.4453 15.9488 9.19524 16.1885 8.94531C16.3493 8.77755 16.5102 8.60931 16.6709 8.44141C16.7709 8.33698 16.8706 8.23232 16.9707 8.12793C17.0171 8.07951 17.064 8.0309 17.1104 7.98242C17.1736 7.9163 17.2374 7.85027 17.3008 7.78418L17.3555 7.72656C17.4601 7.61769 17.5686 7.5142 17.6816 7.41309L17.6826 7.41211C17.7422 7.35799 17.796 7.3014 17.8477 7.24316L17.8467 7.24219C18.0327 7.03733 18.2109 6.90723 18.3867 6.85938Z" fill="white" stroke="#214E92" stroke-width="0.323064"/>
</svg>
