<svg width="48" height="48" viewBox="0 0 48 48" fill="none" xmlns="http://www.w3.org/2000/svg">
<path d="M24.0258 0.000187661C24.1193 0.000385706 24.2129 0.000583751 24.3093 0.000787797C25.6517 0.00535222 26.9688 0.028408 28.2874 0.304586C28.377 0.322843 28.4665 0.3411 28.5588 0.35991C32.1562 1.11241 35.4848 2.55433 38.3957 4.80738C38.4772 4.86933 38.5587 4.93128 38.6426 4.99511C40.0744 6.10792 41.4182 7.42062 42.5309 8.8507C42.6022 8.93883 42.6735 9.02696 42.747 9.11776C45.9202 13.107 47.6254 18.1731 47.6141 23.2529C47.6138 23.5231 47.6159 23.7931 47.6183 24.0632C47.6224 25.2921 47.5116 26.4772 47.3094 27.6889C47.2834 27.8456 47.2834 27.8456 47.257 28.0055C46.6114 31.5996 45.0508 35.0165 42.8066 37.8891C42.7368 37.9784 42.667 38.0677 42.5951 38.1598C41.4617 39.5731 40.1935 40.9104 38.7633 42.0243C38.6773 42.0946 38.5913 42.1648 38.5026 42.2372C35.8339 44.3743 32.5712 45.8647 29.2408 46.6018C29.1655 46.6186 29.0902 46.6353 29.0126 46.6526C27.3783 46.9906 25.7555 47.1297 24.089 47.1187C23.9511 47.1182 23.9511 47.1182 23.8105 47.1177C22.3334 47.1105 20.9127 47.0293 19.4656 46.7109C19.3055 46.6762 19.3055 46.6762 19.1423 46.6407C17.7736 46.3363 16.4396 45.9692 15.1466 45.4244C15.0668 45.3909 14.9871 45.3574 14.9049 45.3228C9.71839 43.1141 9.71839 43.1141 8.89781 41.473C8.84494 40.8279 8.84494 40.8279 9.05288 40.4736C9.281 40.264 9.42399 40.1662 9.72485 40.0946C10.2663 40.1191 10.5826 40.3726 10.9999 40.6861C11.1397 40.7876 11.2797 40.8889 11.4199 40.9898C11.5253 41.0658 11.5253 41.0658 11.6328 41.1433C16.1765 44.3662 21.9497 45.7186 27.4511 44.8311C30.5085 44.2952 33.4338 43.2311 36.0064 41.473C36.0609 41.4363 36.1154 41.3996 36.1715 41.3619C38.1326 40.0356 39.9694 38.3563 41.3363 36.4188C41.3853 36.35 41.4344 36.2811 41.485 36.2102C44.7765 31.5529 46.2513 25.8261 45.3376 20.1629C44.7003 16.5268 43.2857 13.1203 40.9687 10.2291C40.898 10.1397 40.8273 10.0502 40.7544 9.95809C39.6412 8.58084 38.3606 7.31567 36.9254 6.27768C36.8458 6.21904 36.7662 6.1604 36.6842 6.09999C33.8568 4.06554 30.6161 2.7813 27.1847 2.23435C27.1192 2.22345 27.0538 2.21256 26.9864 2.20133C21.6194 1.33871 15.9175 2.93298 11.5279 6.03574C11.2586 6.23308 10.9962 6.43646 10.7357 6.64525C10.6462 6.71597 10.5568 6.78669 10.4647 6.85955C9.08742 7.97271 7.82225 9.25332 6.78426 10.6886C6.72562 10.7682 6.66698 10.8478 6.60657 10.9298C4.57643 13.7512 3.27519 17.0007 2.74093 20.4293C2.73004 20.4987 2.71914 20.5681 2.70791 20.6396C1.89605 26.093 3.43834 31.7664 6.63636 36.2117C6.68707 36.2822 6.73778 36.3528 6.79002 36.4255C6.88669 36.5587 6.98443 36.6912 7.08343 36.8228C7.34127 37.1742 7.50387 37.4386 7.5194 37.8891C7.3802 38.2628 7.24103 38.5386 6.87615 38.7161C6.51638 38.7761 6.29345 38.7952 5.9687 38.6268C4.44836 37.439 3.45584 35.1898 2.64904 33.4782C2.60768 33.3911 2.60768 33.3911 2.56549 33.3022C1.89949 31.8852 1.42398 30.4117 1.06387 28.8893C1.04237 28.7998 1.02086 28.7103 0.9987 28.6181C0.619494 26.9407 0.486777 25.2753 0.501025 23.5594C0.501453 23.467 0.50188 23.3746 0.502321 23.2795C0.509544 21.9463 0.536951 20.6358 0.811166 19.3266C0.829423 19.237 0.84768 19.1474 0.866491 19.0551C1.79342 14.6239 3.81847 10.5255 6.98805 7.2728C7.15109 7.10547 7.31263 6.93678 7.47418 6.76801C8.12652 6.09379 8.80759 5.49011 9.56009 4.9301C9.7289 4.80436 9.89632 4.6769 10.0637 4.54928C10.8381 3.96429 11.6371 3.44683 12.4817 2.9695C12.5396 2.93614 12.5975 2.90278 12.6572 2.86841C16.126 0.882594 20.0562 -0.0149278 24.0258 0.000187661Z" fill="white"/>
<path d="M32.2788 8.27072C32.3588 8.31219 32.4387 8.35367 32.5211 8.3964C33.5822 8.96504 33.5823 8.96504 33.8008 9.40216C33.8515 9.82476 33.8576 10.1353 33.6343 10.5049C33.3823 10.7352 33.2079 10.7745 32.8715 10.815C32.3896 10.7685 32.0791 10.5678 31.67 10.3211C28.2402 8.35134 24.0959 7.73939 20.2559 8.76362C16.3075 9.89153 12.9148 12.3175 10.8505 15.9031C9.69666 17.983 8.8817 20.3286 8.80572 22.7267C8.80384 22.7845 8.80196 22.8423 8.80002 22.9018C8.67819 27.2696 10.3245 31.1395 13.2353 34.3445C15.9527 37.1777 19.9438 38.7239 23.8261 38.8346C28.0949 38.8831 32.0056 37.1075 35.0529 34.1847C37.8625 31.2877 39.3874 27.2564 39.3281 23.2393C39.2459 20.0958 38.2137 16.8153 36.2295 14.3407C35.5857 13.5354 35.5857 13.5354 35.5698 13.1296C35.6537 12.7309 35.744 12.4705 36.0752 12.2221C36.3767 12.13 36.6111 12.1265 36.9252 12.159C37.3927 12.417 37.6641 12.7255 37.9647 13.1526C38.0082 13.2134 38.0517 13.2742 38.0964 13.3368C40.7935 17.1618 41.9522 21.9405 41.1555 26.5752C40.6692 29.087 39.711 31.4892 38.2117 33.5702C38.1441 33.6641 38.0764 33.7581 38.0067 33.8549C35.2757 37.5588 31.2365 39.9385 26.7121 40.688C26.595 40.7045 26.478 40.7209 26.3574 40.7379C26.2984 40.7466 26.2394 40.7552 26.1786 40.7642C21.9572 41.3168 17.4919 40.1898 14.0437 37.7054C13.9497 37.6378 13.8558 37.5701 13.759 37.5005C10.0621 34.7747 7.73651 30.782 6.92585 26.2866C6.29081 21.9144 7.2044 17.1969 9.85261 13.6033C9.96209 13.458 10.0731 13.3139 10.1841 13.1698C10.2454 13.0891 10.3066 13.0085 10.3697 12.9254C13.037 9.49747 16.84 7.21472 21.1195 6.46156C21.2691 6.43331 21.2691 6.43331 21.4217 6.40449C25.1422 5.81683 28.9576 6.54634 32.2788 8.27072Z" fill="white"/>
<path d="M24.6115 12.6183C24.8645 12.865 25.0624 13.0988 25.0814 13.4596C25.0809 13.5395 25.0804 13.6194 25.0799 13.7017C25.0796 13.7882 25.0793 13.8746 25.079 13.9637C25.0779 14.0995 25.0779 14.0995 25.0767 14.238C25.0763 14.3292 25.0758 14.4204 25.0754 14.5144C25.0743 14.74 25.0728 14.9657 25.0709 15.1914C25.1659 15.2017 25.2609 15.212 25.3588 15.2226C26.4611 15.4108 27.3445 16.1394 27.9943 17.0178C28.5598 17.8738 28.9384 18.932 28.8386 19.9698C28.7192 20.2966 28.6208 20.4742 28.3504 20.6935C28.0511 20.8188 27.874 20.8429 27.5521 20.7969C27.1853 20.5994 26.9683 20.4496 26.8169 20.0617C26.7895 19.8747 26.767 19.6869 26.748 19.4989C26.6315 18.7007 26.3364 18.1158 25.6912 17.6208C25.5177 17.5021 25.3508 17.3989 25.1628 17.3049C25.1325 19.0941 25.1022 20.8833 25.0709 22.7267C25.2832 22.757 25.4955 22.7873 25.7142 22.8186C26.9093 23.2606 27.8062 24.0742 28.3791 25.2078C28.9401 26.5897 28.962 27.8468 28.471 29.2511C28.3183 29.5856 28.1395 29.876 27.9196 30.17C27.8714 30.2348 27.8232 30.2996 27.7735 30.3664C27.1715 31.11 26.3617 31.6553 25.4385 31.916C25.3172 31.916 25.1959 31.916 25.0709 31.916C25.0729 31.9716 25.0748 32.0272 25.0768 32.0844C25.0845 32.3384 25.0892 32.5924 25.0939 32.8464C25.0985 32.9776 25.0985 32.9776 25.1032 33.1114C25.1107 33.6472 25.0817 33.983 24.7034 34.3972C24.3713 34.6298 24.0921 34.5981 23.704 34.5458C23.4064 34.4593 23.2937 34.2902 23.1412 34.0296C23.0285 33.8042 23.0388 33.6574 23.0403 33.4057C23.0406 33.3192 23.0409 33.2328 23.0412 33.1437C23.0424 33.0079 23.0424 33.0079 23.0435 32.8694C23.0439 32.7782 23.0444 32.687 23.0448 32.593C23.0459 32.3674 23.0474 32.1417 23.0493 31.916C22.9543 31.9057 22.8593 31.8954 22.7614 31.8848C21.6591 31.6966 20.7757 30.968 20.1259 30.0896C19.5604 29.2336 19.1818 28.1754 19.2816 27.1376C19.401 26.8108 19.4994 26.6332 19.7698 26.4139C20.0691 26.2886 20.2462 26.2645 20.5681 26.3105C20.9349 26.508 21.1519 26.6578 21.3033 27.0457C21.3307 27.2327 21.3532 27.4205 21.3722 27.6085C21.4887 28.4067 21.7838 28.9916 22.429 29.4866C22.6025 29.6053 22.7694 29.7085 22.9574 29.8025C22.9877 28.0133 23.018 26.2241 23.0493 24.3807C22.837 24.3504 22.6247 24.3201 22.406 24.2888C21.2109 23.8468 20.314 23.0332 19.7411 21.8996C19.1801 20.5177 19.1582 19.2606 19.6492 17.8563C19.8019 17.5218 19.9807 17.2314 20.2006 16.9374C20.2488 16.8726 20.297 16.8078 20.3467 16.741C20.9487 15.9974 21.7585 15.4521 22.6817 15.1914C22.803 15.1914 22.9243 15.1914 23.0493 15.1914C23.0473 15.1358 23.0454 15.0802 23.0434 15.023C23.0358 14.769 23.031 14.515 23.0263 14.2609C23.0232 14.1735 23.0201 14.0861 23.017 13.996C23.0095 13.4602 23.0385 13.1244 23.4168 12.7102C23.7922 12.4474 24.1858 12.4947 24.6115 12.6183ZM22.1303 17.7644C21.5691 18.3485 21.2951 18.9682 21.2631 19.7746C21.2882 20.6041 21.5794 21.2046 22.1145 21.8271C22.3813 22.0593 22.3813 22.0593 23.0493 22.3591C23.0493 20.6609 23.0493 18.9627 23.0493 17.213C22.7395 17.213 22.3628 17.5832 22.1303 17.7644ZM25.0709 24.7483C25.0709 26.4465 25.0709 28.1447 25.0709 29.8944C25.9395 29.4601 26.4297 29.0429 26.7563 28.1211C26.9523 27.3184 26.8584 26.5678 26.4493 25.851C26.0465 25.2616 25.7449 25.0853 25.0709 24.7483Z" fill="white"/>
</svg>
