<svg width="42" height="50" viewBox="0 0 42 50" fill="none" xmlns="http://www.w3.org/2000/svg">
<path d="M25.4505 14.4836C25.6133 14.6263 25.7744 14.7711 25.9334 14.9182C26.0072 14.9843 26.081 15.0504 26.1571 15.1185C27.7707 16.6367 28.7715 18.7557 29.2169 20.9058C29.2345 20.9891 29.2522 21.0725 29.2703 21.1583C29.4287 21.9907 29.4487 22.8142 29.4463 23.6582C29.4462 23.7305 29.4461 23.8029 29.446 23.8774C29.4346 26.8447 28.4238 29.2419 26.851 31.7113C25.809 33.3495 25.0892 34.9946 24.4847 36.8407C24.1033 36.78 23.7895 36.6606 23.4405 36.4966C23.3463 36.4527 23.252 36.4087 23.1549 36.3634C23.0483 36.3128 23.0483 36.3128 22.9395 36.2612C23.0514 35.598 23.2214 34.9937 23.4767 34.372C23.5108 34.2885 23.5448 34.205 23.5798 34.119C24.0652 32.9532 24.6662 31.8781 25.3479 30.8168C26.2037 29.4839 26.9659 28.1412 27.382 26.6037C27.4279 26.4504 27.4279 26.4504 27.4748 26.294C27.9102 24.5785 27.8721 22.4114 27.382 20.7127C27.3633 20.6478 27.3446 20.5829 27.3254 20.516C26.7059 18.4293 25.5114 16.4146 23.5782 15.3109C22.0133 14.4786 20.4792 14.2131 18.7491 14.7254C16.6519 15.4783 15.2753 17.0083 14.3154 18.9633C13.6179 20.4555 13.3402 21.9681 13.3424 23.6099C13.3425 23.6757 13.3425 23.7414 13.3426 23.8092C13.352 26.3745 14.1767 28.4669 15.6153 30.5829C16.6527 32.1203 17.3907 33.7429 18.0142 35.4886C18.0461 32.6522 18.078 29.8158 18.1108 26.8935C17.6328 26.8935 17.1547 26.8935 16.6622 26.8935C15.9912 26.7444 15.4872 26.6119 15.0811 26.0265C14.6985 25.3957 14.5661 24.8689 14.6945 24.1411C14.8653 23.4774 15.2114 22.9215 15.793 22.5476C16.4523 22.163 17.2196 22.1275 17.9569 22.3178C18.6107 22.6007 18.9487 23.1152 19.2195 23.754C19.5594 24.6482 19.5594 24.6482 19.5594 25.1551C20.1968 25.1551 20.8342 25.1551 21.4909 25.1551C21.5228 24.9002 21.5547 24.6452 21.5875 24.3825C21.8474 23.5448 22.1928 22.8367 22.9456 22.3605C23.6465 22.1139 24.4434 22.153 25.1125 22.4631C25.7169 22.8108 26.0435 23.2591 26.3197 23.8996C26.4382 24.7266 26.3952 25.4339 25.9047 26.125C25.4753 26.6184 25.0247 26.7902 24.3882 26.8935C23.8782 26.8935 23.3683 26.8935 22.843 26.8935C22.843 29.9529 22.843 33.0124 22.843 36.1646C21.6841 35.9715 21.6841 35.9715 21.2012 35.8749C21.2012 32.8792 21.2012 29.8834 21.2012 26.7969C20.7232 26.7969 20.2451 26.7969 19.7526 26.7969C19.7526 29.7926 19.7526 32.7884 19.7526 35.8749C18.9399 36.0661 18.9399 36.0661 18.1108 36.2612C17.6011 36.4847 17.6011 36.4847 17.1005 36.7275C16.8553 36.8407 16.8553 36.8407 16.5656 36.8407C16.5462 36.7785 16.5269 36.7164 16.5069 36.6524C15.8598 34.5952 15.0061 32.8208 13.8201 31.0256C13.1427 29.9954 12.5897 28.9309 12.1896 27.7626C12.1673 27.6987 12.1451 27.6347 12.1222 27.5688C11.7144 26.309 11.5866 25.0468 11.598 23.7306C11.5983 23.6594 11.5986 23.5881 11.5988 23.5147C11.6053 22.3517 11.7052 21.2543 12.0266 20.1332C12.0431 20.0706 12.0597 20.008 12.0767 19.9436C12.7492 17.4254 14.4099 15.0848 16.6622 13.7593C19.5116 12.1734 22.9038 12.4555 25.4505 14.4836ZM16.3725 24.2859C16.2685 24.4683 16.2685 24.4683 16.2759 24.6722C16.3875 24.9361 16.3875 24.9361 16.5656 25.1551C16.8697 25.2565 17.086 25.2615 17.4046 25.2577C17.5006 25.2568 17.5966 25.256 17.6955 25.2551C17.7688 25.254 17.8421 25.2528 17.9177 25.2517C17.878 24.7236 17.697 24.2892 17.3382 23.8996C16.8724 23.7856 16.6538 23.9108 16.3725 24.2859ZM23.4405 24.2497C23.2575 24.5795 23.1612 24.8718 23.1327 25.2517C23.8279 25.2875 23.8279 25.2875 24.5028 25.1491C24.7093 24.9632 24.7093 24.9632 24.7322 24.63C24.7027 24.2877 24.7027 24.2877 24.521 24.0505C24.2952 23.8841 24.2952 23.8841 24.0079 23.8272C23.6653 23.9111 23.6285 23.9661 23.4405 24.2497Z" fill="white"/>
<path d="M20.5493 7.53624C20.622 7.53562 20.6948 7.53501 20.7697 7.53438C22.1715 7.52702 23.5225 7.7106 24.865 8.12776C24.945 8.15238 25.0249 8.17699 25.1073 8.20236C27.0012 8.80579 28.6884 9.74219 30.1826 11.0552C30.2637 11.1245 30.3447 11.1939 30.4282 11.2653C33.0888 13.5877 34.8459 16.8996 35.2045 20.4229C35.2745 22.0544 35.3404 23.762 34.9148 25.3483C34.8961 25.422 34.8775 25.4957 34.8582 25.5716C34.2056 28.1174 32.8895 30.1864 31.245 32.2051C29.5084 34.34 28.0386 36.4987 26.9957 39.0619C26.706 39.0619 26.706 39.0619 26.5298 38.8997C26.4704 38.8297 26.411 38.7597 26.3498 38.6877C26.2596 38.5835 26.2596 38.5835 26.1676 38.4772C26.0299 38.2893 26.0299 38.2893 26.0299 38.0961C25.9025 38.0324 25.775 37.9687 25.6436 37.903C26.36 35.4969 28.0361 33.4235 29.6035 31.5205C31.1774 29.605 32.5364 27.5792 33.1765 25.1551C33.2091 25.0337 33.2417 24.9123 33.2753 24.7873C33.9959 21.5048 33.3163 18.0503 31.566 15.2135C30.5 13.5566 29.0648 12.1685 27.382 11.1518C27.3175 11.1127 27.2531 11.0736 27.1867 11.0334C25.6198 10.1034 23.8792 9.52783 22.0704 9.31684C22.0058 9.30913 21.9412 9.30143 21.8746 9.29349C18.4732 8.91992 14.98 9.96866 12.3084 12.0892C9.7618 14.1891 7.90499 17.1867 7.58414 20.5195C7.4838 22.1825 7.49019 23.8372 7.97044 25.4448C7.98801 25.5077 8.00558 25.5706 8.02368 25.6354C8.59739 27.6729 9.73531 29.3515 11.108 30.9375C12.281 32.296 13.3852 33.7179 14.2478 35.2955C14.2932 35.3779 14.3386 35.4604 14.3853 35.5453C14.5341 35.8174 14.6811 36.0903 14.8273 36.3638C14.8738 36.4501 14.9203 36.5364 14.9682 36.6252C15.396 37.4407 15.396 37.4407 15.4067 37.903C15.2075 38.1384 15.2075 38.1384 14.9238 38.3859C14.7702 38.565 14.6214 38.7474 14.473 38.931C14.4306 38.9742 14.3881 39.0174 14.3444 39.0619C14.2806 39.0619 14.2169 39.0619 14.1512 39.0619C14.127 39.0061 14.1028 38.9504 14.0779 38.8929C13.0261 36.4846 11.7233 34.3813 9.99851 32.3982C8.3496 30.4498 7.0261 28.44 6.30453 25.97C6.28073 25.889 6.25693 25.8081 6.2324 25.7247C5.89388 24.5137 5.80609 23.3156 5.80958 22.0647C5.80967 21.9904 5.80975 21.9162 5.80984 21.8397C5.82395 18.0728 7.28584 14.7839 9.80536 12.0209C9.90321 11.9126 9.90321 11.9126 10.003 11.8021C10.9167 10.8417 12.0346 10.0593 13.1855 9.41341C13.2424 9.38145 13.2993 9.34949 13.358 9.31655C14.4404 8.7184 15.5703 8.30136 16.7588 7.96479C16.8354 7.94283 16.9121 7.92087 16.991 7.89825C18.166 7.57885 19.3395 7.54145 20.5493 7.53624Z" fill="white"/>
<path d="M24.5209 38.6352C25.6216 39.5686 26.4616 40.9087 26.7059 42.3454C26.8618 44.3261 26.5771 46.1052 25.2639 47.6538C24.2688 48.7589 22.8387 49.5862 21.3373 49.7049C19.3845 49.7748 17.7146 49.4488 16.2276 48.1097C15.1136 47.0559 14.3754 45.5781 14.3119 44.04C14.2957 42.9914 14.3029 42.0632 14.7307 41.09C14.7831 40.9634 14.7831 40.9634 14.8367 40.8342C15.5805 39.1952 16.9562 38.1638 18.5801 37.5005C20.5879 36.8825 22.8918 37.3397 24.5209 38.6352ZM17.5917 39.9673C17.4409 40.1142 17.2918 40.263 17.145 40.4139C17.0601 40.4959 17.0601 40.4959 16.9734 40.5795C16.0943 41.4945 15.9398 42.7189 15.9594 43.9265C16.0099 45.1623 16.6364 46.1592 17.5125 46.9954C18.6178 47.9276 19.7816 48.1476 21.1886 48.0633C22.3178 47.9536 23.2763 47.3002 24.0411 46.4921C24.9916 45.3365 25.2057 44.0909 25.0642 42.6352C24.8477 41.4882 24.1414 40.4584 23.2292 39.7379C21.4343 38.6609 19.2438 38.5155 17.5917 39.9673Z" fill="white"/>
<path d="M23.2293 41.9591C23.4707 42.104 23.4707 42.104 23.6156 42.3454C23.6903 42.8687 23.6903 42.8687 23.6156 43.118C23.2988 43.4668 22.9759 43.7194 22.5736 43.9623C22.4667 44.0274 22.3597 44.0925 22.2496 44.1596C22.1375 44.2269 22.0255 44.2942 21.9134 44.3614C21.6948 44.4939 21.4763 44.6264 21.2578 44.759C21.1513 44.8232 21.0448 44.8874 20.9352 44.9535C20.5482 45.1913 20.1697 45.4411 19.793 45.6948C19.4872 45.8615 19.2251 45.8956 18.8808 45.893C18.3444 45.6934 18.0894 44.9698 17.8452 44.4882C17.7856 44.3768 17.7856 44.3768 17.7249 44.2632C17.4672 43.756 17.382 43.397 17.4348 42.8283C17.5374 42.5929 17.5374 42.5929 17.7245 42.442C18.0842 42.3421 18.2994 42.2997 18.6438 42.4556C18.9295 42.6697 19.0429 42.8673 19.2033 43.1844C19.2527 43.2804 19.3021 43.3764 19.3531 43.4753C19.3893 43.5486 19.4255 43.6219 19.4628 43.6975C19.8369 43.5606 20.1568 43.3848 20.4931 43.172C20.5952 43.1077 20.6974 43.0434 20.8026 42.9771C20.9083 42.9101 21.0139 42.8431 21.1227 42.774C21.3333 42.641 21.5439 42.5081 21.7546 42.3752C21.8476 42.3163 21.9406 42.2573 22.0365 42.1966C22.4337 41.9501 22.7643 41.8957 23.2293 41.9591Z" fill="white"/>
<path d="M6.81154 5.06755C6.97916 5.19039 6.97916 5.19039 7.16049 5.35501C7.22826 5.41641 7.29603 5.4778 7.36586 5.54106C7.43789 5.60789 7.50992 5.67472 7.58414 5.74357C7.69499 5.84559 7.69499 5.84559 7.80808 5.94967C8.03998 6.16598 8.26799 6.38585 8.49556 6.60671C8.57418 6.6801 8.6528 6.75349 8.73379 6.8291C9.36187 7.44251 9.36187 7.44251 9.43151 7.90519C9.41906 8.25452 9.41906 8.25452 9.2742 8.53821C8.95639 8.8004 8.76769 8.84105 8.35674 8.83397C7.78809 8.49925 7.33927 8.05552 6.8724 7.59448C6.73318 7.45788 6.59183 7.32378 6.45033 7.18955C5.70019 6.45049 5.70019 6.45049 5.63529 5.98275C5.66077 5.48978 5.66077 5.48978 5.84579 5.2607C6.16024 5.0361 6.43416 5.00223 6.81154 5.06755Z" fill="white"/>
<path d="M34.8182 5.06754C35.0611 5.14852 35.171 5.21913 35.3313 5.41763C35.4309 5.76179 35.3929 6.07867 35.3011 6.41959C35.0924 6.70814 35.0924 6.70814 34.8194 6.97414C34.7711 7.02189 34.7229 7.06964 34.6731 7.11884C34.5716 7.21879 34.4692 7.31793 34.366 7.41627C34.2085 7.5665 34.0535 7.71895 33.8987 7.87199C33.0443 8.70768 33.0443 8.70768 32.6936 8.83396C32.3694 8.8169 32.1176 8.79741 31.8365 8.62874C31.662 8.33799 31.637 8.10922 31.6313 7.77164C31.8707 7.35926 32.1552 7.03065 32.4921 6.69536C32.5815 6.60616 32.6709 6.51696 32.763 6.42506C32.8091 6.3796 32.8551 6.33414 32.9026 6.2873C33.0445 6.14717 33.1856 6.00626 33.3266 5.86523C34.1686 5.02856 34.1686 5.02856 34.8182 5.06754Z" fill="white"/>
<path d="M28.2511 1.68743C28.5409 1.87455 28.5409 1.87455 28.734 2.17031C28.7245 2.95712 28.4393 3.60449 28.1304 4.3191C28.0842 4.43089 28.0381 4.54268 27.9905 4.65787C27.5469 5.6989 27.5469 5.6989 27.0922 6.0333C26.7094 6.09376 26.513 6.09699 26.1869 5.8824C25.9785 5.56989 25.9565 5.34569 25.9333 4.97098C26.0054 4.71643 26.0801 4.49976 26.185 4.26025C26.2256 4.16304 26.2256 4.16304 26.2671 4.06386C26.3243 3.92784 26.3824 3.79216 26.4412 3.6568C26.5309 3.44997 26.6175 3.24206 26.7039 3.03382C26.7601 2.90134 26.8165 2.76892 26.8731 2.63658C26.8988 2.57471 26.9246 2.51284 26.9512 2.4491C27.2347 1.80504 27.5396 1.58757 28.2511 1.68743Z" fill="white"/>
<path d="M13.1372 1.62707C13.5669 1.7038 13.6757 1.84296 13.9581 2.1703C14.1666 2.55625 14.3296 2.96024 14.4949 3.36617C14.5736 3.55824 14.6552 3.74887 14.7371 3.93958C14.7882 4.06274 14.8391 4.18597 14.8899 4.30928C14.9359 4.42 14.9818 4.53072 15.0292 4.6448C15.1304 5.02073 15.1079 5.26992 15.0204 5.647C14.8635 5.8824 14.8635 5.8824 14.6341 6.0333C14.3021 6.08762 14.3021 6.08762 13.9581 6.0333C13.5645 5.703 13.3697 5.38227 13.1745 4.91099C13.1495 4.85088 13.1245 4.79078 13.0987 4.72885C13.0464 4.60256 12.9947 4.47602 12.9436 4.34925C12.8657 4.15632 12.7853 3.96449 12.7047 3.77265C12.6539 3.64916 12.6033 3.52562 12.5528 3.40201C12.5074 3.29078 12.4619 3.17956 12.415 3.06496C12.3139 2.74196 12.282 2.50614 12.3163 2.1703C12.5682 1.81923 12.7094 1.70346 13.1372 1.62707Z" fill="white"/>
<path d="M39.0675 11.3449C39.4186 11.5968 39.5344 11.738 39.6108 12.1658C39.5342 12.5945 39.3937 12.7049 39.0675 12.9867C38.7825 13.1375 38.7825 13.1375 38.4703 13.2628C38.3569 13.3088 38.2434 13.3547 38.1265 13.402C38.0088 13.4482 37.8911 13.4944 37.7698 13.542C37.6525 13.5897 37.5351 13.6374 37.4142 13.6865C36.11 14.2082 36.11 14.2082 35.615 14.0732C35.3977 13.9524 35.3977 13.9524 35.2045 13.6627C35.1623 13.3368 35.1623 13.3368 35.2045 12.9867C35.5337 12.5923 35.8558 12.3982 36.3268 12.2031C36.3869 12.1781 36.447 12.1531 36.509 12.1273C36.6353 12.075 36.7618 12.0233 36.8886 11.9722C37.0815 11.8943 37.2733 11.8139 37.4652 11.7333C37.5887 11.6825 37.7122 11.6319 37.8358 11.5814C37.947 11.536 38.0583 11.4905 38.1729 11.4436C38.4959 11.3425 38.7317 11.3106 39.0675 11.3449Z" fill="white"/>
<path d="M2.58869 11.3817C3.12728 11.504 3.62619 11.73 4.1316 11.9485C4.29929 12.0178 4.29929 12.0178 4.47037 12.0885C5.5114 12.532 5.5114 12.532 5.8458 12.9867C5.90677 13.3728 5.91139 13.5668 5.68887 13.8921C5.40751 14.0846 5.21904 14.1164 4.88005 14.1456C4.6049 14.074 4.6049 14.074 4.32249 13.9573C4.21891 13.9152 4.11533 13.8731 4.00862 13.8296C3.9018 13.7845 3.79499 13.7394 3.68494 13.6929C3.52584 13.628 3.52584 13.628 3.36353 13.5618C1.76684 12.9042 1.76684 12.9042 1.49994 12.5038C1.44603 12.0879 1.45751 11.8935 1.68705 11.5381C2.0264 11.3164 2.19585 11.3273 2.58869 11.3817Z" fill="white"/>
<path d="M37.6943 18.7299C37.8176 18.7293 37.8176 18.7293 37.9432 18.7287C38.1166 18.7285 38.29 18.7292 38.4634 18.7308C38.7286 18.7329 38.9936 18.7308 39.2588 18.7284C39.4274 18.7286 39.596 18.7291 39.7647 18.7299C39.8438 18.7291 39.923 18.7283 40.0046 18.7275C40.3743 18.7336 40.5541 18.7367 40.8557 18.9655C41.0109 19.1843 41.0514 19.2884 41.0473 19.5538C41.0483 19.6175 41.0493 19.6812 41.0503 19.7469C40.9722 20.0409 40.8556 20.1421 40.6127 20.3264C40.3302 20.3842 40.0522 20.3805 39.7647 20.3777C39.6415 20.3782 39.6415 20.3782 39.5158 20.3788C39.3424 20.3791 39.169 20.3783 38.9956 20.3767C38.7304 20.3747 38.4654 20.3767 38.2002 20.3792C38.0316 20.3789 37.863 20.3784 37.6943 20.3777C37.6152 20.3785 37.536 20.3792 37.4544 20.38C37.0847 20.374 36.9049 20.3708 36.6034 20.1421C36.4481 19.9233 36.4076 19.8191 36.4117 19.5538C36.4102 19.4582 36.4102 19.4582 36.4087 19.3606C36.5843 18.6996 37.1253 18.7242 37.6943 18.7299Z" fill="white"/>
<path d="M1.28565 18.7299C1.40886 18.7293 1.40886 18.7293 1.53455 18.7287C1.70794 18.7285 1.88133 18.7292 2.05471 18.7308C2.31993 18.7329 2.58488 18.7308 2.85009 18.7284C3.01872 18.7286 3.18735 18.7291 3.35597 18.7299C3.43515 18.7291 3.51433 18.7283 3.59591 18.7275C3.9656 18.7336 4.14542 18.7367 4.44697 18.9655C4.60223 19.1843 4.64275 19.2884 4.63861 19.5538C4.6396 19.6175 4.6406 19.6812 4.64163 19.7469C4.56353 20.0409 4.44692 20.1421 4.20402 20.3264C3.92154 20.3842 3.64352 20.3805 3.35597 20.3777C3.23277 20.3782 3.23277 20.3782 3.10707 20.3788C2.93369 20.3791 2.76029 20.3783 2.58691 20.3767C2.3217 20.3747 2.05674 20.3767 1.79154 20.3792C1.62291 20.3789 1.45428 20.3784 1.28565 20.3777C1.20647 20.3785 1.12729 20.3792 1.04571 20.38C0.676025 20.374 0.496204 20.3708 0.194659 20.1421C0.039398 19.9233 -0.0011283 19.8191 0.00301796 19.5538C0.00152407 19.4582 0.00152407 19.4582 0 19.3606C0.175585 18.6996 0.716639 18.7242 1.28565 18.7299Z" fill="white"/>
<path d="M20.5252 0.190518C20.5889 0.189522 20.6527 0.188526 20.7183 0.1875C21.0123 0.265593 21.1135 0.382205 21.2978 0.625105C21.3556 0.907582 21.3519 1.18561 21.3491 1.47315C21.3494 1.55529 21.3498 1.63743 21.3502 1.72205C21.3505 1.89544 21.3497 2.06883 21.3481 2.24221C21.3461 2.50743 21.3481 2.77239 21.3506 3.03759C21.3503 3.20622 21.3498 3.37485 21.3491 3.54348C21.3499 3.62266 21.3506 3.70184 21.3514 3.78342C21.3454 4.1531 21.3422 4.33292 21.1135 4.63447C20.8947 4.78973 20.7905 4.83026 20.5252 4.82611C20.4296 4.8276 20.4296 4.8276 20.332 4.82913C20.038 4.75103 19.9368 4.63442 19.7526 4.39152C19.6947 4.10905 19.6984 3.83102 19.7013 3.54348C19.7009 3.46134 19.7005 3.3792 19.7001 3.29458C19.6999 3.12119 19.7006 2.94779 19.7022 2.77441C19.7043 2.5092 19.7022 2.24424 19.6998 1.97904C19.7 1.81041 19.7005 1.64178 19.7013 1.47315C19.7005 1.39397 19.6997 1.31479 19.6989 1.23321C19.705 0.863525 19.7081 0.683705 19.9369 0.382159C20.1557 0.226898 20.2598 0.186372 20.5252 0.190518Z" fill="white"/>
</svg>
