<svg width="36" height="49" viewBox="0 0 36 49" fill="none" xmlns="http://www.w3.org/2000/svg">
<path d="M18.8544 0.0104813C18.9947 0.00893799 19.1349 0.00639033 19.2752 0.00276464C20.6925 -0.0335996 21.8591 0.283514 22.936 1.26633C24.3431 2.80816 24.3205 4.66345 24.2529 6.62834C24.1726 7.95052 23.7924 8.99932 22.936 10.0149C22.8277 10.1106 22.7181 10.205 22.6067 10.2971C22.2933 10.6731 22.3251 10.9326 22.3517 11.4076C22.3615 11.5098 22.3615 11.5098 22.3715 11.6141C22.4782 11.6451 22.585 11.6762 22.6949 11.7081C23.4526 11.9935 24.0123 12.5822 24.347 13.3073C24.4616 13.6897 24.4515 14.0639 24.447 14.4597C24.4465 14.5298 24.4461 14.5999 24.4457 14.6721C24.4446 14.8443 24.4429 15.0165 24.4411 15.1887C24.5051 15.214 24.5691 15.2392 24.6351 15.2652C24.9488 15.392 25.2592 15.5251 25.5699 15.6591C26.3805 14.5458 27.1505 13.4052 27.9231 12.2654C28.3273 11.6699 28.7338 11.0761 29.1446 10.4852C29.2073 10.3948 29.2073 10.3948 29.2713 10.3026C29.397 10.122 29.5235 9.94194 29.6502 9.76206C29.6872 9.70892 29.7242 9.65578 29.7623 9.60104C30.3517 8.77074 31.0949 8.11504 32.1067 7.89425C32.8306 7.79855 33.4531 7.86734 34.0598 8.29221C34.5808 8.71881 34.8947 9.17469 35.071 9.82673C35.0934 10.0881 35.1058 10.3359 35.1063 10.5969C35.1086 10.662 35.1109 10.727 35.1133 10.7941C35.1192 11.8771 34.5418 12.7753 33.9951 13.6719C33.9283 13.7826 33.8616 13.8934 33.7949 14.0042C33.6267 14.2832 33.4574 14.5615 33.2876 14.8397C33.1339 15.0921 32.9815 15.3454 32.8288 15.5985C32.7199 15.7775 32.6109 15.9564 32.5017 16.1353C32.4517 16.2181 32.4016 16.3008 32.35 16.3861C32.3034 16.4616 32.2568 16.5371 32.2089 16.6149C32.1687 16.6805 32.1285 16.7461 32.0871 16.8137C31.9667 16.9761 31.9667 16.9761 31.6845 17.1642C31.3376 17.2095 31.1614 17.1858 30.8496 17.0231C30.6232 16.7568 30.5981 16.6016 30.6074 16.2568C30.6942 15.8024 30.9667 15.4311 31.2141 15.0476C31.268 14.9613 31.3218 14.875 31.3773 14.786C31.5096 14.5743 31.6433 14.3638 31.7786 14.154C31.6694 14.1129 31.6694 14.1129 31.5581 14.0709C30.7366 13.7476 30.1368 13.371 29.5209 12.7429C29.4672 12.824 29.4134 12.9052 29.3581 12.9887C28.5297 14.2371 27.691 15.479 26.8222 16.6997C26.7644 16.7812 26.7644 16.7812 26.7054 16.8644C26.2968 17.4346 26.2968 17.4346 25.9227 17.4993C25.4948 17.4943 25.1601 17.3082 24.7894 17.1139C24.7286 17.0827 24.6678 17.0515 24.6052 17.0194C24.4561 16.9429 24.3074 16.8655 24.1589 16.7879C24.0781 17.198 23.9978 17.6082 23.9177 18.0184C23.8904 18.1579 23.8631 18.2974 23.8356 18.4369C23.7961 18.6374 23.757 18.838 23.7179 19.0386C23.6943 19.1593 23.6706 19.28 23.6463 19.4044C23.5864 19.6998 23.5864 19.6998 23.5944 19.9863C23.9356 20.1593 24.2771 20.3317 24.6187 20.5036C24.7349 20.5622 24.8509 20.6208 24.9669 20.6797C25.1339 20.7643 25.3012 20.8484 25.4685 20.9325C25.569 20.9833 25.6695 21.034 25.773 21.0863C26.2172 21.2906 26.5836 21.3457 27.075 21.3033C27.6415 21.0374 27.8876 20.5945 28.2039 20.0804C28.3125 19.908 28.4217 19.7361 28.5314 19.5644C28.6058 19.4478 28.6798 19.3308 28.7534 19.2136C29.1084 18.654 29.1084 18.654 29.3327 18.4812C29.7035 18.434 29.9055 18.4203 30.2146 18.6399C30.386 18.8839 30.4291 19.0333 30.4616 19.3278C30.1315 20.4535 29.0984 21.9908 28.1098 22.6203C27.3289 23.0276 26.4846 22.9935 25.6522 22.7673C24.9709 22.5418 24.3564 22.1992 23.7315 21.8516C23.4399 21.6649 23.4399 21.6649 23.2182 21.6796C23.2022 21.7771 23.1861 21.8746 23.1697 21.975C23.1467 22.1039 23.1237 22.2328 23.1006 22.3616C23.0903 22.4257 23.08 22.4899 23.0693 22.556C22.9925 22.9725 22.8974 23.2067 22.5597 23.4669C22.3304 23.5551 22.3304 23.5551 22.0893 23.561C21.7614 23.4085 21.6337 23.3009 21.4308 22.9966C21.3977 22.1996 21.625 21.3744 21.7787 20.5948C21.8232 20.3693 21.8669 20.1437 21.9104 19.918C22.034 19.2771 22.1588 18.6365 22.2844 17.996C22.3615 17.6021 22.4378 17.2081 22.5134 16.814C22.5422 16.6651 22.5713 16.5163 22.6009 16.3676C22.9321 14.9788 22.9321 14.9788 22.6773 13.6307C22.4788 13.4157 22.3486 13.3314 22.0893 13.2133C22.0602 13.3336 22.0311 13.4538 22.0011 13.5778C21.7407 14.3493 21.1736 14.9235 20.4548 15.2887C20.2173 15.3946 19.9845 15.4827 19.7376 15.565C19.7741 16.0698 19.8107 16.5746 19.8475 17.0793C19.8604 17.2571 19.8733 17.4349 19.8862 17.6127C19.9696 18.7591 20.0543 19.9053 20.1553 21.0503C20.2581 22.2657 20.2607 23.2804 19.5241 24.3099C18.9174 25.0248 18.1815 25.3272 17.2682 25.4306C16.3269 25.4807 15.527 25.2789 14.7739 24.7009C14.3934 24.3403 14.1533 23.9251 13.9052 23.4669C13.8689 23.3999 13.8325 23.3329 13.7951 23.2639C13.5449 22.8009 13.3003 22.3352 13.0586 21.8677C13.0275 21.8677 12.9965 21.8677 12.9645 21.8677C12.8403 23.7614 12.7162 25.655 12.5882 27.606C13.147 27.606 13.7058 27.606 14.2815 27.606C14.5942 28.023 14.6174 28.1396 14.5637 28.6408C14.4773 28.848 14.4773 28.848 14.2815 29.0171C13.9768 29.0646 13.6776 29.0523 13.3702 29.0406C13.2862 29.0389 13.2022 29.0372 13.1157 29.0354C12.9084 29.031 12.7013 29.0248 12.4941 29.0171C13.0653 31.0312 13.9267 32.1897 15.6984 33.3502C15.8144 33.4273 15.9302 33.5046 16.046 33.5819C16.2826 33.7399 16.5195 33.8973 16.7567 34.0544C17.2851 34.4049 17.8086 34.7626 18.3324 35.1199C18.5238 35.2502 18.7153 35.3806 18.9067 35.5109C18.9981 35.5731 19.0894 35.6353 19.1836 35.6994C19.4519 35.8819 19.7206 36.0639 19.9893 36.2458C20.1523 36.3565 20.3153 36.4672 20.4784 36.578C20.5522 36.6278 20.6261 36.6776 20.7022 36.729C20.8035 36.7979 20.8035 36.7979 20.9068 36.8683C20.9653 36.9079 21.0237 36.9474 21.0839 36.9882C21.505 37.3036 21.505 37.3036 21.5851 37.6485C21.6194 37.958 21.598 38.1808 21.5347 38.4841C21.5139 38.5858 21.4932 38.6875 21.4719 38.7922C21.4487 38.9004 21.4256 39.0086 21.4018 39.1201C21.3787 39.232 21.3556 39.344 21.3318 39.4593C21.258 39.8161 21.1827 40.1725 21.1075 40.5289C21.0571 40.7711 21.0068 41.0132 20.9566 41.2554C20.8337 41.8484 20.7089 42.4409 20.5842 43.0336C22.0743 42.987 22.0743 42.987 23.5944 42.9395C23.7983 41.8355 23.7983 41.8355 24.0003 40.7312C24.0823 40.2805 24.1645 39.8297 24.2481 39.3793C24.3155 39.0159 24.3819 38.6524 24.4475 38.2887C24.4727 38.1503 24.4983 38.0119 24.5242 37.8736C24.5605 37.6793 24.5956 37.4847 24.6303 37.2901C24.6506 37.1796 24.6709 37.0691 24.6917 36.9552C24.7405 36.4625 24.6973 36.0221 24.4301 35.5998C24.389 35.5338 24.348 35.4678 24.3057 35.3998C24.2611 35.3307 24.2166 35.2616 24.1706 35.1904C24.1009 35.0795 24.1009 35.0795 24.0298 34.9664C23.886 34.7384 23.7405 34.5116 23.5944 34.285C23.5519 34.2187 23.5093 34.1524 23.4655 34.0841C23.2573 33.76 23.0478 33.4367 22.8375 33.1139C22.5203 32.6263 22.2076 32.1359 21.8953 31.6452C21.8444 31.5653 21.7935 31.4854 21.741 31.4031C21.69 31.3228 21.6389 31.2425 21.5863 31.1597C21.5314 31.0768 21.4765 30.9938 21.42 30.9082C21.2813 30.6799 21.1685 30.4624 21.0568 30.2212C20.7198 29.499 20.7198 29.499 20.109 29.0318C19.5671 28.9169 19.0226 28.9547 18.4735 28.9877C18.2277 28.9958 17.9821 29.0017 17.7362 29.0066C17.5841 29.0103 17.4321 29.0163 17.2802 29.0248C16.771 29.0471 16.771 29.0471 16.5425 28.8902C16.4084 28.6763 16.369 28.5167 16.351 28.2645C16.4391 27.9732 16.5113 27.822 16.7273 27.606C17.0104 27.5829 17.2854 27.5709 17.5688 27.5671C17.6937 27.5643 17.6937 27.5643 17.8211 27.5616C18.0875 27.5559 18.354 27.5516 18.6205 27.5472C18.8009 27.5436 18.9813 27.54 19.1617 27.5362C19.6045 27.5272 20.0473 27.5193 20.4901 27.512C20.5058 27.4216 20.5058 27.4216 20.5217 27.3295C20.5504 27.1635 20.5792 26.9975 20.6081 26.8315C20.6382 26.657 20.6671 26.4823 20.6954 26.3075C20.7693 25.9122 20.8174 25.6842 21.0939 25.3818C21.4325 25.204 21.6322 25.2475 21.9952 25.3483C22.2192 25.4977 22.2657 25.5869 22.3357 25.8463C22.3738 26.117 22.3526 26.3094 22.2984 26.5764C22.2725 26.7097 22.2725 26.7097 22.246 26.8457C22.2179 26.9834 22.2179 26.9834 22.1893 27.1239C21.9222 28.2064 21.9222 28.2064 22.2165 29.232C22.3177 29.3828 22.4204 29.5326 22.5244 29.6814C22.6376 29.8493 22.7506 30.0172 22.8636 30.1852C22.9223 30.2717 22.981 30.3582 23.0416 30.4474C23.326 30.8709 23.5982 31.3021 23.8708 31.7334C23.9801 31.9058 24.0895 32.0783 24.1989 32.2507C24.2537 32.3371 24.3084 32.4234 24.3649 32.5124C24.5417 32.7902 24.7197 33.0673 24.8978 33.3443C24.9572 33.4369 25.0166 33.5294 25.0777 33.6247C25.1908 33.8009 25.3041 33.9769 25.4178 34.1527C26.3592 35.6226 26.3819 36.6107 26.0755 38.2977C26.0502 38.44 26.0249 38.5824 25.9996 38.7247C25.9334 39.0972 25.8664 39.4696 25.7992 39.8419C25.7306 40.2227 25.6628 40.6037 25.5949 40.9846C25.4619 41.7304 25.328 42.4761 25.1936 43.2217C25.2675 43.2351 25.3413 43.2485 25.4173 43.2623C26.1367 43.4182 26.7605 44.1498 27.1691 44.7268C27.5476 45.4827 27.7768 46.3493 27.5325 47.18C27.3244 47.6434 26.9852 48.0206 26.5106 48.2074C26.2771 48.2262 26.0541 48.2351 25.8206 48.2348C25.7517 48.2354 25.6828 48.236 25.6118 48.2367C25.3845 48.2385 25.1572 48.2388 24.9298 48.239C24.7714 48.2396 24.613 48.2403 24.4546 48.2409C24.1226 48.2421 23.7907 48.2424 23.4587 48.2423C23.034 48.2423 22.6093 48.2448 22.1846 48.2481C21.8574 48.2502 21.5303 48.2506 21.2031 48.2505C21.0466 48.2507 20.89 48.2515 20.7335 48.253C20.5142 48.2548 20.295 48.2543 20.0757 48.2531C20.0114 48.2542 19.9472 48.2552 19.881 48.2563C19.4162 48.2503 19.1566 48.1181 18.7969 47.8311C18.3677 47.3556 18.2952 46.9987 18.3017 46.376C18.3557 45.6519 18.5263 44.944 18.6763 44.2348C18.7123 44.0612 18.7481 43.8877 18.7839 43.7141C18.8776 43.2603 18.9726 42.8068 19.0678 42.3533C19.165 41.8893 19.2611 41.4251 19.3572 40.9609C19.5456 40.0523 19.7352 39.1441 19.9257 38.236C19.3481 37.7707 18.7458 37.344 18.1384 36.919C17.9885 36.8129 17.9885 36.8129 17.8356 36.7048C17.7454 36.6435 17.6551 36.5823 17.5622 36.5192C17.4425 36.437 17.4425 36.437 17.3204 36.3531C17.1113 36.2378 17.1113 36.2378 16.9114 36.3094C16.6776 36.4863 16.5149 36.6826 16.3334 36.9131C16.2593 37.0061 16.1852 37.0991 16.1089 37.195C16.0336 37.2901 15.9583 37.3853 15.8807 37.4834C15.7399 37.6562 15.5988 37.8286 15.4574 38.0008C15.244 38.2612 15.031 38.5219 14.8191 38.7835C14.6099 39.0411 14.3987 39.297 14.1874 39.553C14.1245 39.6321 14.0615 39.7113 13.9967 39.7929C13.5838 40.2925 13.209 40.5798 12.5882 40.7759C12.506 40.8035 12.506 40.8035 12.4221 40.8317C11.6541 40.9714 10.9187 40.78 10.1677 40.623C10.0434 40.5976 9.91907 40.5723 9.79472 40.5471C9.46924 40.4809 9.14393 40.4139 8.81867 40.3466C8.29722 40.2389 7.77562 40.1319 7.25385 40.0258C7.07238 39.9887 6.89103 39.9509 6.70969 39.9132C6.59915 39.8906 6.48862 39.868 6.37473 39.8447C6.27778 39.8247 6.18082 39.8046 6.08093 39.784C5.82716 39.743 5.60099 39.7194 5.3448 39.7411C5.19398 39.9221 5.19398 39.9221 5.08611 40.1644C4.59148 41.0575 3.87563 41.5558 2.91771 41.8654C2.61667 41.9226 2.32326 41.9246 2.01706 41.9282C1.89604 41.9307 1.77502 41.9331 1.65034 41.9356C1.03424 41.8813 0.665998 41.6088 0.265005 41.1521C-0.235522 40.37 0.105301 39.0368 0.221644 38.1665C0.237009 38.0493 0.252375 37.9321 0.268205 37.8113C0.300789 37.5658 0.333856 37.3203 0.367389 37.075C0.401463 36.8253 0.434051 36.5755 0.465317 36.3254C0.511239 35.9608 0.560097 35.5968 0.609684 35.2327C0.623232 35.1219 0.636781 35.011 0.650739 34.8968C0.764533 34.1021 0.995397 33.4769 1.6349 32.9622C2.61025 32.6961 3.68462 32.9195 4.66941 33.0592C4.80828 33.0782 4.94717 33.0972 5.08606 33.1161C5.44761 33.1655 5.80902 33.2158 6.1704 33.2664C6.7519 33.3476 7.33362 33.4272 7.91531 33.5071C8.11769 33.535 8.32002 33.5632 8.52234 33.5915C8.64456 33.6085 8.76678 33.6254 8.8927 33.6429C9.05417 33.6654 9.05417 33.6654 9.21891 33.6885C9.4861 33.7263 9.4861 33.7263 9.76611 33.7206C9.99063 33.3185 10.2098 32.9141 10.4247 32.5068C10.4982 32.3691 10.5731 32.232 10.6495 32.0958C11.0566 31.3671 11.3617 30.8179 11.1761 29.9762C11.1144 29.7817 11.0522 29.5874 10.989 29.3934C10.989 29.2692 10.989 29.145 10.989 29.0171C10.934 29.0204 10.8789 29.0236 10.8222 29.027C8.46419 29.1014 5.95309 28.2677 4.21596 26.6653C4.12701 26.5877 4.12701 26.5877 4.03627 26.5084C2.64874 25.2283 1.7685 23.2183 1.66285 21.3523C1.57971 19.0161 2.02834 17.0437 3.09887 14.9771C3.13836 14.9008 3.17785 14.8245 3.21853 14.7459C3.69634 13.8535 3.69634 13.8535 4.21008 13.6895C4.55449 13.6825 4.69858 13.7576 4.96852 13.9658C5.11415 14.2571 5.08694 14.4902 5.06259 14.8125C4.92112 15.1086 4.92112 15.1086 4.72747 15.4122C3.47835 17.4739 2.84866 19.9553 3.42224 22.344C3.99632 24.1525 5.06678 25.5836 6.72536 26.5117C8.08228 27.1782 9.58692 27.4216 11.0831 27.512C11.0821 27.426 11.0812 27.34 11.0802 27.2514C11.0749 26.4084 11.1058 25.5748 11.1654 24.7336C11.1739 24.608 11.1823 24.4824 11.1907 24.3568C11.217 23.9641 11.2441 23.5715 11.2712 23.1788C11.3028 22.7224 11.334 22.2659 11.3645 21.8094C11.3766 21.6298 11.3893 21.4503 11.402 21.2708C11.5746 19.7367 11.5746 19.7367 11.1845 18.2938C11.1268 18.1868 11.0691 18.0799 11.0096 17.9697C10.9179 17.8096 10.9179 17.8096 10.8244 17.6463C10.7647 17.5374 10.7051 17.4285 10.6436 17.3163C10.5288 17.1068 10.4131 16.8977 10.2965 16.6892C9.73677 15.6814 9.46894 14.7514 9.73634 13.5932C10.0434 12.765 10.5736 12.1908 11.3653 11.8022C11.8794 11.5791 12.356 11.5921 12.9057 11.6023C12.9929 11.6032 13.0801 11.604 13.1699 11.6049C13.3837 11.6071 13.5974 11.6102 13.8111 11.6141C13.8073 11.4996 13.8034 11.3851 13.7994 11.2672C13.7982 10.935 13.8488 10.6922 13.9993 10.3912C11.4635 10.3435 9.42613 10.6435 7.39083 12.2667C6.81526 12.7074 6.81526 12.7074 6.42661 12.7312C6.09736 12.6488 6.09736 12.6488 5.85631 12.4548C5.72108 12.1785 5.72108 12.1785 5.68581 11.8728C6.14131 10.6305 7.85375 9.96439 8.97717 9.41664C10.252 8.90391 11.4651 8.83578 12.8234 8.86251C12.9933 8.8644 13.1632 8.86612 13.3331 8.86765C13.7433 8.87174 14.1535 8.8782 14.5637 8.88603C14.5376 8.82248 14.5116 8.75894 14.4847 8.69348C14.4506 8.60956 14.4165 8.52565 14.3814 8.43919C14.3476 8.35625 14.3138 8.2733 14.2789 8.18785C14.1501 7.84649 14.0818 7.54653 14.0767 7.18155C14.0749 7.06841 14.0749 7.06841 14.073 6.95298C14.0723 6.87204 14.0716 6.7911 14.0709 6.70771C14.0702 6.62322 14.0694 6.53874 14.0686 6.45169C14.0673 6.27268 14.0663 6.09366 14.0656 5.91463C14.0645 5.73328 14.0626 5.55194 14.0598 5.37061C14.0359 3.81639 14.1787 2.58573 15.2633 1.3898C15.3429 1.31801 15.4224 1.24622 15.5044 1.17226C15.5493 1.12703 15.5941 1.0818 15.6404 1.0352C16.539 0.177841 17.6688 0.0199923 18.8544 0.0104813ZM16.2345 2.56825C15.5599 3.39551 15.5726 4.27512 15.5655 5.29277C15.564 5.45652 15.5614 5.62026 15.5578 5.78398C15.5215 7.32511 15.5215 7.32511 16.2077 8.6757C16.4368 8.86154 16.6868 8.86939 16.9742 8.91542C17.8292 9.08411 18.371 9.40905 18.8909 10.1089C19.4826 10.3062 20.1482 10.066 20.6959 9.80909C21.2827 9.49277 21.7992 9.11898 22.0893 8.50974C21.9813 8.50916 21.9813 8.50916 21.8711 8.50857C21.54 8.50545 21.2092 8.4988 20.8782 8.49211C20.7649 8.49156 20.6516 8.49102 20.535 8.49045C19.6983 8.46999 18.9951 8.34848 18.3967 7.72411C18.3561 7.65354 18.3154 7.58296 18.2736 7.51025C18.2308 7.43919 18.188 7.36813 18.1439 7.29491C17.828 6.67246 17.8444 5.88728 18.0256 5.22353C18.2929 4.61986 18.684 4.29035 19.2672 3.99437C19.5941 3.8854 19.8949 3.87885 20.2355 3.87053C20.3019 3.86858 20.3683 3.86662 20.4367 3.86461C20.6485 3.85847 20.8604 3.85292 21.0722 3.84738C21.2159 3.84332 21.3597 3.83922 21.5034 3.83507C21.8555 3.82501 22.2076 3.81548 22.5597 3.80623C22.4372 2.9877 21.9695 2.4925 21.3437 1.96928C19.8645 0.919076 17.4392 1.30203 16.2345 2.56825ZM19.5494 5.49949C19.3188 5.84537 19.2837 6.13251 19.3613 6.53427C19.6144 6.86469 19.8015 7.02926 20.2079 7.09869C20.3984 7.1063 20.5891 7.10881 20.7797 7.10788C20.9434 7.10742 20.9434 7.10742 21.1104 7.10696C21.2239 7.10617 21.3374 7.10538 21.4543 7.10457C21.5693 7.10415 21.6843 7.10372 21.8027 7.10328C22.0864 7.10217 22.3701 7.10063 22.6537 7.09869C22.7423 6.6928 22.7588 6.30747 22.7537 5.89341C22.7533 5.82824 22.7528 5.76306 22.7524 5.6959C22.7513 5.53636 22.7496 5.37682 22.7478 5.21728C22.3382 5.20905 21.9287 5.20406 21.519 5.19965C21.4034 5.19728 21.2878 5.19492 21.1686 5.19248C20.3187 5.18326 20.3187 5.18326 19.5494 5.49949ZM31.7786 9.63859C31.1878 10.1108 30.8112 10.5775 30.7026 11.3377C30.7584 11.712 30.8714 11.8926 31.1201 12.1785C31.4632 12.4197 31.7914 12.5388 32.2019 12.6194C32.6903 12.5235 32.9661 12.2711 33.2837 11.8963C33.6211 11.361 33.6485 10.7239 33.5659 10.1089C33.3907 9.70941 33.2758 9.58595 32.8839 9.39753C32.4334 9.34498 32.1651 9.40493 31.7786 9.63859ZM15.5985 10.6734C15.3089 11.0546 15.2819 11.3384 15.2854 11.8114C15.2856 11.9095 15.2856 11.9095 15.2858 12.0095C15.2868 12.2246 15.2897 12.4396 15.2927 12.6547C15.2937 12.8048 15.2946 12.9548 15.2954 13.1049C15.3012 13.9005 15.3193 14.6956 15.3449 15.4908C15.3474 15.568 15.3498 15.6453 15.3523 15.7249C15.3643 16.0977 15.3776 16.4703 15.3933 16.8429C15.3983 16.9783 15.4032 17.1137 15.4081 17.2491C15.413 17.367 15.418 17.4848 15.423 17.6062C15.4096 17.9339 15.3695 18.2399 15.1281 18.4812C14.9403 18.497 14.9403 18.497 14.7107 18.4988C14.6351 18.5002 14.5596 18.5015 14.4817 18.5029C14.2815 18.4812 14.2815 18.4812 14.0933 18.2931C13.9836 17.9043 13.9807 17.5107 13.9728 17.1095C13.9702 17.0062 13.9702 17.0062 13.9676 16.9008C13.9621 16.681 13.9571 16.4611 13.9522 16.2411C13.9279 15.167 13.8865 14.097 13.8111 13.0251C12.6121 12.9871 12.6121 12.9871 11.5534 13.4955C11.2183 13.9393 11.1246 14.2715 11.1354 14.8238C11.2189 15.3651 11.5022 15.8206 11.7651 16.2941C11.826 16.407 11.8867 16.52 11.9472 16.6332C12.1273 16.9682 12.3106 17.3014 12.4941 17.6346C12.5885 17.8078 12.6827 17.9811 12.7767 18.1545C12.9088 18.3976 13.0412 18.6404 13.1746 18.8826C13.4653 19.4106 13.7491 19.9417 14.029 20.4754C14.1007 20.6116 14.1723 20.7478 14.2439 20.884C14.3499 21.0856 14.4557 21.2874 14.5608 21.4896C15.2228 22.8722 15.2228 22.8722 16.351 23.8432C16.9477 23.9899 17.3978 23.9276 17.9502 23.6551C18.3426 23.348 18.5631 23.002 18.7028 22.5262C18.7264 22.2569 18.7069 21.9969 18.6834 21.728C18.678 21.6508 18.6726 21.5736 18.667 21.4941C18.6551 21.328 18.6425 21.162 18.6292 20.9961C18.6087 20.7392 18.5904 20.4824 18.5726 20.2254C18.4894 19.0385 18.3942 17.8525 18.3008 16.6665C18.2666 16.2322 18.2334 15.7978 18.2009 15.3634C18.1613 14.8343 18.1202 14.3053 18.078 13.7763C18.0623 13.5761 18.0471 13.3759 18.0324 13.1756C18.0119 12.8962 17.9894 12.6171 17.9665 12.3379C17.9609 12.2563 17.9554 12.1748 17.9497 12.0907C17.8962 11.4792 17.7296 10.9601 17.3211 10.4911C16.6679 10.191 16.1639 10.2436 15.5985 10.6734ZM19.9081 11.52C19.8058 11.5375 19.7036 11.5549 19.5983 11.5729C19.5201 11.5865 19.4419 11.6001 19.3613 11.6141C19.3744 11.9355 19.3883 12.2569 19.4024 12.5783C19.4061 12.6694 19.4098 12.7604 19.4136 12.8543C19.4176 12.9422 19.4215 13.0301 19.4256 13.1207C19.429 13.2015 19.4325 13.2822 19.436 13.3655C19.4541 13.5754 19.4919 13.7636 19.5494 13.9658C20.0401 13.8359 20.3204 13.5376 20.5842 13.1192C20.7958 12.5687 20.7908 12.0081 20.7723 11.4259C20.4727 11.4259 20.2032 11.4692 19.9081 11.52ZM12.1179 32.4036C12.0804 32.4819 12.043 32.5602 12.0044 32.6409C11.8644 32.9323 11.7231 33.2231 11.581 33.5135C11.5199 33.639 11.4592 33.7649 11.399 33.8909C11.3122 34.0725 11.2238 34.2532 11.1349 34.4338C11.0822 34.5427 11.0295 34.6516 10.9752 34.7637C10.7835 35.0649 10.6589 35.1842 10.3305 35.3198C10.0836 35.3289 10.0836 35.3289 9.81976 35.2922C9.67356 35.2732 9.67356 35.2732 9.52441 35.2538C9.42179 35.2387 9.31917 35.2236 9.21344 35.2081C9.1084 35.194 9.00336 35.18 8.89513 35.1655C8.58944 35.1244 8.28411 35.0812 7.97877 35.0376C7.70447 34.9998 7.43007 34.9628 7.15566 34.9259C7.05137 34.911 6.94708 34.896 6.83964 34.8807C6.58911 34.8519 6.34922 34.8434 6.09736 34.8494C5.94716 35.4836 5.84172 36.1144 5.75636 36.7602C5.74375 36.852 5.73114 36.9437 5.71814 37.0382C5.66788 37.4119 5.62701 37.764 5.62701 38.1419C6.40035 38.3043 7.17392 38.4654 7.94782 38.6251C8.30721 38.6993 8.6665 38.7739 9.0256 38.8494C9.37247 38.9224 9.71954 38.9942 10.0668 39.0653C10.1989 39.0926 10.331 39.1202 10.4629 39.1483C10.6484 39.1876 10.8343 39.2255 11.0201 39.2632C11.1256 39.2852 11.2311 39.3071 11.3398 39.3297C11.8159 39.384 12.1795 39.3542 12.5823 39.0885C12.9778 38.7233 13.2933 38.283 13.623 37.8597C13.7616 37.6888 13.9008 37.5183 14.0404 37.3482C14.1105 37.2626 14.1806 37.177 14.2528 37.0888C14.4009 36.9086 14.5493 36.7288 14.6982 36.5493C14.7722 36.4598 14.8461 36.3703 14.9223 36.2781C14.9889 36.198 15.0555 36.1178 15.1241 36.0352C15.3295 35.7732 15.5112 35.5048 15.6925 35.2257C15.5428 35.1158 15.393 35.0059 15.2433 34.896C15.1148 34.8017 14.9863 34.7073 14.8579 34.6129C14.5644 34.3974 14.2706 34.1824 13.9739 33.9712C13.4222 33.5772 12.951 33.1849 12.5235 32.6564C12.4518 32.573 12.38 32.4896 12.306 32.4036C12.2439 32.4036 12.1818 32.4036 12.1179 32.4036ZM2.33455 34.3791C2.12931 35.681 1.93133 36.9839 1.74661 38.2889C1.73015 38.4022 1.71369 38.5156 1.69673 38.6323C1.61358 39.2281 1.56401 39.7981 1.58199 40.3996C2.23271 40.4476 2.73777 40.4178 3.27525 40.0233C3.91246 39.4258 4.05763 38.8153 4.17297 37.9736C4.19169 37.8409 4.19169 37.8409 4.2108 37.7056C4.23694 37.5192 4.26277 37.3327 4.28833 37.1463C4.32764 36.8604 4.36828 36.5748 4.40906 36.2892C4.43431 36.1079 4.45949 35.9266 4.48457 35.7453C4.49681 35.6598 4.50906 35.5742 4.52167 35.4861C4.53237 35.4066 4.54307 35.3272 4.55409 35.2453C4.56376 35.1755 4.57343 35.1057 4.58339 35.0338C4.60434 34.8291 4.60434 34.8291 4.49817 34.5672C4.27875 34.5352 4.05926 34.504 3.83968 34.4732C3.71744 34.4557 3.59521 34.4382 3.46927 34.4202C3.08902 34.3726 2.71748 34.3722 2.33455 34.3791ZM20.2079 44.4446C20.1444 44.7325 20.082 45.0207 20.0198 45.3089C19.9929 45.4308 19.9929 45.4308 19.9654 45.5553C19.9484 45.6344 19.9314 45.7135 19.9139 45.795C19.8982 45.8675 19.8824 45.9399 19.8662 46.0145C19.8292 46.2471 19.8258 46.4672 19.8316 46.7023C20.087 46.83 20.2876 46.8083 20.5735 46.8085C20.7478 46.809 20.7478 46.809 20.9255 46.8094C21.0528 46.8093 21.1801 46.8091 21.3074 46.8089C21.4374 46.8089 21.5674 46.809 21.6975 46.8091C21.9702 46.8093 22.2428 46.8091 22.5155 46.8086C22.8654 46.8081 23.2152 46.8084 23.5651 46.809C23.8337 46.8093 24.1022 46.8092 24.3708 46.809C24.4998 46.8089 24.6288 46.809 24.7579 46.8092C24.938 46.8094 25.1182 46.809 25.2984 46.8085C25.401 46.8085 25.5036 46.8084 25.6094 46.8083C25.8509 46.8128 25.8509 46.8128 26.0403 46.7023C26.0976 46.0606 25.9792 45.6962 25.5699 45.1972C24.9971 44.6185 24.4499 44.4433 23.6467 44.4339C23.4864 44.4339 23.3262 44.4345 23.166 44.4354C23.0812 44.4356 22.9964 44.4357 22.909 44.4358C22.6397 44.4364 22.3704 44.4375 22.1011 44.4387C21.9178 44.4392 21.7346 44.4396 21.5514 44.44C21.1035 44.4411 20.6557 44.4427 20.2079 44.4446Z" fill="white"/>
</svg>
