<svg width="55" height="55" viewBox="0 0 55 55" fill="none" xmlns="http://www.w3.org/2000/svg">
<path d="M39.2378 24.1488C39.3376 24.2335 39.4373 24.3181 39.54 24.4054C40.2339 25.0009 40.8023 25.6546 41.3618 26.3752C41.4842 26.5259 41.4842 26.5259 41.609 26.6796C43.5023 29.0743 44.7349 32.1376 45.0508 35.1694C45.0631 35.2781 45.0753 35.3869 45.088 35.499C45.5524 40.1981 44.1428 44.8377 41.1474 48.4833C38.0941 52.13 34.0291 54.4524 29.2436 54.9324C24.3262 55.3481 19.6094 53.8359 15.8308 50.6831C12.2388 47.4484 10.1743 42.9484 9.83742 38.175C9.63517 33.7534 11.0663 29.2028 14.0505 25.8882C14.133 25.8002 14.2156 25.7122 14.3007 25.6216C14.513 25.3943 14.7112 25.1602 14.9098 24.9211C15.3943 24.3687 15.9654 23.9301 16.5447 23.4809C16.6459 23.3994 16.7471 23.3179 16.8513 23.2339C23.3626 18.133 33.1605 18.6695 39.2378 24.1488ZM23.9228 21.9224C23.8093 21.9502 23.8093 21.9502 23.6934 21.9785C19.5242 23.015 16.0087 25.7048 13.7912 29.3535C11.8379 32.7148 11.0715 37.0619 12.0732 40.8466C12.0954 40.934 12.1176 41.0214 12.1405 41.1114C12.4866 42.4457 12.9636 43.6521 13.6382 44.8541C13.708 44.9794 13.7777 45.1046 13.8496 45.2337C14.1953 45.8376 14.5609 46.4131 14.9797 46.9691C15.2422 46.8705 15.2422 46.8705 15.3238 46.5247C15.3678 46.3808 15.4115 46.2367 15.4548 46.0925C16.0019 44.3872 17.0086 42.8373 18.6351 41.9698C20.4749 41.0518 22.3362 40.7693 24.3699 40.624C24.4253 40.2934 24.4253 40.2934 24.4817 39.9561C24.4033 39.8954 24.3249 39.8347 24.2442 39.7721C21.9759 37.9768 20.9906 35.7937 20.5416 32.9995C20.4674 32.5416 20.3755 32.0883 20.2806 31.6342C19.911 29.8624 19.6592 28.3273 20.6809 26.7091C20.7422 26.6483 20.8034 26.5875 20.8665 26.5248C21.0426 26.3841 21.0426 26.3841 21.0163 26.1525C21.0785 26.1236 21.1408 26.0946 21.2049 26.0647C21.4937 25.9141 21.753 25.737 22.0224 25.5542C23.9786 24.3148 26.5546 24.2613 28.7847 24.678C29.5302 24.8565 30.1044 25.089 30.7153 25.5473C31.0128 25.7376 31.298 25.8283 31.6362 25.9299C32.7345 26.268 33.5525 26.8705 34.137 27.8589C34.7336 29.0364 35.0725 30.5284 34.7663 31.8298C34.6651 32.0979 34.5509 32.3576 34.4344 32.6195C34.291 33.022 34.2291 33.427 34.1654 33.8475C33.7944 36.1947 32.6185 38.2485 30.7419 39.7334C30.6681 39.7702 30.5943 39.8069 30.5183 39.8447C30.5552 40.1019 30.5921 40.359 30.6301 40.624C30.7088 40.6346 30.7875 40.6451 30.8685 40.656C33.7269 41.0474 36.5817 41.5455 38.4693 43.9296C39.1162 44.882 39.5118 45.9711 39.7968 47.0805C41.907 45.0953 43.1408 41.4142 43.2802 38.5892C43.3204 36.1356 43.3204 36.1356 42.9269 33.7222C42.9083 33.6468 42.8897 33.5715 42.8705 33.4938C41.8297 29.3422 39.1285 25.8414 35.4645 23.6333C32.0712 21.6779 27.7423 20.95 23.9228 21.9224ZM22.1691 27.7001C21.5884 28.4772 21.6049 29.2494 21.7372 30.1787C21.7907 30.4705 21.8475 30.7607 21.9106 31.0506C22.334 30.8553 22.674 30.5948 23.0394 30.3092C23.5473 29.953 24.1116 29.9708 24.7053 30.0487C25.446 30.2507 26.1994 30.514 26.8865 30.8566C27.6353 31.079 28.3414 30.7411 29.0162 30.4383C29.8949 30.0461 30.6171 29.8212 31.5646 30.1265C32.0369 30.3582 32.3877 30.7016 32.7615 31.0658C32.9411 31.2861 32.9411 31.2861 33.0895 31.2732C33.1591 30.2509 32.9059 29.3491 32.4467 28.4346C31.9215 27.8535 31.3864 27.6033 30.6231 27.4397C30.1717 27.3415 29.8966 27.2573 29.5681 26.9318C28.8744 26.2473 27.7299 26.2222 26.8031 26.2117C26.6293 26.2134 26.6293 26.2134 26.452 26.2152C26.269 26.2166 26.269 26.2166 26.0823 26.218C24.5931 26.249 23.2031 26.5394 22.1691 27.7001ZM24.1464 31.7185C23.8901 31.955 23.634 32.1915 23.3778 32.4281C23.305 32.4953 23.2323 32.5625 23.1573 32.6316C23.0874 32.6962 23.0175 32.7608 22.9455 32.8273C22.8811 32.8868 22.8167 32.9462 22.7504 33.0075C22.6172 33.1321 22.4869 33.2596 22.3577 33.3883C22.6409 35.3292 23.6286 36.9389 25.1088 38.2011C25.4377 38.4429 25.781 38.5784 26.1586 38.7316C26.2692 38.805 26.3799 38.8785 26.4939 38.9542C27.7875 39.1265 28.757 38.915 29.8476 38.175C31.199 37.1058 32.023 35.5988 32.4187 33.9449C32.461 33.5545 32.4803 33.3657 32.2545 33.0404C32.1796 32.9715 32.1047 32.9026 32.0275 32.8317C31.9185 32.7284 31.9185 32.7284 31.8074 32.6229C31.714 32.5449 31.6206 32.4668 31.5244 32.3864C31.4617 32.3235 31.399 32.2607 31.3344 32.1959C31.1048 31.9872 30.9164 31.8408 30.6301 31.7185C30.202 31.7625 29.8489 31.9315 29.4633 32.1151C27.7566 32.8793 26.6799 32.6767 24.9568 32.0316C24.6862 31.9284 24.4162 31.8238 24.1464 31.7185ZM26.2703 40.7353C25.907 41.7019 26.0942 42.6887 26.4939 43.6296C26.7276 43.962 26.873 44.1402 27.2721 44.2423C27.5425 44.2759 27.5425 44.2759 27.9472 44.1862C28.5231 43.6282 28.6982 42.6923 28.7463 41.9137C28.744 41.7064 28.7371 41.4991 28.7297 41.2919C28.7642 41.1428 28.8001 40.9939 28.8415 40.8466C28.7279 40.7087 28.7279 40.7087 28.4912 40.7227C28.3376 40.7235 28.3376 40.7235 28.1808 40.7244C28.0149 40.725 28.0149 40.725 27.8457 40.7255C27.6711 40.7269 27.6711 40.7269 27.493 40.7283C27.3178 40.7291 27.3178 40.7291 27.1391 40.7299C26.8495 40.7312 26.5599 40.733 26.2703 40.7353ZM18.3334 44.4088C17.3387 45.5585 16.6119 47.212 16.6565 48.7502C16.926 49.2332 17.3105 49.4637 17.7744 49.7521C17.9037 49.8432 18.0323 49.9351 18.1604 50.0278C21.6441 52.5023 26.0052 53.5543 30.2458 52.8621C32.9672 52.3552 36.1828 51.0255 38.1199 48.9729C38.47 48.0343 37.8997 46.5903 37.5051 45.7203C36.6783 44.1936 35.3909 43.4306 33.7744 42.9187C32.7889 42.6355 31.7615 42.4957 30.7419 42.4051C30.7229 42.4632 30.7039 42.5213 30.6843 42.5812C30.6264 42.7562 30.5676 42.931 30.5083 43.1056C30.4395 43.3093 30.3729 43.5137 30.3083 43.7187C29.9975 44.6549 29.6372 45.2475 28.7576 45.7307C27.8636 46.1352 26.9748 46.1836 26.0468 45.856C25.29 45.457 24.7586 44.88 24.4931 44.0683C24.436 43.8693 24.381 43.6697 24.328 43.4696C24.2991 43.3669 24.2701 43.2642 24.2403 43.1584C24.1698 42.9078 24.1013 42.6567 24.0346 42.4051C22.0356 42.3354 19.7611 42.9819 18.3334 44.4088Z" fill="white"/>
<path d="M28.059 0.103967C28.6245 0.752195 28.9658 1.65813 29.3445 2.42079C29.4377 2.60644 29.4377 2.60644 29.5327 2.79584C29.594 2.91845 29.6552 3.04107 29.7183 3.1674C29.8096 3.34781 29.8096 3.34781 29.9028 3.53185C30.0712 3.8888 30.0712 3.8888 30.1958 4.24358C30.406 4.85879 30.406 4.85879 30.8976 5.24498C31.2388 5.32446 31.5664 5.36328 31.9157 5.3916C32.0388 5.40638 32.1619 5.42115 32.2887 5.43637C32.5425 5.4666 32.7965 5.49456 33.0508 5.52026C33.5128 5.5676 33.9724 5.62681 34.4324 5.69034C34.6315 5.71778 34.8307 5.74353 35.0302 5.7673C35.5358 5.83271 35.9182 5.90538 36.3313 6.22649C36.5549 6.56045 36.5549 6.56045 36.5619 6.91528C36.3252 7.761 35.573 8.31888 34.9444 8.90336C34.7473 9.08892 34.5504 9.27471 34.3536 9.46061C34.2184 9.58699 34.082 9.71215 33.9445 9.83609C33.1344 10.5296 33.1344 10.5296 32.682 11.4549C32.7067 11.8067 32.7766 12.1192 32.8659 12.4603C32.9118 12.7353 32.9561 13.0106 32.9991 13.2861C33.0625 13.6479 33.1267 14.0095 33.1921 14.3709C33.5877 16.5681 33.5877 16.5681 33.1873 17.1427C32.8011 17.4018 32.6529 17.4025 32.1951 17.3584C31.8409 17.2157 31.8409 17.2157 31.4637 17.0166C31.3956 16.9811 31.3275 16.9456 31.2574 16.9091C31.0406 16.7957 30.8249 16.6805 30.6091 16.5652C30.4665 16.4903 30.3238 16.4155 30.181 16.3408C29.0782 15.7619 29.0782 15.7619 28.5993 15.4808C28.4397 15.3878 28.4397 15.3878 28.2769 15.2929C28.1855 15.2375 28.094 15.1821 27.9999 15.1251C27.5126 14.9409 27.1573 15.0861 26.6951 15.2891C26.5692 15.3549 26.4433 15.4207 26.3136 15.4886C26.2449 15.5241 26.1763 15.5597 26.1056 15.5964C25.8876 15.7097 25.6702 15.8244 25.4529 15.939C25.3083 16.0144 25.1637 16.0896 25.0191 16.1647C24.3403 16.5184 23.6651 16.8765 23.0027 17.2601C22.6875 17.4166 22.4758 17.4357 22.1342 17.3584C21.8128 17.1427 21.8128 17.1427 21.5752 16.8018C21.4894 16.1421 21.6074 15.4702 21.7219 14.8206C21.7368 14.732 21.7517 14.6433 21.7671 14.5519C21.8141 14.272 21.8623 13.9923 21.9106 13.7127C21.9588 13.4314 22.0067 13.1501 22.0541 12.8687C22.0835 12.6945 22.1133 12.5204 22.1437 12.3464C22.3101 11.6098 22.3101 11.6098 22.1116 10.9253C22.0488 10.8646 21.9859 10.8039 21.9211 10.7414C21.8502 10.6716 21.7793 10.6017 21.7063 10.5298C21.6287 10.4561 21.5512 10.3825 21.4713 10.3066C21.3924 10.2294 21.3135 10.1521 21.2323 10.0726C20.9799 9.82585 20.7257 9.58108 20.4713 9.33646C20.218 9.09117 19.965 8.84548 19.7127 8.59915C19.5556 8.44596 19.3979 8.29342 19.2395 8.1416C19.1678 8.07211 19.0962 8.00263 19.0225 7.93103C18.9594 7.87042 18.8964 7.80981 18.8314 7.74735C18.5233 7.39699 18.4412 7.19087 18.4661 6.72047C18.5587 6.3305 18.5868 6.23754 18.8923 6.00386C19.1443 5.93214 19.1443 5.93214 19.4421 5.88949C19.5533 5.87311 19.6645 5.85672 19.7791 5.83984C19.8992 5.82279 20.0192 5.80574 20.1429 5.78818C20.3296 5.75582 20.3296 5.75582 20.5201 5.72282C21.1578 5.61557 21.7437 5.54884 22.3901 5.59163C23.1486 5.61149 23.7531 5.59259 24.3699 5.11331C25.2404 4.00021 25.7729 2.58381 26.2953 1.28412C26.6511 0.400287 26.6511 0.400287 26.9411 0.103967C27.3821 -0.0424255 27.6114 -0.0266617 28.059 0.103967ZM27.3882 3.10957C27.3426 3.20503 27.2969 3.30049 27.2499 3.39885C27.0796 3.75421 26.909 4.10936 26.738 4.46437C26.6642 4.61782 26.5906 4.77135 26.5171 4.92497C26.4113 5.14625 26.3049 5.36723 26.1983 5.58815C26.1658 5.65647 26.1333 5.72478 26.0998 5.79517C25.9264 6.15287 25.7564 6.48735 25.4878 6.78309C25.1463 6.88788 25.1463 6.88788 24.7193 6.95702C24.6428 6.96984 24.5664 6.98266 24.4876 6.99586C24.2252 7.03885 23.9623 7.0783 23.6992 7.11704C23.5439 7.14013 23.5439 7.14013 23.3856 7.16368C22.7081 7.26359 22.0302 7.35905 21.3516 7.451C21.8871 8.09447 22.4655 8.68103 23.0634 9.26689C23.2449 9.44477 23.4261 9.62289 23.6071 9.8013C23.6865 9.87912 23.766 9.95694 23.8478 10.0371C24.1829 10.3903 24.1696 10.6768 24.1643 11.1538C24.13 11.7372 24.023 12.3096 23.9228 12.8847C23.8805 13.1312 23.8386 13.3778 23.797 13.6244C23.7783 13.7323 23.7596 13.8402 23.7402 13.9513C23.6888 14.2661 23.6888 14.2661 23.6992 14.6867C24.172 14.542 24.5895 14.3617 25.0232 14.1258C25.1441 14.0612 25.265 13.9966 25.3896 13.9301C25.6418 13.7942 25.8936 13.6577 26.145 13.5205C26.2659 13.4562 26.3868 13.3919 26.5114 13.3257C26.6207 13.2665 26.73 13.2072 26.8426 13.1462C27.2941 12.9649 27.6406 12.9484 28.1008 13.1103C28.1845 13.1534 28.2683 13.1965 28.3546 13.2409C28.4488 13.2886 28.5429 13.3363 28.64 13.3855C28.7847 13.4613 28.7847 13.4613 28.9323 13.5387C29.0275 13.5872 29.1227 13.6356 29.2207 13.6855C29.7804 13.972 30.3305 14.2723 30.8754 14.5858C31.0729 14.7034 31.0729 14.7034 31.3008 14.6867C31.2685 14.42 31.2359 14.1533 31.203 13.8866C31.1931 13.806 31.1832 13.7253 31.1729 13.6422C31.1096 13.1372 31.0351 12.6355 30.9515 12.1333C30.9178 11.9085 30.8851 11.6836 30.8537 11.4585C30.84 11.3658 30.8263 11.2731 30.8122 11.1776C30.7817 10.8149 30.7825 10.5599 30.9939 10.2532C31.0563 10.1854 31.1187 10.1177 31.1829 10.0479C31.2893 9.93209 31.2893 9.93209 31.3979 9.81399C31.8214 9.37341 32.2546 8.94321 32.6912 8.51548C32.873 8.33731 33.0545 8.15889 33.2357 7.9802C33.315 7.9025 33.3944 7.82481 33.4761 7.74476C33.6612 7.59054 33.6612 7.59054 33.6484 7.451C33.5362 7.43589 33.424 7.42078 33.3084 7.40521C32.8905 7.34859 32.4728 7.29031 32.0552 7.23154C31.8747 7.20638 31.6942 7.18166 31.5136 7.1574C31.2534 7.12237 30.9935 7.08573 30.7336 7.04877C30.6533 7.03832 30.5731 7.02787 30.4904 7.0171C30.0175 6.94797 29.6594 6.86626 29.2886 6.56045C29.127 6.29667 28.995 6.05187 28.8672 5.77296C28.8308 5.69683 28.7944 5.62071 28.7569 5.54228C28.6415 5.30026 28.5284 5.05725 28.4153 4.81414C28.3372 4.64934 28.259 4.4846 28.1806 4.31994C27.9893 3.91727 27.8 3.51369 27.6118 3.10957C27.538 3.10957 27.4642 3.10957 27.3882 3.10957Z" fill="white"/>
<path d="M12.6531 5.85085C13.0826 6.05995 13.2509 6.20658 13.4282 6.65484C13.4688 6.78084 13.5095 6.90684 13.5513 7.03666C14.0359 8.54679 14.0359 8.54679 15.0925 9.64107C15.8291 9.86115 16.5667 9.89003 17.3316 9.89091C17.9144 9.90704 18.4648 9.98898 18.9552 10.3106C19.1962 10.6967 19.1984 10.8988 19.1159 11.3472C18.6677 12.0882 17.8803 12.6701 17.2427 13.2481C17.1367 13.3447 17.1367 13.3447 17.0286 13.4431C16.9333 13.5291 16.9333 13.5291 16.8361 13.6167C16.5476 13.9046 16.5476 13.9046 16.3211 14.2415C16.328 14.5854 16.328 14.5854 16.4146 14.9599C16.4414 15.1 16.4682 15.2402 16.4958 15.3847C16.5259 15.5324 16.5562 15.6801 16.5866 15.8278C16.9484 17.61 16.9484 17.61 16.7683 18.3603C16.528 18.6548 16.3718 18.6862 15.998 18.7456C15.3255 18.7354 14.7487 18.3081 14.1832 17.9846C13.9455 17.8513 13.7076 17.7182 13.4697 17.5854C13.3652 17.5259 13.2607 17.4665 13.153 17.4052C13.0549 17.353 12.9568 17.3009 12.8557 17.2471C12.7661 17.1963 12.6764 17.1455 12.5841 17.0932C12.1513 16.9897 11.9396 17.1562 11.5566 17.368C11.487 17.4054 11.4174 17.4427 11.3458 17.4813C11.1237 17.6008 10.9032 17.7228 10.6828 17.8454C10.4627 17.967 10.2424 18.088 10.021 18.2072C9.81979 18.3158 9.61973 18.4266 9.41975 18.5374C9.03424 18.7031 8.79862 18.7443 8.38415 18.6942C8.06275 18.4716 8.06275 18.4716 7.8252 18.1377C7.76918 17.3888 7.90856 16.687 8.04878 15.953C8.27353 14.9892 8.27353 14.9892 8.27236 14.0189C8.02619 13.7171 8.02619 13.7171 7.68547 13.4484C7.56284 13.3424 7.44043 13.2361 7.31822 13.1296C7.22287 13.0477 7.22287 13.0477 7.1256 12.9641C6.80247 12.6824 6.49147 12.3894 6.18331 12.0917C6.12556 12.0383 6.06781 11.985 6.00831 11.9301C5.63786 11.57 5.49492 11.3076 5.47764 10.7906C5.6111 10.4829 5.71936 10.2969 5.99977 10.1087C6.35634 9.97545 6.67142 9.98771 7.05185 9.9853C8.69483 9.97201 8.69483 9.97201 10.1228 9.29419C10.7865 8.48208 11.1378 7.43627 11.4545 6.45088C11.7208 5.92968 12.0753 5.73805 12.6531 5.85085ZM12.2967 8.8982C12.2495 8.99256 12.2495 8.99256 12.2012 9.08883C12.0574 9.37386 11.9116 9.65783 11.7658 9.94182C11.7162 10.0408 11.6666 10.1398 11.6155 10.2419C11.5665 10.3366 11.5175 10.4313 11.4671 10.5288C11.4226 10.6163 11.3781 10.7037 11.3322 10.7938C11.1008 11.1249 10.8635 11.2071 10.4757 11.2918C10.3844 11.3047 10.2931 11.3175 10.199 11.3307C10.0995 11.345 10.0001 11.3594 9.89766 11.3742C9.79477 11.3882 9.69188 11.4023 9.58587 11.4168C9.48126 11.4317 9.37664 11.4466 9.26885 11.462C9.0113 11.4986 8.75367 11.5346 8.49593 11.5699C8.87621 12.0277 9.25988 12.4391 9.71164 12.8291C10.0565 13.172 10.2407 13.3802 10.2496 13.8728C10.2305 14.0706 10.204 14.2678 10.1728 14.4641C10.155 14.6018 10.1373 14.7394 10.1191 14.8811C10.0677 15.2627 10.0108 15.6426 9.94919 16.0226C10.542 15.8453 11.0661 15.5785 11.6024 15.2771C11.9187 15.1102 12.1508 15.0203 12.5107 15.0251C12.9649 15.1659 13.3713 15.365 13.7919 15.5843C13.8742 15.6263 13.9565 15.6682 14.0413 15.7115C14.2427 15.8144 14.4436 15.9184 14.6443 16.0226C14.6281 15.8231 14.6118 15.6237 14.5954 15.4243C14.5859 15.3026 14.5764 15.1809 14.5666 15.0555C14.5455 14.8276 14.5192 14.6 14.4845 14.3737C14.4704 14.2796 14.4562 14.1854 14.4417 14.0884C14.4271 14.0049 14.4126 13.9214 14.3976 13.8354C14.4582 13.1501 15.0766 12.6841 15.5666 12.2586C15.7831 12.0683 15.997 11.8763 16.2093 11.6812C16.2093 11.6444 16.2093 11.6077 16.2093 11.5699C16.1445 11.5615 16.0797 11.5531 16.013 11.5445C15.7173 11.5056 15.4218 11.4647 15.1264 11.4237C15.0244 11.4106 14.9225 11.3975 14.8174 11.384C13.7923 11.2392 13.7923 11.2392 13.4146 10.9019C13.2306 10.6147 13.0877 10.3144 12.9465 10.0044C12.8708 9.84293 12.7947 9.6816 12.7181 9.52046C12.6854 9.44913 12.6527 9.3778 12.6189 9.30432C12.5201 9.0991 12.5201 9.0991 12.2967 8.8982Z" fill="white"/>
<path d="M43.374 6.11513C43.5582 6.45077 43.5582 6.45077 43.6875 6.8587C43.7412 7.00753 43.796 7.15598 43.8518 7.30406C43.8805 7.38065 43.9093 7.45725 43.939 7.53616C44.3822 8.71404 44.3822 8.71404 45.2555 9.57145C46.2273 9.95783 47.3308 9.97297 48.3643 9.97527C48.7705 10.0142 48.9745 10.1046 49.2988 10.3452C49.5106 10.6233 49.5247 10.7556 49.5011 11.1059C49.392 11.5307 49.2397 11.6946 48.9263 11.9989C48.8278 12.0957 48.7293 12.1925 48.6278 12.2922C48.5241 12.3913 48.4205 12.4904 48.3136 12.5925C48.2113 12.6929 48.1089 12.7932 48.0034 12.8967C47.2476 13.6328 47.2476 13.6328 46.9201 13.8666C46.6984 14.0052 46.6984 14.0052 46.6966 14.277C46.7154 14.4316 46.7154 14.4316 46.7346 14.5893C46.7485 14.7072 46.7623 14.8252 46.7766 14.9467C46.8599 15.4877 46.9537 16.0267 47.0611 16.5635C47.1642 17.0979 47.208 17.5928 47.1748 18.1375C46.9372 18.4715 46.9372 18.4715 46.6159 18.6941C46.0361 18.7642 45.6925 18.5995 45.1901 18.321C45.0471 18.2439 44.9041 18.1668 44.7611 18.0897C44.5382 17.9674 44.3158 17.8445 44.0937 17.721C43.8778 17.6015 43.6607 17.4846 43.4434 17.3679C43.3148 17.2968 43.1862 17.2256 43.0537 17.1524C42.7175 16.993 42.7175 16.993 42.4159 17.0931C42.3263 17.1439 42.2366 17.1947 42.1443 17.247C42.0462 17.2992 41.9481 17.3514 41.847 17.4051C41.7425 17.4646 41.638 17.524 41.5303 17.5853C41.4146 17.6499 41.2989 17.7144 41.1797 17.781C40.9381 17.9165 40.697 18.053 40.4566 18.1906C39.3544 18.8014 39.3544 18.8014 38.6789 18.6941C38.4134 18.5828 38.4134 18.5828 38.2317 18.3602C38.0443 17.6137 38.2062 17.0118 38.3773 16.2715C38.6924 15.0625 38.6924 15.0625 38.5886 13.8573C38.2736 13.3703 37.826 13.0924 37.3374 12.7942C37.1691 12.6539 37.0032 12.5106 36.8413 12.3629C36.7723 12.3035 36.7033 12.2441 36.6322 12.1829C36.2078 11.8062 35.9123 11.5278 35.8213 10.9436C35.8841 10.5679 35.8841 10.5679 36.0448 10.3104C36.6401 9.92009 37.3224 9.8912 38.0204 9.8904C38.8036 9.86896 39.5465 9.84042 40.2439 9.45469C40.9148 8.65852 41.2465 7.64637 41.5591 6.66737C41.7317 6.25522 41.9467 5.99428 42.3469 5.78813C42.7335 5.77713 43.0553 5.90781 43.374 6.11513ZM42.5915 8.89809C42.5005 9.0972 42.5005 9.0972 42.4076 9.30032C42.3269 9.47471 42.2461 9.64908 42.1653 9.82343C42.1254 9.91089 42.0856 9.99835 42.0445 10.0885C41.9856 10.2149 41.9856 10.2149 41.9255 10.3439C41.8898 10.4215 41.8541 10.499 41.8173 10.5789C41.6871 10.8082 41.5672 10.9585 41.3618 11.1245C41.0487 11.1995 40.7497 11.2581 40.4325 11.3054C40.349 11.3188 40.2655 11.3323 40.1795 11.3462C40.0163 11.3725 39.8529 11.3982 39.6895 11.4233C39.3894 11.4695 39.09 11.5195 38.7906 11.5697C39.213 12.085 39.6431 12.5222 40.1618 12.9417C40.3738 13.1456 40.4796 13.2976 40.5793 13.5735C40.5806 13.8135 40.5806 13.8135 40.5443 14.0744C40.4877 14.5241 40.4411 14.9723 40.4046 15.4242C40.3952 15.5381 40.3859 15.652 40.3762 15.7694C40.3694 15.8529 40.3627 15.9364 40.3557 16.0225C40.477 15.9595 40.5984 15.8965 40.7234 15.8316C40.8849 15.7491 41.0465 15.6666 41.2081 15.5842C41.3276 15.5219 41.3276 15.5219 41.4496 15.4583C42.3115 15.0213 42.3115 15.0213 42.815 15.0206C43.136 15.133 43.4263 15.2879 43.7233 15.452C43.8794 15.5356 44.0358 15.6188 44.1923 15.7016C44.2606 15.739 44.329 15.7764 44.3993 15.815C44.6141 15.9161 44.8191 15.9727 45.0508 16.0225C45.0347 15.9229 45.0185 15.8233 45.0019 15.7207C44.9708 15.5188 44.9708 15.5188 44.939 15.3128C44.9079 15.1152 44.9079 15.1152 44.8761 14.9137C44.859 14.7639 44.8427 14.614 44.8272 14.464C44.8092 14.3304 44.8092 14.3304 44.7908 14.1941C44.7565 13.7696 44.7483 13.4727 44.9849 13.1075C45.2008 12.8734 45.4256 12.6629 45.6656 12.4533C45.823 12.3084 45.9802 12.1633 46.1373 12.0181C46.2075 11.9558 46.2778 11.8935 46.3501 11.8293C46.4009 11.7804 46.4517 11.7315 46.5041 11.6811C46.5041 11.6443 46.5041 11.6076 46.5041 11.5697C46.4393 11.5614 46.3745 11.553 46.3077 11.5444C46.012 11.5054 45.7166 11.4646 45.4211 11.4236C45.3192 11.4105 45.2172 11.3974 45.1122 11.3838C44.079 11.2379 44.079 11.2379 43.7094 10.9018C43.5014 10.5735 43.3355 10.2308 43.1714 9.87909C43.1032 9.738 43.1032 9.738 43.0336 9.59405C42.922 9.36271 42.812 9.13077 42.7033 8.89809C42.6664 8.89809 42.6295 8.89809 42.5915 8.89809Z" fill="white"/>
<path d="M50.0813 17.9149C50.6188 18.3531 50.8812 18.8776 51.1782 19.4942C51.2237 19.5854 51.2692 19.6766 51.316 19.7706C51.6463 20.4423 51.6463 20.4423 51.6463 20.6979C51.7287 20.7096 51.811 20.7214 51.8958 20.7334C52.2693 20.7875 52.6425 20.8435 53.0158 20.8996C53.2101 20.9273 53.2101 20.9273 53.4083 20.9555C53.533 20.9745 53.6576 20.9935 53.786 21.0131C53.9008 21.03 54.0155 21.0469 54.1337 21.0644C54.4646 21.1492 54.6431 21.242 54.8882 21.4771C55 21.8458 55 21.8458 55 22.2563C54.6988 22.7887 54.3228 23.1666 53.8681 23.5643C53.7491 23.6704 53.63 23.7765 53.5109 23.8826C53.4121 23.9704 53.3132 24.0583 53.2114 24.1488C53.1007 24.259 53.1007 24.259 52.9878 24.3714C53.0064 24.7279 53.0064 24.7279 53.0786 25.1297C53.1001 25.2659 53.1216 25.4021 53.1437 25.5424C53.1834 25.7699 53.2256 25.997 53.2734 26.2229C53.3812 26.7937 53.4537 27.3813 53.1485 27.8918C52.7576 28.1114 52.5423 28.0968 52.0935 28.0449C51.8104 27.9007 51.5486 27.7344 51.2807 27.564C50.4389 27.0043 50.4389 27.0043 49.4734 26.8444C48.9753 27.0031 48.5595 27.2729 48.1412 27.5804C47.7644 27.8479 47.3997 28.0265 46.9442 28.1006C46.6159 28.0449 46.6159 28.0449 46.2875 27.8571C45.7923 27.0652 46.1642 25.9562 46.3582 25.088C46.3977 24.7731 46.3686 24.5653 46.2805 24.2601C46.1081 24.0375 46.1081 24.0375 45.8822 23.8444C45.8024 23.7713 45.7226 23.6983 45.6403 23.623C45.5145 23.5113 45.5145 23.5113 45.3862 23.3974C45.3023 23.3212 45.2184 23.245 45.132 23.1665C44.9775 23.0262 44.8225 22.8865 44.667 22.7474C44.3401 22.4541 44.3567 22.2667 44.3325 21.8228C44.4014 21.4834 44.5632 21.3632 44.8272 21.1431C45.119 21.057 45.119 21.057 45.446 21.014C45.5641 20.9969 45.6822 20.9797 45.8039 20.962C45.9266 20.946 46.0493 20.93 46.1757 20.9136C46.4194 20.881 46.6629 20.8473 46.9062 20.8122C47.014 20.7982 47.1218 20.7841 47.2329 20.7696C47.5469 20.6884 47.6502 20.6176 47.8455 20.3639C47.9386 20.206 48.0254 20.0444 48.1071 19.8804C48.1544 19.7875 48.2018 19.6947 48.2505 19.599C48.3484 19.4041 48.4459 19.209 48.5431 19.0137C48.5906 18.9209 48.6381 18.8281 48.687 18.7324C48.7294 18.6477 48.7717 18.5629 48.8154 18.4756C49.1415 17.9761 49.4907 17.8189 50.0813 17.9149ZM49.6341 20.9205C49.5896 21.0063 49.5451 21.0921 49.4992 21.1805C49.4104 21.348 49.4104 21.348 49.3197 21.5188C49.2614 21.6299 49.203 21.741 49.1429 21.8554C48.9634 22.145 48.9634 22.145 48.628 22.3677C48.399 22.4171 48.1681 22.4581 47.9364 22.4929C47.8149 22.5115 47.6934 22.5302 47.5682 22.5494C47.4753 22.5629 47.3823 22.5764 47.2866 22.5903C47.3696 22.6729 47.4526 22.7556 47.5381 22.8408C47.6396 22.9418 47.741 23.0428 47.8455 23.1469C47.9308 23.2089 48.0161 23.2709 48.104 23.3347C48.475 23.8409 48.3188 24.5166 48.2368 25.1089C48.2183 25.1961 48.1999 25.2834 48.1809 25.3733C48.5525 25.2559 48.8786 25.1359 49.2219 24.9489C49.7888 24.7671 50.1115 24.9227 50.6402 25.1506C50.8265 25.2251 51.0128 25.2993 51.1992 25.3733C51.1735 25.2079 51.1735 25.2079 51.1472 25.0393C50.9972 23.8704 50.9972 23.8704 51.2503 23.4021C51.4462 23.188 51.6488 23.0006 51.8699 22.8129C51.9068 22.7395 51.9437 22.666 51.9817 22.5903C51.838 22.5774 51.838 22.5774 51.6913 22.5642C50.6576 22.411 50.6576 22.411 50.2616 21.9367C50.0736 21.6035 49.9077 21.2669 49.7459 20.9205C49.709 20.9205 49.6722 20.9205 49.6341 20.9205Z" fill="white"/>
<path d="M5.58943 17.9149C6.29519 18.3224 6.5108 19.0802 6.80775 19.7973C7.04316 20.3423 7.04316 20.3423 7.49254 20.6993C7.75425 20.7593 8.00474 20.7886 8.27236 20.8092C8.43862 20.8344 8.60471 20.8608 8.7706 20.8883C9.01592 20.9259 9.26112 20.9627 9.50705 20.9962C10.0149 21.0766 10.3131 21.1677 10.6199 21.5884C10.715 21.9806 10.7453 22.1112 10.6199 22.479C10.22 22.9859 9.74402 23.4134 9.22474 23.797C8.76457 24.123 8.76457 24.123 8.56973 24.6236C8.59549 24.9201 8.65052 25.195 8.71951 25.4846C8.76 25.6954 8.79959 25.9065 8.83829 26.1177C8.85702 26.2194 8.87575 26.3212 8.89505 26.426C8.95806 26.7973 8.99576 27.1136 8.94309 27.4883C8.68842 27.8389 8.52928 28.0165 8.09769 28.101C7.61245 28.0302 7.31974 27.8233 6.9104 27.564C6.06303 27.0045 6.06303 27.0045 5.09288 26.8444C4.59479 27.0031 4.17932 27.2733 3.76086 27.5804C3.22584 27.9608 2.78146 28.1298 2.12398 28.0449C1.8515 27.8918 1.8515 27.8918 1.67683 27.5996C1.54116 26.8412 1.73991 26.0622 1.90262 25.3214C2.02825 24.7804 2.02825 24.7804 1.90041 24.2601C1.69225 24.0081 1.69225 24.0081 1.43229 23.7661C1.3418 23.6786 1.2513 23.591 1.15806 23.5008C0.94702 23.3067 0.734507 23.1233 0.510036 22.9451C0.0876489 22.5861 0.0876489 22.5861 0 22.2563C0.0244779 21.5616 0.0244779 21.5616 0.300541 21.2943C0.609674 21.1135 0.859617 21.0653 1.21395 21.0131C1.3386 20.9941 1.46325 20.9751 1.59168 20.9555C1.72123 20.9371 1.85077 20.9186 1.98425 20.8996C2.11553 20.8799 2.2468 20.8602 2.38206 20.8398C2.70577 20.7914 3.02961 20.7441 3.35366 20.6979C3.39365 20.5627 3.39365 20.5627 3.43444 20.4248C3.60825 19.9442 3.83314 19.5064 4.0733 19.0559C4.13955 18.9278 4.13955 18.9278 4.20714 18.7972C4.25044 18.7155 4.29374 18.6339 4.33836 18.5498C4.39681 18.439 4.39681 18.439 4.45645 18.3259C4.75602 17.8811 5.09228 17.8555 5.58943 17.9149ZM5.25407 20.9205C5.21083 21.0131 5.1676 21.1056 5.12306 21.201C4.65315 22.1774 4.65315 22.1774 4.09644 22.4194C3.73605 22.4981 3.3856 22.5573 3.01829 22.5903C3.06412 22.6427 3.10994 22.695 3.15716 22.749C3.21739 22.8183 3.27762 22.8876 3.33968 22.959C3.39934 23.0275 3.459 23.0959 3.52047 23.1664C3.92356 23.6521 3.92707 23.9578 3.87068 24.5592C3.86117 24.6764 3.86117 24.6764 3.85147 24.796C3.83569 24.9885 3.8184 25.1809 3.80081 25.3732C4.0708 25.2662 4.3402 25.159 4.60691 25.0441C5.07581 24.8595 5.28289 24.79 5.77807 24.9488C5.90027 25.0154 6.02247 25.082 6.14837 25.1506C6.37113 25.2272 6.59446 25.3023 6.81911 25.3732C6.79144 25.2424 6.79144 25.2424 6.76321 25.1089C6.57848 23.7752 6.57848 23.7752 6.87413 23.3552C7.07104 23.1603 7.27282 22.985 7.48984 22.8129C7.56362 22.7394 7.6374 22.666 7.71341 22.5903C7.57789 22.5759 7.57789 22.5759 7.43962 22.5611C6.46546 22.4336 6.46546 22.4336 6.03659 22.1311C5.76699 21.7452 5.55723 21.3496 5.36585 20.9205C5.32896 20.9205 5.29207 20.9205 5.25407 20.9205Z" fill="white"/>
</svg>
