<svg width="21" height="21" viewBox="0 0 21 21" fill="none" xmlns="http://www.w3.org/2000/svg">
<g clip-path="url(#clip0_2438_11960)">
<path d="M13.3973 11.6953L14.6598 18.8003C14.6739 18.884 14.6622 18.97 14.6261 19.0468C14.5901 19.1236 14.5315 19.1876 14.4581 19.2301C14.3847 19.2727 14.3 19.2919 14.2155 19.2851C14.1309 19.2782 14.0504 19.2458 13.9848 19.192L11.0015 16.9528C10.8574 16.8452 10.6825 16.7871 10.5027 16.7871C10.3229 16.7871 10.148 16.8452 10.004 16.9528L7.01563 19.1911C6.95006 19.2448 6.86968 19.2773 6.78521 19.2841C6.70073 19.2909 6.61619 19.2718 6.54285 19.2294C6.4695 19.1869 6.41086 19.1231 6.37473 19.0464C6.33859 18.9698 6.3267 18.8839 6.34063 18.8003L7.60229 11.6953" stroke="#D4AF37" stroke-width="2" stroke-linecap="round" stroke-linejoin="round"/>
<path d="M10.5 12.6211C13.2614 12.6211 15.5 10.3825 15.5 7.62109C15.5 4.85967 13.2614 2.62109 10.5 2.62109C7.73858 2.62109 5.5 4.85967 5.5 7.62109C5.5 10.3825 7.73858 12.6211 10.5 12.6211Z" stroke="#D4AF37" stroke-width="2" stroke-linecap="round" stroke-linejoin="round"/>
</g>
<defs>
<clipPath id="clip0_2438_11960">
<rect width="20" height="20" fill="white" transform="translate(0.5 0.953125)"/>
</clipPath>
</defs>
</svg>
