<svg width="54" height="53" viewBox="0 0 54 53" fill="none" xmlns="http://www.w3.org/2000/svg">
<circle cx="27.4443" cy="26.5" r="26.5" fill="white"/>
<path d="M32.2777 26.5H35.4999C35.4999 24.3635 34.6512 22.3146 33.1405 20.8039C31.6298 19.2932 29.5808 18.4444 27.4443 18.4444V21.6667C28.7262 21.6667 29.9556 22.1759 30.862 23.0823C31.7684 23.9887 32.2777 25.2181 32.2777 26.5ZM38.7221 26.5H41.9443C41.9443 18.4444 35.4516 12 27.4443 12V15.2222C33.6632 15.2222 38.7221 20.265 38.7221 26.5ZM40.3332 32.1389C38.3193 32.1389 36.386 31.8167 34.5816 31.2206C34.0177 31.0433 33.3893 31.1722 32.9382 31.6233L29.3938 35.1678C24.8238 32.8367 21.1076 29.1206 18.7766 24.5506L22.321 21.0061C22.7721 20.555 22.901 19.9267 22.7238 19.3628C22.1137 17.5066 21.8037 15.565 21.8054 13.6111C21.8054 13.1838 21.6357 12.774 21.3336 12.4719C21.0314 12.1697 20.6216 12 20.1943 12H14.5554C14.1282 12 13.7184 12.1697 13.4162 12.4719C13.1141 12.774 12.9443 13.1838 12.9443 13.6111C12.9443 20.8751 15.8299 27.8416 20.9664 32.978C26.1028 38.1144 33.0692 41 40.3332 41C40.7605 41 41.1703 40.8303 41.4725 40.5281C41.7746 40.226 41.9443 39.8162 41.9443 39.3889V33.75C41.9443 33.3227 41.7746 32.9129 41.4725 32.6108C41.1703 32.3086 40.7605 32.1389 40.3332 32.1389Z" fill="#1C3D6E"/>
</svg>
