<svg width="17" height="15" viewBox="0 0 17 15" fill="none" xmlns="http://www.w3.org/2000/svg">
<path d="M16.1571 7.4867C16.1571 8.18272 15.6161 8.71142 15.1401 9.1732C14.866 9.43421 14.5847 9.7086 14.4765 9.94284C14.3683 10.1771 14.3755 10.5251 14.3683 10.8798C14.3611 11.529 14.3467 12.2718 13.7912 12.7871C13.2358 13.3025 12.4352 13.3158 11.7355 13.3225C11.3533 13.3292 10.9638 13.3359 10.7257 13.4229C10.4877 13.5099 10.1775 13.7843 9.89623 14.0386C9.39853 14.4803 8.82871 14.9823 8.07856 14.9823C7.3284 14.9823 6.75858 14.4803 6.26088 14.0386C5.97957 13.7843 5.68384 13.5233 5.43139 13.4229C5.17893 13.3225 4.80386 13.3292 4.42157 13.3225C3.72191 13.3158 2.92126 13.3025 2.36586 12.7871C1.81046 12.2718 1.79604 11.529 1.78882 10.8798C1.78161 10.5251 1.7744 10.1637 1.68063 9.94284C1.58686 9.72199 1.29113 9.43421 1.01703 9.1732C0.540975 8.71142 0 8.18272 0 7.4867C0 6.79069 0.540975 6.26198 1.01703 5.8002C1.29113 5.53919 1.57243 5.2648 1.68063 5.03057C1.78882 4.79633 1.78161 4.44832 1.78882 4.09362C1.79604 3.44445 1.81046 2.70159 2.36586 2.18627C2.92126 1.67094 3.72191 1.65756 4.42157 1.65087C4.80386 1.64417 5.19336 1.63748 5.43139 1.55048C5.66942 1.46348 5.97957 1.18909 6.26088 0.934773C6.75858 0.49307 7.3284 -0.00886536 8.07856 -0.00886536C8.82871 -0.00886536 9.39853 0.49307 9.89623 0.934773C10.1775 1.18909 10.4733 1.45009 10.7257 1.55048C10.9782 1.65087 11.3533 1.64417 11.7355 1.65087C12.4352 1.65756 13.2358 1.67094 13.7912 2.18627C14.3467 2.70159 14.3611 3.44445 14.3683 4.09362C14.3755 4.44832 14.3827 4.80971 14.4765 5.03057C14.5703 5.25142 14.866 5.53919 15.1401 5.8002C15.6161 6.26198 16.1571 6.79069 16.1571 7.4867Z" fill="#1C3D6E"/>
<path fill-rule="evenodd" clip-rule="evenodd" d="M4 7.41526L5 6.48743L7 8.3431L11 4.63176L12 5.55959L7 10.1988L4 7.41526Z" fill="white"/>
</svg>
