<svg width="49" height="49" viewBox="0 0 49 49" fill="none" xmlns="http://www.w3.org/2000/svg">
<path d="M15.3241 22.4981C15.7197 22.4969 16.1154 22.4952 16.511 22.493C16.9855 22.4904 17.46 22.4892 17.9346 22.4892C18.1117 22.4889 18.2889 22.4882 18.4661 22.487C20.6921 22.4723 20.6921 22.4723 21.5701 23.1952C22.2042 23.8634 22.4006 24.8956 22.6772 25.7255C23.6729 25.7255 24.6685 25.7255 25.6944 25.7255C25.8877 25.1394 25.8877 25.1394 26.0778 24.5522C26.3016 23.8939 26.5863 23.3219 27.165 22.912C27.2417 22.8778 27.3184 22.8437 27.3974 22.8085C27.4743 22.7726 27.5513 22.7368 27.6305 22.6999C28.1217 22.5185 28.5948 22.5062 29.1138 22.5076C29.2303 22.5073 29.2303 22.5073 29.3491 22.5071C29.6067 22.5067 29.8644 22.5069 30.1221 22.5072C30.304 22.5071 30.4859 22.507 30.6679 22.5068C31.2532 22.5064 31.8386 22.5072 32.424 22.508C32.6233 22.5082 32.8226 22.5084 33.0219 22.5086C34.3508 22.5102 35.6797 22.5141 37.0086 22.5198C37.1203 22.5202 37.1203 22.5202 37.2343 22.5207C37.9725 22.5237 38.7107 22.5285 39.4489 22.5395C39.6274 22.542 39.8058 22.544 39.9843 22.5452C40.2236 22.5472 40.4627 22.5515 40.7019 22.5566C40.7674 22.5567 40.8329 22.5568 40.9004 22.5569C41.5087 22.5755 42.0864 22.84 42.5361 23.2505C42.8236 23.5696 42.9608 23.8816 43.1077 24.2839C43.1313 24.3485 43.1549 24.4131 43.1793 24.4796C43.5048 25.3797 43.8056 26.2885 44.1072 27.1968C44.211 27.5093 44.3155 27.8215 44.4199 28.1338C44.4861 28.3325 44.5523 28.5313 44.6185 28.7301C44.6497 28.8233 44.6809 28.9166 44.7131 29.0128C44.7414 29.0985 44.7698 29.1842 44.7991 29.2725C44.8242 29.348 44.8492 29.4234 44.8751 29.5011C44.9286 29.6854 44.9286 29.6854 44.9286 29.874C44.9857 29.8811 45.0428 29.8881 45.1017 29.8954C45.7739 30.0009 46.2561 30.2462 46.8143 30.6283C46.8979 30.6827 46.9815 30.7372 47.0677 30.7933C47.8989 31.602 48.3453 32.5833 48.3716 33.7418C48.3755 34.0314 48.3746 34.3208 48.3729 34.6104C48.3732 34.7658 48.3735 34.9213 48.374 35.0768C48.3746 35.4008 48.3738 35.7247 48.372 36.0486C48.3698 36.4626 48.3711 36.8764 48.3733 37.2904C48.3747 37.6107 48.3743 37.931 48.3733 38.2513C48.3731 38.4039 48.3734 38.5565 48.3742 38.7091C48.3752 38.9226 48.3737 39.1358 48.3716 39.3492C48.3713 39.4702 48.371 39.5913 48.3707 39.716C48.2967 40.243 48.0927 40.5927 47.6805 40.9407C47.3523 41.1081 47.0831 41.1444 46.72 41.1882C46.722 41.2738 46.7239 41.3594 46.726 41.4476C46.7324 41.767 46.7371 42.0864 46.7407 42.4059C46.7426 42.5438 46.7452 42.6817 46.7484 42.8196C46.753 43.0186 46.7552 43.2175 46.7568 43.4165C46.7588 43.536 46.7608 43.6554 46.7628 43.7786C46.6981 44.2807 46.4686 44.566 46.0953 44.8948C45.7948 45.1084 45.6383 45.1605 45.2753 45.1664C45.1909 45.1679 45.1065 45.1694 45.0196 45.171C44.6321 45.1752 44.2446 45.1791 43.857 45.1812C43.6531 45.1828 43.4492 45.1854 43.2453 45.189C42.9507 45.1941 42.6562 45.1962 42.3615 45.1976C42.2711 45.1997 42.1807 45.2018 42.0876 45.2041C41.4753 45.2021 41.0627 45.0772 40.5914 44.6768C40.2358 44.2064 40.2025 43.7922 40.2051 43.2139C40.2054 43.096 40.2057 42.9781 40.206 42.8566C40.2068 42.7339 40.2076 42.6111 40.2084 42.4847C40.2088 42.3605 40.2093 42.2362 40.2097 42.1083C40.2108 41.8016 40.2125 41.4949 40.2143 41.1882C39.4676 41.1882 38.7208 41.1882 37.9515 41.1882C37.9589 41.7171 37.9589 41.7171 37.9684 42.2458C37.9727 42.8496 37.9014 43.3396 37.5566 43.8518C37.1579 44.2416 36.8241 44.3939 36.2543 44.3939C36.2563 44.4795 36.2583 44.5651 36.2603 44.6533C36.2668 44.9727 36.2715 45.2921 36.275 45.6116C36.2769 45.7495 36.2795 45.8875 36.2828 46.0253C36.2874 46.2243 36.2895 46.4232 36.2911 46.6222C36.2931 46.7417 36.2951 46.8611 36.2971 46.9843C36.2325 47.4864 36.003 47.7717 35.6297 48.1005C35.3281 48.3148 35.1724 48.3661 34.8081 48.3706C34.7234 48.3718 34.6387 48.373 34.5515 48.3743C34.4597 48.375 34.3678 48.3757 34.2732 48.3764C34.1788 48.3772 34.0844 48.3779 33.9871 48.3787C33.7868 48.38 33.5865 48.381 33.3862 48.3818C33.0809 48.3834 32.7758 48.3875 32.4706 48.3917C32.2759 48.3926 32.0813 48.3934 31.8866 48.3941C31.7957 48.3957 31.7049 48.3974 31.6113 48.3991C31.0328 48.3972 30.6915 48.3185 30.2201 47.9768C29.3679 46.9004 29.7486 45.8983 29.7486 44.3939C26.0772 44.3939 22.4057 44.3939 18.623 44.3939C18.623 45.2651 18.623 46.1363 18.623 47.0339C18.3508 47.6689 18.1356 48.0869 17.4915 48.3539C17.2853 48.3791 17.2853 48.3791 17.0596 48.3813C16.9746 48.3825 16.8896 48.3837 16.8021 48.385C16.7109 48.3852 16.6198 48.3854 16.5259 48.3856C16.4315 48.3862 16.3371 48.3869 16.2398 48.3875C16.0403 48.3885 15.8407 48.3889 15.6411 48.3889C15.3365 48.3893 15.032 48.3927 14.7274 48.3963C14.5333 48.3968 14.3392 48.3972 14.1452 48.3974C14.009 48.3994 14.009 48.3994 13.8701 48.4015C13.3311 48.3978 13.0137 48.3416 12.5887 47.9768C12.1767 47.5091 12.1055 47.2803 12.1081 46.659C12.1082 46.5944 12.1083 46.5298 12.1085 46.4632C12.109 46.2567 12.1102 46.0501 12.1114 45.8436C12.1119 45.7036 12.1123 45.5637 12.1127 45.4237C12.1137 45.0805 12.1153 44.7372 12.1173 44.3939C12.0146 44.3817 11.9119 44.3694 11.8061 44.3567C11.2806 44.2707 11.0001 44.0603 10.6735 43.6455C10.3811 43.1147 10.4082 42.5981 10.4143 42.0073C10.4162 41.737 10.4181 41.4667 10.4201 41.1882C9.6734 41.1882 8.92667 41.1882 8.1573 41.1882C8.16222 41.4626 8.16222 41.4626 8.16724 41.7425C8.1699 41.984 8.17247 42.2255 8.17498 42.467C8.17735 42.5874 8.17972 42.7078 8.18216 42.8318C8.18829 43.6194 8.17432 44.1422 7.64462 44.7534C7.2975 45.0497 7.05121 45.1712 6.5939 45.1756C6.50892 45.1768 6.42395 45.178 6.33639 45.1793C6.19967 45.1796 6.19967 45.1796 6.06019 45.1799C5.9186 45.1808 5.9186 45.1808 5.77415 45.1818C5.5746 45.1828 5.37504 45.1832 5.17548 45.1832C4.87086 45.1836 4.56637 45.187 4.26177 45.1906C4.06767 45.1911 3.87358 45.1915 3.67948 45.1917C3.58872 45.193 3.49795 45.1944 3.40443 45.1958C2.86547 45.1921 2.54806 45.1359 2.12304 44.7711C1.711 44.3034 1.63988 44.0746 1.64241 43.4533C1.64254 43.3887 1.64267 43.3241 1.64281 43.2575C1.64334 43.051 1.64452 42.8444 1.64572 42.6379C1.64619 42.4979 1.64662 42.358 1.64701 42.218C1.64805 41.8748 1.64968 41.5315 1.65161 41.1882C1.5935 41.1765 1.53539 41.1648 1.47552 41.1528C1.36105 41.1288 1.36105 41.1288 1.24427 41.1043C1.16866 41.0887 1.09305 41.0731 1.01514 41.057C0.6031 40.9456 0.394902 40.728 0.18005 40.37C0.0291468 40.01 0.0123034 39.7494 0.0106667 39.3599C0.0100196 39.2925 0.00937248 39.2251 0.00870577 39.1557C0.00698838 38.9342 0.00734465 38.7127 0.00788141 38.4912C0.00745086 38.3359 0.00695049 38.1807 0.00638374 38.0254C0.00554251 37.7002 0.00576895 37.3751 0.00670745 37.0499C0.00778712 36.6357 0.00589024 36.2215 0.00313233 35.8073C0.00139142 35.4865 0.00143087 35.1658 0.001967 34.8451C0.00198135 34.6925 0.00141933 34.5399 0.000242021 34.3874C-0.00886185 33.0136 0.236253 31.9594 1.18019 30.9111C1.78521 30.3703 2.60984 29.874 3.44303 29.874C3.46731 29.7814 3.46731 29.7814 3.49208 29.687C3.67053 29.0183 3.87365 28.3606 4.09088 27.7036C4.12516 27.5997 4.15944 27.4958 4.19476 27.3887C4.26679 27.1708 4.33898 26.953 4.41132 26.7353C4.52157 26.4027 4.63061 26.0697 4.73964 25.7367C4.8101 25.5241 4.88062 25.3115 4.95123 25.099C4.98346 25 5.01568 24.901 5.04889 24.7989C5.27864 24.1139 5.52011 23.5899 6.07713 23.109C6.13826 23.0551 6.1994 23.0011 6.26238 22.9455C6.69867 22.6303 7.11614 22.5836 7.64204 22.575C7.75324 22.5722 7.75324 22.5722 7.86669 22.5694C8.12265 22.5635 8.37862 22.5592 8.63462 22.5551C8.7247 22.5534 8.81477 22.5518 8.90758 22.5501C11.0461 22.5114 13.1853 22.504 15.3241 22.4981ZM11.1622 24.2187C10.5769 24.2225 9.99162 24.2284 9.40635 24.2374C9.22297 24.2399 9.03958 24.2418 8.85619 24.2431C8.60308 24.245 8.35012 24.2493 8.09706 24.2541C8.02236 24.2542 7.94766 24.2543 7.87069 24.2544C7.54888 24.2629 7.3475 24.2834 7.08276 24.4733C6.92124 24.703 6.8296 24.9016 6.74164 25.1681C6.70958 25.2634 6.67751 25.3587 6.64448 25.4569C6.61137 25.5593 6.57825 25.6616 6.54414 25.7671C6.50909 25.8726 6.47405 25.9781 6.43794 26.0868C6.36421 26.3096 6.29101 26.5326 6.21833 26.7557C6.10678 27.0979 5.99359 27.4395 5.88009 27.7811C5.80866 27.9976 5.73733 28.2141 5.6661 28.4306C5.63223 28.5332 5.59835 28.6357 5.56345 28.7414C5.53257 28.8364 5.5017 28.9314 5.46989 29.0293C5.44255 29.113 5.41522 29.1966 5.38705 29.2828C5.31635 29.5054 5.31635 29.5054 5.32874 29.7797C8.5335 29.7797 11.7383 29.7797 15.0401 29.7797C15.3513 28.8774 15.6624 27.9751 15.983 27.0454C16.9566 25.9327 16.9566 25.9327 17.8031 25.8626C17.9467 25.8587 18.0904 25.8568 18.234 25.8566C18.3104 25.855 18.3868 25.8534 18.4654 25.8518C18.7065 25.8473 18.9476 25.8453 19.1887 25.8433C19.3533 25.8407 19.5179 25.8378 19.6826 25.8348C20.0836 25.8279 20.4847 25.8232 20.8858 25.8197C20.8323 25.6386 20.7769 25.458 20.7208 25.2776C20.6902 25.177 20.6596 25.0763 20.628 24.9726C20.5015 24.6713 20.383 24.5166 20.1315 24.3112C19.787 24.1963 19.4708 24.2037 19.1121 24.2047C18.9993 24.2044 18.9993 24.2044 18.8841 24.2042C18.6332 24.2038 18.3822 24.204 18.1313 24.2044C17.9535 24.2043 17.7757 24.2042 17.5979 24.2041C17.2219 24.204 16.846 24.2042 16.47 24.2046C16.0933 24.205 15.7166 24.205 15.3399 24.2046C14.1409 24.2032 12.9419 24.206 11.7429 24.2148C11.5493 24.2162 11.3558 24.2175 11.1622 24.2187ZM27.9572 24.4997C27.7888 24.7911 27.7888 24.7911 27.6861 25.1244C27.6475 25.2345 27.6088 25.3446 27.569 25.4581C27.4811 25.6938 27.4811 25.6938 27.4858 25.8197C27.6384 25.8211 27.6384 25.8211 27.7941 25.8224C28.1743 25.8262 28.5546 25.8324 28.9348 25.8393C29.0989 25.842 29.2629 25.844 29.427 25.8453C29.6639 25.8473 29.9007 25.8517 30.1376 25.8566C30.2462 25.8567 30.2462 25.8567 30.357 25.8569C30.9083 25.8716 31.2598 25.9939 31.7286 26.2912C32.3886 27.0454 32.3886 27.0454 33.3315 29.7797C36.5362 29.7797 39.741 29.7797 43.0429 29.7797C42.8966 29.1057 42.8966 29.1057 42.709 28.4513C42.682 28.3677 42.6549 28.284 42.627 28.1978C42.5982 28.1106 42.5694 28.0233 42.5398 27.9334C42.5095 27.8413 42.4793 27.7493 42.4481 27.6544C42.3845 27.4612 42.3206 27.2681 42.2565 27.0751C42.1588 26.7798 42.0627 26.4841 41.9667 26.1882C41.9044 25.9999 41.8421 25.8117 41.7796 25.6234C41.7512 25.5352 41.7228 25.447 41.6935 25.3562C41.652 25.2329 41.652 25.2329 41.6097 25.1071C41.5859 25.0352 41.5622 24.9632 41.5378 24.889C41.4087 24.6241 41.303 24.4865 41.0629 24.3112C40.7884 24.2715 40.5487 24.2547 40.2739 24.2545C40.1944 24.253 40.115 24.2515 40.0331 24.25C39.7691 24.2455 39.5052 24.2437 39.2412 24.2419C39.0547 24.2394 38.8682 24.2367 38.6817 24.2339C38.1908 24.2271 37.6998 24.2227 37.2089 24.2191C36.9225 24.2169 36.6361 24.2143 36.3497 24.2114C35.2489 24.2005 34.1481 24.1953 33.0472 24.1942C32.5771 24.1937 32.1069 24.1914 31.6367 24.1888C31.2682 24.187 30.8997 24.1865 30.5312 24.1864C30.3575 24.1861 30.1837 24.1853 30.01 24.1841C29.7705 24.1825 29.5311 24.1827 29.2916 24.1833C29.2217 24.1824 29.1518 24.1815 29.0798 24.1806C28.637 24.1842 28.3303 24.2594 27.9572 24.4997ZM17.3973 27.894C17.2852 28.1208 17.2852 28.1208 17.2073 28.3737C17.1752 28.4691 17.1432 28.5644 17.1101 28.6626C17.077 28.765 17.0439 28.8673 17.0098 28.9728C16.9748 29.0783 16.9397 29.1838 16.9036 29.2925C16.8299 29.5153 16.7567 29.7383 16.684 29.9614C16.5725 30.3036 16.4593 30.6452 16.3458 30.9868C16.2743 31.2033 16.203 31.4198 16.1318 31.6363C16.0979 31.7389 16.064 31.8414 16.0291 31.9471C15.9982 32.0421 15.9674 32.1371 15.9356 32.235C15.9082 32.3187 15.8809 32.4023 15.8527 32.4885C15.782 32.7111 15.782 32.7111 15.7944 32.9854C21.3327 32.9854 26.871 32.9854 32.5772 32.9854C32.431 32.3114 32.431 32.3114 32.2434 31.657C32.2163 31.5734 32.1892 31.4897 32.1613 31.4035C32.1325 31.3163 32.1037 31.229 32.0741 31.1391C32.0439 31.047 32.0136 30.955 31.9825 30.8601C31.9188 30.6669 31.855 30.4738 31.7909 30.2808C31.6931 29.9855 31.5971 29.6898 31.501 29.3939C31.4387 29.2056 31.3764 29.0174 31.3139 28.8291C31.2855 28.7409 31.2571 28.6527 31.2279 28.5619C31.1863 28.4386 31.1863 28.4386 31.144 28.3128C31.1203 28.2409 31.0965 28.1689 31.0721 28.0947C30.9479 27.8398 30.8157 27.6984 30.5972 27.5169C30.3468 27.4605 30.3468 27.4605 30.0676 27.469C29.9058 27.4674 29.9058 27.4674 29.7407 27.4658C29.5638 27.4669 29.5638 27.4669 29.3833 27.4681C29.2575 27.4676 29.1317 27.4669 29.0059 27.4661C28.6646 27.4643 28.3234 27.465 27.9821 27.4662C27.6249 27.4672 27.2677 27.4663 26.9105 27.4657C26.3106 27.465 25.7108 27.4659 25.111 27.4677C24.4175 27.4698 23.7241 27.4691 23.0306 27.467C22.4352 27.4653 21.8397 27.4651 21.2443 27.466C20.8887 27.4666 20.5331 27.4667 20.1775 27.4655C19.8431 27.4644 19.5089 27.4651 19.1745 27.4673C18.9933 27.4681 18.8121 27.4669 18.6309 27.4658C18.523 27.4668 18.4152 27.4679 18.304 27.469C18.2103 27.4691 18.1166 27.4693 18.02 27.4694C17.7059 27.5301 17.5962 27.6489 17.3973 27.894ZM2.21732 32.3254C1.67688 33.0676 1.68306 33.8424 1.69986 34.7216C1.70034 34.843 1.70081 34.9644 1.7013 35.0894C1.70375 35.5392 1.71033 35.9889 1.71643 36.4386C1.72616 37.4459 1.73588 38.4533 1.7459 39.4911C4.6084 39.4911 7.4709 39.4911 10.4201 39.4911C10.4201 38.9622 10.4201 38.4332 10.4201 37.8883C10.2646 37.826 10.109 37.7638 9.94872 37.6997C9.71485 37.3489 9.71646 37.1719 9.76015 36.7568C9.9458 36.5024 10.0673 36.3996 10.3708 36.3134C10.7101 36.139 10.7428 35.9396 10.8621 35.5842C10.9778 35.2469 11.0704 34.98 11.2687 34.6826C11.1528 34.6789 11.1528 34.6789 11.0345 34.6752C10.9329 34.6698 10.8313 34.6645 10.7266 34.659C10.6259 34.6546 10.5253 34.6502 10.4216 34.6457C10.0825 34.5772 9.96651 34.485 9.76015 34.2111C9.71591 33.8572 9.71005 33.6418 9.8839 33.3272C10.2292 32.9947 10.6874 33.0591 11.1372 33.0499C11.2164 33.0479 11.2955 33.046 11.377 33.0439C11.6296 33.0378 11.8823 33.0322 12.135 33.0267C12.3063 33.0226 12.4776 33.0185 12.6489 33.0143C13.0688 33.0042 13.4888 32.9947 13.9087 32.9854C13.9703 32.8404 14.031 32.6949 14.0914 32.5494C14.1253 32.4684 14.1592 32.3875 14.1941 32.3041C14.2907 32.0287 14.3354 31.7647 14.3801 31.4769C13.0179 31.4702 11.6558 31.4653 10.2936 31.4622C9.66099 31.4607 9.02844 31.4588 8.39589 31.4555C7.78516 31.4524 7.17445 31.4508 6.56371 31.45C6.33099 31.4495 6.09827 31.4485 5.86555 31.4469C5.53898 31.4449 5.21246 31.4446 4.88588 31.4447C4.79019 31.4437 4.69449 31.4427 4.5959 31.4417C3.66913 31.4457 2.8881 31.6647 2.21732 32.3254ZM33.9915 31.4769C34.0193 31.6104 34.0476 31.7438 34.0762 31.8772C34.0919 31.9515 34.1076 32.0258 34.1238 32.1024C34.2029 32.4162 34.3259 32.6927 34.4629 32.9854C34.622 32.9875 34.622 32.9875 34.7843 32.9896C35.1788 32.9951 35.5733 33.0023 35.9678 33.0102C36.1383 33.0133 36.3089 33.0159 36.4794 33.0181C36.725 33.0213 36.9704 33.0262 37.216 33.0315C37.2919 33.0321 37.3678 33.0327 37.4461 33.0333C37.8781 33.0445 38.1656 33.0843 38.5172 33.3626C38.6629 33.6541 38.6391 33.89 38.6114 34.2111C38.406 34.486 38.2892 34.5772 37.95 34.6457C37.8493 34.6501 37.7487 34.6545 37.645 34.659C37.4926 34.667 37.4926 34.667 37.3371 34.6752C37.2598 34.6776 37.1825 34.68 37.1029 34.6826C37.1415 34.7588 37.1802 34.835 37.22 34.9135C37.2708 35.0142 37.3216 35.115 37.374 35.2188C37.4243 35.3183 37.4746 35.4179 37.5264 35.5204C37.6686 35.814 37.6686 35.814 37.7603 36.0769C37.9127 36.4049 38.1924 36.4443 38.5172 36.5683C38.6613 36.8565 38.6334 37.0991 38.6114 37.4168C38.4936 37.6408 38.4936 37.6408 38.3286 37.794C38.1419 37.8406 38.1419 37.8406 37.9515 37.8883C37.9515 38.4172 37.9515 38.9461 37.9515 39.4911C40.8139 39.4911 43.6765 39.4911 46.6257 39.4911C46.6403 37.9801 46.6403 37.9801 46.6552 36.4386C46.6595 36.1223 46.6637 35.806 46.6682 35.4802C46.6695 35.2273 46.6707 34.9745 46.6717 34.7216C46.673 34.6571 46.6742 34.5927 46.6755 34.5262C46.6903 33.7074 46.6527 33.0099 46.1543 32.3254C45.4835 31.6647 44.7025 31.4457 43.7757 31.4417C43.6322 31.4432 43.6322 31.4432 43.4857 31.4447C43.331 31.4447 43.331 31.4447 43.1732 31.4446C42.835 31.4448 42.4968 31.447 42.1586 31.4492C41.923 31.4498 41.6875 31.4502 41.4519 31.4504C40.897 31.4514 40.342 31.4536 39.7871 31.4565C39.0926 31.46 38.3982 31.4615 37.7038 31.463C36.4663 31.4661 35.2289 31.4708 33.9915 31.4769ZM12.7773 35.4368C11.3218 37.171 12.1173 41.5435 12.1173 42.6968C20.0825 42.6968 28.0477 42.6968 36.2543 42.6968C36.6831 39.1317 36.6831 39.1317 35.5 35.3426C34.8184 34.7652 34.0275 34.6538 33.1626 34.658C33.0425 34.6574 33.0425 34.6574 32.92 34.6569C32.6535 34.6559 32.387 34.6563 32.1205 34.6567C31.9287 34.6562 31.737 34.6558 31.5452 34.6552C31.0254 34.6539 30.5057 34.6539 29.9859 34.6541C29.5515 34.6542 29.1171 34.6538 28.6827 34.6533C27.6577 34.6523 26.6326 34.6522 25.6075 34.6528C24.5511 34.6534 23.4948 34.6522 22.4384 34.6502C21.5303 34.6485 20.6223 34.648 19.7143 34.6483C19.1724 34.6484 18.6306 34.6482 18.0887 34.6469C17.579 34.6457 17.0693 34.6459 16.5596 34.6471C16.373 34.6473 16.1864 34.6471 15.9998 34.6463C14.2562 34.6098 14.2562 34.6098 12.7773 35.4368ZM3.34875 41.1882C3.34875 41.935 3.34875 42.6817 3.34875 43.4511C4.37551 43.4511 5.40228 43.4511 6.46016 43.4511C6.46016 42.7043 6.46016 41.9576 6.46016 41.1882C5.4334 41.1882 4.40663 41.1882 3.34875 41.1882ZM41.9114 41.1882C41.9114 41.935 41.9114 42.6817 41.9114 43.4511C42.9382 43.4511 43.965 43.4511 45.0228 43.4511C45.0228 42.7043 45.0228 41.9576 45.0228 41.1882C43.9961 41.1882 42.9693 41.1882 41.9114 41.1882ZM13.8144 44.3939C13.8144 45.1407 13.8144 45.8874 13.8144 46.6568C14.8412 46.6568 15.8679 46.6568 16.9258 46.6568C16.9258 45.91 16.9258 45.1633 16.9258 44.3939C15.8991 44.3939 14.8723 44.3939 13.8144 44.3939ZM31.4458 44.3939C31.4458 45.1407 31.4458 45.8874 31.4458 46.6568C32.4725 46.6568 33.4993 46.6568 34.5572 46.6568C34.5572 45.91 34.5572 45.1633 34.5572 44.3939C33.5304 44.3939 32.5036 44.3939 31.4458 44.3939Z" fill="white"/>
<path d="M25.3113 0.227173C26.1529 0.680471 26.5725 1.43505 27.0534 2.22742C27.2728 2.58863 27.5028 2.94114 27.7392 3.29145C28.1292 3.87161 28.5128 4.45572 28.8941 5.04162C29.4408 5.88126 29.989 6.71993 30.5383 7.55785C30.691 7.79086 30.8437 8.02388 30.9964 8.25689C31.0341 8.31437 31.0718 8.37185 31.1106 8.43107C31.6915 9.31764 32.2714 10.205 32.8513 11.0922C33.1173 11.4992 33.3834 11.9062 33.6495 12.3131C33.7825 12.5165 33.9154 12.7198 34.0484 12.9232C34.3574 13.396 34.6666 13.8688 34.9761 14.3413C35.1201 14.5612 35.2641 14.7811 35.408 15.0011C35.5079 15.1537 35.6079 15.3063 35.7079 15.4589C35.8905 15.7379 36.0726 16.0173 36.2543 16.2969C36.3164 16.3925 36.3785 16.488 36.4424 16.5864C36.5018 16.6786 36.5611 16.7707 36.6222 16.8656C36.7017 16.9887 36.7017 16.9887 36.7828 17.1144C37.1608 17.7458 37.1864 18.4447 37.0657 19.1561C36.9022 19.7603 36.5503 20.2417 36.0657 20.634C35.4715 20.9702 34.9595 21.0661 34.2839 21.0597C34.1937 21.0604 34.1036 21.061 34.0107 21.0617C33.7106 21.0634 33.4106 21.0625 33.1105 21.0615C32.8945 21.0621 32.6786 21.063 32.4626 21.0639C31.8774 21.0661 31.2923 21.0658 30.7071 21.065C30.2181 21.0645 29.7291 21.0652 29.2401 21.0658C28.0204 21.0675 26.8007 21.0669 25.581 21.0653C24.5232 21.0639 23.4655 21.0653 22.4077 21.068C21.3199 21.0708 20.2321 21.0717 19.1442 21.0709C18.5342 21.0704 17.9241 21.0706 17.3141 21.0726C16.7404 21.0743 16.1667 21.0737 15.593 21.0714C15.3829 21.0709 15.1727 21.0713 14.9625 21.0725C14.6748 21.074 14.3873 21.0725 14.0997 21.0704C14.0171 21.0715 13.9346 21.0726 13.8496 21.0738C13.0503 21.0618 12.3972 20.7598 11.8403 20.1862C11.3713 19.5955 11.2389 18.9964 11.2311 18.2533C11.3533 17.4104 11.7543 16.7894 12.2335 16.0959C12.4276 15.815 12.6186 15.5319 12.81 15.2491C12.8671 15.1651 12.8671 15.1651 12.9254 15.0795C13.244 14.6098 13.5498 14.1328 13.8498 13.651C14.2412 13.0247 14.6437 12.4073 15.0553 11.794C15.6808 10.861 16.2926 9.91908 16.9064 8.9784C17.2425 8.4634 17.5792 7.94878 17.9158 7.43411C18.0494 7.22982 18.183 7.02554 18.3165 6.82125C18.5837 6.41268 18.8508 6.00411 19.1179 5.59554C19.1841 5.49428 19.2503 5.39303 19.3185 5.2887C19.4513 5.08575 19.5841 4.88284 19.7169 4.67999C20.0276 4.20552 20.3376 3.73062 20.6447 3.25387C20.7884 3.03101 20.9325 2.80843 21.0766 2.58587C21.177 2.43045 21.2768 2.27462 21.3766 2.11877C22.2939 0.703579 23.4581 -0.521798 25.3113 0.227173ZM22.6949 3.26787C22.5868 3.43622 22.4786 3.60453 22.3704 3.77282C22.2847 3.90652 22.2847 3.90652 22.1973 4.04292C21.8807 4.53476 21.5598 5.02376 21.2394 5.51304C21.1368 5.66977 21.0343 5.82649 20.9318 5.98323C20.8281 6.14168 20.7245 6.30012 20.6208 6.45857C20.2847 6.97225 19.9489 7.48604 19.6129 7.99982C19.4794 8.2041 19.3458 8.40839 19.2122 8.61267C19.1461 8.71379 19.08 8.81491 19.0119 8.9191C16.808 12.2898 16.808 12.2898 16.6075 12.5964C16.4743 12.8 16.3412 13.0036 16.2081 13.2072C15.8323 13.7821 15.4564 14.3569 15.0801 14.9315C14.9091 15.1929 14.7383 15.4543 14.5678 15.716C14.2723 16.1695 13.9756 16.6219 13.6719 17.07C13.6227 17.1434 13.5735 17.2168 13.5228 17.2924C13.4339 17.4249 13.3441 17.5568 13.253 17.6878C13.0088 18.0544 12.9019 18.3074 12.9658 18.7483C13.1355 19.0029 13.2566 19.1766 13.5315 19.3141C13.8084 19.3239 14.0831 19.328 14.36 19.3279C14.4468 19.3283 14.5337 19.3286 14.6232 19.329C14.9159 19.33 15.2087 19.3304 15.5015 19.3307C15.7107 19.3313 15.9199 19.332 16.1291 19.3326C16.6987 19.3343 17.2683 19.3353 17.8379 19.336C18.1935 19.3365 18.5491 19.3371 18.9047 19.3377C19.8889 19.3393 20.8732 19.3407 21.8574 19.3413C22.1129 19.3415 22.3684 19.3417 22.6238 19.3419C22.6873 19.3419 22.7508 19.342 22.8162 19.342C23.8451 19.3428 24.8739 19.3452 25.9028 19.3483C26.9587 19.3514 28.0147 19.353 29.0706 19.3534C29.6637 19.3536 30.2567 19.3544 30.8497 19.3568C31.4074 19.359 31.9651 19.3594 32.5229 19.3584C32.7278 19.3584 32.9327 19.359 33.1376 19.3603C33.417 19.3619 33.6963 19.3613 33.9756 19.36C34.0571 19.3611 34.1385 19.3621 34.2223 19.3632C34.6045 19.3591 34.7934 19.3436 35.1239 19.1344C35.3479 18.8985 35.4001 18.8097 35.4298 18.4856C35.4017 18.1317 35.3098 17.9663 35.1155 17.6714C35.0533 17.5757 34.9911 17.4799 34.927 17.3812C34.8594 17.2801 34.7918 17.179 34.7222 17.0748C34.6522 16.9682 34.5825 16.8616 34.5128 16.7549C34.3092 16.444 34.1033 16.1347 33.8972 15.8255C33.7986 15.6768 33.7 15.5282 33.6014 15.3795C33.4232 15.1114 33.2442 14.8439 33.0648 14.5766C32.4924 13.7214 31.9332 12.8573 31.3708 11.9955C31.0347 11.4805 30.6981 10.9659 30.3615 10.4512C30.2279 10.247 30.0943 10.0427 29.9608 9.83838C29.8946 9.73726 29.8285 9.63614 29.7604 9.53195C29.1593 8.61267 29.1593 8.61267 28.9589 8.3062C28.8255 8.10206 28.692 7.89793 28.5585 7.6938C28.2231 7.18095 27.8879 6.66794 27.5532 6.15462C26.8779 5.11948 26.2005 4.0858 25.5176 3.05573C25.4225 2.91159 25.4225 2.91159 25.3255 2.76454C25.2666 2.67602 25.2077 2.58749 25.147 2.49628C25.0955 2.41856 25.044 2.34085 24.9909 2.26078C24.735 1.90651 24.6504 1.79133 24.2035 1.71806C23.4626 1.74791 23.0515 2.70561 22.6949 3.26787Z" fill="white"/>
<path d="M33.3727 36.4209C33.941 36.7691 34.46 37.3404 34.6515 37.9825C34.7254 38.7498 34.7615 39.5131 34.2743 40.1511C33.7187 40.7944 33.1082 41.139 32.259 41.2177C31.4576 41.1486 30.8259 40.8436 30.2495 40.2807C29.8327 39.7495 29.6765 39.0209 29.7487 38.3597C29.9038 37.6487 30.2116 37.0543 30.7939 36.6051C31.5407 36.1634 32.5654 36.0769 33.3727 36.4209ZM31.6933 38.1416C31.5194 38.3891 31.4532 38.5284 31.4458 38.8311C31.5777 39.1648 31.6802 39.2772 31.9997 39.4439C32.296 39.5192 32.296 39.5192 32.5536 39.3732C32.7692 39.2126 32.7692 39.2126 32.9544 39.0196C32.9947 38.6562 33.0071 38.4419 32.807 38.1298C32.4193 37.8813 32.0712 37.8731 31.6933 38.1416Z" fill="white"/>
<path d="M17.356 36.474C18.0136 36.8628 18.371 37.4323 18.5788 38.1571C18.7285 38.8433 18.5876 39.5525 18.2252 40.1529C17.7791 40.7218 17.1658 41.0745 16.4544 41.1882C15.7405 41.2596 15.0905 41.0139 14.4862 40.6461C13.824 39.9449 13.6742 39.2838 13.6951 38.3346C13.7523 37.531 14.1364 37.1469 14.7275 36.6309C15.4559 36.1076 16.5515 36.1108 17.356 36.474ZM15.5646 38.1299C15.3604 38.4485 15.3642 38.6482 15.4173 39.0197C15.5993 39.2758 15.7324 39.373 16.0243 39.4852C16.3457 39.493 16.4863 39.405 16.7373 39.2082C16.902 38.9836 16.928 38.874 16.9141 38.5954C16.8092 38.2959 16.714 38.167 16.4544 37.9825C16.0829 37.9295 15.8833 37.9256 15.5646 38.1299Z" fill="white"/>
<path d="M7.19272 33.4753C7.71846 33.9007 8.03949 34.3882 8.1573 35.0597C8.24188 35.9085 8.01341 36.5777 7.48441 37.2445C7.04201 37.6785 6.42533 37.9485 5.80606 37.9884C4.93767 37.9621 4.38267 37.6905 3.76972 37.0854C3.25055 36.5102 3.21649 35.9073 3.23163 35.165C3.28758 34.4449 3.67823 33.9316 4.19732 33.4569C5.15519 32.8243 6.23911 32.8416 7.19272 33.4753ZM5.35231 34.8004C5.13676 34.961 5.13676 34.961 4.9516 35.154C4.91122 35.5175 4.8989 35.7318 5.09892 36.0438C5.41758 36.2481 5.61724 36.2442 5.98874 36.1911C6.24482 36.0092 6.34202 35.876 6.45427 35.5842C6.46227 35.2565 6.38707 35.1215 6.17731 34.8711C5.84035 34.6953 5.70341 34.6408 5.35231 34.8004Z" fill="white"/>
<path d="M44.1743 33.4569C44.7182 33.9641 45.0672 34.4074 45.1489 35.1647C45.1586 35.962 45.0986 36.5588 44.5426 37.1583C43.937 37.7216 43.3994 37.9677 42.5715 37.9826C41.911 37.9313 41.3616 37.6762 40.8744 37.2283C40.3505 36.532 40.1407 35.9245 40.2144 35.0597C40.3378 34.3915 40.649 33.9044 41.1572 33.4569C42.0633 32.8516 43.2766 32.7997 44.1743 33.4569ZM42.1001 34.9654C41.9283 35.1895 41.9092 35.2966 41.9233 35.5783C42.0281 35.8778 42.1233 36.0067 42.3829 36.1911C42.7544 36.2442 42.9541 36.2481 43.2727 36.0438C43.477 35.7252 43.4731 35.5255 43.4201 35.154C43.2526 34.9267 43.1169 34.8138 42.8661 34.6885C42.5523 34.6792 42.3616 34.8006 42.1001 34.9654Z" fill="white"/>
<path d="M24.6572 5.73695C24.9299 5.99772 25.0263 6.15468 25.0829 6.53035C25.0837 6.71508 25.0837 6.71508 25.0846 6.90355C25.0855 6.97183 25.0863 7.04011 25.0871 7.11046C25.0892 7.33525 25.0886 7.55992 25.0877 7.78471C25.0882 7.94145 25.0888 8.09819 25.0895 8.25493C25.0905 8.58305 25.0901 8.91114 25.0887 9.23927C25.0871 9.65939 25.0893 10.0794 25.0926 10.4995C25.0947 10.823 25.0945 11.1466 25.0938 11.4701C25.0937 11.625 25.0943 11.7799 25.0957 11.9347C25.0974 12.1514 25.096 12.3679 25.0938 12.5846C25.0937 12.7693 25.0937 12.7693 25.0936 12.9578C25.0195 13.3606 24.8778 13.498 24.5629 13.7512C24.2366 13.8851 24.1226 13.8577 23.791 13.7276C23.5258 13.5626 23.5258 13.5626 23.3372 13.2798C23.312 12.9805 23.312 12.9805 23.3098 12.606C23.3089 12.5036 23.3089 12.5036 23.3079 12.3992C23.3061 12.1734 23.3057 11.9476 23.3055 11.7219C23.3049 11.5648 23.3043 11.4078 23.3036 11.2508C23.3025 10.9216 23.3022 10.5924 23.3023 10.2631C23.3023 9.84152 23.2997 9.42 23.2965 8.99843C23.2944 8.67407 23.294 8.34973 23.2941 8.02537C23.2939 7.86997 23.293 7.71456 23.2916 7.55917C23.2897 7.34158 23.2903 7.12413 23.2914 6.90654C23.2911 6.78282 23.2909 6.65909 23.2906 6.53162C23.3449 6.15498 23.444 6.00015 23.7144 5.73695C24.0758 5.61647 24.2883 5.64634 24.6572 5.73695Z" fill="white"/>
<path d="M21.3068 39.4301C21.376 39.4293 21.4452 39.4285 21.5165 39.4276C21.7443 39.4255 21.972 39.4269 22.1999 39.4285C22.3588 39.4282 22.5176 39.4277 22.6765 39.4271C23.009 39.4264 23.3416 39.4274 23.6741 39.4296C24.1 39.4323 24.5256 39.4308 24.9515 39.428C25.2794 39.4263 25.6073 39.4268 25.9352 39.428C26.0922 39.4283 26.2492 39.4279 26.4061 39.4268C26.6258 39.4257 26.8452 39.4275 27.0648 39.4301C27.1294 39.4291 27.1939 39.4282 27.2605 39.4272C27.6153 39.435 27.7634 39.487 28.045 39.71C28.2401 39.9625 28.2401 39.9625 28.2931 40.2925C28.2321 40.6719 28.1363 40.8284 27.8629 41.094C27.5354 41.2031 27.2779 41.2016 26.9323 41.2034C26.8668 41.2039 26.8013 41.2044 26.7338 41.2048C26.5172 41.2062 26.3006 41.2069 26.084 41.2074C25.9333 41.2079 25.7827 41.2085 25.632 41.209C25.3161 41.21 25.0002 41.2106 24.6842 41.2109C24.2798 41.2114 23.8754 41.2137 23.4709 41.2164C23.1597 41.2181 22.8484 41.2186 22.5372 41.2187C22.3881 41.219 22.239 41.2198 22.0899 41.221C21.8812 41.2226 21.6725 41.2225 21.4637 41.2218C21.345 41.2222 21.2263 41.2225 21.104 41.2229C20.7638 41.1852 20.5903 41.1118 20.3201 40.9054C20.0843 40.5518 20.081 40.3813 20.1315 39.9625C20.4772 39.5119 20.7601 39.422 21.3068 39.4301Z" fill="white"/>
<path d="M21.3068 36.2244C21.376 36.2236 21.4452 36.2227 21.5165 36.2219C21.7444 36.2198 21.9721 36.2212 22.1999 36.2228C22.3588 36.2225 22.5176 36.222 22.6765 36.2214C23.0091 36.2207 23.3416 36.2217 23.6742 36.2239C24.1 36.2266 24.5257 36.2251 24.9515 36.2223C25.2794 36.2206 25.6073 36.2211 25.9352 36.2223C26.0922 36.2226 26.2492 36.2222 26.4062 36.2211C26.6258 36.2199 26.8452 36.2218 27.0648 36.2244C27.1294 36.2234 27.194 36.2225 27.2605 36.2215C27.6153 36.2293 27.7634 36.2813 28.0451 36.5043C28.2401 36.7568 28.2401 36.7568 28.2931 37.0868C28.2318 37.4682 28.142 37.6247 27.863 37.8883C27.5299 38.0093 27.1958 37.9951 26.8446 37.9962C26.781 37.9966 26.7173 37.9969 26.6517 37.9972C26.4417 37.9981 26.2318 37.9983 26.0218 37.9984C25.8755 37.9987 25.7292 37.999 25.5829 37.9993C25.2764 37.9999 24.9699 38.0001 24.6634 38C24.2712 38 23.8789 38.0013 23.4866 38.0029C23.1845 38.004 22.8824 38.0042 22.5803 38.0041C22.4357 38.0042 22.2911 38.0046 22.1464 38.0054C21.944 38.0063 21.7416 38.006 21.5392 38.0054C21.4242 38.0056 21.3091 38.0057 21.1906 38.0058C20.8035 37.9762 20.5295 37.9011 20.2435 37.6349C20.0811 37.3185 20.0823 37.1076 20.1316 36.7568C20.478 36.3068 20.7599 36.2163 21.3068 36.2244Z" fill="white"/>
<path d="M24.3802 15.3087C24.7108 15.3907 24.8469 15.5502 25.0343 15.8255C25.0969 16.2147 25.0753 16.41 24.887 16.7565C24.5851 17.0197 24.395 17.0512 23.9972 17.0512C23.6602 16.9014 23.5436 16.7951 23.3372 16.4855C23.2843 16.0778 23.2921 15.8917 23.5258 15.5485C23.8403 15.3323 24.0066 15.2826 24.3802 15.3087Z" fill="white"/>
</svg>
