<svg width="21" height="31" viewBox="0 0 21 31" fill="none" xmlns="http://www.w3.org/2000/svg">
<path d="M10.4364 6.56533C10.4993 6.59261 10.4993 6.59261 10.5635 6.62044C10.6994 6.67965 10.8347 6.74017 10.9701 6.80069C11.0639 6.84167 11.1577 6.88255 11.2515 6.92334C11.4918 7.02814 11.7314 7.13444 11.9707 7.24145C12.1182 7.3073 12.2658 7.37263 12.4135 7.43797C12.5087 7.48042 12.6039 7.52291 12.699 7.56542C12.7425 7.58459 12.786 7.60376 12.8308 7.62351C13.3758 7.86876 13.6909 8.13624 13.9495 8.68285C14.0941 8.98025 14.2433 9.27435 14.4034 9.56379C14.4394 9.6299 14.4755 9.696 14.5126 9.76411C14.7237 10.0684 14.9694 10.2257 15.3178 10.355C15.6256 10.4805 15.9156 10.6479 16.2093 10.8029C16.3469 10.8739 16.4846 10.9449 16.6223 11.0157C17.035 11.2294 17.4433 11.4504 17.85 11.6751C18.1021 11.814 18.3549 11.9501 18.6118 12.0799C19.3969 12.4772 19.9526 12.8111 20.2843 13.6699C20.432 14.2625 20.3443 14.8424 20.0369 15.369C19.702 15.8638 19.3092 16.1661 18.7271 16.3077C17.9002 16.4485 17.2509 16.1315 16.5477 15.7365C16.0984 15.4876 15.6468 15.2447 15.1906 15.0088C14.6752 14.7422 14.1648 14.4674 13.6584 14.184C13.407 14.0449 13.1697 13.9223 12.8912 13.8445C12.693 14.0005 12.6533 14.1839 12.5849 14.4208C12.5678 14.4794 12.5678 14.4794 12.5504 14.5393C12.5265 14.6219 12.5029 14.7046 12.4795 14.7874C12.4438 14.9136 12.4071 15.0394 12.3703 15.1653C12.2184 15.6319 12.2184 15.6319 12.1926 16.1149C12.2885 16.2632 12.3847 16.3961 12.4946 16.5333C12.5593 16.6167 12.624 16.7003 12.6886 16.7839C12.7221 16.8271 12.7557 16.8703 12.7903 16.9148C12.9524 17.1262 13.1073 17.3427 13.2623 17.5593C13.5242 17.9238 13.7886 18.2862 14.0554 18.6472C14.3872 19.0963 14.7161 19.5474 15.0417 20.0011C15.1572 20.1619 15.274 20.3216 15.3923 20.4804C15.4191 20.5169 15.446 20.5533 15.4737 20.5909C15.5453 20.6881 15.6175 20.785 15.6897 20.8818C15.9428 21.2909 15.9353 21.6855 15.9343 22.1542C15.9347 22.2559 15.9347 22.2559 15.9352 22.3597C15.936 22.5834 15.9359 22.807 15.9358 23.0307C15.9359 23.1472 15.9361 23.2637 15.9363 23.3802C15.937 23.7464 15.937 24.1126 15.9366 24.4787C15.9363 24.8552 15.937 25.2317 15.9383 25.6082C15.9393 25.9325 15.9396 26.2568 15.9394 26.5811C15.9393 26.7744 15.9396 26.9676 15.9403 27.1608C15.941 27.3766 15.9406 27.5924 15.9399 27.8081C15.9404 27.8713 15.9408 27.9344 15.9413 27.9995C15.9362 28.7446 15.7065 29.2913 15.2052 29.8387C14.6867 30.3352 14.079 30.4099 13.3935 30.3968C12.8438 30.3697 12.4083 30.128 12.0164 29.751C11.5523 29.2235 11.4174 28.7098 11.4237 28.0255C11.4238 27.966 11.4239 27.9065 11.4239 27.8452C11.4241 27.7165 11.4245 27.5878 11.4252 27.4592C11.4261 27.2553 11.426 27.0515 11.4256 26.8476C11.4245 26.2682 11.4241 25.6887 11.4268 25.1093C11.4284 24.7544 11.4281 24.3995 11.4264 24.0446C11.4262 23.9096 11.4267 23.7747 11.4279 23.6397C11.4296 23.4508 11.4288 23.262 11.4274 23.073C11.4285 23.0176 11.4296 22.9622 11.4307 22.9052C11.4244 22.5346 11.3309 22.3505 11.0698 22.0873C11.0369 22.0567 11.004 22.026 10.9701 21.9944C10.9076 21.9309 10.9076 21.9309 10.8439 21.866C10.7919 21.8176 10.7919 21.8176 10.7388 21.7682C10.6997 21.7316 10.6606 21.695 10.6203 21.6573C10.5808 21.6209 10.5414 21.5845 10.5008 21.5469C10.4611 21.5098 10.4214 21.4727 10.3806 21.4345C10.1559 21.2254 9.92721 21.0242 9.68941 20.8302C9.62616 20.955 9.56315 21.0799 9.50022 21.2049C9.47955 21.2457 9.45889 21.2864 9.4376 21.3284C9.30771 21.5867 9.18427 21.8469 9.06589 22.1106C8.72276 22.8673 8.34594 23.5022 7.81339 24.1384C7.63673 24.3547 7.47394 24.5809 7.30993 24.8069C7.02007 25.2037 6.72477 25.5958 6.42581 25.9857C6.13987 26.359 5.85894 26.7349 5.58535 27.1172C5.30125 27.5127 5.01451 27.906 4.72306 28.2961C4.68547 28.3474 4.64787 28.3987 4.60914 28.4516C4.31491 28.8423 3.99404 29.1558 3.53696 29.3476C3.49591 29.3653 3.45486 29.3831 3.41257 29.4014C2.8524 29.5976 2.19667 29.5681 1.65593 29.3294C1.02372 29.0177 0.632166 28.5715 0.404337 27.9031C0.224268 27.2214 0.297123 26.5827 0.643161 25.9597C0.750715 25.7972 0.86314 25.6401 0.979197 25.4836C1.06319 25.3667 1.14717 25.2499 1.23115 25.133C1.27321 25.0752 1.31527 25.0175 1.35861 24.9579C1.54112 24.7062 1.71847 24.4509 1.89606 24.1957C1.96288 24.1002 2.02973 24.0048 2.09663 23.9094C2.29911 23.6204 2.50146 23.3314 2.70378 23.0423C2.77116 22.946 2.83855 22.8498 2.90593 22.7535C2.93948 22.7056 2.97304 22.6576 3.00761 22.6082C3.37222 22.0874 3.37222 22.0874 3.73684 21.5665C3.76596 21.5242 3.79509 21.482 3.82509 21.4384C3.8889 21.3485 3.95497 21.2601 4.02402 21.1742C4.34938 20.7548 4.48041 20.3048 4.61482 19.8007C4.63986 19.7103 4.665 19.6199 4.69023 19.5296C4.75763 19.2872 4.82366 19.0445 4.88943 18.8017C4.95828 18.5484 5.02837 18.2955 5.09839 18.0426C5.1846 17.731 5.27072 17.4194 5.35631 17.1076C5.54859 16.4076 5.74562 15.7092 5.94623 15.0115C5.9725 14.92 5.99877 14.8285 6.02504 14.7369C6.12485 14.3891 6.22468 14.0414 6.32532 13.6938C6.38317 13.494 6.44055 13.2941 6.49758 13.094C6.52843 12.9863 6.5598 12.8788 6.59118 12.7713C6.60924 12.7077 6.62731 12.6441 6.64592 12.5786C6.66183 12.5234 6.67775 12.4682 6.69415 12.4113C6.73369 12.2649 6.73369 12.2649 6.6623 12.0981C6.58933 12.2608 6.51638 12.4235 6.44345 12.5862C6.3774 12.7335 6.31124 12.8808 6.24502 13.028C6.06606 13.4262 5.88823 13.8248 5.71297 14.2247C5.6256 14.4239 5.53777 14.6229 5.44991 14.8218C5.40709 14.9191 5.36448 15.0165 5.3221 15.114C4.68464 16.5796 4.68464 16.5796 3.87533 16.9189C3.31619 17.1024 2.76215 17.0744 2.22715 16.828C1.75602 16.5696 1.44181 16.2209 1.24252 15.7212C1.18251 15.5049 1.16231 15.3009 1.15748 15.0779C1.15459 15.0406 1.1517 15.0033 1.14872 14.9648C1.13882 14.4634 1.39738 14.0012 1.59772 13.5535C1.61819 13.5073 1.63866 13.4612 1.65974 13.4137C1.81401 13.0663 1.97124 12.7204 2.12892 12.3746C2.22692 12.1591 2.32481 11.9435 2.42271 11.7279C2.44678 11.675 2.47084 11.622 2.49564 11.5675C2.64276 11.2436 2.78893 10.9194 2.9339 10.5946C2.95122 10.5558 2.96854 10.517 2.98638 10.4771C3.06511 10.3006 3.14367 10.1242 3.22204 9.94758C3.69986 8.87604 4.0495 8.39984 5.16498 7.97131C5.32717 7.90972 5.48967 7.84896 5.65221 7.78827C5.73977 7.75534 5.82732 7.72238 5.91486 7.68939C6.09748 7.62066 6.28017 7.55213 6.46293 7.48377C6.69528 7.39686 6.92748 7.30956 7.15963 7.22212C7.34019 7.15413 7.5208 7.08629 7.70143 7.0185C7.78698 6.98638 7.87252 6.95424 7.95804 6.92207C8.22421 6.82204 8.49092 6.72362 8.75799 6.62605C8.82214 6.60194 8.88629 6.57783 8.95238 6.55298C9.50273 6.3548 9.90158 6.32169 10.4364 6.56533ZM9.14639 7.61409C9.09718 7.6324 9.04798 7.65071 8.99729 7.66957C8.83493 7.73011 8.67274 7.79109 8.51059 7.85217C8.42765 7.88334 8.42765 7.88334 8.34305 7.91514C8.11297 8.00163 7.88292 8.08817 7.65298 8.175C7.31248 8.30352 6.97144 8.43038 6.62969 8.55551C6.42166 8.63187 6.21401 8.70922 6.00643 8.78679C5.9083 8.82321 5.81002 8.85923 5.71159 8.89482C5.57409 8.94462 5.43723 8.99592 5.30042 9.0476C5.26051 9.06164 5.22059 9.07568 5.17947 9.09015C4.79508 9.2388 4.59324 9.49558 4.4008 9.85299C4.35557 9.95815 4.35557 9.95815 4.30943 10.0654C4.29224 10.1048 4.27505 10.1441 4.25734 10.1846C4.22028 10.2696 4.18354 10.3548 4.1471 10.44C4.06845 10.624 3.98825 10.8074 3.90815 10.9908C3.86539 11.0887 3.8227 11.1867 3.78009 11.2847C3.51987 11.8825 3.24987 12.4759 2.98029 13.0696C2.90972 13.2252 2.83917 13.3808 2.76865 13.5364C2.72651 13.6293 2.68435 13.7223 2.64215 13.8152C2.60407 13.8991 2.56607 13.9831 2.52815 14.0671C2.48758 14.1569 2.44679 14.2467 2.40584 14.3363C2.38475 14.3829 2.36366 14.4295 2.34193 14.4775C2.32277 14.5196 2.30361 14.5617 2.28387 14.6051C2.17629 14.8697 2.1874 15.1507 2.27854 15.419C2.40775 15.6731 2.56349 15.8235 2.8202 15.9402C3.12437 15.9842 3.37462 15.9784 3.65702 15.8529C3.99623 15.5299 4.17671 15.0979 4.3615 14.6743C4.38522 14.6207 4.40894 14.5671 4.43338 14.5118C4.48373 14.3979 4.53391 14.2839 4.58395 14.1698C4.66179 13.9924 4.74013 13.8152 4.81858 13.6381C5.03982 13.1379 5.25974 12.6373 5.4737 12.1341C5.50258 12.0666 5.53146 11.9992 5.56122 11.9297C5.61199 11.8107 5.66209 11.6914 5.71136 11.5717C5.83005 11.2937 5.92173 11.0875 6.19659 10.9339C6.54671 10.8613 6.93987 10.9193 7.24444 11.1085C7.52831 11.3571 7.70746 11.6028 7.76836 11.9817C7.78202 12.3086 7.74844 12.5843 7.65582 12.8991C7.64376 12.9419 7.6317 12.9847 7.61928 13.0287C7.57927 13.1702 7.53841 13.3113 7.49753 13.4525C7.46883 13.5533 7.44019 13.6541 7.4116 13.755C7.33486 14.0251 7.25739 14.295 7.17976 14.5648C7.09943 14.8445 7.01974 15.1243 6.94001 15.4041C6.84351 15.7426 6.74693 16.0811 6.65004 16.4195C6.46544 17.0643 6.28228 17.7095 6.10159 18.3555C6.06683 18.4797 6.03202 18.6039 5.99719 18.7281C5.98607 18.7677 5.97496 18.8073 5.9635 18.8482C5.94166 18.926 5.91981 19.0039 5.89797 19.0818C5.84596 19.2673 5.7941 19.4528 5.74244 19.6384C5.68589 19.8414 5.62886 20.0443 5.57171 20.2471C5.5557 20.3051 5.53969 20.3631 5.52319 20.4229C5.3971 20.8676 5.24828 21.2986 4.97638 21.6772C4.94456 21.7221 4.91275 21.7669 4.87997 21.8131C4.8462 21.8597 4.81243 21.9064 4.77764 21.9544C4.7044 22.0573 4.63118 22.1601 4.55797 22.263C4.50206 22.3411 4.50206 22.3411 4.44501 22.4207C4.2703 22.6655 4.09837 22.9121 3.92626 23.1587C3.85836 23.2558 3.79045 23.3528 3.72251 23.4498C3.67209 23.5218 3.67209 23.5218 3.62064 23.5953C3.1065 24.3298 2.59235 25.0643 2.07821 25.7988C2.04756 25.8427 2.01692 25.8866 1.98534 25.9318C1.91644 26.03 1.84709 26.1279 1.77745 26.2256C1.72259 26.3028 1.72259 26.3028 1.66662 26.3816C1.63326 26.4283 1.5999 26.475 1.56553 26.5231C1.36541 26.8282 1.34289 27.1087 1.39624 27.459C1.48546 27.8711 1.73796 28.0955 2.06343 28.3397C2.31948 28.4907 2.5891 28.4961 2.87842 28.4562C3.32051 28.3007 3.58555 28.068 3.8535 27.6921C3.88764 27.6463 3.92178 27.6004 3.95696 27.5532C4.06423 27.4086 4.16988 27.263 4.27554 27.1172C4.34364 27.0252 4.41185 26.9333 4.4802 26.8414C4.68499 26.5656 4.88785 26.2885 5.09054 26.0112C5.47392 25.4873 5.85846 24.9646 6.25278 24.4489C6.33208 24.3451 6.41117 24.2412 6.49004 24.137C6.67068 23.8987 6.8525 23.6623 7.04228 23.4311C7.77241 22.5216 8.22017 21.4526 8.70553 20.4005C8.76904 20.263 8.83285 20.1257 8.89671 19.9883C8.91612 19.946 8.93553 19.9037 8.95553 19.8601C9.03217 19.6956 9.09429 19.5625 9.2237 19.433C9.44314 19.3816 9.65717 19.3803 9.85496 19.4956C9.98067 19.605 10.0962 19.7219 10.2133 19.8405C10.3146 19.9361 10.4167 20.0307 10.5189 20.1253C10.6331 20.2311 10.7466 20.3375 10.8601 20.4441C11.004 20.5789 11.1488 20.7127 11.2948 20.8452C12.39 21.8391 12.39 21.8391 12.4361 22.4198C12.4404 22.577 12.441 22.7337 12.4403 22.8908C12.4406 22.9801 12.4406 22.9801 12.441 23.0711C12.4414 23.1998 12.4415 23.3285 12.4414 23.4571C12.4414 23.661 12.4421 23.8649 12.4431 24.0687C12.4458 24.6482 12.4472 25.2276 12.4476 25.807C12.4479 26.1619 12.4493 26.5168 12.4514 26.8717C12.452 27.0067 12.4521 27.1416 12.4518 27.2766C12.4514 27.4655 12.4524 27.6544 12.4537 27.8433C12.4533 27.8987 12.4528 27.9541 12.4523 28.0111C12.4573 28.4189 12.5416 28.7479 12.837 29.0417C12.8765 29.0682 12.916 29.0947 12.9567 29.122C12.9964 29.1495 13.0362 29.1771 13.0772 29.2054C13.3646 29.3853 13.6661 29.3532 13.9972 29.3294C14.3774 29.198 14.6305 28.927 14.8122 28.5726C14.8652 28.3995 14.8784 28.2425 14.8802 28.0619C14.8808 28.0062 14.8815 27.9504 14.8822 27.893C14.8826 27.8323 14.8831 27.7715 14.8835 27.7089C14.8842 27.6446 14.8848 27.5803 14.8855 27.5141C14.8912 26.9211 14.8942 26.3282 14.8963 25.7352C14.8979 25.2976 14.9009 24.86 14.9057 24.4224C14.9093 24.0766 14.9107 23.7309 14.9114 23.3851C14.912 23.2386 14.9133 23.0921 14.9153 22.9456C14.918 22.7399 14.9181 22.5344 14.9176 22.3287C14.919 22.2688 14.9204 22.2088 14.9218 22.1471C14.9164 21.6717 14.744 21.3801 14.4629 21.0048C14.4328 20.9631 14.4027 20.9214 14.3717 20.8784C14.2947 20.7723 14.2155 20.6684 14.1355 20.5646C13.8835 20.233 13.6362 19.8986 13.3933 19.5604C13.1313 19.196 12.8669 18.8335 12.6001 18.4725C12.3242 18.099 12.0499 17.7245 11.7778 17.3483C11.7468 17.3055 11.7158 17.2627 11.6839 17.2187C11.297 16.6826 11.084 16.3348 11.1448 15.6492C11.2018 15.3448 11.2894 15.0481 11.3775 14.7515C11.4177 14.6156 11.4561 14.4793 11.4944 14.3428C11.8158 13.22 11.8158 13.22 12.2545 12.975C12.2923 12.9528 12.3302 12.9307 12.3693 12.9079C12.6639 12.7714 12.9895 12.7392 13.302 12.8324C13.7823 13.0239 14.2336 13.2693 14.6885 13.5134C14.7759 13.5601 14.8634 13.6067 14.9508 13.6532C15.2153 13.7942 15.4795 13.9357 15.7436 14.0774C15.8242 14.1206 15.9048 14.1638 15.9854 14.207C16.062 14.2481 16.1386 14.2892 16.2153 14.3303C16.2521 14.35 16.2889 14.3698 16.3269 14.3901C16.4991 14.4825 16.6713 14.5749 16.8433 14.6677C17.6167 15.1543 17.6167 15.1543 18.4794 15.278C18.8617 15.1624 19.0609 14.9117 19.2619 14.5795C19.3279 14.2716 19.2823 14.0002 19.1491 13.7172C18.7769 13.2984 18.2354 13.0691 17.7422 12.8197C17.5405 12.7177 17.3394 12.6146 17.1383 12.5115C17.0983 12.4911 17.0583 12.4706 17.0171 12.4495C16.6256 12.2484 16.2392 12.0385 15.8543 11.8251C15.5822 11.6747 15.3084 11.5297 15.0305 11.3902C14.9394 11.3442 14.9394 11.3442 14.8464 11.2972C14.7303 11.2388 14.6138 11.1811 14.4969 11.1242C13.8589 10.8021 13.6342 10.3628 13.3241 9.7332C13.2603 9.60362 13.196 9.4743 13.1311 9.34526C13.1031 9.28841 13.0752 9.23155 13.0463 9.17298C12.8482 8.84576 12.6181 8.6837 12.272 8.53141C12.2351 8.51497 12.1983 8.49852 12.1603 8.48158C12.0416 8.4288 11.9225 8.37696 11.8033 8.32516C11.7216 8.28909 11.6399 8.25296 11.5582 8.21677C11.3973 8.14556 11.2362 8.07469 11.075 8.0041C10.8852 7.92088 10.6963 7.83597 10.5078 7.75007C10.4352 7.71713 10.4352 7.71713 10.3612 7.68351C10.2748 7.64426 10.1885 7.60485 10.1022 7.56524C9.72569 7.39619 9.51833 7.47375 9.14639 7.61409Z" fill="white"/>
<path d="M14.423 0.972074C15.1813 1.45908 15.6147 2.10291 15.8376 2.98317C15.9652 3.83398 15.8286 4.65824 15.3348 5.37266C14.819 6.03323 14.1898 6.47197 13.3569 6.62607C12.7265 6.69002 12.1342 6.66289 11.5523 6.39322C11.5067 6.37281 11.461 6.3524 11.414 6.33137C10.6777 5.9632 10.1677 5.34141 9.90049 4.5704C9.62262 3.68485 9.73614 2.84859 10.1552 2.0272C11.0813 0.560654 12.9293 0.124929 14.423 0.972074ZM11.203 2.37648C10.8722 2.86299 10.7357 3.35685 10.8196 3.94142C10.9494 4.50259 11.2514 4.96018 11.7269 5.28716C12.246 5.59098 12.7568 5.66175 13.3537 5.54457C13.8616 5.38542 14.2119 5.05384 14.5467 4.65045C14.8168 4.12097 14.8961 3.59578 14.7504 3.01683C14.5619 2.45908 14.2228 2.06848 13.7062 1.79434C13.6712 1.77461 13.6361 1.75487 13.6 1.73454C12.7295 1.32476 11.7918 1.69851 11.203 2.37648Z" fill="white"/>
</svg>
