<svg width="19" height="19" viewBox="0 0 19 19" fill="none" xmlns="http://www.w3.org/2000/svg">
<path d="M9.88526 10.642L11.6189 10.3036L13.2526 10.9312V12.4507C13.2526 12.9566 12.8175 13.3425 12.3274 13.2342C11.058 12.9558 8.7517 12.2556 7.14971 10.642C5.62441 9.10583 5.10347 6.96624 4.92593 5.78517C4.85509 5.31258 5.22933 4.9175 5.70359 4.9175H7.28224L7.89486 6.55866L7.57063 8.30984M17.42 9.085C17.42 13.6884 13.6884 17.42 9.085 17.42C7.62183 17.422 6.18411 17.0373 4.9175 16.3048L0.750002 17.0032L1.44347 12.419C0.985337 11.3672 0.749253 10.2322 0.750002 9.085C0.750002 4.48158 4.48158 0.75 9.085 0.75C13.6884 0.75 17.42 4.48158 17.42 9.085Z" stroke="white" stroke-width="1.5" stroke-linecap="round" stroke-linejoin="round"/>
</svg>
