<?xml version="1.0" encoding="UTF-8"?> <svg xmlns="http://www.w3.org/2000/svg" width="40" height="40" viewBox="0 0 40 40" fill="none"> <g clip-path="url(#clip0_2641_282)"> <circle cx="20" cy="20" r="20" fill="#191A23"></circle> <path d="M20 7C12.8202 7 7 12.8357 7 20.0344C7.68476 37.3243 32.3177 37.3194 33 20.0344C33 12.8357 27.1796 7 20 7Z" fill="#2D8CFF"></path> <path d="M28.9913 24.2261C28.9764 24.9148 28.3901 25.1473 27.822 24.7662C26.7624 24.0681 25.7102 23.3605 24.6538 22.6586C24.6565 22.9834 24.6518 23.7485 24.6535 24.0813C24.6532 24.6986 24.3274 24.9989 23.6579 24.9992L17.9541 24.9998C16.9877 25 16.0215 25.0003 15.0551 24.9992C13.2283 24.9973 12.0006 23.8708 12 22.1958V16.9179C12 16.2919 12.3156 16 12.9927 16C15.3141 16.0415 19.3701 16.0047 21.646 16.0008C23.2591 16.0025 24.4261 16.9467 24.6211 18.3423C25.6886 17.6332 26.7516 16.9184 27.822 16.213C28.3157 15.8758 28.9656 15.9841 28.9913 16.7533C28.9983 19.1678 29.0068 21.8069 28.9913 24.2261Z" fill="#F1F1F1"></path> </g> <defs> <clipPath id="clip0_2641_282"> <rect width="40" height="40" fill="white"></rect> </clipPath> </defs> </svg> 