<svg width="37" height="38" viewBox="0 0 37 38" fill="none" xmlns="http://www.w3.org/2000/svg">
<path d="M11.5265 8.50977V7.10977C11.5265 4.01227 11.5265 1.50977 17.1056 1.50977H19.8951C25.4741 1.50977 25.4741 4.01227 25.4741 7.10977V8.50977M21.9872 22.5448C21.9872 22.5273 21.9872 22.5273 21.9872 22.5098V20.7598C21.9872 19.0098 21.9872 19.0098 20.2438 19.0098H16.7569C15.0134 19.0098 15.0134 19.0098 15.0134 20.7598V22.5623M21.9872 22.5448C21.9872 24.4523 21.9698 26.0098 18.5003 26.0098C15.0483 26.0098 15.0134 24.4698 15.0134 22.5623M21.9872 22.5448C26.6946 21.9498 31.2973 20.1998 35.3246 17.2598M15.0134 22.5623C10.4979 22.0548 6.06975 20.4264 2.14698 17.7314M11.5262 36.5098H25.4738C32.4824 36.5098 33.7377 33.6923 34.1038 30.2623L35.4114 16.2623C35.8822 11.9923 34.6617 8.50977 27.2172 8.50977H9.78279C2.33826 8.50977 1.11784 11.9923 1.58857 16.2623L2.89616 30.2623C3.26229 33.6923 4.51757 36.5098 11.5262 36.5098Z" stroke="white" stroke-width="1.5" stroke-miterlimit="10" stroke-linecap="round" stroke-linejoin="round"/>
</svg>
