<svg width="45" height="47" viewBox="0 0 45 47" fill="none" xmlns="http://www.w3.org/2000/svg">
<path d="M12.7002 19.5599C12.9065 19.9725 12.8192 20.3713 12.6896 20.7938C12.5794 21.1088 12.4605 21.4203 12.3383 21.7309C12.3879 21.7408 12.4374 21.7507 12.4885 21.7609C12.5602 21.7753 12.6319 21.7896 12.7058 21.8044C12.7881 21.8207 12.8705 21.837 12.9553 21.8538C13.1605 21.8952 13.3654 21.9377 13.5701 21.9811C14.245 22.1218 14.9058 22.2402 15.5949 22.2736C15.7047 22.2792 15.7047 22.2792 15.8168 22.2849C16.5807 22.3037 17.3398 22.2155 18.0965 22.1194C18.2313 22.1024 18.3663 22.0865 18.5014 22.0721C19.3622 21.9772 19.8321 21.7388 20.4648 21.1556C21.3753 20.3511 22.7204 19.906 23.9171 19.8312C23.988 19.8265 24.0589 19.8217 24.132 19.8167C25.4371 19.7721 26.6591 20.1831 27.8914 20.5592C29.375 21.012 30.7826 21.3304 32.3298 21.4595C32.2906 21.3643 32.2906 21.3643 32.2507 21.2673C32.0434 20.7376 31.8881 20.3103 31.968 19.7408C32.208 19.449 32.4315 19.3127 32.7835 19.1846C32.8732 19.1518 32.9629 19.119 33.0553 19.0852C33.1517 19.0515 33.2481 19.0179 33.3475 18.9832C33.448 18.9478 33.5485 18.9124 33.652 18.8759C36.7127 17.8222 41.1031 16.9423 44.2697 18.1447C44.569 18.3083 44.6145 18.3446 44.7227 18.6553C44.74 18.8895 44.7475 19.114 44.7463 19.3482C44.7467 19.4184 44.747 19.4886 44.7474 19.5609C44.7483 19.7962 44.7479 20.0316 44.7476 20.2669C44.748 20.4356 44.7485 20.6042 44.749 20.7729C44.7502 21.2311 44.7503 21.6894 44.75 22.1477C44.7499 22.5301 44.7504 22.9125 44.7508 23.2949C44.7518 24.1969 44.7518 25.0989 44.7513 26.0009C44.7508 26.9319 44.7519 27.8629 44.7538 28.7938C44.7554 29.5928 44.7559 30.3918 44.7556 31.1907C44.7555 31.6681 44.7557 32.1454 44.757 32.6227C44.7581 33.0716 44.7579 33.5204 44.7567 33.9692C44.7565 34.134 44.7568 34.2988 44.7575 34.4636C44.7585 34.6884 44.7577 34.9132 44.7566 35.1381C44.7573 35.2034 44.7579 35.2687 44.7586 35.336C44.7544 35.7294 44.6995 35.9853 44.4514 36.2948C44.1401 36.3986 43.8952 36.3993 43.5668 36.4027C43.5048 36.4035 43.4429 36.4042 43.379 36.405C43.1742 36.4072 42.9693 36.4087 42.7644 36.41C42.6944 36.4105 42.6244 36.411 42.5522 36.4115C42.1816 36.4139 41.811 36.4156 41.4403 36.417C41.1337 36.4182 40.8272 36.4207 40.5206 36.4244C40.1502 36.4288 39.7798 36.4311 39.4094 36.4317C39.2684 36.4323 39.1274 36.4337 38.9864 36.4359C38.7888 36.4387 38.5915 36.4387 38.394 36.4381C38.2817 36.4388 38.1695 36.4395 38.0538 36.4403C37.6757 36.3701 37.5437 36.2278 37.3051 35.933C37.2213 35.7107 37.2213 35.7107 37.1864 35.4976C37.1736 35.4262 37.1609 35.3547 37.1478 35.281C37.14 35.2275 37.1322 35.174 37.1242 35.1189C37.0741 35.1416 37.024 35.1644 36.9724 35.1878C36.7404 35.2932 36.5083 35.3983 36.2761 35.5033C36.1974 35.5391 36.1187 35.5749 36.0376 35.6118C34.526 36.2948 34.526 36.2948 34.139 36.2948C34.1717 36.3585 34.2043 36.4222 34.2379 36.4878C34.6466 37.3573 34.7759 38.209 34.45 39.133C34.0679 39.9436 33.521 40.4036 32.6917 40.7273C32.3938 40.8232 32.1218 40.8271 31.8097 40.8234C31.7206 40.8226 31.6315 40.8218 31.5397 40.821C31.4721 40.8199 31.4045 40.8189 31.3348 40.8178C31.3291 40.8726 31.3233 40.9274 31.3175 40.9839C31.2076 41.7359 30.9079 42.3222 30.3033 42.798C29.5755 43.26 28.8574 43.4525 27.9934 43.3054C27.9319 43.2905 27.8703 43.2756 27.8069 43.2602C27.8013 43.4141 27.8013 43.4141 27.7956 43.5711C27.7083 44.2562 27.2377 44.8161 26.7047 45.2305C26.1724 45.5877 25.7105 45.6354 25.0818 45.6404C25.0202 45.6409 24.9585 45.6414 24.8951 45.6419C24.5068 45.6364 24.1876 45.5723 23.8267 45.4312C23.8014 45.4771 23.776 45.5231 23.75 45.5704C23.3795 46.2065 22.9356 46.6948 22.2192 46.9263C21.4804 47.0828 20.8527 46.9963 20.2083 46.6072C19.6717 46.1846 19.191 45.6942 18.7101 45.2107C18.6453 45.1463 18.5805 45.0819 18.5138 45.0155C18.4497 44.9513 18.3856 44.8871 18.3196 44.821C18.2631 44.7644 18.2066 44.7077 18.1484 44.6494C17.9772 44.4683 17.8141 44.2838 17.6514 44.0951C17.3173 43.7113 16.9631 43.352 16.6012 42.9945C16.5354 42.9289 16.4695 42.8634 16.4016 42.7959C16.1932 42.5886 15.9845 42.3816 15.7758 42.1747C15.5004 41.9017 15.2253 41.6284 14.9503 41.3549C14.8573 41.263 14.8573 41.263 14.7624 41.1692C14.4113 40.8198 14.0791 40.4603 13.7555 40.0853C13.527 39.8244 13.2863 39.5767 13.0429 39.3298C12.9918 39.2777 12.9406 39.2257 12.8879 39.172C11.3379 37.6006 9.74944 35.9964 7.63445 35.2093C7.61906 35.2715 7.60367 35.3336 7.58781 35.3976C7.55492 35.5199 7.55492 35.5199 7.52138 35.6446C7.50039 35.7255 7.4794 35.8063 7.45777 35.8895C7.34226 36.1632 7.25761 36.237 7.00124 36.3853C6.71633 36.4191 6.71633 36.4191 6.37632 36.419C6.31421 36.4193 6.25209 36.4196 6.1881 36.42C5.98327 36.4207 5.7785 36.4195 5.57368 36.4181C5.43106 36.4181 5.28845 36.4181 5.14584 36.4183C4.84714 36.4183 4.54847 36.4173 4.24978 36.4157C3.86711 36.4136 3.48448 36.4136 3.10181 36.4142C2.80738 36.4145 2.51296 36.4139 2.21853 36.413C2.07745 36.4127 1.93636 36.4126 1.79527 36.4127C1.59801 36.4127 1.40079 36.4116 1.20354 36.4101C1.03524 36.4095 1.03524 36.4095 0.863533 36.4089C0.588728 36.3861 0.438013 36.3654 0.216791 36.2044C-0.00800924 35.8746 0.0102843 35.5339 0.0122902 35.1496C0.0119441 35.0794 0.0115977 35.0092 0.0112412 34.9369C0.0103071 34.7016 0.0106681 34.4662 0.0110272 34.2309C0.010634 34.0622 0.0101652 33.8936 0.0096262 33.7249C0.00841354 33.2667 0.00836209 32.8084 0.00859098 32.3501C0.00868765 31.9677 0.00824759 31.5853 0.00781387 31.2029C0.00680973 30.3009 0.00677026 29.3989 0.00731696 28.4969C0.00786349 27.5659 0.00674909 26.6349 0.00482276 25.7039C0.00323029 24.905 0.00268682 24.106 0.00298145 23.307C0.00314561 22.8297 0.00290426 22.3524 0.00164946 21.875C0.000513755 21.4262 0.000685481 20.9774 0.00186754 20.5286C0.00208197 20.3638 0.00183284 20.199 0.00108768 20.0342C0.000144198 19.8093 0.000871153 19.5846 0.00202076 19.3597C0.00102015 19.2617 0.00102082 19.2617 0 19.1618C0.00424543 18.7675 0.0634189 18.5158 0.30725 18.203C0.649733 18.0444 1.02233 17.9965 1.39276 17.9316C1.49456 17.9129 1.59636 17.8943 1.70124 17.8751C5.2782 17.3424 9.50227 17.811 12.7002 19.5599ZM1.48322 19.4694C1.47445 19.6686 1.4722 19.8681 1.47234 20.0675C1.47227 20.1308 1.47219 20.194 1.47211 20.2592C1.47196 20.4727 1.47246 20.6861 1.47295 20.8996C1.47298 21.052 1.47296 21.2045 1.47291 21.3569C1.47289 21.7719 1.47342 22.187 1.47405 22.6021C1.47461 23.0354 1.47467 23.4687 1.47477 23.902C1.47506 24.7231 1.4758 25.5442 1.47671 26.3653C1.47772 27.2999 1.47821 28.2344 1.47867 29.169C1.47962 31.092 1.48127 33.0149 1.48322 34.9379C3.0355 34.9379 4.58778 34.9379 6.1871 34.9379C6.4763 34.2195 6.4763 34.2195 6.73999 33.4944C6.77309 33.3982 6.80619 33.3019 6.8403 33.2027C6.8751 33.1008 6.9099 32.9988 6.94576 32.8938C7.00323 32.7264 7.0607 32.5589 7.11818 32.3915C7.17894 32.2144 7.23958 32.0373 7.3002 31.8602C7.42697 31.4897 7.55408 31.1194 7.68127 30.7491C7.70262 30.6869 7.72397 30.6247 7.74597 30.5607C7.78923 30.4347 7.8325 30.3088 7.87576 30.1828C7.94095 29.993 8.00611 29.8032 8.07126 29.6134C8.46632 28.4627 8.86387 27.3128 9.26272 26.1634C9.30928 26.0291 9.30928 26.0291 9.35678 25.892C9.68276 24.9518 10.0106 24.0123 10.3429 23.0743C10.371 22.995 10.3991 22.9156 10.428 22.8339C10.559 22.4636 10.6904 22.0936 10.8226 21.7238C10.8681 21.5954 10.9137 21.467 10.9592 21.3387C10.9987 21.2281 11.0381 21.1175 11.0788 21.0035C11.1758 20.7394 11.1758 20.7394 11.1624 20.4645C9.87894 20.0117 8.61532 19.6086 7.27261 19.3789C7.11117 19.3485 7.11117 19.3485 6.94647 19.3175C6.09203 19.1814 5.23518 19.1792 4.37226 19.1754C4.31123 19.1749 4.2502 19.1744 4.18732 19.1739C2.77592 19.0931 2.77592 19.0931 1.48322 19.4694ZM33.5963 20.4645C33.7053 21.0034 33.8461 21.5166 34.0312 22.0341C34.0564 22.1056 34.0815 22.1771 34.1075 22.2509C34.1622 22.4065 34.2171 22.562 34.2723 22.7174C34.426 23.1509 34.5781 23.5849 34.7305 24.0189C34.7631 24.1114 34.7956 24.2039 34.8292 24.2992C35.1796 25.2957 35.5244 26.2942 35.8688 27.2929C35.9766 27.6053 36.0844 27.9177 36.1923 28.2301C36.53 29.2079 36.8674 30.1857 37.2042 31.1638C37.3558 31.6041 37.5077 32.0442 37.6596 32.4844C37.732 32.6945 37.8044 32.9047 37.8767 33.1149C37.9764 33.4049 38.0764 33.6948 38.1765 33.9846C38.2062 34.0712 38.2358 34.1578 38.2664 34.2471C38.2935 34.3254 38.3207 34.4037 38.3486 34.4844C38.3721 34.5527 38.3957 34.6211 38.4199 34.6915C38.4691 34.8476 38.4691 34.8476 38.5715 34.9379C40.1238 34.9379 41.6761 34.9379 43.2754 34.9379C43.2754 29.8333 43.2754 24.7287 43.2754 19.4694C40.1878 18.5872 36.5133 19.3367 33.5963 20.4645ZM19.897 23.6701C19.6478 23.9197 19.3873 24.1488 19.1192 24.3775C18.8434 24.6226 18.5883 24.8878 18.3295 25.1507C18.142 25.3352 17.9493 25.5069 17.7489 25.6772C17.1039 26.2361 16.6335 26.7659 16.5661 27.6526C16.5585 28.0404 16.5594 28.4272 16.5634 28.815C16.5639 28.9579 16.5643 29.1009 16.5646 29.2439C16.5656 29.618 16.5683 29.9922 16.5713 30.3663C16.5741 30.749 16.5753 31.1316 16.5767 31.5143C16.5796 32.2635 16.5842 33.0127 16.5899 33.762C16.7197 33.749 16.8494 33.7356 16.9792 33.7221C17.0514 33.7147 17.1237 33.7073 17.1981 33.6996C18.1899 33.5641 19.2072 32.8928 19.8242 32.1185C20.1836 31.59 20.3829 31.0798 20.4383 30.4422C20.5654 29.0688 21.0377 28.2044 22.0175 27.2489C22.0912 27.1754 22.1649 27.102 22.2408 27.0263C22.6247 26.6621 22.928 26.3959 23.4648 26.3443C23.9517 26.5609 24.3007 26.978 24.6682 27.352C24.7427 27.4271 24.8172 27.5021 24.894 27.5794C25.0555 27.7423 25.2169 27.9053 25.378 28.0685C25.6335 28.3272 25.8897 28.5852 26.1461 28.8431C26.8748 29.5762 27.6026 30.3104 28.3295 31.0454C28.7313 31.4517 29.1338 31.8573 29.537 32.2622C29.7498 32.4761 29.9623 32.6904 30.1741 32.9054C30.4109 33.1457 30.6488 33.3848 30.887 33.6237C30.9557 33.6941 31.0245 33.7645 31.0954 33.837C31.6639 34.4035 32.3537 35.0154 33.1955 35.0475C34.4073 34.9423 35.5254 34.2226 36.5814 33.6715C35.9162 31.6479 35.2306 29.6314 34.5387 27.6168C34.4732 27.426 34.4078 27.2351 34.3424 27.0443C33.8676 25.6595 33.3885 24.277 32.8726 22.9068C32.8201 22.9051 32.7676 22.9034 32.7135 22.9016C30.8477 22.8387 29.1857 22.4674 27.4044 21.9348C26.7231 21.7311 26.7231 21.7311 26.0411 21.5298C25.9434 21.501 25.8458 21.4722 25.7451 21.4425C23.3417 20.8339 21.5227 22.0098 19.897 23.6701ZM11.7956 23.0878C11.7725 23.1551 11.7495 23.2224 11.7257 23.2917C11.4546 24.083 11.1834 24.8742 10.912 25.6654C10.8404 25.8741 10.7688 26.0829 10.6973 26.2917C10.2287 27.6585 9.76015 29.0253 9.28109 30.3885C9.2493 30.479 9.2175 30.5696 9.18475 30.6629C9.04085 31.0725 8.89638 31.4818 8.75103 31.8909C8.7005 32.0342 8.64998 32.1776 8.59947 32.321C8.57732 32.3826 8.55518 32.4443 8.53237 32.5078C8.37749 32.9493 8.27041 33.3941 8.17721 33.8524C8.27562 33.8963 8.37404 33.9401 8.47544 33.9853C10.6625 34.976 12.3192 36.5299 13.9972 38.2133C14.1768 38.3934 14.3569 38.573 14.5371 38.7526C14.6538 38.8693 14.7705 38.9861 14.8871 39.1029C14.9398 39.1554 14.9925 39.208 15.0468 39.262C15.313 39.5298 15.5684 39.8027 15.8151 40.0886C16.1434 40.4679 16.4932 40.8215 16.85 41.174C16.9159 41.2395 16.9817 41.305 17.0496 41.3725C17.258 41.5798 17.4667 41.7868 17.6754 41.9938C17.9508 42.2667 18.2259 42.5401 18.5009 42.8135C18.5629 42.8748 18.6249 42.9361 18.6888 42.9992C19.043 43.3516 19.3798 43.7134 19.705 44.0927C19.9284 44.3494 20.1658 44.5912 20.4062 44.8319C20.4521 44.8789 20.4979 44.9259 20.5452 44.9743C20.8785 45.3101 20.8785 45.3101 21.2938 45.5217C21.7647 45.5217 21.9308 45.5071 22.2888 45.1937C22.5069 44.8257 22.5567 44.6752 22.4698 44.2552C22.2873 43.9844 22.0686 43.7604 21.8366 43.5316C21.7835 43.4784 21.7304 43.4252 21.6758 43.3704C21.5737 43.2686 21.4713 43.1672 21.3684 43.0662C21.2172 42.9124 21.0785 42.7544 20.9397 42.5895C20.4577 42.0349 19.9279 41.5262 19.4055 41.01C19.2 40.807 18.9949 40.6036 18.7899 40.4001C18.7429 40.3539 18.6959 40.3076 18.6474 40.2599C18.224 39.8394 18.224 39.8394 18.2012 39.4213C18.2182 39.0991 18.2182 39.0991 18.3991 38.8277C18.7089 38.7313 18.8686 38.6999 19.1616 38.8492C19.3951 39.0092 19.5844 39.1765 19.7842 39.3767C19.8582 39.4504 19.9322 39.5241 20.0084 39.6C20.0872 39.6795 20.166 39.7589 20.2472 39.8408C20.3293 39.923 20.4115 40.0052 20.4962 40.0899C20.67 40.2639 20.8435 40.4381 21.0167 40.6125C21.2369 40.8343 21.4578 41.0555 21.6788 41.2764C21.8916 41.4892 22.104 41.7025 22.3164 41.9157C22.3948 41.9942 22.4732 42.0727 22.554 42.1536C22.9463 42.5489 23.326 42.9487 23.6853 43.3743C24.178 43.9231 24.178 43.9231 24.8373 44.1863C25.4682 44.2045 25.7832 44.0869 26.2521 43.6503C26.4183 43.3266 26.477 42.9897 26.45 42.627C26.2784 42.1917 26.0401 41.9185 25.7037 41.598C25.4251 41.3312 25.1616 41.0666 24.9129 40.7718C24.6123 40.4234 24.2884 40.105 23.9574 39.786C23.8486 39.6803 23.7397 39.5747 23.6309 39.469C23.4625 39.3057 23.2937 39.1429 23.1235 38.9814C22.9571 38.8233 22.7928 38.6632 22.6288 38.5026C22.5523 38.4315 22.5523 38.4315 22.4743 38.3589C22.1029 37.9902 22.024 37.7241 22.0175 37.1994C22.1532 36.9733 22.1532 36.9733 22.3793 36.8376C22.6556 36.7787 22.6556 36.7787 23.0125 36.8376C23.3374 37.0713 23.6061 37.3556 23.8832 37.6432C23.9651 37.7258 24.0471 37.8085 24.1315 37.8936C24.3492 38.1132 24.5649 38.3347 24.7803 38.5566C24.9548 38.7358 25.1306 38.9136 25.3065 39.0913C26.7444 40.5443 26.7444 40.5443 27.3139 41.213C27.6067 41.5425 27.92 41.7934 28.3496 41.9033C28.9005 41.9033 29.1698 41.7882 29.5758 41.421C29.8068 41.1543 29.8831 40.9553 29.9157 40.6029C29.8659 40.0249 29.5984 39.6816 29.1864 39.2913C28.9246 39.0419 28.6769 38.7901 28.4433 38.5146C28.1402 38.1641 27.8175 37.8376 27.4885 37.5118C27.4353 37.459 27.382 37.4063 27.3272 37.352C27.1045 37.1318 26.8816 36.9121 26.6582 36.6927C26.4936 36.5308 26.3295 36.3683 26.1655 36.2058C26.0898 36.1318 26.0898 36.1318 26.0125 36.0564C25.5685 35.6153 25.5685 35.6153 25.4549 35.2998C25.4576 35.0508 25.5042 34.823 25.5454 34.5761C25.8237 34.4994 26.0708 34.4649 26.3595 34.4856C26.5366 34.5987 26.5366 34.5987 26.7045 34.7576C26.7668 34.8157 26.8291 34.8739 26.8933 34.9338C26.956 34.9949 27.0186 35.0559 27.0832 35.1189C27.1419 35.1753 27.2006 35.2317 27.2612 35.2899C27.4439 35.4677 27.6244 35.6475 27.8044 35.828C27.8701 35.8937 27.9359 35.9593 28.0036 36.027C28.1415 36.1649 28.2793 36.3028 28.417 36.4409C28.6261 36.6504 28.8356 36.8595 29.0452 37.0685C29.18 37.2034 29.3148 37.3383 29.4496 37.4733C29.5114 37.5348 29.5731 37.5964 29.6367 37.6598C29.9887 38.0135 30.3226 38.376 30.6431 38.7587C30.9876 39.1275 31.3438 39.3467 31.8436 39.4157C32.3033 39.3476 32.5843 39.2151 32.9008 38.8729C33.1539 38.4981 33.2287 38.0957 33.144 37.6517C32.6879 36.8821 32.0994 36.1877 31.29 35.7946C30.2114 35.1614 29.3039 34.0044 28.4274 33.1249C28.2809 32.9782 28.1344 32.8316 27.9879 32.685C27.6058 32.3025 27.224 31.9198 26.8422 31.5371C26.4512 31.1452 26.0599 30.7535 25.6687 30.3618C24.9037 29.5958 24.1389 28.8295 23.3744 28.063C23.0854 28.2011 22.8804 28.3466 22.6507 28.5719C22.591 28.629 22.5313 28.6861 22.4698 28.745C22.0094 29.3115 21.8708 29.8707 21.7913 30.5846C21.7054 31.2343 21.6131 31.8231 21.2938 32.4051C21.2568 32.4729 21.2199 32.5408 21.1818 32.6107C20.6271 33.5263 19.8067 34.1254 18.8514 34.5761C18.7811 34.6104 18.7108 34.6447 18.6383 34.68C17.7494 35.076 16.6567 35.2903 15.6853 35.2093C15.3436 35.0686 15.3436 35.0685 15.233 34.8475C15.2237 34.6116 15.2197 34.3782 15.2199 34.1423C15.2196 34.0695 15.2193 33.9967 15.219 33.9216C15.2181 33.6798 15.2179 33.438 15.2178 33.1962C15.2175 33.0281 15.2172 32.8599 15.2169 32.6918C15.2164 32.3385 15.2162 31.9853 15.2163 31.6321C15.2163 31.1809 15.215 30.7298 15.2135 30.2786C15.2125 29.9308 15.2123 29.5831 15.2123 29.2353C15.2122 29.0691 15.2118 28.9029 15.2111 28.7367C15.2102 28.5031 15.2105 28.2695 15.2111 28.036C15.2105 27.9681 15.21 27.9003 15.2095 27.8304C15.2165 26.634 15.6488 25.7074 16.4938 24.8687C16.8739 24.4999 17.2702 24.1522 17.6754 23.8114C17.6754 23.7816 17.6754 23.7517 17.6754 23.721C17.5992 23.7224 17.5992 23.7224 17.5215 23.7239C15.6888 23.7532 14.0031 23.627 12.2351 23.1264C12.0516 23.0776 12.0516 23.0776 11.7956 23.0878Z" fill="white"/>
<path d="M14.9448 0.698176C15.9116 1.40087 16.4973 2.30424 16.7709 3.46531C16.9137 4.79671 16.684 5.91387 15.8663 6.99322C15.9363 7.03812 16.0063 7.08301 16.0784 7.12926C17.0652 7.77292 18.1838 8.55459 18.5579 9.74269C18.5689 9.81458 18.5689 9.81458 18.5801 9.88792C18.7294 9.79836 18.8786 9.70881 19.0324 9.61654C18.9799 9.54728 18.9799 9.54728 18.9264 9.47661C18.1562 8.40139 17.9907 7.29264 18.1278 5.99817C18.2039 5.63572 18.3193 5.33104 18.4897 5.00312C18.528 4.92546 18.5664 4.8478 18.6059 4.76778C19.1821 3.70529 20.1076 3.11498 21.2328 2.72892C22.4862 2.43588 23.6982 2.6537 24.7992 3.30135C25.7476 3.94683 26.3883 4.86439 26.631 5.99817C26.752 7.37089 26.5735 8.49843 25.7264 9.61654C25.8757 9.70609 26.0249 9.79565 26.1787 9.88792C26.2002 9.81026 26.2216 9.7326 26.2437 9.65258C26.3715 9.3137 26.5456 9.0508 26.7667 8.76848C26.8065 8.71724 26.8464 8.66599 26.8875 8.61318C27.4426 7.92188 28.135 7.44211 28.8925 6.99322C28.8499 6.93189 28.8074 6.87055 28.7635 6.80736C27.9954 5.6592 27.7824 4.50887 28.0504 3.14764C28.3828 2.06147 29.0717 1.11355 30.0821 0.575451C31.1974 0.0155933 32.2575 -0.175664 33.4889 0.180509C34.6813 0.597682 35.5664 1.26315 36.1349 2.41372C36.6071 3.41593 36.6759 4.62703 36.3441 5.69287C36.1572 6.17012 35.8952 6.58569 35.5865 6.99322C35.6883 7.05741 35.6883 7.05741 35.7921 7.1229C36.8159 7.78434 37.6084 8.44718 38.2098 9.52608C38.2459 9.58847 38.2821 9.65085 38.3193 9.71513C38.7549 10.5159 38.885 11.3582 38.8822 12.2593C38.8827 12.3514 38.8832 12.4435 38.8837 12.5384C38.8842 12.7311 38.8841 12.9238 38.8833 13.1165C38.8826 13.4117 38.8852 13.7067 38.888 14.0019C38.8882 14.1899 38.8881 14.378 38.8879 14.566C38.8889 14.654 38.8899 14.742 38.891 14.8327C38.8901 14.9146 38.8893 14.9965 38.8884 15.0808C38.8884 15.1884 38.8884 15.1884 38.8883 15.2982C38.8202 15.5961 38.7368 15.687 38.4812 15.8582C38.1768 15.9105 37.8763 15.9039 37.5682 15.8993C37.4755 15.8994 37.3828 15.8994 37.2873 15.8995C36.9809 15.8992 36.6745 15.8964 36.3681 15.8936C36.1557 15.8929 35.9432 15.8924 35.7308 15.892C35.1716 15.8906 34.6125 15.8871 34.0533 15.8831C33.4827 15.8794 32.9122 15.8777 32.3416 15.8759C31.222 15.872 30.1025 15.8658 28.9829 15.8582C28.9853 15.9248 28.9877 15.9915 28.9901 16.0601C28.9995 16.3622 29.0054 16.6642 29.0112 16.9664C29.0169 17.1236 29.0169 17.1236 29.0227 17.284C29.0241 17.3849 29.0256 17.4858 29.0271 17.5897C29.0295 17.6825 29.0318 17.7754 29.0343 17.871C28.9829 18.1197 28.9829 18.1197 28.7864 18.3309C28.4988 18.5003 28.3433 18.527 28.0122 18.5275C27.9088 18.5285 27.8053 18.5295 27.6987 18.5306C27.5296 18.5295 27.5296 18.5295 27.3571 18.5284C27.2378 18.529 27.1185 18.5296 26.9955 18.5303C26.6688 18.5319 26.3422 18.5313 26.0154 18.5302C25.6733 18.5292 25.3311 18.5301 24.9889 18.5307C24.4143 18.5313 23.8398 18.5304 23.2652 18.5287C22.6012 18.5268 21.9373 18.5274 21.2734 18.5294C20.703 18.531 20.1325 18.5313 19.5621 18.5303C19.2216 18.5297 18.8811 18.5297 18.5405 18.5309C18.1609 18.5321 17.7813 18.5304 17.4017 18.5284C17.289 18.5291 17.1763 18.5298 17.0602 18.5306C16.9567 18.5296 16.8532 18.5285 16.7466 18.5275C16.6569 18.5274 16.5671 18.5272 16.4747 18.5271C16.1493 18.467 16.0006 18.3612 15.7759 18.1197C15.7245 17.871 15.7245 17.871 15.7317 17.5897C15.7332 17.4888 15.7346 17.3879 15.7361 17.284C15.7399 17.1792 15.7437 17.0744 15.7476 16.9664C15.7497 16.8601 15.7517 16.7539 15.7538 16.6444C15.7591 16.3823 15.7666 16.1203 15.7759 15.8582C15.6577 15.859 15.5395 15.8598 15.4177 15.8607C14.305 15.868 13.1922 15.8734 12.0794 15.877C11.5073 15.8789 10.9352 15.8814 10.363 15.8855C9.81111 15.8895 9.25921 15.8916 8.70727 15.8926C8.4965 15.8932 8.28572 15.8945 8.07495 15.8965C7.78016 15.8991 7.48545 15.8995 7.19065 15.8993C7.10313 15.9006 7.01562 15.9019 6.92545 15.9032C6.33923 15.8996 6.33923 15.8996 6.0427 15.7003C5.90157 15.4735 5.86968 15.3532 5.86757 15.088C5.86542 14.9674 5.86542 14.9674 5.86323 14.8443C5.8639 14.7144 5.8639 14.7144 5.86459 14.5819C5.86403 14.4915 5.86347 14.4011 5.86289 14.3079C5.86225 14.116 5.86254 13.924 5.86368 13.7321C5.86492 13.4432 5.86188 13.1546 5.85841 12.8657C5.85261 11.3402 6.04746 10.049 7.00134 8.80241C7.05871 8.7265 7.11608 8.65058 7.17519 8.57237C7.73578 7.89271 8.43128 7.45212 9.17236 6.99322C9.11989 6.92396 9.11989 6.92396 9.06635 6.85329C8.29605 5.77791 8.13094 4.66943 8.26777 3.37485C8.49014 2.30419 9.19838 1.3407 10.0819 0.70913C11.6137 -0.2111 13.4099 -0.230074 14.9448 0.698176ZM10.2098 2.6328C9.67953 3.32958 9.6392 4.05844 9.71511 4.91266C9.90226 5.66683 10.4297 6.28277 11.0663 6.71054C11.7817 7.11993 12.54 7.18697 13.3335 6.98191C14.1585 6.71197 14.7665 6.12741 15.1709 5.36496C15.4483 4.69472 15.4516 3.87928 15.1822 3.20524C14.7577 2.4038 14.1396 1.86407 13.2996 1.5374C12.0481 1.30006 11.036 1.66326 10.2098 2.6328ZM29.9299 2.6328C29.3996 3.32958 29.3593 4.05844 29.4352 4.91266C29.6224 5.66683 30.1498 6.28277 30.7865 6.71054C31.5019 7.11993 32.2601 7.18697 33.0536 6.98191C33.8286 6.72753 34.449 6.17677 34.866 5.4798C35.1535 4.85261 35.1496 4.06913 34.9843 3.40913C34.6693 2.62572 34.0773 2.02631 33.325 1.65613C32.0331 1.15373 30.8004 1.61131 29.9299 2.6328ZM20.9321 4.46036C20.869 4.49768 20.8059 4.53499 20.7409 4.57344C20.1949 4.9354 19.8163 5.45576 19.6084 6.07944C19.4417 7.03365 19.5617 7.82332 20.1179 8.62149C20.6437 9.23099 21.3124 9.5873 22.108 9.69569C22.9535 9.74658 23.6019 9.48401 24.2791 8.98333C24.8036 8.51382 25.1377 7.93597 25.2183 7.23421C25.2483 6.31269 25.0724 5.55476 24.4331 4.87026C23.7263 4.23481 22.9984 4.05448 22.0603 4.07026C21.6209 4.1098 21.3045 4.22983 20.9321 4.46036ZM9.62466 8.44057C8.70728 8.98057 7.91246 9.77494 7.54409 10.7925C7.2512 11.9641 7.36317 13.2032 7.36317 14.4109C10.1394 14.4109 12.9156 14.4109 15.7759 14.4109C15.8953 13.9034 16.0147 13.3959 16.1377 12.8731C16.4211 12.2181 16.7222 11.6887 17.1854 11.1487C17.3254 10.9575 17.3879 10.8481 17.4042 10.6116C16.8961 9.43147 15.9741 8.69903 14.8148 8.20311C14.3826 8.05679 14.1151 8.08449 13.7017 8.26919C12.2859 8.88093 10.989 7.8048 9.62466 8.44057ZM29.5497 8.38297C28.6049 8.85653 27.7374 9.59373 27.3547 10.6116C27.3755 10.9738 27.6082 11.1983 27.8296 11.471C28.5411 12.3873 28.7354 13.2559 28.9829 14.4109C31.7591 14.4109 34.5353 14.4109 37.3956 14.4109C37.4827 11.4565 37.4827 11.4565 36.1328 9.15364C35.569 8.63308 34.8284 8.15398 34.0487 8.07873C33.7877 8.13362 33.5651 8.23689 33.325 8.35011C31.9957 8.68244 30.7492 7.85421 29.5497 8.38297ZM18.3179 11.9476C16.9292 13.3879 17.2232 15.0903 17.2232 17.0342C20.6263 17.0342 24.0294 17.0342 27.5356 17.0342C27.6323 14.1491 27.6323 14.1491 26.3483 11.8158C25.7657 11.2718 24.9233 10.7036 24.0981 10.7021C23.8922 10.753 23.7022 10.8231 23.5045 10.8999C22.6743 11.1767 21.6796 11.1118 20.8723 10.7858C19.9886 10.4361 18.9214 11.3852 18.3179 11.9476Z" fill="white"/>
</svg>
