<svg width="43" height="43" viewBox="0 0 43 43" fill="none" xmlns="http://www.w3.org/2000/svg">
<path d="M14.6468 41.457C14.0024 40.2487 13.0417 39.2383 11.8674 38.5338C10.6932 37.8292 9.34953 37.457 7.98014 37.457C6.61074 37.457 5.26709 37.8292 4.09284 38.5338C2.91859 39.2383 1.9579 40.2487 1.31348 41.457M41.3135 41.457C40.6691 40.2487 39.7084 39.2383 38.5341 38.5338C37.3599 37.8292 36.0162 37.457 34.6468 37.457C33.2774 37.457 31.9338 37.8292 30.7595 38.5338C29.5853 39.2383 28.6246 40.2487 27.9802 41.457M27.0895 14.7904C26.3768 13.9541 25.4912 13.2825 24.4936 12.822C23.4961 12.3614 22.4104 12.1229 21.3117 12.1229C20.213 12.1229 19.1274 12.3614 18.1298 12.822C17.1323 13.2825 16.2466 13.9541 15.5339 14.7904M16.0708 35.1584C19.4758 36.456 23.2409 36.4446 26.6379 35.1264M11.2673 10.7904C9.80805 12.1575 8.64491 13.8095 7.84985 15.6443C7.0548 17.479 6.64474 19.4574 6.64507 21.457C6.64507 21.9068 6.67173 22.3459 6.71262 22.7904M35.9126 22.7904C35.9517 22.3495 35.9801 21.9015 35.9801 21.457C35.9805 19.4574 35.5704 17.479 34.7754 15.6443C33.9803 13.8095 32.8172 12.1575 31.3579 10.7904M3.31347 31.457C3.31347 32.6947 3.80514 33.8817 4.68031 34.7569C5.55548 35.632 6.74246 36.1237 7.98014 36.1237C9.21781 36.1237 10.4048 35.632 11.28 34.7569C12.1551 33.8817 12.6468 32.6947 12.6468 31.457C12.6468 30.2194 12.1551 29.0324 11.28 28.1572C10.4048 27.282 9.21781 26.7904 7.98014 26.7904C6.74246 26.7904 5.55548 27.282 4.68031 28.1572C3.80514 29.0324 3.31347 30.2194 3.31347 31.457ZM29.9801 31.457C29.9801 32.0699 30.1008 32.6767 30.3353 33.2429C30.5699 33.8091 30.9136 34.3235 31.3469 34.7569C31.7803 35.1902 32.2947 35.5339 32.8609 35.7685C33.4271 36.003 34.0339 36.1237 34.6468 36.1237C35.2596 36.1237 35.8664 36.003 36.4326 35.7685C36.9988 35.5339 37.5133 35.1902 37.9466 34.7569C38.3799 34.3235 38.7237 33.8091 38.9582 33.2429C39.1927 32.6767 39.3134 32.0699 39.3134 31.457C39.3134 30.2194 38.8218 29.0324 37.9466 28.1572C37.0714 27.282 35.8844 26.7904 34.6468 26.7904C33.4091 26.7904 32.2221 27.282 31.3469 28.1572C30.4718 29.0324 29.9801 30.2194 29.9801 31.457ZM16.6468 6.1237C16.6468 6.73653 16.7675 7.34337 17.0021 7.90955C17.2366 8.47574 17.5803 8.99019 18.0137 9.42353C18.447 9.85687 18.9615 10.2006 19.5276 10.4351C20.0938 10.6697 20.7007 10.7904 21.3135 10.7904C21.9263 10.7904 22.5332 10.6697 23.0993 10.4351C23.6655 10.2006 24.18 9.85687 24.6133 9.42353C25.0467 8.99019 25.3904 8.47574 25.6249 7.90955C25.8595 7.34337 25.9802 6.73653 25.9802 6.1237C25.9802 4.88602 25.4885 3.69904 24.6133 2.82387C23.7382 1.9487 22.5512 1.45703 21.3135 1.45703C20.0758 1.45703 18.8888 1.9487 18.0137 2.82387C17.1385 3.69904 16.6468 4.88602 16.6468 6.1237Z" stroke="white" stroke-width="2" stroke-linecap="round" stroke-linejoin="round"/>
</svg>
