<svg width="37" height="38" viewBox="0 0 37 38" fill="none" xmlns="http://www.w3.org/2000/svg">
<path d="M19.4273 36.5098H4.69245C2.66248 36.5098 1 34.8823 1 32.8873V6.9178C1 2.33286 4.41245 0.250395 8.5949 2.29786L16.3648 6.11281C18.0448 6.9353 19.4273 9.12276 19.4273 10.9777V36.5098ZM19.4273 36.5098L30.4701 36.5091C34.25 36.5091 36 34.7591 36 30.9792V24.3643C36 24.2418 36 24.1368 35.9825 24.0318M19.4273 36.5098L19.4277 16.2444L20.2502 16.4194M20.2502 16.4194L28.1251 18.1869M20.2502 16.4194L20.2497 23.8211C20.2497 25.9911 22.0172 27.7586 24.1872 27.7586C26.3572 27.7586 28.1246 25.9911 28.1246 23.8211M28.1251 18.1869L31.6776 18.9744C33.9875 19.4819 35.8775 20.6718 35.9825 24.0318M28.1251 18.1869L28.1246 23.8211M35.9825 24.0318C35.8775 26.0968 34.162 27.7581 32.0621 27.7581C29.8921 27.7581 28.1246 25.9911 28.1246 23.8211M7.17789 13.7596H13.2503M7.17789 20.7595H13.2503" stroke="white" stroke-width="1.5" stroke-linecap="round" stroke-linejoin="round"/>
</svg>
