<svg width="46" height="46" viewBox="0 0 46 46" fill="none" xmlns="http://www.w3.org/2000/svg">
<rect x="0.437744" y="0.691406" width="45.1533" height="45.1533" rx="7.28957" fill="#1C3D6E" fill-opacity="0.1"/>
<path d="M24.5859 7.98284C25.7014 7.97856 26.8169 7.98977 27.9321 8.01647L28.2286 8.02717C28.571 8.0394 28.9088 8.05468 29.317 8.07303C30.9435 8.14946 32.0532 8.40628 33.027 8.78385C34.0359 9.17213 34.8858 9.69799 35.7357 10.5479C36.5128 11.3116 37.1143 12.2355 37.4982 13.2552C37.8758 14.2289 38.1326 15.3403 38.209 16.9667C38.2274 17.3734 38.2427 17.7127 38.2549 18.0551L38.2641 18.3517C38.2912 19.4664 38.3029 20.5814 38.2992 21.6964L38.3007 22.8368V24.8393C38.3045 25.9548 38.2928 27.0703 38.2656 28.1855L38.2564 28.4821C38.2442 28.8245 38.2289 29.1623 38.2106 29.5705C38.1341 31.197 37.8743 32.3068 37.4982 33.2805C37.1155 34.3013 36.5139 35.2259 35.7357 35.9893C34.9713 36.7664 34.047 37.3678 33.027 37.7519C32.0532 38.1294 30.9435 38.3862 29.317 38.4627C28.9088 38.481 28.571 38.4963 28.2286 38.5085L27.9321 38.5177C26.8169 38.5449 25.7014 38.5566 24.5859 38.5529L23.4455 38.5544H21.4446C20.3291 38.5582 19.2136 38.5464 18.0984 38.5192L17.8018 38.5101C17.439 38.4969 17.0762 38.4816 16.7135 38.4642C15.087 38.3878 13.9772 38.1279 13.0019 37.7519C11.9819 37.3687 11.0579 36.7671 10.2947 35.9893C9.51674 35.2254 8.91474 34.301 8.53071 33.2805C8.15314 32.3068 7.89633 31.197 7.81989 29.5705C7.80287 29.2078 7.78758 28.845 7.77404 28.4821L7.76639 28.1855C7.73821 27.0704 7.72547 25.9548 7.72818 24.8393V21.6964C7.72391 20.5814 7.73512 19.4664 7.76181 18.3517L7.77251 18.0551C7.78474 17.7127 7.80002 17.3734 7.81837 16.9667C7.8948 15.3387 8.15161 14.2304 8.52918 13.2552C8.91343 12.235 9.51662 11.3114 10.2963 10.5494C11.0589 9.77098 11.9823 9.16842 13.0019 8.78385C13.9772 8.40628 15.0855 8.14946 16.7135 8.07303L17.8018 8.02717L18.0984 8.01953C19.213 7.99136 20.328 7.97862 21.443 7.98131L24.5859 7.98284ZM23.0145 15.6261C22.0018 15.6118 20.9963 15.7989 20.0565 16.1765C19.1168 16.5542 18.2614 17.1148 17.5402 17.8259C16.819 18.537 16.2463 19.3844 15.8554 20.3187C15.4645 21.2531 15.2632 22.2558 15.2632 23.2686C15.2632 24.2814 15.4645 25.2842 15.8554 26.2185C16.2463 27.1529 16.819 28.0002 17.5402 28.7113C18.2614 29.4224 19.1168 29.9831 20.0565 30.3607C20.9963 30.7384 22.0018 30.9254 23.0145 30.9111C25.0415 30.9111 26.9856 30.1059 28.419 28.6725C29.8523 27.2391 30.6576 25.295 30.6576 23.2679C30.6576 21.2407 29.8523 19.2966 28.419 17.8632C26.9856 16.4299 25.0415 15.6261 23.0145 15.6261ZM23.0145 18.6834C23.6236 18.6722 24.2289 18.7825 24.795 19.0078C25.3611 19.2331 25.8766 19.569 26.3114 19.9958C26.7462 20.4226 27.0916 20.9318 27.3274 21.4936C27.5632 22.0554 27.6847 22.6586 27.6848 23.2678C27.6849 23.8771 27.5636 24.4803 27.328 25.0422C27.0924 25.6041 26.7471 26.1134 26.3125 26.5403C25.8778 26.9673 25.3624 27.3033 24.7964 27.5288C24.2304 27.7544 23.6252 27.8648 23.016 27.8538C21.7997 27.8538 20.6333 27.3707 19.7733 26.5106C18.9133 25.6506 18.4301 24.4841 18.4301 23.2679C18.4301 22.0516 18.9133 20.8851 19.7733 20.0251C20.6333 19.1651 21.7997 18.6819 23.016 18.6819L23.0145 18.6834ZM31.0398 13.3331C30.5466 13.3529 30.0802 13.5627 29.7383 13.9186C29.3964 14.2745 29.2054 14.7489 29.2054 15.2424C29.2054 15.736 29.3964 16.2104 29.7383 16.5663C30.0802 16.9222 30.5466 17.132 31.0398 17.1517C31.5465 17.1517 32.0325 16.9504 32.3909 16.592C32.7492 16.2337 32.9505 15.7477 32.9505 15.2409C32.9505 14.7341 32.7492 14.2481 32.3909 13.8897C32.0325 13.5314 31.5465 13.3301 31.0398 13.3301V13.3331Z" fill="#1C3D6E"/>
</svg>
