<svg width="46" height="46" viewBox="0 0 46 46" fill="none" xmlns="http://www.w3.org/2000/svg">
<rect x="0.591064" y="0.691406" width="45.1533" height="45.1533" rx="7.28957" fill="#1C3D6E" fill-opacity="0.1"/>
<path d="M7.88062 10.1708C7.88062 8.96124 8.88574 7.98096 10.1259 7.98096H36.2095C37.4496 7.98096 38.4547 8.96124 38.4547 10.1708V36.3652C38.4547 37.5748 37.4496 38.5551 36.2095 38.5551H10.1259C8.88574 38.5551 7.88062 37.5748 7.88062 36.3652V10.1708ZM17.3261 33.5753V19.7692H12.7381V33.5753H17.3261ZM15.0331 17.8832C16.6325 17.8832 17.628 16.8245 17.628 15.4984C17.5994 14.1436 16.6344 13.1136 15.0636 13.1136C13.4929 13.1136 12.4667 14.1455 12.4667 15.4984C12.4667 16.8245 13.4623 17.8832 15.0025 17.8832H15.0331ZM24.4117 33.5753V25.8649C24.4117 25.4522 24.4422 25.0394 24.5645 24.7451C24.8951 23.9215 25.6499 23.0674 26.9187 23.0674C28.5793 23.0674 29.2424 24.3324 29.2424 26.1898V33.5753H33.8304V25.6566C33.8304 21.4145 31.5679 19.4424 28.5487 19.4424C26.1143 19.4424 25.0231 20.7801 24.4117 21.7221V21.7699H24.3811L24.4117 21.7221V19.7692H19.8255C19.8829 21.0648 19.8255 33.5753 19.8255 33.5753H24.4117Z" fill="#1C3D6E"/>
</svg>
