<svg width="49" height="46" viewBox="0 0 49 46" fill="none" xmlns="http://www.w3.org/2000/svg">
<rect x="0.744385" y="0.958984" width="47.7245" height="44.6183" rx="7.28957" fill="#1C3D6E" fill-opacity="0.1"/>
<path d="M32.2819 12.9568C31.1416 11.6545 30.5131 9.98241 30.5133 8.25146H25.3575V28.9414C25.3185 30.0613 24.8461 31.1223 24.0398 31.9005C23.2336 32.6788 22.1565 33.1134 21.036 33.1127C18.6666 33.1127 16.6978 31.1772 16.6978 28.7745C16.6978 25.9046 19.4675 23.7522 22.3207 24.6365V19.364C16.5643 18.5964 11.5253 23.0681 11.5253 28.7745C11.5253 34.3308 16.1304 38.2852 21.0193 38.2852C26.2585 38.2852 30.5133 34.0304 30.5133 28.7745V18.2794C32.604 19.7808 35.1141 20.5864 37.688 20.582V15.4262C37.688 15.4262 34.5512 15.5764 32.2819 12.9568Z" fill="#1C3D6E"/>
</svg>
