<svg width="18" height="18" viewBox="0 0 18 18" fill="none" xmlns="http://www.w3.org/2000/svg">
<path d="M4.30454 5.23016L8.12105 9.04667C8.37917 9.30471 8.58391 9.61108 8.72359 9.94828C8.86327 10.2855 8.93514 10.6469 8.9351 11.0119M4.30454 5.23016H7.08288M4.30454 5.23016V8.0085M8.9351 11.0119V12.6391M8.9351 11.0119C8.93505 10.6469 9.00692 10.2855 9.1466 9.94828C9.28628 9.61108 9.49103 9.30471 9.74915 9.04667L13.5657 5.23016M13.5657 5.23016H10.7873M13.5657 5.23016V8.0085M0.600098 5.04494C0.600098 3.48908 0.600098 2.71114 0.902936 2.11658C1.1693 1.59383 1.59431 1.16881 2.11707 0.902448C2.71163 0.599609 3.48956 0.599609 5.04543 0.599609H12.8248C14.3806 0.599609 15.1586 0.599609 15.7531 0.902448C16.2759 1.16881 16.7009 1.59383 16.9673 2.11658C17.2701 2.71114 17.2701 3.48908 17.2701 5.04494V12.8243C17.2701 14.3801 17.2701 15.1581 16.9673 15.7526C16.7009 16.2754 16.2759 16.7004 15.7531 16.9668C15.1586 17.2696 14.3806 17.2696 12.8248 17.2696H5.04543C3.48956 17.2696 2.71163 17.2696 2.11707 16.9668C1.59431 16.7004 1.1693 16.2754 0.902936 15.7526C0.600098 15.1581 0.600098 14.3801 0.600098 12.8243V5.04494Z" stroke="white" stroke-width="1.2" stroke-linecap="round"/>
</svg>
