<svg width="49" height="49" viewBox="0 0 49 49" fill="none" xmlns="http://www.w3.org/2000/svg">
<mask id="path-1-inside-1_2321_4291" fill="white">
<path d="M9.8809 0.149004C9.99568 0.148401 10.1105 0.147799 10.2287 0.147177C10.3553 0.147452 10.4819 0.147746 10.6085 0.148055C10.7436 0.147705 10.8787 0.147275 11.0138 0.146771C11.3847 0.145628 11.7555 0.145652 12.1264 0.145873C12.5265 0.145911 12.9266 0.144879 13.3268 0.143992C14.1106 0.14244 14.8944 0.141926 15.6783 0.141821C16.3155 0.141732 16.9528 0.141348 17.5901 0.140755C19.3973 0.139109 21.2045 0.138247 23.0117 0.138387C23.1091 0.138394 23.2066 0.138402 23.3069 0.138409C23.4045 0.138417 23.502 0.138425 23.6025 0.138433C25.1829 0.138508 26.7632 0.13672 28.3435 0.134083C29.9666 0.131397 31.5897 0.130107 33.2129 0.130268C34.1239 0.13033 35.035 0.129818 35.9461 0.127804C36.7219 0.126101 37.4977 0.125696 38.2735 0.126965C38.6692 0.127575 39.0648 0.127588 39.4604 0.125964C39.8231 0.12449 40.1857 0.124764 40.5484 0.126391C40.6791 0.126677 40.8098 0.126341 40.9406 0.125295C42.2374 0.115615 43.1907 0.433514 44.1709 1.29483C44.6123 1.76411 44.9556 2.28725 45.1992 2.88402C45.2312 2.95748 45.2632 3.03095 45.2962 3.10664C45.4253 3.59225 45.4098 4.05849 45.4059 4.55883C45.4057 4.72843 45.4057 4.72843 45.4055 4.90145C45.4051 5.14928 45.4044 5.39709 45.4031 5.64492C45.4009 6.04822 45.4001 6.45151 45.3994 6.85481C45.3984 7.36457 45.3971 7.87433 45.3954 8.38408C45.392 9.38625 45.391 10.3884 45.3908 11.3906C45.3907 11.5485 45.3907 11.7064 45.3906 11.8643C45.3905 12.1036 45.3905 12.3429 45.3904 12.5822C45.3901 13.484 45.3896 14.3858 45.3888 15.2877C45.3888 15.3701 45.3887 15.4525 45.3886 15.5374C45.3874 16.8723 45.3834 18.2071 45.3785 19.542C45.3736 20.9136 45.3723 22.2851 45.3741 23.6567C45.3751 24.5021 45.3733 25.3474 45.3677 26.1927C45.3641 26.7725 45.364 27.3523 45.3665 27.9321C45.3679 28.2663 45.3677 28.6003 45.3635 28.9345C45.2758 30.5331 45.2758 30.5331 45.9391 31.9153C46.0942 32.0575 46.2522 32.1967 46.4144 32.3307C48.0601 34.4488 48.4678 37.2675 48.1475 39.8661C47.815 41.6891 46.9763 43.3783 45.7601 44.7637C45.7001 44.8418 45.64 44.9199 45.5782 45.0003C45.2282 45.4208 44.7882 45.738 44.3578 46.0724C44.2478 46.1583 44.2478 46.1583 44.1355 46.2459C42.4436 47.4969 40.5045 48.0653 38.4143 48.0612C38.2889 48.0616 38.1635 48.0621 38.0381 48.0627C37.6961 48.064 37.3542 48.0641 37.0123 48.0641C36.6425 48.0643 36.2728 48.0655 35.903 48.0665C35.0958 48.0687 34.2887 48.0694 33.4816 48.0699C32.9771 48.0702 32.4727 48.0708 31.9682 48.0715C30.5701 48.0733 29.1719 48.0749 27.7737 48.0751C27.6397 48.0751 27.6397 48.0751 27.503 48.0752C27.3219 48.0752 27.1409 48.0752 26.9598 48.0753C26.8699 48.0753 26.7801 48.0753 26.6875 48.0753C26.5975 48.0753 26.5075 48.0754 26.4148 48.0754C24.956 48.0757 23.4973 48.0782 22.0386 48.0817C20.5389 48.0853 19.0393 48.0871 17.5397 48.0871C16.6984 48.0872 15.8572 48.088 15.016 48.0907C14.3 48.093 13.5839 48.0937 12.8679 48.0923C12.5029 48.0916 12.138 48.0917 11.773 48.0938C11.4382 48.0957 11.1035 48.0955 10.7688 48.0935C10.5917 48.093 10.4146 48.0948 10.2375 48.0968C9.25041 48.0871 8.40741 47.7898 7.61965 47.1942C7.50686 47.119 7.50686 47.119 7.39179 47.0423C6.65459 46.3591 6.08026 45.4013 6.0112 44.3874C5.99112 43.7022 6.00445 43.018 6.03047 42.3332C5.96222 42.3351 5.89398 42.3371 5.82367 42.3391C5.50895 42.347 5.19426 42.3518 4.87948 42.3566C4.77217 42.3597 4.66486 42.3628 4.5543 42.366C3.3436 42.3798 2.45162 42.0095 1.54336 41.2114C1.10192 40.7421 0.758618 40.219 0.515063 39.6222C0.481683 39.541 0.448304 39.4598 0.413913 39.3761C0.141754 38.3778 0.189312 37.069 0.702026 36.1634C1.41228 34.9914 2.31885 34.3469 3.59995 33.9199C4.40202 33.9199 5.20409 33.9199 6.03047 33.9199C6.03047 32.0689 6.03047 30.218 6.03047 28.311C5.2284 28.311 4.42633 28.311 3.59995 28.311C2.18881 27.7978 1.24918 27.1535 0.592112 25.7888C0.553972 25.6953 0.553972 25.6953 0.515063 25.6C0.481683 25.5188 0.448304 25.4376 0.413913 25.3539C0.141754 24.3556 0.189312 23.0467 0.702026 22.1412C1.41228 20.9692 2.31885 20.3247 3.59995 19.8976C4.40202 19.8976 5.20409 19.8976 6.03047 19.8976C6.03047 18.0467 6.03047 16.1958 6.03047 14.2887C5.2284 14.2887 4.42633 14.2887 3.59995 14.2887C2.18881 13.7756 1.24918 13.1313 0.592112 11.7666C0.553972 11.6731 0.553972 11.6731 0.515063 11.5778C0.481683 11.4966 0.448304 11.4154 0.413913 11.3317C0.141754 10.3334 0.189312 9.02453 0.702026 8.11898C1.39265 6.97938 2.32432 6.25066 3.59995 5.87542C3.88674 5.8542 3.88674 5.8542 4.1864 5.85716C4.34817 5.85807 4.34817 5.85807 4.51322 5.85899C4.62444 5.86056 4.73567 5.86212 4.85026 5.86374C4.96366 5.86458 5.07705 5.86542 5.19388 5.86629C5.47276 5.86849 5.7516 5.87156 6.03047 5.87542C6.02851 5.80718 6.02655 5.73894 6.02453 5.66863C6.01667 5.35391 6.01187 5.03921 6.0071 4.72443C6.0024 4.56347 6.0024 4.56347 5.9976 4.39925C5.98388 3.18855 6.35416 2.29658 7.15224 1.38831C7.90013 0.684806 8.83596 0.150396 9.8809 0.149004ZM9.31984 3.39232C8.80872 3.99107 8.82135 4.49823 8.82907 5.25027C8.82949 5.32841 8.82991 5.40656 8.83034 5.48707C8.83144 5.67885 8.83312 5.87062 8.83491 6.06239C8.93324 6.11173 8.93324 6.11173 9.03356 6.16207C10.1761 6.75661 10.9896 7.49398 11.4465 8.73245C11.752 9.92961 11.6387 11.255 11.0102 12.3191C10.4185 13.1906 9.77196 13.6333 8.83491 14.1018C8.83491 16.0761 8.83491 18.0504 8.83491 20.0846C9.17425 20.2697 9.51358 20.4548 9.8632 20.6455C10.72 21.2881 11.3876 22.1819 11.5459 23.263C11.6664 24.6334 11.495 25.751 10.6304 26.8642C10.1005 27.4588 9.55093 27.766 8.83491 28.124C8.83491 30.0983 8.83491 32.0727 8.83491 34.1068C9.17425 34.2919 9.51358 34.477 9.8632 34.6677C10.72 35.3103 11.3876 36.2041 11.5459 37.2852C11.6664 38.6556 11.495 39.7732 10.6304 40.8864C10.119 41.4603 9.52951 41.8305 8.83491 42.1462C8.73135 43.5113 8.73135 43.5113 9.23914 44.7239C9.7937 45.2319 10.4009 45.2584 11.1102 45.2536C11.1973 45.2537 11.2845 45.2539 11.3742 45.2541C11.6657 45.2544 11.9572 45.2534 12.2488 45.2523C12.4579 45.2523 12.6671 45.2523 12.8762 45.2524C13.4438 45.2525 14.0114 45.2514 14.579 45.2501C15.1722 45.2489 15.7655 45.2488 16.3587 45.2486C17.3544 45.248 18.3501 45.2469 19.3457 45.2452C20.3711 45.2435 21.3965 45.2422 22.4219 45.2414C22.4852 45.2413 22.5484 45.2413 22.6136 45.2412C22.9308 45.241 23.2481 45.2407 23.5653 45.2405C26.196 45.2386 28.8267 45.2353 31.4574 45.2311C31.4191 45.1866 31.3808 45.142 31.3414 45.0962C31.2658 45.0082 31.2658 45.0082 31.1888 44.9185C31.1389 44.8605 31.089 44.8024 31.0377 44.7426C29.4337 42.8572 28.612 40.6183 28.6238 38.1499C28.6243 38.0341 28.6248 37.9183 28.6254 37.7991C28.6559 35.5006 29.4687 33.5557 30.8965 31.7698C30.9551 31.6955 31.0137 31.6213 31.074 31.5448C32.4432 29.9041 34.7139 28.684 36.8362 28.4246C38.7046 28.2611 40.4633 28.3825 42.2107 29.0836C42.3912 29.1632 42.3912 29.1632 42.5817 29.1523C42.586 26.0076 42.5893 22.8628 42.5913 19.7181C42.5915 19.3468 42.5917 18.9755 42.592 18.6043C42.592 18.5303 42.5921 18.4564 42.5921 18.3803C42.5929 17.1835 42.5944 15.9867 42.5961 14.79C42.5979 13.562 42.5989 12.3339 42.5993 11.1059C42.5996 10.3482 42.6004 9.59046 42.6019 8.83272C42.603 8.25167 42.6031 7.67062 42.6028 7.08957C42.6029 6.85122 42.6033 6.61286 42.604 6.37451C42.6049 6.04929 42.6047 5.72409 42.6042 5.39887C42.6047 5.30439 42.6053 5.20991 42.6058 5.11256C42.6032 4.48496 42.5944 3.95575 42.1669 3.46243C41.6641 3.03321 41.2872 2.96593 40.6406 2.96547C40.5322 2.96517 40.4239 2.96487 40.3123 2.96456C40.1345 2.96478 40.1345 2.96478 39.953 2.965C39.8254 2.96482 39.6978 2.96461 39.5703 2.96436C39.2198 2.96378 38.8693 2.9638 38.5189 2.96391C38.1409 2.96393 37.7628 2.96341 37.3848 2.96297C36.6443 2.96219 35.9037 2.96193 35.1632 2.96188C34.5613 2.96184 33.9594 2.96164 33.3575 2.96135C31.6513 2.96052 29.9451 2.96009 28.2389 2.96016C28.1469 2.96017 28.0549 2.96017 27.9602 2.96017C27.8681 2.96018 27.776 2.96018 27.6811 2.96019C26.1881 2.96022 24.6952 2.95933 23.2022 2.95801C21.6696 2.95667 20.1369 2.95602 18.6042 2.9561C17.7436 2.95614 16.883 2.95588 16.0224 2.95487C15.2898 2.95402 14.5571 2.95382 13.8245 2.95445C13.4506 2.95476 13.0768 2.95476 12.703 2.95395C12.3607 2.95322 12.0185 2.95335 11.6762 2.95417C11.4939 2.95438 11.3116 2.95367 11.1293 2.95293C10.1522 2.94126 10.1522 2.94126 9.31984 3.39232ZM3.61748 9.09469C3.24932 9.52596 3.18438 9.76333 3.19645 10.3151C3.24009 10.6609 3.36864 10.8541 3.59995 11.1104C4.2438 11.5891 5.00662 11.5017 5.77221 11.5016C5.97078 11.5018 6.16931 11.5035 6.36788 11.5053C6.49568 11.5056 6.62349 11.5058 6.7513 11.5059C6.9238 11.5064 6.9238 11.5064 7.0998 11.507C7.59764 11.4731 7.96935 11.3994 8.34997 11.0695C8.71813 10.6382 8.78307 10.4008 8.77101 9.84911C8.72737 9.50323 8.59881 9.3101 8.3675 9.05379C7.72365 8.57503 6.96083 8.66245 6.19525 8.66254C5.99667 8.66234 5.79814 8.66064 5.59958 8.65887C5.47177 8.65859 5.34396 8.65841 5.21616 8.65832C5.04365 8.65774 5.04365 8.65774 4.86765 8.65716C4.36981 8.69112 3.9981 8.76482 3.61748 9.09469ZM3.61748 23.1169C3.24932 23.5482 3.18438 23.7855 3.19645 24.3373C3.24009 24.6832 3.36864 24.8763 3.59995 25.1326C4.2438 25.6114 5.00662 25.5239 5.77221 25.5238C5.97078 25.524 6.16931 25.5257 6.36788 25.5275C6.49568 25.5278 6.62349 25.528 6.7513 25.5281C6.9238 25.5286 6.9238 25.5286 7.0998 25.5292C7.59764 25.4953 7.96935 25.4216 8.34997 25.0917C8.71813 24.6604 8.78307 24.4231 8.77101 23.8713C8.72737 23.5254 8.59881 23.3323 8.3675 23.076C7.72365 22.5972 6.96083 22.6847 6.19525 22.6848C5.99667 22.6846 5.79814 22.6829 5.59958 22.6811C5.47177 22.6808 5.34396 22.6806 5.21616 22.6805C5.04365 22.68 5.04365 22.68 4.86765 22.6794C4.36981 22.7133 3.9981 22.787 3.61748 23.1169ZM33.327 33.359C33.2716 33.4128 33.2162 33.4667 33.1591 33.5222C31.8614 34.8526 31.4293 36.6091 31.428 38.411C31.4507 40.1176 32.0878 41.629 33.2336 42.8941C33.2932 42.9602 33.3529 43.0264 33.4143 43.0945C34.5496 44.2892 36.1504 45.1078 37.812 45.1566C39.1915 45.1768 39.1915 45.1768 40.5251 44.8572C40.6197 44.8232 40.7143 44.7892 40.8118 44.7542C42.4442 44.1208 43.8412 42.8682 44.6383 41.3049C45.3667 39.651 45.6656 37.6189 45.0122 35.883C44.5627 34.8123 43.9999 33.8746 43.1426 33.0785C43.0887 33.0231 43.0349 32.9677 42.9794 32.9105C41.6634 31.6269 39.9218 31.1816 38.1371 31.1863C36.2694 31.2108 34.601 31.987 33.327 33.359ZM3.61748 37.1391C3.24932 37.5704 3.18438 37.8078 3.19645 38.3595C3.24009 38.7054 3.36864 38.8985 3.59995 39.1548C4.2438 39.6336 5.00662 39.5461 5.77221 39.5461C5.97078 39.5463 6.16931 39.548 6.36788 39.5497C6.49568 39.55 6.62349 39.5502 6.7513 39.5503C6.9238 39.5509 6.9238 39.5509 7.0998 39.5514C7.59764 39.5175 7.96935 39.4438 8.34997 39.1139C8.71813 38.6826 8.78307 38.4453 8.77101 37.8935C8.72737 37.5477 8.59881 37.3545 8.3675 37.0982C7.72365 36.6195 6.96083 36.7069 6.19525 36.707C5.99667 36.7068 5.79814 36.7051 5.59958 36.7033C5.47177 36.703 5.34396 36.7028 5.21616 36.7028C5.04365 36.7022 5.04365 36.7022 4.86765 36.7016C4.36981 36.7355 3.9981 36.8092 3.61748 37.1391Z"/>
<path d="M24.8202 31.1154C25.2523 31.3201 25.4477 31.5362 25.6616 31.9567C25.7087 32.2215 25.7087 32.2215 25.7141 32.5001C25.7201 32.6369 25.7201 32.6369 25.7262 32.7765C25.5307 33.6899 24.5155 34.4387 23.8763 35.0756C23.7566 35.1954 23.637 35.3152 23.5174 35.4351C23.2677 35.685 23.0178 35.9345 22.7675 36.1839C22.4473 36.503 22.128 36.823 21.8089 37.1432C21.5624 37.3903 21.3156 37.637 21.0686 37.8835C20.9506 38.0013 20.8328 38.1193 20.7151 38.2374C20.5508 38.4022 20.3858 38.5665 20.2206 38.7306C20.1725 38.7791 20.1244 38.8276 20.0748 38.8776C19.6373 39.31 19.2926 39.569 18.668 39.5813C18.5312 39.5873 18.5312 39.5873 18.3916 39.5934C17.6777 39.4406 17.1236 38.7776 16.6242 38.2751C16.5272 38.1784 16.5272 38.1784 16.4282 38.0797C16.2928 37.9444 16.1576 37.8089 16.0226 37.6731C15.8164 37.4659 15.6091 37.2597 15.4018 37.0535C15.2697 36.9213 15.1377 36.7891 15.0058 36.6567C14.9133 36.5648 14.9133 36.5648 14.819 36.4711C14.3399 35.9871 14.0203 35.5816 13.9647 34.8868C13.985 34.5059 14.1238 34.2224 14.3503 33.9199C14.7473 33.568 15.1342 33.4289 15.6591 33.4524C16.5639 33.711 17.2131 34.5255 17.8559 35.176C17.9238 35.2444 17.9918 35.3128 18.0618 35.3832C18.2271 35.5496 18.3921 35.7162 18.557 35.883C18.8929 35.7408 19.1056 35.543 19.3607 35.2845C19.4875 35.1567 19.4875 35.1567 19.6169 35.0264C19.6617 34.9809 19.7064 34.9353 19.7525 34.8884C19.8932 34.7454 20.0345 34.6029 20.1759 34.4605C20.5271 34.1069 20.8772 33.7522 21.2274 33.3976C21.5234 33.0978 21.8199 32.7985 22.1168 32.4996C22.2556 32.3596 22.3939 32.219 22.5321 32.0785C22.6169 31.993 22.7018 31.9075 22.7892 31.8195C22.8634 31.7443 22.9376 31.6691 23.0141 31.5916C23.5844 31.077 24.0724 31.0242 24.8202 31.1154Z"/>
<path d="M24.8202 19.8976C25.2523 20.1023 25.4477 20.3184 25.6616 20.739C25.7087 21.0037 25.7087 21.0037 25.7141 21.2823C25.7201 21.4192 25.7201 21.4192 25.7262 21.5588C25.5307 22.4721 24.5155 23.221 23.8763 23.8578C23.7566 23.9776 23.637 24.0974 23.5174 24.2173C23.2677 24.4672 23.0178 24.7168 22.7675 24.9661C22.4473 25.2852 22.128 25.6052 21.8089 25.9254C21.5624 26.1725 21.3156 26.4192 21.0686 26.6657C20.9506 26.7835 20.8328 26.9015 20.7151 27.0196C20.5508 27.1845 20.3858 27.3487 20.2206 27.5128C20.1725 27.5614 20.1244 27.6099 20.0748 27.6599C19.6373 28.0922 19.2926 28.3513 18.668 28.3636C18.5312 28.3695 18.5312 28.3695 18.3916 28.3756C17.6777 28.2228 17.1236 27.5599 16.6242 27.0574C16.5272 26.9606 16.5272 26.9606 16.4282 26.8619C16.2928 26.7266 16.1576 26.5911 16.0226 26.4554C15.8164 26.2481 15.6091 26.0419 15.4018 25.8357C15.2697 25.7035 15.1377 25.5713 15.0058 25.439C14.9133 25.3471 14.9133 25.3471 14.819 25.2533C14.3399 24.7694 14.0203 24.3638 13.9647 23.669C13.985 23.2882 14.1238 23.0046 14.3503 22.7021C14.7473 22.3502 15.1342 22.2111 15.6591 22.2347C16.5639 22.4932 17.2131 23.3077 17.8559 23.9582C17.9238 24.0266 17.9918 24.095 18.0618 24.1655C18.2271 24.3318 18.3921 24.4984 18.557 24.6652C18.8929 24.523 19.1056 24.3252 19.3607 24.0667C19.4875 23.939 19.4875 23.939 19.6169 23.8086C19.6617 23.7631 19.7064 23.7176 19.7525 23.6707C19.8932 23.5276 20.0345 23.3851 20.1759 23.2428C20.5271 22.8891 20.8772 22.5345 21.2274 22.1798C21.5234 21.8801 21.8199 21.5807 22.1168 21.2818C22.2556 21.1418 22.3939 21.0013 22.5321 20.8607C22.6169 20.7752 22.7018 20.6898 22.7892 20.6017C22.8634 20.5265 22.9376 20.4513 23.0141 20.3738C23.5844 19.8593 24.0724 19.8064 24.8202 19.8976Z"/>
<path d="M24.8202 8.67986C25.2523 8.88454 25.4477 9.10064 25.6616 9.5212C25.7087 9.78594 25.7087 9.78594 25.7141 10.0646C25.7201 10.2014 25.7201 10.2014 25.7262 10.341C25.5307 11.2544 24.5155 12.0032 23.8763 12.64C23.7566 12.7598 23.637 12.8797 23.5174 12.9995C23.2677 13.2494 23.0178 13.499 22.7675 13.7483C22.4473 14.0675 22.128 14.3874 21.8089 14.7077C21.5624 14.9548 21.3156 15.2014 21.0686 15.448C20.9506 15.5658 20.8328 15.6837 20.7151 15.8018C20.5508 15.9667 20.3858 16.131 20.2206 16.2951C20.1725 16.3436 20.1244 16.3921 20.0748 16.4421C19.6373 16.8744 19.2926 17.1335 18.668 17.1458C18.5312 17.1517 18.5312 17.1517 18.3916 17.1578C17.6777 17.0051 17.1236 16.3421 16.6242 15.8396C16.5272 15.7429 16.5272 15.7429 16.4282 15.6442C16.2928 15.5089 16.1576 15.3733 16.0226 15.2376C15.8164 15.0303 15.6091 14.8241 15.4018 14.6179C15.2697 14.4858 15.1377 14.3535 15.0058 14.2212C14.9133 14.1293 14.9133 14.1293 14.819 14.0356C14.3399 13.5516 14.0203 13.1461 13.9647 12.4513C13.985 12.0704 14.1238 11.7868 14.3503 11.4843C14.7473 11.1325 15.1342 10.9934 15.6591 11.0169C16.5639 11.2754 17.2131 12.0899 17.8559 12.7405C17.9238 12.8089 17.9918 12.8772 18.0618 12.9477C18.2271 13.1141 18.3921 13.2806 18.557 13.4474C18.8929 13.3052 19.1056 13.1074 19.3607 12.8489C19.4875 12.7212 19.4875 12.7212 19.6169 12.5908C19.6617 12.5453 19.7064 12.4998 19.7525 12.4529C19.8932 12.3098 20.0345 12.1673 20.1759 12.025C20.5271 11.6713 20.8772 11.3167 21.2274 10.9621C21.5234 10.6623 21.8199 10.3629 22.1168 10.0641C22.2556 9.92405 22.3939 9.7835 22.5321 9.64291C22.6169 9.55744 22.7018 9.47198 22.7892 9.38392C22.8634 9.30871 22.9376 9.23351 23.0141 9.15603C23.5844 8.64148 24.0724 8.58867 24.8202 8.67986Z"/>
<path d="M30.3203 22.6643C30.4585 22.6633 30.4585 22.6633 30.5996 22.6624C30.9039 22.6607 31.2082 22.661 31.5126 22.6615C31.7243 22.6611 31.9361 22.6606 32.1479 22.6601C32.5916 22.6592 33.0354 22.6595 33.4791 22.6604C34.0476 22.6615 34.616 22.6596 35.1844 22.6568C35.6217 22.6551 36.059 22.6551 36.4963 22.6557C36.7059 22.6557 36.9155 22.6551 37.125 22.654C37.4182 22.6526 37.7112 22.6536 38.0044 22.6552C38.0908 22.6543 38.1772 22.6534 38.2662 22.6524C38.7851 22.6584 39.0865 22.7274 39.4968 23.076C39.876 23.5642 39.8496 24.0719 39.7773 24.6652C39.5742 25.0938 39.3631 25.3091 38.9359 25.5065C38.6294 25.5479 38.3254 25.5458 38.0165 25.5443C37.8782 25.5453 37.8782 25.5453 37.7372 25.5462C37.4328 25.5479 37.1285 25.5476 36.8242 25.5471C36.6124 25.5475 36.4007 25.548 36.1889 25.5485C35.7451 25.5494 35.3014 25.5491 34.8576 25.5482C34.2892 25.5471 33.7208 25.549 33.1523 25.5518C32.715 25.5535 32.2777 25.5535 31.8404 25.5529C31.6308 25.5529 31.4213 25.5535 31.2117 25.5546C30.9186 25.556 30.6255 25.555 30.3324 25.5534C30.246 25.5543 30.1596 25.5552 30.0705 25.5562C29.5517 25.5502 29.2503 25.4812 28.8399 25.1326C28.4607 24.6444 28.4871 24.1367 28.5595 23.5434C28.9451 22.7293 29.5001 22.6603 30.3203 22.6643Z"/>
<path d="M30.3203 11.4465C30.4585 11.4456 30.4585 11.4456 30.5996 11.4446C30.9039 11.4429 31.2082 11.4432 31.5126 11.4438C31.7243 11.4433 31.9361 11.4429 32.1479 11.4423C32.5916 11.4415 33.0354 11.4417 33.4791 11.4426C34.0476 11.4437 34.616 11.4418 35.1844 11.4391C35.6217 11.4373 36.059 11.4374 36.4963 11.4379C36.7059 11.4379 36.9155 11.4374 37.125 11.4362C37.4182 11.4348 37.7112 11.4358 38.0044 11.4374C38.0908 11.4365 38.1772 11.4356 38.2662 11.4347C38.7851 11.4406 39.0865 11.5097 39.4968 11.8582C39.876 12.3464 39.8496 12.8541 39.7773 13.4474C39.5742 13.876 39.3631 14.0913 38.9359 14.2887C38.6294 14.3301 38.3254 14.328 38.0165 14.3265C37.8782 14.3275 37.8782 14.3275 37.7372 14.3285C37.4328 14.3302 37.1285 14.3298 36.8242 14.3293C36.6124 14.3297 36.4007 14.3302 36.1889 14.3308C35.7451 14.3316 35.3014 14.3314 34.8576 14.3304C34.2892 14.3294 33.7208 14.3313 33.1523 14.334C32.715 14.3357 32.2777 14.3357 31.8404 14.3351C31.6308 14.3351 31.4213 14.3357 31.2117 14.3369C30.9186 14.3382 30.6255 14.3373 30.3324 14.3357C30.246 14.3366 30.1596 14.3375 30.0705 14.3384C29.5517 14.3325 29.2503 14.2634 28.8399 13.9148C28.4607 13.4266 28.4871 12.9189 28.5595 12.3256C28.9451 11.5115 29.5001 11.4425 30.3203 11.4465Z"/>
<path d="M38.9359 33.9199C39.3636 34.1224 39.5848 34.332 39.7772 34.7612C39.8111 35.0989 39.8037 35.433 39.7948 35.772C39.7929 35.9092 39.7929 35.9092 39.7909 36.0493C39.7876 36.2743 39.783 36.4993 39.7772 36.7243C39.8338 36.7223 39.8903 36.7204 39.9486 36.7184C40.2069 36.7105 40.4653 36.7057 40.7237 36.7009C40.8127 36.6978 40.9016 36.6947 40.9932 36.6914C41.5392 36.6838 41.8802 36.7126 42.3012 37.0982C42.6804 37.5864 42.654 38.0941 42.5817 38.6874C42.3786 39.1162 42.1669 39.3298 41.7404 39.5287C41.4453 39.5704 41.1531 39.5703 40.8556 39.5693C40.7278 39.57 40.7278 39.57 40.5975 39.5708C40.4178 39.5714 40.2381 39.5712 40.0584 39.5704C39.7843 39.5696 39.5104 39.5723 39.2363 39.5753C39.0613 39.5754 38.8863 39.5754 38.7113 39.5751C38.6298 39.5762 38.5483 39.5772 38.4643 39.5783C37.9548 39.5725 37.6501 39.5047 37.2533 39.1548C36.9015 38.744 36.9305 38.318 36.9323 37.8026C36.9318 37.7175 36.9313 37.6323 36.9308 37.5446C36.9302 37.3649 36.9303 37.1852 36.9311 37.0055C36.9319 36.7314 36.9292 36.4574 36.9262 36.1833C36.9261 36.0083 36.9262 35.8334 36.9264 35.6584C36.9254 35.5769 36.9243 35.4953 36.9232 35.4114C36.9291 34.8999 37.0055 34.6056 37.3467 34.2003C37.8349 33.8211 38.3426 33.8475 38.9359 33.9199Z"/>
</mask>
<path d="M9.8809 0.149004C9.99568 0.148401 10.1105 0.147799 10.2287 0.147177C10.3553 0.147452 10.4819 0.147746 10.6085 0.148055C10.7436 0.147705 10.8787 0.147275 11.0138 0.146771C11.3847 0.145628 11.7555 0.145652 12.1264 0.145873C12.5265 0.145911 12.9266 0.144879 13.3268 0.143992C14.1106 0.14244 14.8944 0.141926 15.6783 0.141821C16.3155 0.141732 16.9528 0.141348 17.5901 0.140755C19.3973 0.139109 21.2045 0.138247 23.0117 0.138387C23.1091 0.138394 23.2066 0.138402 23.3069 0.138409C23.4045 0.138417 23.502 0.138425 23.6025 0.138433C25.1829 0.138508 26.7632 0.13672 28.3435 0.134083C29.9666 0.131397 31.5897 0.130107 33.2129 0.130268C34.1239 0.13033 35.035 0.129818 35.9461 0.127804C36.7219 0.126101 37.4977 0.125696 38.2735 0.126965C38.6692 0.127575 39.0648 0.127588 39.4604 0.125964C39.8231 0.12449 40.1857 0.124764 40.5484 0.126391C40.6791 0.126677 40.8098 0.126341 40.9406 0.125295C42.2374 0.115615 43.1907 0.433514 44.1709 1.29483C44.6123 1.76411 44.9556 2.28725 45.1992 2.88402C45.2312 2.95748 45.2632 3.03095 45.2962 3.10664C45.4253 3.59225 45.4098 4.05849 45.4059 4.55883C45.4057 4.72843 45.4057 4.72843 45.4055 4.90145C45.4051 5.14928 45.4044 5.39709 45.4031 5.64492C45.4009 6.04822 45.4001 6.45151 45.3994 6.85481C45.3984 7.36457 45.3971 7.87433 45.3954 8.38408C45.392 9.38625 45.391 10.3884 45.3908 11.3906C45.3907 11.5485 45.3907 11.7064 45.3906 11.8643C45.3905 12.1036 45.3905 12.3429 45.3904 12.5822C45.3901 13.484 45.3896 14.3858 45.3888 15.2877C45.3888 15.3701 45.3887 15.4525 45.3886 15.5374C45.3874 16.8723 45.3834 18.2071 45.3785 19.542C45.3736 20.9136 45.3723 22.2851 45.3741 23.6567C45.3751 24.5021 45.3733 25.3474 45.3677 26.1927C45.3641 26.7725 45.364 27.3523 45.3665 27.9321C45.3679 28.2663 45.3677 28.6003 45.3635 28.9345C45.2758 30.5331 45.2758 30.5331 45.9391 31.9153C46.0942 32.0575 46.2522 32.1967 46.4144 32.3307C48.0601 34.4488 48.4678 37.2675 48.1475 39.8661C47.815 41.6891 46.9763 43.3783 45.7601 44.7637C45.7001 44.8418 45.64 44.9199 45.5782 45.0003C45.2282 45.4208 44.7882 45.738 44.3578 46.0724C44.2478 46.1583 44.2478 46.1583 44.1355 46.2459C42.4436 47.4969 40.5045 48.0653 38.4143 48.0612C38.2889 48.0616 38.1635 48.0621 38.0381 48.0627C37.6961 48.064 37.3542 48.0641 37.0123 48.0641C36.6425 48.0643 36.2728 48.0655 35.903 48.0665C35.0958 48.0687 34.2887 48.0694 33.4816 48.0699C32.9771 48.0702 32.4727 48.0708 31.9682 48.0715C30.5701 48.0733 29.1719 48.0749 27.7737 48.0751C27.6397 48.0751 27.6397 48.0751 27.503 48.0752C27.3219 48.0752 27.1409 48.0752 26.9598 48.0753C26.8699 48.0753 26.7801 48.0753 26.6875 48.0753C26.5975 48.0753 26.5075 48.0754 26.4148 48.0754C24.956 48.0757 23.4973 48.0782 22.0386 48.0817C20.5389 48.0853 19.0393 48.0871 17.5397 48.0871C16.6984 48.0872 15.8572 48.088 15.016 48.0907C14.3 48.093 13.5839 48.0937 12.8679 48.0923C12.5029 48.0916 12.138 48.0917 11.773 48.0938C11.4382 48.0957 11.1035 48.0955 10.7688 48.0935C10.5917 48.093 10.4146 48.0948 10.2375 48.0968C9.25041 48.0871 8.40741 47.7898 7.61965 47.1942C7.50686 47.119 7.50686 47.119 7.39179 47.0423C6.65459 46.3591 6.08026 45.4013 6.0112 44.3874C5.99112 43.7022 6.00445 43.018 6.03047 42.3332C5.96222 42.3351 5.89398 42.3371 5.82367 42.3391C5.50895 42.347 5.19426 42.3518 4.87948 42.3566C4.77217 42.3597 4.66486 42.3628 4.5543 42.366C3.3436 42.3798 2.45162 42.0095 1.54336 41.2114C1.10192 40.7421 0.758618 40.219 0.515063 39.6222C0.481683 39.541 0.448304 39.4598 0.413913 39.3761C0.141754 38.3778 0.189312 37.069 0.702026 36.1634C1.41228 34.9914 2.31885 34.3469 3.59995 33.9199C4.40202 33.9199 5.20409 33.9199 6.03047 33.9199C6.03047 32.0689 6.03047 30.218 6.03047 28.311C5.2284 28.311 4.42633 28.311 3.59995 28.311C2.18881 27.7978 1.24918 27.1535 0.592112 25.7888C0.553972 25.6953 0.553972 25.6953 0.515063 25.6C0.481683 25.5188 0.448304 25.4376 0.413913 25.3539C0.141754 24.3556 0.189312 23.0467 0.702026 22.1412C1.41228 20.9692 2.31885 20.3247 3.59995 19.8976C4.40202 19.8976 5.20409 19.8976 6.03047 19.8976C6.03047 18.0467 6.03047 16.1958 6.03047 14.2887C5.2284 14.2887 4.42633 14.2887 3.59995 14.2887C2.18881 13.7756 1.24918 13.1313 0.592112 11.7666C0.553972 11.6731 0.553972 11.6731 0.515063 11.5778C0.481683 11.4966 0.448304 11.4154 0.413913 11.3317C0.141754 10.3334 0.189312 9.02453 0.702026 8.11898C1.39265 6.97938 2.32432 6.25066 3.59995 5.87542C3.88674 5.8542 3.88674 5.8542 4.1864 5.85716C4.34817 5.85807 4.34817 5.85807 4.51322 5.85899C4.62444 5.86056 4.73567 5.86212 4.85026 5.86374C4.96366 5.86458 5.07705 5.86542 5.19388 5.86629C5.47276 5.86849 5.7516 5.87156 6.03047 5.87542C6.02851 5.80718 6.02655 5.73894 6.02453 5.66863C6.01667 5.35391 6.01187 5.03921 6.0071 4.72443C6.0024 4.56347 6.0024 4.56347 5.9976 4.39925C5.98388 3.18855 6.35416 2.29658 7.15224 1.38831C7.90013 0.684806 8.83596 0.150396 9.8809 0.149004ZM9.31984 3.39232C8.80872 3.99107 8.82135 4.49823 8.82907 5.25027C8.82949 5.32841 8.82991 5.40656 8.83034 5.48707C8.83144 5.67885 8.83312 5.87062 8.83491 6.06239C8.93324 6.11173 8.93324 6.11173 9.03356 6.16207C10.1761 6.75661 10.9896 7.49398 11.4465 8.73245C11.752 9.92961 11.6387 11.255 11.0102 12.3191C10.4185 13.1906 9.77196 13.6333 8.83491 14.1018C8.83491 16.0761 8.83491 18.0504 8.83491 20.0846C9.17425 20.2697 9.51358 20.4548 9.8632 20.6455C10.72 21.2881 11.3876 22.1819 11.5459 23.263C11.6664 24.6334 11.495 25.751 10.6304 26.8642C10.1005 27.4588 9.55093 27.766 8.83491 28.124C8.83491 30.0983 8.83491 32.0727 8.83491 34.1068C9.17425 34.2919 9.51358 34.477 9.8632 34.6677C10.72 35.3103 11.3876 36.2041 11.5459 37.2852C11.6664 38.6556 11.495 39.7732 10.6304 40.8864C10.119 41.4603 9.52951 41.8305 8.83491 42.1462C8.73135 43.5113 8.73135 43.5113 9.23914 44.7239C9.7937 45.2319 10.4009 45.2584 11.1102 45.2536C11.1973 45.2537 11.2845 45.2539 11.3742 45.2541C11.6657 45.2544 11.9572 45.2534 12.2488 45.2523C12.4579 45.2523 12.6671 45.2523 12.8762 45.2524C13.4438 45.2525 14.0114 45.2514 14.579 45.2501C15.1722 45.2489 15.7655 45.2488 16.3587 45.2486C17.3544 45.248 18.3501 45.2469 19.3457 45.2452C20.3711 45.2435 21.3965 45.2422 22.4219 45.2414C22.4852 45.2413 22.5484 45.2413 22.6136 45.2412C22.9308 45.241 23.2481 45.2407 23.5653 45.2405C26.196 45.2386 28.8267 45.2353 31.4574 45.2311C31.4191 45.1866 31.3808 45.142 31.3414 45.0962C31.2658 45.0082 31.2658 45.0082 31.1888 44.9185C31.1389 44.8605 31.089 44.8024 31.0377 44.7426C29.4337 42.8572 28.612 40.6183 28.6238 38.1499C28.6243 38.0341 28.6248 37.9183 28.6254 37.7991C28.6559 35.5006 29.4687 33.5557 30.8965 31.7698C30.9551 31.6955 31.0137 31.6213 31.074 31.5448C32.4432 29.9041 34.7139 28.684 36.8362 28.4246C38.7046 28.2611 40.4633 28.3825 42.2107 29.0836C42.3912 29.1632 42.3912 29.1632 42.5817 29.1523C42.586 26.0076 42.5893 22.8628 42.5913 19.7181C42.5915 19.3468 42.5917 18.9755 42.592 18.6043C42.592 18.5303 42.5921 18.4564 42.5921 18.3803C42.5929 17.1835 42.5944 15.9867 42.5961 14.79C42.5979 13.562 42.5989 12.3339 42.5993 11.1059C42.5996 10.3482 42.6004 9.59046 42.6019 8.83272C42.603 8.25167 42.6031 7.67062 42.6028 7.08957C42.6029 6.85122 42.6033 6.61286 42.604 6.37451C42.6049 6.04929 42.6047 5.72409 42.6042 5.39887C42.6047 5.30439 42.6053 5.20991 42.6058 5.11256C42.6032 4.48496 42.5944 3.95575 42.1669 3.46243C41.6641 3.03321 41.2872 2.96593 40.6406 2.96547C40.5322 2.96517 40.4239 2.96487 40.3123 2.96456C40.1345 2.96478 40.1345 2.96478 39.953 2.965C39.8254 2.96482 39.6978 2.96461 39.5703 2.96436C39.2198 2.96378 38.8693 2.9638 38.5189 2.96391C38.1409 2.96393 37.7628 2.96341 37.3848 2.96297C36.6443 2.96219 35.9037 2.96193 35.1632 2.96188C34.5613 2.96184 33.9594 2.96164 33.3575 2.96135C31.6513 2.96052 29.9451 2.96009 28.2389 2.96016C28.1469 2.96017 28.0549 2.96017 27.9602 2.96017C27.8681 2.96018 27.776 2.96018 27.6811 2.96019C26.1881 2.96022 24.6952 2.95933 23.2022 2.95801C21.6696 2.95667 20.1369 2.95602 18.6042 2.9561C17.7436 2.95614 16.883 2.95588 16.0224 2.95487C15.2898 2.95402 14.5571 2.95382 13.8245 2.95445C13.4506 2.95476 13.0768 2.95476 12.703 2.95395C12.3607 2.95322 12.0185 2.95335 11.6762 2.95417C11.4939 2.95438 11.3116 2.95367 11.1293 2.95293C10.1522 2.94126 10.1522 2.94126 9.31984 3.39232ZM3.61748 9.09469C3.24932 9.52596 3.18438 9.76333 3.19645 10.3151C3.24009 10.6609 3.36864 10.8541 3.59995 11.1104C4.2438 11.5891 5.00662 11.5017 5.77221 11.5016C5.97078 11.5018 6.16931 11.5035 6.36788 11.5053C6.49568 11.5056 6.62349 11.5058 6.7513 11.5059C6.9238 11.5064 6.9238 11.5064 7.0998 11.507C7.59764 11.4731 7.96935 11.3994 8.34997 11.0695C8.71813 10.6382 8.78307 10.4008 8.77101 9.84911C8.72737 9.50323 8.59881 9.3101 8.3675 9.05379C7.72365 8.57503 6.96083 8.66245 6.19525 8.66254C5.99667 8.66234 5.79814 8.66064 5.59958 8.65887C5.47177 8.65859 5.34396 8.65841 5.21616 8.65832C5.04365 8.65774 5.04365 8.65774 4.86765 8.65716C4.36981 8.69112 3.9981 8.76482 3.61748 9.09469ZM3.61748 23.1169C3.24932 23.5482 3.18438 23.7855 3.19645 24.3373C3.24009 24.6832 3.36864 24.8763 3.59995 25.1326C4.2438 25.6114 5.00662 25.5239 5.77221 25.5238C5.97078 25.524 6.16931 25.5257 6.36788 25.5275C6.49568 25.5278 6.62349 25.528 6.7513 25.5281C6.9238 25.5286 6.9238 25.5286 7.0998 25.5292C7.59764 25.4953 7.96935 25.4216 8.34997 25.0917C8.71813 24.6604 8.78307 24.4231 8.77101 23.8713C8.72737 23.5254 8.59881 23.3323 8.3675 23.076C7.72365 22.5972 6.96083 22.6847 6.19525 22.6848C5.99667 22.6846 5.79814 22.6829 5.59958 22.6811C5.47177 22.6808 5.34396 22.6806 5.21616 22.6805C5.04365 22.68 5.04365 22.68 4.86765 22.6794C4.36981 22.7133 3.9981 22.787 3.61748 23.1169ZM33.327 33.359C33.2716 33.4128 33.2162 33.4667 33.1591 33.5222C31.8614 34.8526 31.4293 36.6091 31.428 38.411C31.4507 40.1176 32.0878 41.629 33.2336 42.8941C33.2932 42.9602 33.3529 43.0264 33.4143 43.0945C34.5496 44.2892 36.1504 45.1078 37.812 45.1566C39.1915 45.1768 39.1915 45.1768 40.5251 44.8572C40.6197 44.8232 40.7143 44.7892 40.8118 44.7542C42.4442 44.1208 43.8412 42.8682 44.6383 41.3049C45.3667 39.651 45.6656 37.6189 45.0122 35.883C44.5627 34.8123 43.9999 33.8746 43.1426 33.0785C43.0887 33.0231 43.0349 32.9677 42.9794 32.9105C41.6634 31.6269 39.9218 31.1816 38.1371 31.1863C36.2694 31.2108 34.601 31.987 33.327 33.359ZM3.61748 37.1391C3.24932 37.5704 3.18438 37.8078 3.19645 38.3595C3.24009 38.7054 3.36864 38.8985 3.59995 39.1548C4.2438 39.6336 5.00662 39.5461 5.77221 39.5461C5.97078 39.5463 6.16931 39.548 6.36788 39.5497C6.49568 39.55 6.62349 39.5502 6.7513 39.5503C6.9238 39.5509 6.9238 39.5509 7.0998 39.5514C7.59764 39.5175 7.96935 39.4438 8.34997 39.1139C8.71813 38.6826 8.78307 38.4453 8.77101 37.8935C8.72737 37.5477 8.59881 37.3545 8.3675 37.0982C7.72365 36.6195 6.96083 36.7069 6.19525 36.707C5.99667 36.7068 5.79814 36.7051 5.59958 36.7033C5.47177 36.703 5.34396 36.7028 5.21616 36.7028C5.04365 36.7022 5.04365 36.7022 4.86765 36.7016C4.36981 36.7355 3.9981 36.8092 3.61748 37.1391Z" fill="white"/>
<path d="M24.8202 31.1154C25.2523 31.3201 25.4477 31.5362 25.6616 31.9567C25.7087 32.2215 25.7087 32.2215 25.7141 32.5001C25.7201 32.6369 25.7201 32.6369 25.7262 32.7765C25.5307 33.6899 24.5155 34.4387 23.8763 35.0756C23.7566 35.1954 23.637 35.3152 23.5174 35.4351C23.2677 35.685 23.0178 35.9345 22.7675 36.1839C22.4473 36.503 22.128 36.823 21.8089 37.1432C21.5624 37.3903 21.3156 37.637 21.0686 37.8835C20.9506 38.0013 20.8328 38.1193 20.7151 38.2374C20.5508 38.4022 20.3858 38.5665 20.2206 38.7306C20.1725 38.7791 20.1244 38.8276 20.0748 38.8776C19.6373 39.31 19.2926 39.569 18.668 39.5813C18.5312 39.5873 18.5312 39.5873 18.3916 39.5934C17.6777 39.4406 17.1236 38.7776 16.6242 38.2751C16.5272 38.1784 16.5272 38.1784 16.4282 38.0797C16.2928 37.9444 16.1576 37.8089 16.0226 37.6731C15.8164 37.4659 15.6091 37.2597 15.4018 37.0535C15.2697 36.9213 15.1377 36.7891 15.0058 36.6567C14.9133 36.5648 14.9133 36.5648 14.819 36.4711C14.3399 35.9871 14.0203 35.5816 13.9647 34.8868C13.985 34.5059 14.1238 34.2224 14.3503 33.9199C14.7473 33.568 15.1342 33.4289 15.6591 33.4524C16.5639 33.711 17.2131 34.5255 17.8559 35.176C17.9238 35.2444 17.9918 35.3128 18.0618 35.3832C18.2271 35.5496 18.3921 35.7162 18.557 35.883C18.8929 35.7408 19.1056 35.543 19.3607 35.2845C19.4875 35.1567 19.4875 35.1567 19.6169 35.0264C19.6617 34.9809 19.7064 34.9353 19.7525 34.8884C19.8932 34.7454 20.0345 34.6029 20.1759 34.4605C20.5271 34.1069 20.8772 33.7522 21.2274 33.3976C21.5234 33.0978 21.8199 32.7985 22.1168 32.4996C22.2556 32.3596 22.3939 32.219 22.5321 32.0785C22.6169 31.993 22.7018 31.9075 22.7892 31.8195C22.8634 31.7443 22.9376 31.6691 23.0141 31.5916C23.5844 31.077 24.0724 31.0242 24.8202 31.1154Z" fill="white"/>
<path d="M24.8202 19.8976C25.2523 20.1023 25.4477 20.3184 25.6616 20.739C25.7087 21.0037 25.7087 21.0037 25.7141 21.2823C25.7201 21.4192 25.7201 21.4192 25.7262 21.5588C25.5307 22.4721 24.5155 23.221 23.8763 23.8578C23.7566 23.9776 23.637 24.0974 23.5174 24.2173C23.2677 24.4672 23.0178 24.7168 22.7675 24.9661C22.4473 25.2852 22.128 25.6052 21.8089 25.9254C21.5624 26.1725 21.3156 26.4192 21.0686 26.6657C20.9506 26.7835 20.8328 26.9015 20.7151 27.0196C20.5508 27.1845 20.3858 27.3487 20.2206 27.5128C20.1725 27.5614 20.1244 27.6099 20.0748 27.6599C19.6373 28.0922 19.2926 28.3513 18.668 28.3636C18.5312 28.3695 18.5312 28.3695 18.3916 28.3756C17.6777 28.2228 17.1236 27.5599 16.6242 27.0574C16.5272 26.9606 16.5272 26.9606 16.4282 26.8619C16.2928 26.7266 16.1576 26.5911 16.0226 26.4554C15.8164 26.2481 15.6091 26.0419 15.4018 25.8357C15.2697 25.7035 15.1377 25.5713 15.0058 25.439C14.9133 25.3471 14.9133 25.3471 14.819 25.2533C14.3399 24.7694 14.0203 24.3638 13.9647 23.669C13.985 23.2882 14.1238 23.0046 14.3503 22.7021C14.7473 22.3502 15.1342 22.2111 15.6591 22.2347C16.5639 22.4932 17.2131 23.3077 17.8559 23.9582C17.9238 24.0266 17.9918 24.095 18.0618 24.1655C18.2271 24.3318 18.3921 24.4984 18.557 24.6652C18.8929 24.523 19.1056 24.3252 19.3607 24.0667C19.4875 23.939 19.4875 23.939 19.6169 23.8086C19.6617 23.7631 19.7064 23.7176 19.7525 23.6707C19.8932 23.5276 20.0345 23.3851 20.1759 23.2428C20.5271 22.8891 20.8772 22.5345 21.2274 22.1798C21.5234 21.8801 21.8199 21.5807 22.1168 21.2818C22.2556 21.1418 22.3939 21.0013 22.5321 20.8607C22.6169 20.7752 22.7018 20.6898 22.7892 20.6017C22.8634 20.5265 22.9376 20.4513 23.0141 20.3738C23.5844 19.8593 24.0724 19.8064 24.8202 19.8976Z" fill="white"/>
<path d="M24.8202 8.67986C25.2523 8.88454 25.4477 9.10064 25.6616 9.5212C25.7087 9.78594 25.7087 9.78594 25.7141 10.0646C25.7201 10.2014 25.7201 10.2014 25.7262 10.341C25.5307 11.2544 24.5155 12.0032 23.8763 12.64C23.7566 12.7598 23.637 12.8797 23.5174 12.9995C23.2677 13.2494 23.0178 13.499 22.7675 13.7483C22.4473 14.0675 22.128 14.3874 21.8089 14.7077C21.5624 14.9548 21.3156 15.2014 21.0686 15.448C20.9506 15.5658 20.8328 15.6837 20.7151 15.8018C20.5508 15.9667 20.3858 16.131 20.2206 16.2951C20.1725 16.3436 20.1244 16.3921 20.0748 16.4421C19.6373 16.8744 19.2926 17.1335 18.668 17.1458C18.5312 17.1517 18.5312 17.1517 18.3916 17.1578C17.6777 17.0051 17.1236 16.3421 16.6242 15.8396C16.5272 15.7429 16.5272 15.7429 16.4282 15.6442C16.2928 15.5089 16.1576 15.3733 16.0226 15.2376C15.8164 15.0303 15.6091 14.8241 15.4018 14.6179C15.2697 14.4858 15.1377 14.3535 15.0058 14.2212C14.9133 14.1293 14.9133 14.1293 14.819 14.0356C14.3399 13.5516 14.0203 13.1461 13.9647 12.4513C13.985 12.0704 14.1238 11.7868 14.3503 11.4843C14.7473 11.1325 15.1342 10.9934 15.6591 11.0169C16.5639 11.2754 17.2131 12.0899 17.8559 12.7405C17.9238 12.8089 17.9918 12.8772 18.0618 12.9477C18.2271 13.1141 18.3921 13.2806 18.557 13.4474C18.8929 13.3052 19.1056 13.1074 19.3607 12.8489C19.4875 12.7212 19.4875 12.7212 19.6169 12.5908C19.6617 12.5453 19.7064 12.4998 19.7525 12.4529C19.8932 12.3098 20.0345 12.1673 20.1759 12.025C20.5271 11.6713 20.8772 11.3167 21.2274 10.9621C21.5234 10.6623 21.8199 10.3629 22.1168 10.0641C22.2556 9.92405 22.3939 9.7835 22.5321 9.64291C22.6169 9.55744 22.7018 9.47198 22.7892 9.38392C22.8634 9.30871 22.9376 9.23351 23.0141 9.15603C23.5844 8.64148 24.0724 8.58867 24.8202 8.67986Z" fill="white"/>
<path d="M30.3203 22.6643C30.4585 22.6633 30.4585 22.6633 30.5996 22.6624C30.9039 22.6607 31.2082 22.661 31.5126 22.6615C31.7243 22.6611 31.9361 22.6606 32.1479 22.6601C32.5916 22.6592 33.0354 22.6595 33.4791 22.6604C34.0476 22.6615 34.616 22.6596 35.1844 22.6568C35.6217 22.6551 36.059 22.6551 36.4963 22.6557C36.7059 22.6557 36.9155 22.6551 37.125 22.654C37.4182 22.6526 37.7112 22.6536 38.0044 22.6552C38.0908 22.6543 38.1772 22.6534 38.2662 22.6524C38.7851 22.6584 39.0865 22.7274 39.4968 23.076C39.876 23.5642 39.8496 24.0719 39.7773 24.6652C39.5742 25.0938 39.3631 25.3091 38.9359 25.5065C38.6294 25.5479 38.3254 25.5458 38.0165 25.5443C37.8782 25.5453 37.8782 25.5453 37.7372 25.5462C37.4328 25.5479 37.1285 25.5476 36.8242 25.5471C36.6124 25.5475 36.4007 25.548 36.1889 25.5485C35.7451 25.5494 35.3014 25.5491 34.8576 25.5482C34.2892 25.5471 33.7208 25.549 33.1523 25.5518C32.715 25.5535 32.2777 25.5535 31.8404 25.5529C31.6308 25.5529 31.4213 25.5535 31.2117 25.5546C30.9186 25.556 30.6255 25.555 30.3324 25.5534C30.246 25.5543 30.1596 25.5552 30.0705 25.5562C29.5517 25.5502 29.2503 25.4812 28.8399 25.1326C28.4607 24.6444 28.4871 24.1367 28.5595 23.5434C28.9451 22.7293 29.5001 22.6603 30.3203 22.6643Z" fill="white"/>
<path d="M30.3203 11.4465C30.4585 11.4456 30.4585 11.4456 30.5996 11.4446C30.9039 11.4429 31.2082 11.4432 31.5126 11.4438C31.7243 11.4433 31.9361 11.4429 32.1479 11.4423C32.5916 11.4415 33.0354 11.4417 33.4791 11.4426C34.0476 11.4437 34.616 11.4418 35.1844 11.4391C35.6217 11.4373 36.059 11.4374 36.4963 11.4379C36.7059 11.4379 36.9155 11.4374 37.125 11.4362C37.4182 11.4348 37.7112 11.4358 38.0044 11.4374C38.0908 11.4365 38.1772 11.4356 38.2662 11.4347C38.7851 11.4406 39.0865 11.5097 39.4968 11.8582C39.876 12.3464 39.8496 12.8541 39.7773 13.4474C39.5742 13.876 39.3631 14.0913 38.9359 14.2887C38.6294 14.3301 38.3254 14.328 38.0165 14.3265C37.8782 14.3275 37.8782 14.3275 37.7372 14.3285C37.4328 14.3302 37.1285 14.3298 36.8242 14.3293C36.6124 14.3297 36.4007 14.3302 36.1889 14.3308C35.7451 14.3316 35.3014 14.3314 34.8576 14.3304C34.2892 14.3294 33.7208 14.3313 33.1523 14.334C32.715 14.3357 32.2777 14.3357 31.8404 14.3351C31.6308 14.3351 31.4213 14.3357 31.2117 14.3369C30.9186 14.3382 30.6255 14.3373 30.3324 14.3357C30.246 14.3366 30.1596 14.3375 30.0705 14.3384C29.5517 14.3325 29.2503 14.2634 28.8399 13.9148C28.4607 13.4266 28.4871 12.9189 28.5595 12.3256C28.9451 11.5115 29.5001 11.4425 30.3203 11.4465Z" fill="white"/>
<path d="M38.9359 33.9199C39.3636 34.1224 39.5848 34.332 39.7772 34.7612C39.8111 35.0989 39.8037 35.433 39.7948 35.772C39.7929 35.9092 39.7929 35.9092 39.7909 36.0493C39.7876 36.2743 39.783 36.4993 39.7772 36.7243C39.8338 36.7223 39.8903 36.7204 39.9486 36.7184C40.2069 36.7105 40.4653 36.7057 40.7237 36.7009C40.8127 36.6978 40.9016 36.6947 40.9932 36.6914C41.5392 36.6838 41.8802 36.7126 42.3012 37.0982C42.6804 37.5864 42.654 38.0941 42.5817 38.6874C42.3786 39.1162 42.1669 39.3298 41.7404 39.5287C41.4453 39.5704 41.1531 39.5703 40.8556 39.5693C40.7278 39.57 40.7278 39.57 40.5975 39.5708C40.4178 39.5714 40.2381 39.5712 40.0584 39.5704C39.7843 39.5696 39.5104 39.5723 39.2363 39.5753C39.0613 39.5754 38.8863 39.5754 38.7113 39.5751C38.6298 39.5762 38.5483 39.5772 38.4643 39.5783C37.9548 39.5725 37.6501 39.5047 37.2533 39.1548C36.9015 38.744 36.9305 38.318 36.9323 37.8026C36.9318 37.7175 36.9313 37.6323 36.9308 37.5446C36.9302 37.3649 36.9303 37.1852 36.9311 37.0055C36.9319 36.7314 36.9292 36.4574 36.9262 36.1833C36.9261 36.0083 36.9262 35.8334 36.9264 35.6584C36.9254 35.5769 36.9243 35.4953 36.9232 35.4114C36.9291 34.8999 37.0055 34.6056 37.3467 34.2003C37.8349 33.8211 38.3426 33.8475 38.9359 33.9199Z" fill="white"/>
<path d="M9.8809 0.149004C9.99568 0.148401 10.1105 0.147799 10.2287 0.147177C10.3553 0.147452 10.4819 0.147746 10.6085 0.148055C10.7436 0.147705 10.8787 0.147275 11.0138 0.146771C11.3847 0.145628 11.7555 0.145652 12.1264 0.145873C12.5265 0.145911 12.9266 0.144879 13.3268 0.143992C14.1106 0.14244 14.8944 0.141926 15.6783 0.141821C16.3155 0.141732 16.9528 0.141348 17.5901 0.140755C19.3973 0.139109 21.2045 0.138247 23.0117 0.138387C23.1091 0.138394 23.2066 0.138402 23.3069 0.138409C23.4045 0.138417 23.502 0.138425 23.6025 0.138433C25.1829 0.138508 26.7632 0.13672 28.3435 0.134083C29.9666 0.131397 31.5897 0.130107 33.2129 0.130268C34.1239 0.13033 35.035 0.129818 35.9461 0.127804C36.7219 0.126101 37.4977 0.125696 38.2735 0.126965C38.6692 0.127575 39.0648 0.127588 39.4604 0.125964C39.8231 0.12449 40.1857 0.124764 40.5484 0.126391C40.6791 0.126677 40.8098 0.126341 40.9406 0.125295C42.2374 0.115615 43.1907 0.433514 44.1709 1.29483C44.6123 1.76411 44.9556 2.28725 45.1992 2.88402C45.2312 2.95748 45.2632 3.03095 45.2962 3.10664C45.4253 3.59225 45.4098 4.05849 45.4059 4.55883C45.4057 4.72843 45.4057 4.72843 45.4055 4.90145C45.4051 5.14928 45.4044 5.39709 45.4031 5.64492C45.4009 6.04822 45.4001 6.45151 45.3994 6.85481C45.3984 7.36457 45.3971 7.87433 45.3954 8.38408C45.392 9.38625 45.391 10.3884 45.3908 11.3906C45.3907 11.5485 45.3907 11.7064 45.3906 11.8643C45.3905 12.1036 45.3905 12.3429 45.3904 12.5822C45.3901 13.484 45.3896 14.3858 45.3888 15.2877C45.3888 15.3701 45.3887 15.4525 45.3886 15.5374C45.3874 16.8723 45.3834 18.2071 45.3785 19.542C45.3736 20.9136 45.3723 22.2851 45.3741 23.6567C45.3751 24.5021 45.3733 25.3474 45.3677 26.1927C45.3641 26.7725 45.364 27.3523 45.3665 27.9321C45.3679 28.2663 45.3677 28.6003 45.3635 28.9345C45.2758 30.5331 45.2758 30.5331 45.9391 31.9153C46.0942 32.0575 46.2522 32.1967 46.4144 32.3307C48.0601 34.4488 48.4678 37.2675 48.1475 39.8661C47.815 41.6891 46.9763 43.3783 45.7601 44.7637C45.7001 44.8418 45.64 44.9199 45.5782 45.0003C45.2282 45.4208 44.7882 45.738 44.3578 46.0724C44.2478 46.1583 44.2478 46.1583 44.1355 46.2459C42.4436 47.4969 40.5045 48.0653 38.4143 48.0612C38.2889 48.0616 38.1635 48.0621 38.0381 48.0627C37.6961 48.064 37.3542 48.0641 37.0123 48.0641C36.6425 48.0643 36.2728 48.0655 35.903 48.0665C35.0958 48.0687 34.2887 48.0694 33.4816 48.0699C32.9771 48.0702 32.4727 48.0708 31.9682 48.0715C30.5701 48.0733 29.1719 48.0749 27.7737 48.0751C27.6397 48.0751 27.6397 48.0751 27.503 48.0752C27.3219 48.0752 27.1409 48.0752 26.9598 48.0753C26.8699 48.0753 26.7801 48.0753 26.6875 48.0753C26.5975 48.0753 26.5075 48.0754 26.4148 48.0754C24.956 48.0757 23.4973 48.0782 22.0386 48.0817C20.5389 48.0853 19.0393 48.0871 17.5397 48.0871C16.6984 48.0872 15.8572 48.088 15.016 48.0907C14.3 48.093 13.5839 48.0937 12.8679 48.0923C12.5029 48.0916 12.138 48.0917 11.773 48.0938C11.4382 48.0957 11.1035 48.0955 10.7688 48.0935C10.5917 48.093 10.4146 48.0948 10.2375 48.0968C9.25041 48.0871 8.40741 47.7898 7.61965 47.1942C7.50686 47.119 7.50686 47.119 7.39179 47.0423C6.65459 46.3591 6.08026 45.4013 6.0112 44.3874C5.99112 43.7022 6.00445 43.018 6.03047 42.3332C5.96222 42.3351 5.89398 42.3371 5.82367 42.3391C5.50895 42.347 5.19426 42.3518 4.87948 42.3566C4.77217 42.3597 4.66486 42.3628 4.5543 42.366C3.3436 42.3798 2.45162 42.0095 1.54336 41.2114C1.10192 40.7421 0.758618 40.219 0.515063 39.6222C0.481683 39.541 0.448304 39.4598 0.413913 39.3761C0.141754 38.3778 0.189312 37.069 0.702026 36.1634C1.41228 34.9914 2.31885 34.3469 3.59995 33.9199C4.40202 33.9199 5.20409 33.9199 6.03047 33.9199C6.03047 32.0689 6.03047 30.218 6.03047 28.311C5.2284 28.311 4.42633 28.311 3.59995 28.311C2.18881 27.7978 1.24918 27.1535 0.592112 25.7888C0.553972 25.6953 0.553972 25.6953 0.515063 25.6C0.481683 25.5188 0.448304 25.4376 0.413913 25.3539C0.141754 24.3556 0.189312 23.0467 0.702026 22.1412C1.41228 20.9692 2.31885 20.3247 3.59995 19.8976C4.40202 19.8976 5.20409 19.8976 6.03047 19.8976C6.03047 18.0467 6.03047 16.1958 6.03047 14.2887C5.2284 14.2887 4.42633 14.2887 3.59995 14.2887C2.18881 13.7756 1.24918 13.1313 0.592112 11.7666C0.553972 11.6731 0.553972 11.6731 0.515063 11.5778C0.481683 11.4966 0.448304 11.4154 0.413913 11.3317C0.141754 10.3334 0.189312 9.02453 0.702026 8.11898C1.39265 6.97938 2.32432 6.25066 3.59995 5.87542C3.88674 5.8542 3.88674 5.8542 4.1864 5.85716C4.34817 5.85807 4.34817 5.85807 4.51322 5.85899C4.62444 5.86056 4.73567 5.86212 4.85026 5.86374C4.96366 5.86458 5.07705 5.86542 5.19388 5.86629C5.47276 5.86849 5.7516 5.87156 6.03047 5.87542C6.02851 5.80718 6.02655 5.73894 6.02453 5.66863C6.01667 5.35391 6.01187 5.03921 6.0071 4.72443C6.0024 4.56347 6.0024 4.56347 5.9976 4.39925C5.98388 3.18855 6.35416 2.29658 7.15224 1.38831C7.90013 0.684806 8.83596 0.150396 9.8809 0.149004ZM9.31984 3.39232C8.80872 3.99107 8.82135 4.49823 8.82907 5.25027C8.82949 5.32841 8.82991 5.40656 8.83034 5.48707C8.83144 5.67885 8.83312 5.87062 8.83491 6.06239C8.93324 6.11173 8.93324 6.11173 9.03356 6.16207C10.1761 6.75661 10.9896 7.49398 11.4465 8.73245C11.752 9.92961 11.6387 11.255 11.0102 12.3191C10.4185 13.1906 9.77196 13.6333 8.83491 14.1018C8.83491 16.0761 8.83491 18.0504 8.83491 20.0846C9.17425 20.2697 9.51358 20.4548 9.8632 20.6455C10.72 21.2881 11.3876 22.1819 11.5459 23.263C11.6664 24.6334 11.495 25.751 10.6304 26.8642C10.1005 27.4588 9.55093 27.766 8.83491 28.124C8.83491 30.0983 8.83491 32.0727 8.83491 34.1068C9.17425 34.2919 9.51358 34.477 9.8632 34.6677C10.72 35.3103 11.3876 36.2041 11.5459 37.2852C11.6664 38.6556 11.495 39.7732 10.6304 40.8864C10.119 41.4603 9.52951 41.8305 8.83491 42.1462C8.73135 43.5113 8.73135 43.5113 9.23914 44.7239C9.7937 45.2319 10.4009 45.2584 11.1102 45.2536C11.1973 45.2537 11.2845 45.2539 11.3742 45.2541C11.6657 45.2544 11.9572 45.2534 12.2488 45.2523C12.4579 45.2523 12.6671 45.2523 12.8762 45.2524C13.4438 45.2525 14.0114 45.2514 14.579 45.2501C15.1722 45.2489 15.7655 45.2488 16.3587 45.2486C17.3544 45.248 18.3501 45.2469 19.3457 45.2452C20.3711 45.2435 21.3965 45.2422 22.4219 45.2414C22.4852 45.2413 22.5484 45.2413 22.6136 45.2412C22.9308 45.241 23.2481 45.2407 23.5653 45.2405C26.196 45.2386 28.8267 45.2353 31.4574 45.2311C31.4191 45.1866 31.3808 45.142 31.3414 45.0962C31.2658 45.0082 31.2658 45.0082 31.1888 44.9185C31.1389 44.8605 31.089 44.8024 31.0377 44.7426C29.4337 42.8572 28.612 40.6183 28.6238 38.1499C28.6243 38.0341 28.6248 37.9183 28.6254 37.7991C28.6559 35.5006 29.4687 33.5557 30.8965 31.7698C30.9551 31.6955 31.0137 31.6213 31.074 31.5448C32.4432 29.9041 34.7139 28.684 36.8362 28.4246C38.7046 28.2611 40.4633 28.3825 42.2107 29.0836C42.3912 29.1632 42.3912 29.1632 42.5817 29.1523C42.586 26.0076 42.5893 22.8628 42.5913 19.7181C42.5915 19.3468 42.5917 18.9755 42.592 18.6043C42.592 18.5303 42.5921 18.4564 42.5921 18.3803C42.5929 17.1835 42.5944 15.9867 42.5961 14.79C42.5979 13.562 42.5989 12.3339 42.5993 11.1059C42.5996 10.3482 42.6004 9.59046 42.6019 8.83272C42.603 8.25167 42.6031 7.67062 42.6028 7.08957C42.6029 6.85122 42.6033 6.61286 42.604 6.37451C42.6049 6.04929 42.6047 5.72409 42.6042 5.39887C42.6047 5.30439 42.6053 5.20991 42.6058 5.11256C42.6032 4.48496 42.5944 3.95575 42.1669 3.46243C41.6641 3.03321 41.2872 2.96593 40.6406 2.96547C40.5322 2.96517 40.4239 2.96487 40.3123 2.96456C40.1345 2.96478 40.1345 2.96478 39.953 2.965C39.8254 2.96482 39.6978 2.96461 39.5703 2.96436C39.2198 2.96378 38.8693 2.9638 38.5189 2.96391C38.1409 2.96393 37.7628 2.96341 37.3848 2.96297C36.6443 2.96219 35.9037 2.96193 35.1632 2.96188C34.5613 2.96184 33.9594 2.96164 33.3575 2.96135C31.6513 2.96052 29.9451 2.96009 28.2389 2.96016C28.1469 2.96017 28.0549 2.96017 27.9602 2.96017C27.8681 2.96018 27.776 2.96018 27.6811 2.96019C26.1881 2.96022 24.6952 2.95933 23.2022 2.95801C21.6696 2.95667 20.1369 2.95602 18.6042 2.9561C17.7436 2.95614 16.883 2.95588 16.0224 2.95487C15.2898 2.95402 14.5571 2.95382 13.8245 2.95445C13.4506 2.95476 13.0768 2.95476 12.703 2.95395C12.3607 2.95322 12.0185 2.95335 11.6762 2.95417C11.4939 2.95438 11.3116 2.95367 11.1293 2.95293C10.1522 2.94126 10.1522 2.94126 9.31984 3.39232ZM3.61748 9.09469C3.24932 9.52596 3.18438 9.76333 3.19645 10.3151C3.24009 10.6609 3.36864 10.8541 3.59995 11.1104C4.2438 11.5891 5.00662 11.5017 5.77221 11.5016C5.97078 11.5018 6.16931 11.5035 6.36788 11.5053C6.49568 11.5056 6.62349 11.5058 6.7513 11.5059C6.9238 11.5064 6.9238 11.5064 7.0998 11.507C7.59764 11.4731 7.96935 11.3994 8.34997 11.0695C8.71813 10.6382 8.78307 10.4008 8.77101 9.84911C8.72737 9.50323 8.59881 9.3101 8.3675 9.05379C7.72365 8.57503 6.96083 8.66245 6.19525 8.66254C5.99667 8.66234 5.79814 8.66064 5.59958 8.65887C5.47177 8.65859 5.34396 8.65841 5.21616 8.65832C5.04365 8.65774 5.04365 8.65774 4.86765 8.65716C4.36981 8.69112 3.9981 8.76482 3.61748 9.09469ZM3.61748 23.1169C3.24932 23.5482 3.18438 23.7855 3.19645 24.3373C3.24009 24.6832 3.36864 24.8763 3.59995 25.1326C4.2438 25.6114 5.00662 25.5239 5.77221 25.5238C5.97078 25.524 6.16931 25.5257 6.36788 25.5275C6.49568 25.5278 6.62349 25.528 6.7513 25.5281C6.9238 25.5286 6.9238 25.5286 7.0998 25.5292C7.59764 25.4953 7.96935 25.4216 8.34997 25.0917C8.71813 24.6604 8.78307 24.4231 8.77101 23.8713C8.72737 23.5254 8.59881 23.3323 8.3675 23.076C7.72365 22.5972 6.96083 22.6847 6.19525 22.6848C5.99667 22.6846 5.79814 22.6829 5.59958 22.6811C5.47177 22.6808 5.34396 22.6806 5.21616 22.6805C5.04365 22.68 5.04365 22.68 4.86765 22.6794C4.36981 22.7133 3.9981 22.787 3.61748 23.1169ZM33.327 33.359C33.2716 33.4128 33.2162 33.4667 33.1591 33.5222C31.8614 34.8526 31.4293 36.6091 31.428 38.411C31.4507 40.1176 32.0878 41.629 33.2336 42.8941C33.2932 42.9602 33.3529 43.0264 33.4143 43.0945C34.5496 44.2892 36.1504 45.1078 37.812 45.1566C39.1915 45.1768 39.1915 45.1768 40.5251 44.8572C40.6197 44.8232 40.7143 44.7892 40.8118 44.7542C42.4442 44.1208 43.8412 42.8682 44.6383 41.3049C45.3667 39.651 45.6656 37.6189 45.0122 35.883C44.5627 34.8123 43.9999 33.8746 43.1426 33.0785C43.0887 33.0231 43.0349 32.9677 42.9794 32.9105C41.6634 31.6269 39.9218 31.1816 38.1371 31.1863C36.2694 31.2108 34.601 31.987 33.327 33.359ZM3.61748 37.1391C3.24932 37.5704 3.18438 37.8078 3.19645 38.3595C3.24009 38.7054 3.36864 38.8985 3.59995 39.1548C4.2438 39.6336 5.00662 39.5461 5.77221 39.5461C5.97078 39.5463 6.16931 39.548 6.36788 39.5497C6.49568 39.55 6.62349 39.5502 6.7513 39.5503C6.9238 39.5509 6.9238 39.5509 7.0998 39.5514C7.59764 39.5175 7.96935 39.4438 8.34997 39.1139C8.71813 38.6826 8.78307 38.4453 8.77101 37.8935C8.72737 37.5477 8.59881 37.3545 8.3675 37.0982C7.72365 36.6195 6.96083 36.7069 6.19525 36.707C5.99667 36.7068 5.79814 36.7051 5.59958 36.7033C5.47177 36.703 5.34396 36.7028 5.21616 36.7028C5.04365 36.7022 5.04365 36.7022 4.86765 36.7016C4.36981 36.7355 3.9981 36.8092 3.61748 37.1391Z" stroke="#DBB480" stroke-width="1.08271" mask="url(#path-1-inside-1_2321_4291)"/>
<path d="M24.8202 31.1154C25.2523 31.3201 25.4477 31.5362 25.6616 31.9567C25.7087 32.2215 25.7087 32.2215 25.7141 32.5001C25.7201 32.6369 25.7201 32.6369 25.7262 32.7765C25.5307 33.6899 24.5155 34.4387 23.8763 35.0756C23.7566 35.1954 23.637 35.3152 23.5174 35.4351C23.2677 35.685 23.0178 35.9345 22.7675 36.1839C22.4473 36.503 22.128 36.823 21.8089 37.1432C21.5624 37.3903 21.3156 37.637 21.0686 37.8835C20.9506 38.0013 20.8328 38.1193 20.7151 38.2374C20.5508 38.4022 20.3858 38.5665 20.2206 38.7306C20.1725 38.7791 20.1244 38.8276 20.0748 38.8776C19.6373 39.31 19.2926 39.569 18.668 39.5813C18.5312 39.5873 18.5312 39.5873 18.3916 39.5934C17.6777 39.4406 17.1236 38.7776 16.6242 38.2751C16.5272 38.1784 16.5272 38.1784 16.4282 38.0797C16.2928 37.9444 16.1576 37.8089 16.0226 37.6731C15.8164 37.4659 15.6091 37.2597 15.4018 37.0535C15.2697 36.9213 15.1377 36.7891 15.0058 36.6567C14.9133 36.5648 14.9133 36.5648 14.819 36.4711C14.3399 35.9871 14.0203 35.5816 13.9647 34.8868C13.985 34.5059 14.1238 34.2224 14.3503 33.9199C14.7473 33.568 15.1342 33.4289 15.6591 33.4524C16.5639 33.711 17.2131 34.5255 17.8559 35.176C17.9238 35.2444 17.9918 35.3128 18.0618 35.3832C18.2271 35.5496 18.3921 35.7162 18.557 35.883C18.8929 35.7408 19.1056 35.543 19.3607 35.2845C19.4875 35.1567 19.4875 35.1567 19.6169 35.0264C19.6617 34.9809 19.7064 34.9353 19.7525 34.8884C19.8932 34.7454 20.0345 34.6029 20.1759 34.4605C20.5271 34.1069 20.8772 33.7522 21.2274 33.3976C21.5234 33.0978 21.8199 32.7985 22.1168 32.4996C22.2556 32.3596 22.3939 32.219 22.5321 32.0785C22.6169 31.993 22.7018 31.9075 22.7892 31.8195C22.8634 31.7443 22.9376 31.6691 23.0141 31.5916C23.5844 31.077 24.0724 31.0242 24.8202 31.1154Z" stroke="#DBB480" stroke-width="1.08271" mask="url(#path-1-inside-1_2321_4291)"/>
<path d="M24.8202 19.8976C25.2523 20.1023 25.4477 20.3184 25.6616 20.739C25.7087 21.0037 25.7087 21.0037 25.7141 21.2823C25.7201 21.4192 25.7201 21.4192 25.7262 21.5588C25.5307 22.4721 24.5155 23.221 23.8763 23.8578C23.7566 23.9776 23.637 24.0974 23.5174 24.2173C23.2677 24.4672 23.0178 24.7168 22.7675 24.9661C22.4473 25.2852 22.128 25.6052 21.8089 25.9254C21.5624 26.1725 21.3156 26.4192 21.0686 26.6657C20.9506 26.7835 20.8328 26.9015 20.7151 27.0196C20.5508 27.1845 20.3858 27.3487 20.2206 27.5128C20.1725 27.5614 20.1244 27.6099 20.0748 27.6599C19.6373 28.0922 19.2926 28.3513 18.668 28.3636C18.5312 28.3695 18.5312 28.3695 18.3916 28.3756C17.6777 28.2228 17.1236 27.5599 16.6242 27.0574C16.5272 26.9606 16.5272 26.9606 16.4282 26.8619C16.2928 26.7266 16.1576 26.5911 16.0226 26.4554C15.8164 26.2481 15.6091 26.0419 15.4018 25.8357C15.2697 25.7035 15.1377 25.5713 15.0058 25.439C14.9133 25.3471 14.9133 25.3471 14.819 25.2533C14.3399 24.7694 14.0203 24.3638 13.9647 23.669C13.985 23.2882 14.1238 23.0046 14.3503 22.7021C14.7473 22.3502 15.1342 22.2111 15.6591 22.2347C16.5639 22.4932 17.2131 23.3077 17.8559 23.9582C17.9238 24.0266 17.9918 24.095 18.0618 24.1655C18.2271 24.3318 18.3921 24.4984 18.557 24.6652C18.8929 24.523 19.1056 24.3252 19.3607 24.0667C19.4875 23.939 19.4875 23.939 19.6169 23.8086C19.6617 23.7631 19.7064 23.7176 19.7525 23.6707C19.8932 23.5276 20.0345 23.3851 20.1759 23.2428C20.5271 22.8891 20.8772 22.5345 21.2274 22.1798C21.5234 21.8801 21.8199 21.5807 22.1168 21.2818C22.2556 21.1418 22.3939 21.0013 22.5321 20.8607C22.6169 20.7752 22.7018 20.6898 22.7892 20.6017C22.8634 20.5265 22.9376 20.4513 23.0141 20.3738C23.5844 19.8593 24.0724 19.8064 24.8202 19.8976Z" stroke="#DBB480" stroke-width="1.08271" mask="url(#path-1-inside-1_2321_4291)"/>
<path d="M24.8202 8.67986C25.2523 8.88454 25.4477 9.10064 25.6616 9.5212C25.7087 9.78594 25.7087 9.78594 25.7141 10.0646C25.7201 10.2014 25.7201 10.2014 25.7262 10.341C25.5307 11.2544 24.5155 12.0032 23.8763 12.64C23.7566 12.7598 23.637 12.8797 23.5174 12.9995C23.2677 13.2494 23.0178 13.499 22.7675 13.7483C22.4473 14.0675 22.128 14.3874 21.8089 14.7077C21.5624 14.9548 21.3156 15.2014 21.0686 15.448C20.9506 15.5658 20.8328 15.6837 20.7151 15.8018C20.5508 15.9667 20.3858 16.131 20.2206 16.2951C20.1725 16.3436 20.1244 16.3921 20.0748 16.4421C19.6373 16.8744 19.2926 17.1335 18.668 17.1458C18.5312 17.1517 18.5312 17.1517 18.3916 17.1578C17.6777 17.0051 17.1236 16.3421 16.6242 15.8396C16.5272 15.7429 16.5272 15.7429 16.4282 15.6442C16.2928 15.5089 16.1576 15.3733 16.0226 15.2376C15.8164 15.0303 15.6091 14.8241 15.4018 14.6179C15.2697 14.4858 15.1377 14.3535 15.0058 14.2212C14.9133 14.1293 14.9133 14.1293 14.819 14.0356C14.3399 13.5516 14.0203 13.1461 13.9647 12.4513C13.985 12.0704 14.1238 11.7868 14.3503 11.4843C14.7473 11.1325 15.1342 10.9934 15.6591 11.0169C16.5639 11.2754 17.2131 12.0899 17.8559 12.7405C17.9238 12.8089 17.9918 12.8772 18.0618 12.9477C18.2271 13.1141 18.3921 13.2806 18.557 13.4474C18.8929 13.3052 19.1056 13.1074 19.3607 12.8489C19.4875 12.7212 19.4875 12.7212 19.6169 12.5908C19.6617 12.5453 19.7064 12.4998 19.7525 12.4529C19.8932 12.3098 20.0345 12.1673 20.1759 12.025C20.5271 11.6713 20.8772 11.3167 21.2274 10.9621C21.5234 10.6623 21.8199 10.3629 22.1168 10.0641C22.2556 9.92405 22.3939 9.7835 22.5321 9.64291C22.6169 9.55744 22.7018 9.47198 22.7892 9.38392C22.8634 9.30871 22.9376 9.23351 23.0141 9.15603C23.5844 8.64148 24.0724 8.58867 24.8202 8.67986Z" stroke="#DBB480" stroke-width="1.08271" mask="url(#path-1-inside-1_2321_4291)"/>
<path d="M30.3203 22.6643C30.4585 22.6633 30.4585 22.6633 30.5996 22.6624C30.9039 22.6607 31.2082 22.661 31.5126 22.6615C31.7243 22.6611 31.9361 22.6606 32.1479 22.6601C32.5916 22.6592 33.0354 22.6595 33.4791 22.6604C34.0476 22.6615 34.616 22.6596 35.1844 22.6568C35.6217 22.6551 36.059 22.6551 36.4963 22.6557C36.7059 22.6557 36.9155 22.6551 37.125 22.654C37.4182 22.6526 37.7112 22.6536 38.0044 22.6552C38.0908 22.6543 38.1772 22.6534 38.2662 22.6524C38.7851 22.6584 39.0865 22.7274 39.4968 23.076C39.876 23.5642 39.8496 24.0719 39.7773 24.6652C39.5742 25.0938 39.3631 25.3091 38.9359 25.5065C38.6294 25.5479 38.3254 25.5458 38.0165 25.5443C37.8782 25.5453 37.8782 25.5453 37.7372 25.5462C37.4328 25.5479 37.1285 25.5476 36.8242 25.5471C36.6124 25.5475 36.4007 25.548 36.1889 25.5485C35.7451 25.5494 35.3014 25.5491 34.8576 25.5482C34.2892 25.5471 33.7208 25.549 33.1523 25.5518C32.715 25.5535 32.2777 25.5535 31.8404 25.5529C31.6308 25.5529 31.4213 25.5535 31.2117 25.5546C30.9186 25.556 30.6255 25.555 30.3324 25.5534C30.246 25.5543 30.1596 25.5552 30.0705 25.5562C29.5517 25.5502 29.2503 25.4812 28.8399 25.1326C28.4607 24.6444 28.4871 24.1367 28.5595 23.5434C28.9451 22.7293 29.5001 22.6603 30.3203 22.6643Z" stroke="#DBB480" stroke-width="1.08271" mask="url(#path-1-inside-1_2321_4291)"/>
<path d="M30.3203 11.4465C30.4585 11.4456 30.4585 11.4456 30.5996 11.4446C30.9039 11.4429 31.2082 11.4432 31.5126 11.4438C31.7243 11.4433 31.9361 11.4429 32.1479 11.4423C32.5916 11.4415 33.0354 11.4417 33.4791 11.4426C34.0476 11.4437 34.616 11.4418 35.1844 11.4391C35.6217 11.4373 36.059 11.4374 36.4963 11.4379C36.7059 11.4379 36.9155 11.4374 37.125 11.4362C37.4182 11.4348 37.7112 11.4358 38.0044 11.4374C38.0908 11.4365 38.1772 11.4356 38.2662 11.4347C38.7851 11.4406 39.0865 11.5097 39.4968 11.8582C39.876 12.3464 39.8496 12.8541 39.7773 13.4474C39.5742 13.876 39.3631 14.0913 38.9359 14.2887C38.6294 14.3301 38.3254 14.328 38.0165 14.3265C37.8782 14.3275 37.8782 14.3275 37.7372 14.3285C37.4328 14.3302 37.1285 14.3298 36.8242 14.3293C36.6124 14.3297 36.4007 14.3302 36.1889 14.3308C35.7451 14.3316 35.3014 14.3314 34.8576 14.3304C34.2892 14.3294 33.7208 14.3313 33.1523 14.334C32.715 14.3357 32.2777 14.3357 31.8404 14.3351C31.6308 14.3351 31.4213 14.3357 31.2117 14.3369C30.9186 14.3382 30.6255 14.3373 30.3324 14.3357C30.246 14.3366 30.1596 14.3375 30.0705 14.3384C29.5517 14.3325 29.2503 14.2634 28.8399 13.9148C28.4607 13.4266 28.4871 12.9189 28.5595 12.3256C28.9451 11.5115 29.5001 11.4425 30.3203 11.4465Z" stroke="#DBB480" stroke-width="1.08271" mask="url(#path-1-inside-1_2321_4291)"/>
<path d="M38.9359 33.9199C39.3636 34.1224 39.5848 34.332 39.7772 34.7612C39.8111 35.0989 39.8037 35.433 39.7948 35.772C39.7929 35.9092 39.7929 35.9092 39.7909 36.0493C39.7876 36.2743 39.783 36.4993 39.7772 36.7243C39.8338 36.7223 39.8903 36.7204 39.9486 36.7184C40.2069 36.7105 40.4653 36.7057 40.7237 36.7009C40.8127 36.6978 40.9016 36.6947 40.9932 36.6914C41.5392 36.6838 41.8802 36.7126 42.3012 37.0982C42.6804 37.5864 42.654 38.0941 42.5817 38.6874C42.3786 39.1162 42.1669 39.3298 41.7404 39.5287C41.4453 39.5704 41.1531 39.5703 40.8556 39.5693C40.7278 39.57 40.7278 39.57 40.5975 39.5708C40.4178 39.5714 40.2381 39.5712 40.0584 39.5704C39.7843 39.5696 39.5104 39.5723 39.2363 39.5753C39.0613 39.5754 38.8863 39.5754 38.7113 39.5751C38.6298 39.5762 38.5483 39.5772 38.4643 39.5783C37.9548 39.5725 37.6501 39.5047 37.2533 39.1548C36.9015 38.744 36.9305 38.318 36.9323 37.8026C36.9318 37.7175 36.9313 37.6323 36.9308 37.5446C36.9302 37.3649 36.9303 37.1852 36.9311 37.0055C36.9319 36.7314 36.9292 36.4574 36.9262 36.1833C36.9261 36.0083 36.9262 35.8334 36.9264 35.6584C36.9254 35.5769 36.9243 35.4953 36.9232 35.4114C36.9291 34.8999 37.0055 34.6056 37.3467 34.2003C37.8349 33.8211 38.3426 33.8475 38.9359 33.9199Z" stroke="#DBB480" stroke-width="1.08271" mask="url(#path-1-inside-1_2321_4291)"/>
</svg>
