<svg width="54" height="53" viewBox="0 0 54 53" fill="none" xmlns="http://www.w3.org/2000/svg">
<circle cx="27.4443" cy="26.5" r="26.5" fill="white"/>
<path d="M27.4443 16.8466C27.4445 16.2102 27.3193 15.5799 27.0759 14.9918C26.8324 14.4037 26.4754 13.8694 26.0254 13.4194C25.5753 12.9693 25.041 12.6123 24.4529 12.3689C23.8649 12.1254 23.2346 12.0002 22.5981 12.0004H17.8529C17.2113 11.9921 16.5744 12.1114 15.9793 12.3512C15.3841 12.591 14.8425 12.9467 14.3859 13.3975C13.9292 13.8483 13.5667 14.3852 13.3192 14.9773C13.0718 15.5693 12.9443 16.2046 12.9443 16.8462C12.9443 17.4879 13.0718 18.1232 13.3192 18.7152C13.5667 19.3072 13.9292 19.8442 14.3859 20.295C14.8425 20.7458 15.3841 21.1014 15.9793 21.3413C16.5744 21.5811 17.2113 21.7003 17.8529 21.6921H18.7817V24.0318C18.7817 24.0318 27.4443 22.8623 27.4443 16.8466ZM23.0328 29.6464C23.0328 31.419 21.5971 32.8548 19.8245 32.8548C18.0518 32.8548 16.6161 31.419 16.6161 29.6464C16.6161 27.8738 18.0518 26.4381 19.8245 26.4381C21.5971 26.4381 23.0328 27.8738 23.0328 29.6464ZM19.8245 34.459C17.5489 34.459 13.0067 35.606 13.0067 37.8815V40.8757H26.6422V37.8815C26.6422 35.6052 22.1 34.459 19.8245 34.459ZM35.0642 32.8548C36.8368 32.8548 38.2726 31.419 38.2726 29.6464C38.2726 27.8738 36.8368 26.4381 35.0642 26.4381C33.2916 26.4381 31.8558 27.8738 31.8558 29.6464C31.8558 31.419 33.2916 32.8548 35.0642 32.8548ZM35.0642 34.459C32.7887 34.459 28.2464 35.606 28.2464 37.8815V40.8757H41.882V37.8815C41.882 35.6052 37.3397 34.459 35.0642 34.459ZM33.8948 12.8025C33.2583 12.8023 32.628 12.9275 32.0399 13.171C31.4519 13.4144 30.9175 13.7714 30.4675 14.2215C30.0174 14.6715 29.6605 15.2058 29.417 15.7939C29.1735 16.382 29.0483 17.0123 29.0485 17.6487C29.0485 23.6644 36.7486 24.8339 36.7486 24.8339V22.4942H37.0358C37.6774 22.5024 38.3142 22.3832 38.9094 22.1434C39.5045 21.9035 40.0462 21.5479 40.5028 21.0971C40.9594 20.6463 41.322 20.1093 41.5695 19.5173C41.8169 18.9253 41.9443 18.29 41.9443 17.6483C41.9443 17.0067 41.8169 16.3714 41.5695 15.7794C41.322 15.1873 40.9594 14.6503 40.5028 14.1996C40.0462 13.7488 39.5045 13.3931 38.9094 13.1533C38.3142 12.9135 37.6774 12.7942 37.0358 12.8025H33.8948Z" fill="#1C3D6E"/>
</svg>
