<svg width="29" height="29" viewBox="0 0 29 29" fill="none" xmlns="http://www.w3.org/2000/svg">
<path d="M13.05 19.0837C13.05 18.5039 12.5799 18.0338 12 18.0338C11.4201 18.0338 10.95 18.5039 10.95 19.0837H12H13.05ZM13.45 22C13.45 22.5799 13.9201 23.05 14.5 23.05C15.0799 23.05 15.55 22.5799 15.55 22H14.5H13.45ZM15.55 12C15.55 11.4201 15.0799 10.95 14.5 10.95C13.9201 10.95 13.45 11.4201 13.45 12H14.5H15.55ZM15.95 14.9163C15.95 15.4961 16.4201 15.9663 17 15.9663C17.5799 15.9663 18.05 15.4961 18.05 14.9163H17H15.95ZM2 17H3.05C3.05 14.6134 3.05223 12.929 3.22376 11.6537C3.39122 10.4086 3.70251 9.71198 4.20714 9.20778L3.465 8.465L2.72285 7.72222C1.76249 8.68177 1.34128 9.89578 1.14249 11.3738C0.947768 12.8216 0.95 14.6728 0.95 17H2ZM3.465 8.465L4.20714 9.20778C4.71224 8.70312 5.40939 8.3918 6.65431 8.22421C7.92942 8.05254 9.6136 8.05 12 8.05V7V5.95C9.67265 5.95 7.82183 5.94808 6.37413 6.14298C4.89623 6.34195 3.68276 6.76313 2.72285 7.72222L3.465 8.465ZM12 7V8.05H17V7V5.95H12V7ZM17 7V8.05C19.3866 8.05 21.071 8.05223 22.3463 8.22375C23.5914 8.39122 24.288 8.70251 24.7922 9.20715L25.535 8.465L26.2778 7.72285C25.3182 6.76249 24.1042 6.34128 22.6262 6.14249C21.1784 5.94777 19.3272 5.95 17 5.95V7ZM25.535 8.465L24.7922 9.20715C25.2969 9.71224 25.6082 10.4094 25.7758 11.6543C25.9475 12.9294 25.95 14.6136 25.95 17H27H28.05C28.05 14.6727 28.0519 12.8218 27.857 11.3741C27.6581 9.89623 27.2369 8.68276 26.2778 7.72285L25.535 8.465ZM27 17H25.95C25.95 19.3866 25.9478 21.071 25.7762 22.3463C25.6088 23.5914 25.2975 24.288 24.7929 24.7922L25.535 25.535L26.2771 26.2778C27.2375 25.3182 27.6587 24.1042 27.8575 22.6262C28.0522 21.1784 28.05 19.3272 28.05 17H27ZM25.535 25.535L24.7929 24.7922C24.2878 25.2969 23.5906 25.6082 22.3457 25.7758C21.0706 25.9475 19.3864 25.95 17 25.95V27V28.05C19.3273 28.05 21.1782 28.0519 22.6259 27.857C24.1038 27.6581 25.3172 27.2369 26.2771 26.2778L25.535 25.535ZM17 27V25.95H12V27V28.05H17V27ZM12 27V25.95C9.61343 25.95 7.92901 25.9478 6.65371 25.7762C5.4086 25.6088 4.71198 25.2975 4.20778 24.7929L3.465 25.535L2.72222 26.2771C3.68177 27.2375 4.89578 27.6587 6.37379 27.8575C7.82161 28.0522 9.67282 28.05 12 28.05V27ZM3.465 25.535L4.20778 24.7929C3.70312 24.2878 3.3918 23.5906 3.22421 22.3457C3.05254 21.0706 3.05 19.3864 3.05 17H2H0.95C0.95 19.3273 0.948083 21.1782 1.14298 22.6259C1.34195 24.1038 1.76313 25.3172 2.72222 26.2771L3.465 25.535ZM19.5 7H20.55C20.55 5.85096 20.5522 4.88379 20.4491 4.11688C20.3418 3.31957 20.1037 2.58374 19.51 1.99004L18.7675 2.7325L18.025 3.47496C18.1638 3.61376 18.2919 3.83293 18.3678 4.39687C18.4478 4.99121 18.45 5.79154 18.45 7H19.5ZM18.7675 2.7325L19.51 1.99004C18.9163 1.39633 18.1804 1.1582 17.3831 1.05094C16.6162 0.947767 15.649 0.95 14.5 0.95V2V3.05C15.7085 3.05 16.5088 3.05223 17.1031 3.13219C17.6671 3.20805 17.8862 3.33617 18.025 3.47496L18.7675 2.7325ZM14.5 2V0.95C13.351 0.95 12.3838 0.947767 11.6169 1.05094C10.8196 1.1582 10.0837 1.39633 9.49004 1.99004L10.2325 2.7325L10.975 3.47496C11.1138 3.33617 11.3329 3.20805 11.8969 3.13219C12.4912 3.05223 13.2915 3.05 14.5 3.05V2ZM10.2325 2.7325L9.49004 1.99004C8.89633 2.58374 8.6582 3.31957 8.55094 4.11688C8.44777 4.88379 8.45 5.85096 8.45 7H9.5H10.55C10.55 5.79154 10.5522 4.99121 10.6322 4.39687C10.7081 3.83293 10.8362 3.61376 10.975 3.47496L10.2325 2.7325ZM14.5 21.1663V22.2162C16.2735 22.2162 18.05 20.985 18.05 19.0837H17H15.95C15.95 19.4825 15.489 20.1163 14.5 20.1163V21.1663ZM17 19.0837H18.05C18.05 17.1833 16.2744 15.95 14.5 15.95V17V18.05C15.4881 18.05 15.95 18.6842 15.95 19.0837H17ZM14.5 17V15.95C13.5115 15.95 13.05 15.3167 13.05 14.9163H12H10.95C10.95 16.8183 12.726 18.05 14.5 18.05V17ZM12 14.9163H13.05C13.05 14.5175 13.511 13.8837 14.5 13.8837V12.8337V11.7837C12.7265 11.7837 10.95 13.015 10.95 14.9163H12ZM14.5 21.1663V20.1163C13.511 20.1163 13.05 19.4825 13.05 19.0837H12H10.95C10.95 20.985 12.7265 22.2162 14.5 22.2162V21.1663ZM14.5 21.1663H13.45V22H14.5H15.55V21.1663H14.5ZM14.5 12H13.45V12.8337H14.5H15.55V12H14.5ZM14.5 12.8337V13.8837C15.489 13.8837 15.95 14.5175 15.95 14.9163H17H18.05C18.05 13.015 16.2735 11.7837 14.5 11.7837V12.8337Z" fill="white"/>
</svg>
