<svg width="61" height="25" viewBox="0 0 61 25" fill="none" xmlns="http://www.w3.org/2000/svg">
<g clip-path="url(#clip0_2210_216)">
<mask id="mask0_2210_216" style="mask-type:luminance" maskUnits="userSpaceOnUse" x="0" y="0" width="25" height="25">
<path d="M12.8755 24.1904C19.5029 24.1904 24.8755 18.8178 24.8755 12.1904C24.8755 5.56301 19.5029 0.19043 12.8755 0.19043C6.24807 0.19043 0.875488 5.56301 0.875488 12.1904C0.875488 18.8178 6.24807 24.1904 12.8755 24.1904Z" fill="white"/>
</mask>
<g mask="url(#mask0_2210_216)">
<path d="M0.875488 0.19043H24.8755V12.1904L12.8755 13.6904L0.875488 12.1904V0.19043Z" fill="#333333"/>
<path d="M0.875488 12.1904H24.8755V24.1904H0.875488V12.1904Z" fill="#D80027"/>
<path d="M12.8755 18.1904C16.1892 18.1904 18.8755 15.5041 18.8755 12.1904C18.8755 8.87672 16.1892 6.19043 12.8755 6.19043C9.56178 6.19043 6.87549 8.87672 6.87549 12.1904C6.87549 15.5041 9.56178 18.1904 12.8755 18.1904Z" fill="#FFDA44"/>
</g>
</g>
<g clip-path="url(#clip1_2210_216)">
<mask id="mask1_2210_216" style="mask-type:luminance" maskUnits="userSpaceOnUse" x="36" y="0" width="25" height="25">
<path d="M48.8755 24.1904C55.5029 24.1904 60.8755 18.8178 60.8755 12.1904C60.8755 5.56301 55.5029 0.19043 48.8755 0.19043C42.2481 0.19043 36.8755 5.56301 36.8755 12.1904C36.8755 18.8178 42.2481 24.1904 48.8755 24.1904Z" fill="white"/>
</mask>
<g mask="url(#mask1_2210_216)">
<path d="M36.8755 6.19043L48.8755 4.69043L60.8755 6.19043V18.1904L48.8755 19.6904L36.8755 18.1904V6.19043Z" fill="#0052B4"/>
<path d="M36.8755 4.69043L48.8755 3.19043L60.8755 4.69043V6.19043H36.8755V4.69043Z" fill="#333333"/>
<path d="M36.8755 0.19043H60.8755V4.69043H36.8755V0.19043Z" fill="#6DA544"/>
<path d="M36.8755 19.6904L48.8755 21.1904L60.8755 19.6904V18.1904H36.8755V19.6904Z" fill="#333333"/>
<path d="M36.8755 24.1904H60.8755V19.6904H36.8755V24.1904Z" fill="#6DA544"/>
<path d="M48.3599 6.94043C43.3911 8.44043 43.6255 12.1904 45.2192 15.6592L43.3442 17.4404L46.7661 16.1748V11.5811C47.8911 9.94043 49.8599 9.94043 50.9849 11.5811V16.1748L54.4067 17.4404L52.5317 15.6592C54.1255 12.1904 54.3599 8.44043 49.3911 6.94043L48.8755 9.09668L48.3599 6.94043ZM48.8755 10.8311L48.4536 12.0967H47.1411L48.2192 12.8936L47.7974 14.2061L48.8755 13.4092L49.9536 14.2061L49.5317 12.8936L50.6567 12.0967H49.2974L48.8755 10.8311Z" fill="#EEEEEE"/>
</g>
</g>
<defs>
<clipPath id="clip0_2210_216">
<rect width="24" height="24" fill="white" transform="translate(0.875488 0.19043)"/>
</clipPath>
<clipPath id="clip1_2210_216">
<rect width="24" height="24" fill="white" transform="translate(36.8755 0.19043)"/>
</clipPath>
</defs>
</svg>
