<svg width="17" height="17" viewBox="0 0 17 17" fill="none" xmlns="http://www.w3.org/2000/svg">
<g clip-path="url(#clip0_2438_11953)">
<path d="M15.0341 7.62076C15.3385 9.11496 15.1215 10.6684 14.4193 12.022C13.7171 13.3755 12.572 14.4475 11.1751 15.059C9.77816 15.6705 8.21382 15.7846 6.74293 15.3823C5.27205 14.9801 3.98353 14.0857 3.09225 12.8484C2.20097 11.6111 1.76081 10.1056 1.84518 8.58302C1.92954 7.06045 2.53332 5.61282 3.55583 4.48154C4.57835 3.35026 5.95779 2.60372 7.46411 2.3664C8.97043 2.12908 10.5126 2.41533 11.8334 3.17743" stroke="#D4AF37" stroke-width="2" stroke-linecap="round" stroke-linejoin="round"/>
<path d="M6.5 8.28776L8.5 10.2878L15.1667 3.62109" stroke="#D4AF37" stroke-width="2" stroke-linecap="round" stroke-linejoin="round"/>
</g>
<defs>
<clipPath id="clip0_2438_11953">
<rect width="16" height="16" fill="white" transform="translate(0.5 0.953125)"/>
</clipPath>
</defs>
</svg>
