<svg width="37" height="38" viewBox="0 0 37 38" fill="none" xmlns="http://www.w3.org/2000/svg">
<path d="M34.25 13.7777C29.14 12.0802 23.82 11.2227 18.5 11.2227M2.75 13.779C5.5325 12.8515 8.36752 12.1865 11.2375 11.749M36 19.0293C36 9.3693 28.16 1.5293 18.5 1.5293C8.84 1.5293 1 9.3693 1 19.0293C1 28.6893 8.84 36.5293 18.5 36.5293M11.501 3.2793H13.251C9.83853 13.4993 9.83853 24.5593 13.251 34.7793H11.501M23.75 3.2793C25.4475 8.3893 26.305 13.7093 26.305 19.0293M2.75 26.0293V24.2793C7.86 25.9768 13.18 26.8343 18.5 26.8343M30.2253 26.4668C30.7503 28.3568 32.2203 29.8268 34.1103 30.3518M31.1176 25.576L24.9226 31.771C24.6776 32.016 24.4501 32.471 24.3976 32.8035L24.0651 35.166C23.9426 36.0235 24.5376 36.6185 25.3951 36.496L27.7576 36.1635C28.0901 36.111 28.5626 35.8835 28.7901 35.6385L34.9851 29.4435C36.0526 28.376 36.5601 27.1335 34.9851 25.5585C33.4276 24.001 32.1851 24.5085 31.1176 25.576Z" stroke="white" stroke-width="1.5" stroke-miterlimit="10" stroke-linecap="round" stroke-linejoin="round"/>
</svg>
