<svg width="344" height="123" viewBox="0 0 344 123" fill="none" xmlns="http://www.w3.org/2000/svg">
<path d="M44.6157 122C70.5898 65.2839 121.873 36.3298 144.049 38.9494C227.945 74.986 343.304 1 343.304 1C262.651 50.6474 179.961 58.7279 139.78 25.6851C87.6657 -18.7924 48.8015 36.607 39.5706 40.377C30.3397 44.147 17.3942 31.3124 17.3942 31.3124V34.4864L12.9451 33.1835C12.9451 33.1835 21.774 40.3216 14.5667 40.571C7.35938 40.8205 7.02672 48.61 5.26647 51.1325C4.09694 52.7837 2.69666 54.2587 1.1084 55.5124C1.1084 55.5124 4.11607 59.4903 8.34345 57.7023C12.5708 55.9143 26.3618 48.9703 35.9808 55.2075C45.5998 61.4446 56.8959 58.5339 56.8959 58.5339" stroke="#F49AC1" stroke-opacity="0.3" stroke-width="1.38602" stroke-linecap="round" stroke-linejoin="round"/>
</svg>
