<svg width="22" height="31" viewBox="0 0 22 31" fill="none" xmlns="http://www.w3.org/2000/svg">
<path d="M16.8083 1.26054C17.0882 1.32021 17.3685 1.37814 17.6489 1.43533C17.8526 1.47708 18.056 1.51989 18.2594 1.56299C18.3529 1.58263 18.4466 1.6019 18.5403 1.62073C19.5979 1.83421 20.5545 2.25804 21.1907 3.16747C21.823 4.15973 21.8297 5.21987 21.8246 6.35719C21.8248 6.50774 21.8252 6.65829 21.8256 6.80884C21.8264 7.17296 21.826 7.53707 21.8251 7.90119C21.824 8.32635 21.8242 8.75151 21.8245 9.17668C21.8248 9.93584 21.8239 10.695 21.8224 11.4542C21.8209 12.1888 21.8205 12.9233 21.8211 13.6579C21.8218 14.4604 21.8219 15.2629 21.821 16.0654C21.8209 16.1512 21.8208 16.2369 21.8208 16.3227C21.8207 16.3648 21.8207 16.407 21.8206 16.4505C21.8203 16.746 21.8204 17.0415 21.8207 17.337C21.821 17.7355 21.8204 18.134 21.819 18.5325C21.8187 18.6782 21.8186 18.8239 21.8189 18.9696C21.8214 20.2539 21.7511 21.3897 20.8126 22.3673C20.0843 23.0653 19.2879 23.3874 18.2851 23.4244C18.2306 23.4268 18.1761 23.4292 18.1199 23.4317C17.9871 23.4376 17.8542 23.4428 17.7213 23.4479C17.8242 23.7026 17.9271 23.9572 18.0301 24.2119C18.1231 24.4416 18.2159 24.6714 18.3086 24.9013C18.5587 25.5205 18.8105 26.139 19.066 26.756C19.1926 27.0618 19.3187 27.3679 19.4448 27.6739C19.5067 27.8238 19.5689 27.9736 19.6314 28.1233C19.7197 28.335 19.807 28.547 19.8943 28.7591C19.9339 28.8533 19.9339 28.8533 19.9744 28.9493C20.3152 29.7846 20.3152 29.7846 20.1683 30.186C20.005 30.2999 19.8619 30.3063 19.6655 30.3093C19.538 30.276 19.538 30.276 19.2874 30.0255C19.0807 29.5087 18.874 28.9918 18.661 28.4594C13.8236 28.4594 8.98629 28.4594 4.00235 28.4594C3.79563 28.9762 3.58891 29.493 3.37592 30.0255C3.12534 30.276 3.12534 30.276 2.99785 30.3093C2.80147 30.3063 2.65837 30.2999 2.49499 30.186C2.33117 29.7382 2.56184 29.2518 2.73724 28.8387C2.77403 28.7495 2.77403 28.7495 2.81156 28.6586C2.89201 28.464 2.97344 28.2699 3.05487 28.0757C3.11101 27.9403 3.16706 27.8049 3.22304 27.6695C3.31003 27.4591 3.39707 27.2487 3.48438 27.0384C3.77602 26.3357 4.06143 25.6306 4.34586 24.925C4.42459 24.7297 4.50341 24.5344 4.58227 24.3392C4.70225 24.0421 4.82215 23.745 4.94201 23.4479C4.8209 23.443 4.8209 23.443 4.69734 23.438C4.58982 23.4332 4.48231 23.4283 4.37479 23.4234C4.29525 23.4203 4.29525 23.4203 4.2141 23.4171C3.14258 23.3664 2.34353 22.898 1.62116 22.1223C1.01264 21.395 0.850285 20.5161 0.853416 19.5919C0.853132 19.5291 0.852848 19.4663 0.852556 19.4016C0.851769 19.1931 0.851865 18.9846 0.851969 18.7761C0.851593 18.6258 0.851167 18.4755 0.850694 18.3252C0.849704 17.9605 0.849309 17.5957 0.849239 17.231C0.849179 16.9341 0.848921 16.6373 0.848525 16.3405C0.847423 15.4969 0.846843 14.6532 0.846937 13.8096C0.846942 13.7642 0.846947 13.7189 0.846952 13.6721C0.846957 13.6267 0.846962 13.5812 0.846968 13.5344C0.847019 12.7987 0.84582 12.063 0.844053 11.3273C0.842248 10.5698 0.841389 9.81234 0.841497 9.05488C0.841539 8.63043 0.841202 8.20599 0.839845 7.78155C0.838627 7.38208 0.838627 6.98262 0.839535 6.58315C0.839665 6.4372 0.839374 6.29124 0.838612 6.14529C0.832153 4.82072 0.954115 3.67295 1.90966 2.66804C2.6388 1.97559 3.53479 1.74424 4.49592 1.54363C4.59008 1.52351 4.68423 1.50334 4.77836 1.48312C4.9746 1.44113 5.17092 1.39958 5.36732 1.35839C5.61519 1.30639 5.86285 1.25346 6.11046 1.20024C9.80208 0.407656 13.1164 0.472472 16.8083 1.26054ZM10.1845 1.50301C10.1159 1.50636 10.0473 1.50971 9.97663 1.51317C8.53216 1.60469 7.09505 1.94527 5.6835 2.24937C5.47725 2.29357 5.27084 2.33682 5.0643 2.37963C4.86208 2.42184 4.66018 2.46551 4.45823 2.50898C4.3856 2.52387 4.31296 2.53876 4.23812 2.5541C3.4716 2.72288 2.80001 3.01915 2.31097 3.65247C1.91986 4.28329 1.79045 4.8756 1.79349 5.60863C1.79313 5.7018 1.79313 5.7018 1.79277 5.79685C1.79212 6.00372 1.79237 6.21057 1.79262 6.41744C1.79235 6.56627 1.79202 6.71511 1.79165 6.86395C1.79081 7.26738 1.79077 7.67081 1.79093 8.07425C1.79101 8.32651 1.79085 8.57877 1.79062 8.83103C1.79058 8.87298 1.79054 8.91494 1.79051 8.95817C1.79043 9.04341 1.79035 9.12866 1.79028 9.21391C1.7896 10.0124 1.78973 10.8109 1.79011 11.6093C1.79044 12.3386 1.78973 13.0678 1.78854 13.797C1.78733 14.5471 1.78681 15.2972 1.78705 16.0473C1.78717 16.4679 1.787 16.8884 1.78612 17.309C1.78533 17.7047 1.78546 18.1003 1.78628 18.496C1.78642 18.6409 1.78625 18.7857 1.78574 18.9305C1.78215 20.0107 1.79349 20.9123 2.55201 21.7607C2.94267 22.1321 3.52176 22.4524 4.07025 22.4542C4.12253 22.4545 4.17481 22.4548 4.22868 22.4551C4.28611 22.4552 4.34355 22.4552 4.40273 22.4552C4.46376 22.4555 4.52478 22.4558 4.58765 22.4561C4.79308 22.4569 4.99851 22.4573 5.20395 22.4577C5.35088 22.4582 5.49781 22.4587 5.64474 22.4592C6.1282 22.4609 6.61167 22.4618 7.09514 22.4627C7.26156 22.463 7.42799 22.4634 7.59441 22.4637C8.28683 22.4651 8.97925 22.4663 9.67167 22.467C9.85136 22.4671 10.031 22.4673 10.2107 22.4675C10.2777 22.4676 10.2777 22.4676 10.3461 22.4677C11.0686 22.4684 11.7912 22.4705 12.5137 22.4731C13.2562 22.4758 13.9986 22.4773 14.7411 22.4776C15.1577 22.4778 15.5743 22.4786 15.9909 22.4806C16.3831 22.4825 16.7754 22.4829 17.1676 22.4822C17.3113 22.4821 17.4549 22.4827 17.5985 22.4838C18.5881 22.4909 19.3082 22.4357 20.0898 21.767C20.4549 21.4058 20.6653 20.9987 20.7909 20.5036C20.8017 20.4618 20.8126 20.42 20.8238 20.377C20.8663 20.1101 20.8626 19.847 20.8623 19.5771C20.8625 19.5149 20.8627 19.4527 20.8629 19.3886C20.8634 19.18 20.8635 18.9713 20.8636 18.7627C20.8639 18.6131 20.8642 18.4636 20.8645 18.3141C20.8654 17.9077 20.8658 17.5013 20.8661 17.0948C20.8662 16.8409 20.8665 16.5869 20.8668 16.3329C20.8675 15.6291 20.8682 14.9254 20.8684 14.2216C20.8684 14.1766 20.8684 14.1316 20.8684 14.0852C20.8684 14.0401 20.8685 13.9949 20.8685 13.9485C20.8685 13.857 20.8685 13.7656 20.8686 13.6742C20.8686 13.6288 20.8686 13.5834 20.8686 13.5367C20.8689 12.8024 20.8699 12.068 20.8714 11.3337C20.8729 10.579 20.8737 9.82432 20.8737 9.06963C20.8738 8.6462 20.8742 8.22278 20.8753 7.79936C20.8763 7.40088 20.8765 7.0024 20.8759 6.60391C20.8759 6.45793 20.8761 6.31194 20.8768 6.16596C20.8776 5.96609 20.8772 5.76625 20.8765 5.56638C20.877 5.50913 20.8775 5.45188 20.8781 5.39289C20.872 4.59104 20.6027 3.91533 20.0626 3.32359C19.4931 2.79973 18.7841 2.62756 18.046 2.47717C17.9516 2.45717 17.8573 2.43709 17.7629 2.41693C17.5661 2.3751 17.3691 2.33394 17.172 2.29332C16.923 2.24201 16.6743 2.18955 16.4257 2.13665C15.1298 1.86111 13.8435 1.58984 12.518 1.51084C12.442 1.50571 12.3659 1.50059 12.2876 1.4953C11.5814 1.4498 10.8906 1.459 10.1845 1.50301ZM6.00695 23.3852C5.74912 23.9042 5.74912 23.9042 5.63109 24.4502C9.39347 24.4502 13.1559 24.4502 17.0322 24.4502C16.8644 23.8478 16.8644 23.8478 16.6564 23.3852C13.1421 23.3852 9.62776 23.3852 6.00695 23.3852ZM5.19258 25.3898C4.64236 26.4268 4.64236 26.4268 4.37822 27.5197C8.96749 27.5197 13.5568 27.5197 18.2851 27.5197C18.0667 26.7917 17.7631 26.0915 17.4708 25.3898C13.419 25.3898 9.36716 25.3898 5.19258 25.3898Z" fill="white"/>
<path d="M3.76785 4.95968C3.82258 4.95944 3.87732 4.9592 3.93371 4.95895C3.99388 4.959 4.05406 4.95906 4.11606 4.95911C4.17995 4.95893 4.24384 4.95874 4.30967 4.95855C4.52478 4.958 4.73989 4.95791 4.955 4.95782C5.10882 4.95753 5.26263 4.95721 5.41644 4.95687C5.83501 4.95605 6.25358 4.95565 6.67215 4.95537C6.93345 4.9552 7.19475 4.95493 7.45605 4.95465C8.17937 4.95388 8.90269 4.95324 9.62601 4.95303C9.67231 4.95301 9.71861 4.953 9.76631 4.95299C9.83592 4.95297 9.83592 4.95297 9.90693 4.95294C10.001 4.95292 10.095 4.95289 10.1891 4.95286C10.2357 4.95285 10.2823 4.95283 10.3304 4.95282C11.0865 4.95257 11.8426 4.95148 12.5986 4.95002C13.3747 4.94853 14.1507 4.94775 14.9268 4.94768C15.3626 4.94762 15.7984 4.94726 16.2342 4.94613C16.644 4.94506 17.0538 4.94496 17.4636 4.94551C17.6142 4.94556 17.7648 4.94528 17.9154 4.94466C18.1206 4.94387 18.3258 4.94423 18.531 4.94489C18.6208 4.94413 18.6208 4.94413 18.7125 4.94336C19.0143 4.94562 19.2355 4.94949 19.4752 5.15584C19.5339 5.33207 19.5458 5.43923 19.5462 5.62153C19.5464 5.67835 19.5467 5.73518 19.547 5.79372C19.547 5.85591 19.5469 5.91811 19.5469 5.98218C19.5472 6.0806 19.5472 6.0806 19.5475 6.18101C19.5481 6.39843 19.5483 6.61585 19.5483 6.83327C19.5485 6.98409 19.5487 7.1349 19.549 7.28572C19.5493 7.60206 19.5494 7.91839 19.5494 8.23473C19.5494 8.64052 19.5503 9.04631 19.5513 9.45211C19.552 9.76364 19.5522 10.0752 19.5521 10.3867C19.5522 10.5363 19.5525 10.686 19.553 10.8356C19.5536 11.0447 19.5534 11.2537 19.553 11.4628C19.5534 11.5248 19.5537 11.5869 19.5541 11.6509C19.5537 11.7364 19.5537 11.7364 19.5533 11.8236C19.5533 11.873 19.5534 11.9224 19.5534 11.9733C19.5357 12.128 19.4947 12.2281 19.4125 12.3599C19.2676 12.4323 19.1851 12.4305 19.0238 12.4307C18.9405 12.4311 18.9405 12.4311 18.8555 12.4315C18.7941 12.4314 18.7326 12.4314 18.6694 12.4313C18.6044 12.4315 18.5395 12.4317 18.4725 12.4319C18.2535 12.4324 18.0344 12.4325 17.8154 12.4326C17.6589 12.4329 17.5024 12.4332 17.3459 12.4335C16.9199 12.4344 16.4938 12.4348 16.0677 12.4351C15.8018 12.4352 15.5359 12.4355 15.2701 12.4358C14.5343 12.4365 13.7986 12.4372 13.0629 12.4374C13.0158 12.4374 12.9687 12.4374 12.9201 12.4374C12.8729 12.4374 12.8257 12.4375 12.777 12.4375C12.6813 12.4375 12.5857 12.4375 12.49 12.4376C12.4425 12.4376 12.395 12.4376 12.3461 12.4376C11.5766 12.4378 10.8071 12.4389 10.0375 12.4404C9.24804 12.4419 8.45854 12.4427 7.66903 12.4427C7.22552 12.4428 6.78202 12.4432 6.33851 12.4443C5.92157 12.4454 5.50464 12.4455 5.0877 12.4449C4.93433 12.4449 4.78097 12.4451 4.6276 12.4458C4.41891 12.4465 4.21024 12.4462 4.00155 12.4455C3.94027 12.446 3.87899 12.4465 3.81586 12.4471C3.73227 12.4464 3.73227 12.4464 3.647 12.4458C3.5988 12.4458 3.55061 12.4459 3.50095 12.4459C3.34187 12.4162 3.2881 12.3589 3.1878 12.2346C3.11466 12.0883 3.11697 12.0025 3.11635 11.8395C3.116 11.7828 3.11564 11.7262 3.11527 11.6678C3.1152 11.6055 3.11513 11.5432 3.11506 11.479C3.11475 11.4135 3.11444 11.348 3.11412 11.2805C3.1132 11.063 3.11277 10.8456 3.11243 10.6281C3.11207 10.4774 3.11171 10.3266 3.11135 10.1758C3.11069 9.8594 3.11032 9.54295 3.1101 9.2265C3.10976 8.82078 3.10825 8.41507 3.10647 8.00935C3.10531 7.69782 3.10498 7.38629 3.10488 7.07475C3.10469 6.92517 3.10419 6.77559 3.10337 6.62601C3.1023 6.41679 3.10242 6.20761 3.10282 5.9984C3.10225 5.93646 3.10167 5.87452 3.10107 5.8107C3.10437 5.26986 3.10437 5.26986 3.31308 5.03055C3.48647 4.97276 3.58909 4.95997 3.76785 4.95968ZM4.06481 5.90757C4.06481 7.74741 4.06481 9.58726 4.06481 11.4829C8.86081 11.4829 13.6568 11.4829 18.5981 11.4829C18.5981 9.64301 18.5981 7.80316 18.5981 5.90757C13.8021 5.90757 9.00614 5.90757 4.06481 5.90757Z" fill="white"/>
<path d="M17.7429 15.5126C18.3997 15.9281 18.8029 16.4519 19.0046 17.2008C19.1286 17.8664 19.0474 18.5168 18.687 19.0967C18.2818 19.6424 17.7789 20.0637 17.0944 20.1905C16.2888 20.2421 15.6015 20.1973 14.9506 19.6661C14.4346 19.1932 14.1324 18.6406 14.0714 17.9371C14.0464 17.2378 14.2024 16.6529 14.6616 16.1163C14.6996 16.0757 14.7375 16.0352 14.7766 15.9934C14.8094 15.958 14.8422 15.9227 14.876 15.8862C15.6114 15.1795 16.8424 15.0648 17.7429 15.5126ZM15.4508 16.6774C15.1616 17.0191 14.9707 17.4001 15.0013 17.8546C15.0932 18.363 15.3052 18.7474 15.7163 19.063C16.107 19.3052 16.5187 19.2994 16.9692 19.2509C17.3913 19.1403 17.6614 18.846 17.9088 18.4992C18.1276 18.1111 18.1656 17.7646 18.0556 17.3371C17.8886 16.8626 17.6337 16.5552 17.1923 16.3145C16.5265 16.1042 15.9668 16.1801 15.4508 16.6774Z" fill="white"/>
<path d="M7.28197 15.5126C7.94193 15.9302 8.34009 16.4533 8.5439 17.2044C8.68341 17.9431 8.52355 18.599 8.12399 19.2264C7.75182 19.7226 7.24808 20.0749 6.63351 20.1905C5.82786 20.2421 5.14059 20.1973 4.48968 19.6661C3.97363 19.1932 3.67148 18.6406 3.61046 17.9371C3.58546 17.2378 3.74151 16.6529 4.20068 16.1163C4.23864 16.0757 4.27659 16.0352 4.31569 15.9934C4.34848 15.958 4.38126 15.9227 4.41504 15.8862C5.1505 15.1795 6.38145 15.0648 7.28197 15.5126ZM4.98985 16.6774C4.70068 17.0191 4.50981 17.4001 4.54033 17.8546C4.63229 18.363 4.84431 18.7474 5.25535 19.063C5.64603 19.3052 6.05778 19.2994 6.50822 19.2509C6.93039 19.1403 7.20051 18.846 7.44788 18.4992C7.66663 18.1111 7.70468 17.7646 7.5947 17.3371C7.42768 16.8626 7.17275 16.5552 6.73139 16.3145C6.06555 16.1042 5.5059 16.1801 4.98985 16.6774Z" fill="white"/>
<path d="M9.10008 2.8135C9.15357 2.81317 9.20707 2.81284 9.26218 2.8125C9.43924 2.81167 9.61626 2.81222 9.79332 2.81286C9.9162 2.81273 10.0391 2.81255 10.1619 2.81231C10.4196 2.81203 10.6772 2.81244 10.9348 2.81332C11.2653 2.81439 11.5958 2.81377 11.9264 2.81264C12.1801 2.81197 12.4339 2.81218 12.6876 2.81267C12.8095 2.81279 12.9314 2.81264 13.0533 2.8122C13.2235 2.81173 13.3937 2.81245 13.5639 2.8135C13.6145 2.81312 13.6651 2.81274 13.7172 2.81235C14.0576 2.81624 14.0576 2.81624 14.2135 2.92572C14.2917 3.05037 14.3014 3.12968 14.2998 3.27632C14.3005 3.34028 14.3005 3.34028 14.3012 3.40553C14.2667 3.57361 14.2302 3.61523 14.0883 3.71483C13.909 3.73338 13.7433 3.74049 13.5639 3.73915C13.4837 3.73964 13.4837 3.73964 13.4018 3.74014C13.2248 3.74097 13.0478 3.74042 12.8707 3.73979C12.7478 3.73991 12.6249 3.7401 12.5021 3.74033C12.2444 3.74061 11.9868 3.74021 11.7292 3.73933C11.3987 3.73826 11.0682 3.73887 10.7377 3.74C10.4839 3.74068 10.2301 3.74046 9.97639 3.73998C9.8545 3.73985 9.73261 3.74001 9.61073 3.74044C9.4405 3.74092 9.27031 3.74019 9.10008 3.73915C9.0495 3.73953 8.99893 3.73991 8.94682 3.7403C8.60642 3.73641 8.60642 3.73641 8.4505 3.62693C8.37231 3.50228 8.36259 3.42297 8.36426 3.27632C8.36378 3.23369 8.36329 3.19105 8.36279 3.14712C8.44141 2.76482 8.77745 2.81107 9.10008 2.8135Z" fill="white"/>
</svg>
