<?xml version="1.0" encoding="UTF-8"?> <svg xmlns="http://www.w3.org/2000/svg" width="40" height="40" viewBox="0 0 40 40" fill="none"> <g clip-path="url(#clip0_2641_271)"> <circle cx="20" cy="20" r="20" fill="#191A23"></circle> <g clip-path="url(#clip1_2641_271)"> <path d="M29.1498 25.1525C29.0667 24.3998 28.6511 23.8143 27.9861 23.3961L24.9937 21.6396C24.0794 21.1377 22.9157 21.305 22.1676 21.9742L21.8351 22.3087C20.2558 21.305 18.6765 19.7158 17.679 18.1266L18.0115 17.7921C18.7596 17.1229 18.9259 15.952 18.4271 15.0319L16.6816 12.0208C16.3491 11.3517 15.6841 10.9335 14.936 10.8498C14.2711 10.7662 13.523 11.0171 13.0243 11.519L12.0268 12.5227C10.8631 13.6936 10.5306 15.2828 11.1125 16.7047C11.9437 18.6285 13.3567 21.4723 15.9335 24.0652C18.5103 26.6581 21.3364 28.1636 23.2482 28.9164C23.7469 29.0837 24.2456 29.1673 24.6612 29.1673C25.6587 29.1673 26.6561 28.7491 27.4042 27.9963L28.4017 26.9926C28.9835 26.5744 29.2329 25.8217 29.1498 25.1525Z" fill="white"></path> <path fill-rule="evenodd" clip-rule="evenodd" d="M23.6362 16.3625C23.1717 15.898 22.452 15.7259 21.9291 15.9002C21.4925 16.0457 21.0206 15.8098 20.875 15.3731C20.7295 14.9365 20.9654 14.4646 21.4021 14.319C22.5857 13.9245 23.9519 14.3212 24.8147 15.184C25.6775 16.0468 26.0742 17.413 25.6797 18.5966C25.5341 19.0333 25.0622 19.2692 24.6256 19.1237C24.189 18.9781 23.953 18.5062 24.0985 18.0696C24.2728 17.5467 24.1007 16.827 23.6362 16.3625Z" fill="white"></path> <path fill-rule="evenodd" clip-rule="evenodd" d="M25.8133 14.1888C24.3236 12.6991 22.1583 12.175 20.2182 12.6973C19.7737 12.817 19.3165 12.5537 19.1968 12.1093C19.0772 11.6649 19.3405 11.2076 19.7849 11.0879C22.2827 10.4154 25.0676 11.0861 26.9918 13.0103C28.916 14.9345 29.5866 17.7193 28.9141 20.2172C28.7945 20.6616 28.3372 20.9249 27.8928 20.8052C27.4484 20.6856 27.1851 20.2283 27.3048 19.7839C27.8271 17.8438 27.3029 15.6785 25.8133 14.1888Z" fill="white"></path> </g> </g> <defs> <clipPath id="clip0_2641_271"> <rect width="40" height="40" fill="white"></rect> </clipPath> <clipPath id="clip1_2641_271"> <rect width="20" height="20" fill="white" transform="translate(10 10)"></rect> </clipPath> </defs> </svg> 