<svg width="23" height="21" viewBox="0 0 23 21" fill="none" xmlns="http://www.w3.org/2000/svg">
<path d="M17.5 19.5C17.5 17.3783 16.6571 15.3434 15.1569 13.8431C13.6566 12.3429 11.6217 11.5 9.5 11.5M9.5 11.5C7.37827 11.5 5.34344 12.3429 3.84315 13.8431C2.34285 15.3434 1.5 17.3783 1.5 19.5M9.5 11.5C12.2614 11.5 14.5 9.26142 14.5 6.5C14.5 3.73858 12.2614 1.5 9.5 1.5C6.73858 1.5 4.5 3.73858 4.5 6.5C4.5 9.26142 6.73858 11.5 9.5 11.5ZM21.4998 18.5002C21.4998 15.1302 19.4998 12.0002 17.4998 10.5002C18.1572 10.007 18.6829 9.35928 19.0304 8.61446C19.3778 7.86965 19.5363 7.05066 19.4918 6.23C19.4473 5.40933 19.2012 4.61228 18.7753 3.90939C18.3493 3.20651 17.7567 2.61946 17.0498 2.2002" stroke="#1C3D6E" stroke-width="1.5" stroke-linecap="round" stroke-linejoin="round"/>
</svg>
