<svg width="42" height="49" viewBox="0 0 42 49" fill="none" xmlns="http://www.w3.org/2000/svg">
<path d="M37.697 0.143157C38.4364 0.688929 38.8433 1.52058 39.2906 2.30131C39.362 2.42475 39.4334 2.54815 39.505 2.6715C39.6106 2.85359 39.7161 3.0357 39.8214 3.21796C40.0768 3.66021 40.3373 4.09908 40.602 4.5359C40.6643 4.64021 40.7267 4.74451 40.7909 4.85198C40.8962 5.02669 41.0034 5.20029 41.1128 5.37241C41.3267 5.72151 41.4233 5.9127 41.437 6.32946C41.2101 6.97229 40.4827 7.24237 39.9198 7.57025C40.0478 7.91448 40.2072 8.21447 40.3961 8.52877C40.7475 9.17028 40.8622 9.73534 40.6843 10.4517C40.3362 11.3071 39.4128 11.7811 38.6438 12.21C38.4431 12.3245 38.2426 12.4392 38.0421 12.554C37.9353 12.6149 37.8285 12.6758 37.7184 12.7385C37.1073 13.0884 36.5028 13.4495 35.8976 13.8095C35.8339 13.8473 35.7703 13.8851 35.7048 13.924C34.6959 14.5233 33.6913 15.1295 32.689 15.7398C31.5898 16.4092 30.4863 17.0711 29.3819 17.7318C29.5116 18.0805 29.6709 18.3877 29.8634 18.7057C29.9205 18.8014 29.9777 18.8971 30.0365 18.9957C30.1557 19.194 30.2752 19.3919 30.3952 19.5897C30.8727 20.3922 31.2878 21.2086 31.3578 22.1539C31.3675 22.2762 31.3772 22.3984 31.3872 22.5244C31.3631 23.9342 30.7953 25.1189 29.799 26.0965C29.3642 26.4713 28.87 26.7513 28.3764 27.0406C28.2604 27.1097 28.1445 27.1789 28.0287 27.2482C27.6653 27.4649 27.3006 27.6793 26.9356 27.8933C26.8764 27.9281 26.8171 27.9629 26.756 27.9987C26.4051 28.2046 26.0539 28.4102 25.7027 28.6157C25.2038 28.9075 24.7053 29.1999 24.2071 29.4928C24.1078 29.5511 24.0085 29.6094 23.9061 29.6695C23.6331 29.8306 23.3613 29.9936 23.0898 30.1573C23.0116 30.2032 22.9333 30.2491 22.8528 30.2963C22.0248 30.8015 21.49 31.4193 21.2257 32.3566C21.1456 33.0128 21.2238 33.5678 21.3896 34.2005C21.41 34.2815 21.4305 34.3624 21.4515 34.4458C21.4956 34.6197 21.5401 34.7935 21.585 34.9672C21.6558 35.2415 21.7255 35.516 21.7949 35.7906C22.0061 36.6239 22.2214 37.4561 22.4417 38.2871C22.5296 38.619 22.6167 38.951 22.7039 39.2831C22.7649 39.5137 22.8274 39.7438 22.89 39.9739C23.3874 41.8385 23.3874 41.8385 23.0133 42.6946C22.9839 42.766 22.9544 42.8374 22.924 42.911C22.5661 43.5377 22.1402 43.8494 21.5256 44.2C21.4448 44.2472 21.3641 44.2945 21.2809 44.3432C21.1012 44.4483 20.9211 44.5529 20.7408 44.6571C20.4217 44.8419 20.1036 45.0283 19.7857 45.2151C19.437 45.42 19.0882 45.6249 18.739 45.8289C18.1056 46.1991 17.4739 46.5716 16.8441 46.9478C16.5144 47.1441 16.1832 47.3379 15.8515 47.5308C15.6719 47.6361 15.4942 47.744 15.3165 47.8525C14.5942 48.2644 13.9273 48.3356 13.1047 48.2164C12.4458 48.0185 11.9713 47.662 11.5993 47.0873C11.1525 46.2104 10.9646 45.2075 10.7245 44.2599C10.6765 44.0721 10.6283 43.8842 10.5801 43.6964C10.4781 43.2983 10.3764 42.9 10.275 42.5017C10.117 41.8811 9.95794 41.2608 9.79865 40.6405C9.58725 39.817 9.37604 38.9934 9.16514 38.1698C9.13994 38.0714 9.11474 37.973 9.08878 37.8716C8.97271 37.4183 8.85667 36.965 8.74066 36.5117C8.54037 35.7293 8.33961 34.9469 8.13683 34.1651C8.05822 33.8619 7.98013 33.5586 7.9028 33.2551C7.81906 32.9266 7.73403 32.5984 7.64866 32.2703C7.62514 32.1766 7.60162 32.0829 7.57739 31.9865C7.40883 31.3471 7.24098 30.8988 6.68903 30.4984C6.2878 30.3139 5.88256 30.3078 5.44824 30.2926C4.39991 30.2551 3.6792 29.9836 2.94314 29.2106C2.66866 28.8837 2.44273 28.5496 2.22719 28.1815C2.18055 28.1022 2.18055 28.1022 2.13296 28.0214C2.03416 27.8535 1.93586 27.6852 1.83761 27.517C1.70891 27.2973 1.57997 27.0778 1.45096 26.8583C1.41916 26.8041 1.38736 26.7498 1.35459 26.6939C1.1902 26.4144 1.02331 26.1368 0.851702 25.8616C0.817604 25.8069 0.783505 25.7522 0.748374 25.6959C0.654118 25.5453 0.559285 25.3951 0.464415 25.2449C0.00279608 24.4495 -0.0929708 23.6143 0.0815381 22.7174C0.475428 21.3062 1.56741 20.6803 2.75497 19.9899C2.90563 19.9006 3.05619 19.8112 3.20666 19.7216C3.54638 19.5197 3.88664 19.3188 4.2273 19.1185C4.91741 18.7126 5.60643 18.3049 6.29504 17.8964C6.35918 17.8584 6.42332 17.8204 6.48941 17.7812C7.44102 17.2166 8.38809 16.645 9.33263 16.0687C10.2179 15.5289 11.1102 15.0021 12.0059 14.4799C12.8517 13.9865 13.6918 13.4844 14.5278 12.9744C15.6914 12.2648 16.8622 11.5679 18.0357 10.8748C18.6485 10.5128 19.261 10.1502 19.8731 9.7872C19.9366 9.74961 20 9.71201 20.0653 9.67328C21.0079 9.11415 21.9459 8.54786 22.8815 7.97704C23.7667 7.43728 24.6589 6.91051 25.5546 6.38831C26.4004 5.89489 27.2405 5.39279 28.0765 4.88285C29.2378 4.17464 30.4062 3.47904 31.5774 2.78732C32.1597 2.44343 32.7417 2.09912 33.3234 1.75434C33.5158 1.64038 33.7083 1.52661 33.9008 1.41284C34.5298 1.04039 35.1522 0.661705 35.7638 0.260974C36.3285 -0.0808437 37.0826 -0.0502726 37.697 0.143157ZM36.0141 1.89004C35.9542 1.92586 35.8943 1.96168 35.8327 1.99858C35.6362 2.11636 35.4405 2.23529 35.2448 2.35423C35.1077 2.43676 34.9704 2.51921 34.8332 2.60158C34.4897 2.80791 34.1468 3.01511 33.8041 3.22255C33.4422 3.44131 33.0793 3.65856 32.7166 3.87598C32.5307 3.98743 32.3449 4.09899 32.1591 4.21066C31.2959 4.72946 30.4297 5.24332 29.5634 5.75703C28.6388 6.30531 27.7161 6.85642 26.795 7.41042C26.2571 7.73362 25.7183 8.05527 25.1785 8.37514C25.085 8.43056 25.085 8.43056 24.9895 8.48709C24.8618 8.56278 24.734 8.63847 24.6062 8.71415C24.5424 8.75195 24.4786 8.78974 24.4129 8.82868C24.3491 8.86646 24.2854 8.90424 24.2196 8.94316C23.2734 9.50391 22.3318 10.0718 21.3929 10.6447C20.5077 11.1845 19.6154 11.7112 18.7197 12.2335C17.8738 12.7269 17.0338 13.229 16.1978 13.7389C15.0342 14.4485 13.8634 15.1455 12.6899 15.8386C12.0771 16.2005 11.4646 16.5631 10.8524 16.9262C10.789 16.9637 10.7256 17.0013 10.6603 17.0401C9.71796 17.599 8.78014 18.165 7.84497 18.7358C7.05673 19.2167 6.26305 19.6874 5.46518 20.1521C4.61973 20.6448 3.77508 21.1388 2.94314 21.6541C2.87231 21.6971 2.80147 21.74 2.72848 21.7843C2.17898 22.1295 1.70665 22.5373 1.53182 23.1889C1.45991 24.33 2.31034 25.3818 2.87846 26.3232C2.93705 26.4204 2.99565 26.5176 3.05602 26.6178C3.13932 26.7538 3.13932 26.7538 3.22431 26.8925C3.27431 26.9743 3.32432 27.0561 3.37584 27.1404C3.49349 27.3404 3.49349 27.3404 3.69585 27.4229C3.8986 27.3214 4.0872 27.2151 4.28023 27.0972C4.3396 27.0618 4.39897 27.0263 4.46014 26.9898C4.65666 26.8722 4.85251 26.7536 5.04837 26.6349C5.18546 26.5526 5.32259 26.4703 5.45975 26.3881C6.37664 25.8379 7.29012 25.282 8.20305 24.7252C9.08853 24.1852 9.98102 23.6582 10.877 23.1359C11.7191 22.6448 12.555 22.1445 13.3869 21.6364C14.2754 21.0938 15.169 20.5612 16.0685 20.0369C16.9617 19.5161 17.8497 18.9877 18.7323 18.4492C19.6677 17.8786 20.6066 17.3143 21.5491 16.7556C21.6117 16.7185 21.6743 16.6814 21.7388 16.6431C22.2491 16.3406 22.7596 16.0385 23.2701 15.7363C23.7158 15.4725 24.1614 15.2086 24.607 14.9444C24.6692 14.9075 24.7315 14.8706 24.7956 14.8326C25.6387 14.3326 26.4784 13.8275 27.3153 13.3174C27.7842 13.0318 28.2538 12.7473 28.7233 12.4628C28.8601 12.3797 28.8601 12.3797 28.9997 12.2949C29.246 12.1458 29.4931 11.9983 29.7407 11.8513C29.8103 11.8088 29.88 11.7664 29.9517 11.7226C30.3574 11.4844 30.6892 11.3583 31.1696 11.3338C31.399 11.422 31.399 11.422 31.546 11.616C31.6362 12.0749 31.6362 12.0749 31.546 12.3688C31.0609 12.8857 30.3284 13.2187 29.7212 13.5679C29.4169 13.743 29.1135 13.9198 28.8101 14.0965C28.7478 14.1328 28.6855 14.169 28.6213 14.2064C27.9918 14.5737 27.3693 14.9523 26.7475 15.3325C25.8591 15.8753 24.9654 16.4077 24.066 16.932C23.1628 17.4586 22.2652 17.993 21.3727 18.5374C20.2091 19.247 19.0383 19.944 17.8647 20.6371C17.2519 20.999 16.6395 21.3616 16.0273 21.7247C15.9639 21.7622 15.9005 21.7998 15.8351 21.8386C14.8925 22.3977 13.9545 22.964 13.019 23.5348C12.134 24.0744 11.2419 24.6011 10.3465 25.1232C9.16284 25.8137 7.99219 26.5247 6.82222 27.2382C6.09596 27.6798 5.36626 28.1157 4.63673 28.5519C4.98799 28.7861 5.27093 28.7667 5.67758 28.7754C6.66726 28.8168 7.48694 29.0685 8.21209 29.7751C8.65534 30.3803 8.89333 30.9948 9.0688 31.7175C9.09507 31.8199 9.12134 31.9224 9.1484 32.028C9.20957 32.2669 9.27015 32.5059 9.33007 32.7452C9.44841 33.2164 9.57056 33.6867 9.69274 34.1569C9.96867 35.2199 10.2425 36.2835 10.516 37.3471C10.6187 37.7463 10.7215 38.1455 10.8243 38.5447C10.9006 38.8409 10.9768 39.1371 11.0531 39.4333C11.1532 39.8222 11.2535 40.2111 11.3538 40.5999C11.5695 41.4361 11.7843 42.2725 11.9924 43.1106C12.0774 43.453 12.1632 43.7952 12.249 44.1374C12.2885 44.2959 12.3275 44.4545 12.3662 44.6132C12.4191 44.8302 12.4733 45.0469 12.5277 45.2636C12.5426 45.3262 12.5574 45.3888 12.5727 45.4533C12.7109 45.9935 12.9183 46.3985 13.3869 46.711C14.1222 46.8687 14.6421 46.5317 15.2452 46.1523C15.4454 46.0308 15.6458 45.9094 15.8461 45.7881C15.9511 45.7237 16.056 45.6593 16.1642 45.593C16.6675 45.2854 17.1787 44.9913 17.6887 44.6949C18.1451 44.4291 18.5998 44.1602 19.0548 43.8918C19.2189 43.7951 19.3832 43.6988 19.5476 43.6026C19.8508 43.4245 20.1532 43.245 20.4553 43.065C20.5456 43.0123 20.6359 42.9596 20.729 42.9054C20.8116 42.8557 20.8943 42.806 20.9794 42.7548C21.0512 42.7123 21.1231 42.6698 21.197 42.6259C21.4336 42.4379 21.5431 42.283 21.6667 42.0066C21.6962 41.5142 21.6214 41.0797 21.4955 40.6069C21.4682 40.5006 21.4682 40.5006 21.4403 40.392C21.3804 40.1594 21.3194 39.9271 21.2584 39.6948C21.2163 39.5323 21.1744 39.3699 21.1325 39.2074C21.0223 38.7808 20.9112 38.3544 20.7999 37.9281C20.6648 37.4101 20.5307 36.8919 20.3965 36.3737C20.2922 35.9705 20.1876 35.5674 20.0825 35.1644C20.0632 35.0902 20.0439 35.016 20.024 34.9396C19.9881 34.8017 19.9522 34.6638 19.9161 34.526C19.545 33.0976 19.6405 31.8198 20.3506 30.5024C20.9253 29.7132 21.6509 29.2343 22.4841 28.746C22.6001 28.6769 22.716 28.6077 22.8318 28.5384C23.1952 28.3217 23.5598 28.1073 23.9248 27.8933C23.9841 27.8585 24.0434 27.8238 24.1044 27.7879C24.5702 27.5147 25.0362 27.242 25.5024 26.9694C26.2613 26.5255 27.0194 26.0803 27.7707 25.6234C27.888 25.5534 27.888 25.5534 28.0077 25.482C28.6743 25.0725 29.2497 24.6215 29.5584 23.8828C29.595 23.7981 29.6316 23.7135 29.6694 23.6263C29.9662 22.7946 29.875 22.0277 29.5701 21.213C29.2922 20.6971 28.9723 20.2091 28.6527 19.7183C27.694 18.2373 27.694 18.2373 27.8354 17.279C28.0929 16.7079 28.5583 16.4119 29.0868 16.1088C29.1793 16.0545 29.1793 16.0545 29.2736 15.9992C29.4025 15.9236 29.5315 15.8484 29.6607 15.7733C29.9018 15.6331 30.1416 15.4907 30.3814 15.3482C30.5584 15.243 30.7357 15.138 30.913 15.0331C32.1196 14.3189 33.3215 13.5979 34.5182 12.8672C35.0877 12.5204 35.6593 12.1782 36.2353 11.8424C36.2968 11.8066 36.3582 11.7708 36.4215 11.7338C36.7165 11.562 37.0117 11.3908 37.3075 11.2204C38.4732 10.6526 38.4732 10.6526 39.2612 9.73428C39.1544 9.48072 39.1544 9.48072 38.9966 9.21679C38.9455 9.12656 38.8945 9.03632 38.8419 8.94335C38.7357 8.76488 38.6237 8.58983 38.5085 8.41704C38.1265 8.55756 37.7888 8.74074 37.4383 8.94703C37.3813 8.98048 37.3243 9.01393 37.2655 9.04839C37.1449 9.11926 37.0244 9.19028 36.904 9.26145C36.7242 9.3677 36.5441 9.47349 36.364 9.57918C36.2457 9.64875 36.1275 9.71834 36.0093 9.78794C35.9216 9.83935 35.9216 9.83935 35.8322 9.8918C35.5411 10.0635 35.2541 10.2391 34.9717 10.4248C34.8906 10.4773 34.8906 10.4773 34.8078 10.531C34.6607 10.6269 34.5146 10.7244 34.3686 10.8221C34.0287 10.9851 33.8006 10.9957 33.4277 10.9574C33.1455 10.7692 33.1455 10.7692 33.0631 10.5046C33.0488 10.1391 33.12 10.0268 33.3336 9.73428C33.5642 9.55943 33.5642 9.55943 33.8416 9.39468C33.9456 9.33219 34.0496 9.26971 34.1568 9.20533C34.2705 9.13856 34.3842 9.07181 34.498 9.0051C34.6153 8.93519 34.7326 8.8652 34.8499 8.79512C35.2217 8.57342 35.5948 8.35403 35.9681 8.13478C36.0935 8.06094 36.2189 7.98708 36.3443 7.9132C36.929 7.56887 37.5143 7.22578 38.1005 6.88407C38.6154 6.58371 39.1274 6.27904 39.6376 5.97075C39.2087 5.16398 38.7493 4.37697 38.2822 3.59201C38.1605 3.38743 38.0393 3.1826 37.9181 2.97775C37.8401 2.84646 37.7621 2.71519 37.6841 2.58394C37.6303 2.49294 37.6303 2.49294 37.5754 2.40009C37.3198 1.95166 37.3198 1.95166 37.0031 1.5486C36.5767 1.5486 36.3635 1.67568 36.0141 1.89004Z" fill="white"/>
<path d="M16.4922 27.0464C16.9862 27.2979 17.2639 27.5736 17.4391 28.0995C17.4696 28.2187 17.5001 28.338 17.5315 28.4608C17.5487 28.5271 17.566 28.5934 17.5837 28.6618C17.6408 28.8824 17.6966 29.1034 17.7525 29.3244C17.7927 29.481 17.8331 29.6376 17.8735 29.7942C17.9817 30.2142 18.0889 30.6344 18.1958 31.0548C18.3064 31.4893 18.4179 31.9235 18.5293 32.3578C18.6635 32.8808 18.7975 33.4038 18.9312 33.927C19.1796 34.898 19.4314 35.8679 19.6894 36.8364C19.768 37.1315 19.8461 37.4268 19.9243 37.722C20.0095 38.0436 20.095 38.3651 20.1819 38.6863C20.2602 38.9761 20.337 39.2662 20.4134 39.5565C20.4359 39.6381 20.4585 39.7197 20.4817 39.8037C20.6546 40.4701 20.7938 41.2467 20.4968 41.8947C19.9791 42.6542 18.8748 43.0806 18.0917 43.5354C17.8482 43.6769 17.6048 43.8185 17.3614 43.9602C17.2725 44.0119 17.2725 44.0119 17.1818 44.0647C16.843 44.2622 16.5068 44.4632 16.1728 44.6688C16.101 44.7127 16.0291 44.7566 15.955 44.8018C15.8284 44.8794 15.7024 44.9581 15.5772 45.0379C15.1501 45.298 14.8192 45.3698 14.3282 45.3936C13.8062 45.2432 13.491 44.9987 13.1991 44.5468C13.0894 44.2848 13.0215 44.0179 12.9548 43.7422C12.9344 43.6631 12.914 43.584 12.8929 43.5026C12.8257 43.2409 12.7607 42.9787 12.6956 42.7165C12.6482 42.5306 12.6008 42.3447 12.5532 42.1588C12.4275 41.6669 12.3037 41.1746 12.1804 40.6821C12.0585 40.1968 11.9351 39.7118 11.8117 39.2268C11.6655 38.652 11.5195 38.0772 11.3748 37.5021C11.1364 36.5553 10.8928 35.6104 10.6375 34.6681C10.5888 34.4871 10.5401 34.306 10.4914 34.125C10.4007 33.7882 10.3083 33.4519 10.2148 33.1159C9.68843 31.1864 9.68843 31.1864 9.99535 30.5227C10.4135 29.9088 11.2615 29.5548 11.8936 29.1928C12.0292 29.114 12.1647 29.035 12.3002 28.956C12.5687 28.7993 12.8376 28.6432 13.1067 28.4874C13.6074 28.1971 14.1033 27.8986 14.5987 27.5992C14.7454 27.5106 14.8922 27.4222 15.039 27.3338C15.0977 27.2984 15.1563 27.2629 15.2168 27.2264C15.6288 26.9844 16.0224 26.9937 16.4922 27.0464ZM15.8336 28.6459C15.5736 28.7689 15.5736 28.7689 15.2779 28.9502C15.1942 28.9995 15.1942 28.9995 15.1088 29.0498C14.9266 29.1575 14.745 29.2663 14.5634 29.3751C14.4392 29.4488 14.315 29.5224 14.1908 29.5959C13.2591 30.1488 12.3323 30.7096 11.4114 31.2804C11.563 32.2843 11.8334 33.2601 12.0888 34.2412C12.1376 34.4298 12.1864 34.6184 12.2351 34.8071C12.3634 35.303 12.4921 35.7988 12.6209 36.2946C12.775 36.888 12.9285 37.4815 13.0821 38.075C13.2055 38.5518 13.3291 39.0286 13.4533 39.5052C13.6616 40.3052 13.8689 41.1053 14.0671 41.9079C14.0975 42.0301 14.128 42.1522 14.1585 42.2744C14.2122 42.49 14.2648 42.7059 14.3164 42.922C14.3391 43.0131 14.3619 43.1043 14.3854 43.1982C14.4042 43.2756 14.4229 43.3531 14.4422 43.433C14.4667 43.49 14.4911 43.5471 14.5163 43.6059C14.7987 43.7361 14.7987 43.7361 15.0557 43.5788C15.1584 43.5173 15.261 43.4558 15.3668 43.3924C15.4227 43.3593 15.4786 43.3261 15.5362 43.292C15.7182 43.1839 15.8994 43.0744 16.0806 42.965C16.2045 42.891 16.3285 42.8171 16.4526 42.7434C16.698 42.5972 16.9432 42.4506 17.1882 42.3036C17.6229 42.0428 18.06 41.7863 18.4975 41.5301C18.6226 41.4565 18.7476 41.3829 18.8727 41.3092C18.9565 41.2599 19.0403 41.2105 19.1267 41.1596C19.0714 40.6532 18.9858 40.1692 18.8569 39.676C18.8393 39.6069 18.8217 39.5378 18.8035 39.4666C18.7453 39.2392 18.6864 39.0119 18.6276 38.7846C18.5861 38.6233 18.5447 38.462 18.5034 38.3006C18.3933 37.8716 18.2826 37.4428 18.1718 37.0139C18.0808 36.6614 17.99 36.3088 17.8992 35.9562C17.699 35.1785 17.4983 34.401 17.2973 33.6235C17.1241 32.9536 16.9519 32.2834 16.7806 31.6129C16.6845 31.237 16.5878 30.8612 16.4908 30.4854C16.4488 30.3222 16.407 30.1589 16.3655 29.9956C16.3101 29.7776 16.2537 29.56 16.1971 29.3424C16.1673 29.2264 16.1375 29.1105 16.1068 28.991C16.05 28.7265 16.05 28.7265 15.8336 28.6459Z" fill="white"/>
<path d="M26.1829 18.2551C26.2585 18.2688 26.3342 18.2825 26.4122 18.2967C26.9903 18.5214 27.3191 18.9601 27.6162 19.4838C27.6505 19.5423 27.6847 19.6009 27.72 19.6612C27.7917 19.7842 27.8628 19.9075 27.9335 20.0311C28.041 20.2191 28.1502 20.406 28.2598 20.5928C28.3296 20.7131 28.3993 20.8335 28.4689 20.9539C28.5173 21.0369 28.5173 21.0369 28.5666 21.1215C28.914 21.7322 29.1114 22.3 29.0055 23.0007C28.6597 24.0987 27.8135 24.5448 26.8582 25.0684C26.2041 25.4286 25.5673 25.8163 24.9303 26.2056C24.0561 26.739 23.1804 27.2698 22.3 27.7929C22.1881 27.8595 22.0762 27.9261 21.9644 27.9928C21.8093 28.0854 21.654 28.1775 21.4987 28.2696C21.4105 28.322 21.3223 28.3744 21.2314 28.4284C20.6516 28.7489 19.9132 28.7515 19.278 28.5883C18.6566 28.3112 18.1719 27.7757 17.9207 27.1465C17.8809 27.0198 17.8437 26.8924 17.809 26.7642C17.7898 26.6996 17.7707 26.6349 17.7509 26.5683C17.4741 25.516 17.5468 24.3749 18.0343 23.3958C18.8474 22.0063 20.1691 21.3217 21.5196 20.5309C21.6519 20.453 21.7842 20.3751 21.9165 20.2972C22.1152 20.1801 22.3139 20.0631 22.5127 19.9464C22.9144 19.7104 23.3148 19.4723 23.7141 19.2324C23.8084 19.176 23.9026 19.1195 23.9997 19.0614C24.1718 18.9583 24.3436 18.8549 24.5152 18.751C25.5595 18.1282 25.5595 18.1282 26.1829 18.2551ZM25.3791 19.9858C25.2762 20.0485 25.2762 20.0485 25.1713 20.1124C25.0956 20.1593 25.02 20.2062 24.9421 20.2545C24.7739 20.3572 24.6057 20.4597 24.4374 20.5621C24.3429 20.6198 24.2483 20.6775 24.1509 20.7369C23.7873 20.957 23.422 21.1741 23.0563 21.3905C22.9893 21.4302 22.9224 21.4698 22.8534 21.5106C22.583 21.6706 22.3125 21.8305 22.042 21.9903C21.8504 22.1035 21.6589 22.2169 21.4674 22.3303C21.4104 22.3639 21.3535 22.3975 21.2948 22.4321C20.9402 22.6423 20.5964 22.8636 20.2553 23.0948C20.6199 23.4791 20.8084 23.6383 21.3432 23.6946C21.9283 23.6903 22.4016 23.3592 22.8964 23.0782C23.193 22.9516 23.431 23.0212 23.7366 23.0948C23.9572 23.4258 23.9793 23.5518 23.9247 23.9416C23.5271 24.5096 22.7808 24.8297 22.1349 25.0379C21.0887 25.2219 20.2008 24.9654 19.3144 24.412C18.9933 25.2149 19.0932 25.974 19.4085 26.7642C19.5995 27.0366 19.5995 27.0366 19.8789 27.1406C20.3629 27.1082 20.6924 26.9914 21.1061 26.7436C21.1586 26.7126 21.2111 26.6816 21.2652 26.6496C21.4369 26.5477 21.6076 26.4443 21.7783 26.3408C21.8989 26.2688 22.0196 26.1969 22.1402 26.1251C22.5165 25.9006 22.8913 25.6739 23.2661 25.447C23.3868 25.3741 23.5075 25.3012 23.6283 25.2283C24.192 24.8878 24.7549 24.5459 25.3169 24.2025C25.6673 23.9887 26.0185 23.7767 26.3725 23.5689C26.4395 23.5295 26.5064 23.4901 26.5754 23.4495C26.7425 23.3515 26.9099 23.2544 27.0774 23.1573C27.3329 23.0084 27.3329 23.0084 27.5001 22.7184C27.4983 22.1362 27.1512 21.6841 26.8532 21.2071C26.8022 21.1239 26.7511 21.0406 26.6985 20.9548C26.6031 20.7994 26.5074 20.6442 26.4111 20.4893C26.3143 20.3326 26.2234 20.172 26.1365 20.0096C26.0897 19.941 26.0429 19.8724 25.9947 19.8017C25.694 19.8017 25.6252 19.8339 25.3791 19.9858Z" fill="white"/>
<path d="M6.98916 20.0839C7.37013 20.3751 7.46247 20.7034 7.55957 21.1542C7.57483 21.2203 7.59008 21.2864 7.60579 21.3545C7.63704 21.491 7.66765 21.6277 7.69763 21.7645C7.73949 21.9549 7.78353 22.1446 7.82824 22.3343C7.95305 22.881 8.05536 23.3774 8.02413 23.9416C7.83079 24.2241 7.69705 24.3022 7.3714 24.4061C7.01287 24.4134 6.89149 24.3536 6.61281 24.1297C6.52173 23.8907 6.46245 23.6891 6.41287 23.4417C6.39805 23.3751 6.38322 23.3084 6.36794 23.2397C6.33754 23.1021 6.30796 22.9642 6.27918 22.8262C6.23924 22.6375 6.195 22.4496 6.15046 22.2619C5.87448 21.0781 5.87448 21.0781 5.95419 20.4603C6.25687 20.0953 6.52305 20.0046 6.98916 20.0839Z" fill="white"/>
<path d="M9.43549 18.7667C9.73056 19.0701 9.79974 19.3921 9.8927 19.798C9.91436 19.8923 9.91436 19.8923 9.93646 19.9885C9.96664 20.1211 9.99635 20.2538 10.0256 20.3866C10.0704 20.5886 10.1172 20.7901 10.1643 20.9917C10.1935 21.121 10.2225 21.2504 10.2514 21.3798C10.2777 21.4967 10.304 21.6135 10.3311 21.7339C10.3848 22.1206 10.3866 22.4562 10.1764 22.7948C9.89635 22.9722 9.6704 22.995 9.3414 23.0006C9.02008 22.8073 8.89112 22.6767 8.7556 22.3243C8.72987 22.2082 8.70414 22.0922 8.67763 21.9726C8.66346 21.91 8.64928 21.8474 8.63468 21.7828C8.60521 21.6507 8.57663 21.5184 8.54891 21.3859C8.50659 21.1847 8.46115 20.9843 8.41522 20.7839C8.28198 20.1779 8.17619 19.6681 8.30643 19.0489C8.60884 18.6365 8.96768 18.64 9.43549 18.7667Z" fill="white"/>
<path d="M13.9517 15.9441C14.3302 16.2308 14.4096 16.5182 14.5122 16.9721C14.5336 17.066 14.5336 17.066 14.5555 17.1619C14.5853 17.2941 14.6145 17.4264 14.643 17.5588C14.6865 17.76 14.7326 17.9604 14.7792 18.1609C14.8079 18.2899 14.8365 18.4189 14.865 18.548C14.8907 18.6644 14.9164 18.7808 14.9428 18.9006C14.9964 19.3124 15.0122 19.7163 14.7749 20.0722C14.5519 20.2156 14.4065 20.2597 14.1398 20.2721C13.8543 20.1692 13.8543 20.1692 13.5753 19.9899C13.4511 19.723 13.4511 19.7231 13.3754 19.3901C13.3543 19.2997 13.3543 19.2997 13.3329 19.2074C13.2855 18.9983 13.2423 18.7886 13.199 18.5786C13.1807 18.4954 13.1625 18.4123 13.1436 18.3266C13.0857 18.062 13.0301 17.7971 12.9755 17.5318C12.9574 17.4471 12.9393 17.3624 12.9207 17.2751C12.7712 16.5054 12.7712 16.5054 13.0108 16.1323C13.3608 15.8989 13.5375 15.9005 13.9517 15.9441Z" fill="white"/>
<path d="M11.5052 17.2961C11.7983 17.3883 11.8972 17.5771 12.0697 17.8258C12.1642 18.1091 12.1642 18.1091 12.2299 18.4215C12.2542 18.5355 12.2784 18.6494 12.3034 18.7668C12.3272 18.8851 12.351 19.0035 12.3755 19.1254C12.4007 19.2426 12.4259 19.3598 12.4519 19.4806C12.7678 20.9993 12.7678 20.9993 12.4872 21.4482C12.1646 21.6467 11.9716 21.6481 11.5992 21.5893C11.2063 21.2672 11.0609 21.017 10.9594 20.5231C10.9234 20.3522 10.9234 20.3522 10.8868 20.1778C10.8523 20.0003 10.8523 20.0003 10.8171 19.8193C10.7923 19.702 10.7675 19.5848 10.742 19.464C10.4329 17.9507 10.4329 17.9507 10.7054 17.4964C10.9871 17.3274 11.1823 17.3069 11.5052 17.2961Z" fill="white"/>
</svg>
