<svg width="21" height="13" viewBox="0 0 21 13" fill="none" xmlns="http://www.w3.org/2000/svg">
<path d="M14.1 7.41691L18.8007 10.6087C18.8685 10.6547 18.9472 10.681 19.0285 10.685C19.1098 10.6889 19.1906 10.6704 19.2624 10.6312C19.3342 10.5921 19.3942 10.5339 19.436 10.4628C19.4778 10.3917 19.5 10.3103 19.5 10.2274V2.71441C19.5 2.63376 19.4792 2.55454 19.4395 2.48474C19.3998 2.41493 19.3428 2.35702 19.2742 2.31685C19.2055 2.27668 19.1277 2.25567 19.0485 2.25594C18.9693 2.25622 18.8916 2.27776 18.8232 2.31841L14.1 5.12524M3.3 1H12.3C13.2941 1 14.1 1.82081 14.1 2.83333V10.1667C14.1 11.1792 13.2941 12 12.3 12H3.3C2.30589 12 1.5 11.1792 1.5 10.1667V2.83333C1.5 1.82081 2.30589 1 3.3 1Z" stroke="#1C3D6E" stroke-width="1.5" stroke-linecap="round" stroke-linejoin="round"/>
</svg>
